%
M48
M72
T01C0.01181
T02C0.03200
T03C0.04000
T04C0.04400
T05C0.12598
%
T01
X277750Y174000
X289750Y300000
X58750Y287250
T02
X56000Y253000
X66000Y253000
X76000Y253000
X86000Y253000
X96000Y253000
X106000Y253000
X116000Y253000
X106000Y238000
X96000Y238000
X86000Y238000
X76000Y238000
X66000Y238000
X56000Y238000
X46000Y238000
X36000Y238000
X36000Y253000
X46000Y253000
X46000Y198000
X36000Y198000
X56000Y198000
X66000Y198000
X76000Y198000
X86000Y198000
X96000Y198000
X106000Y198000
X41000Y148000
X41000Y118000
X46000Y103000
X46000Y93000
X46000Y83000
X16000Y83000
X16000Y93000
X16000Y103000
X61000Y38000
X71000Y38000
X216000Y83000
X216000Y93000
X216000Y103000
X241000Y118000
X246000Y103000
X246000Y93000
X246000Y83000
X261000Y38000
X271000Y38000
X241000Y148000
X236000Y198000
X246000Y198000
X256000Y198000
X266000Y198000
X276000Y198000
X286000Y198000
X296000Y198000
X306000Y198000
X306000Y238000
X296000Y238000
X286000Y238000
X276000Y238000
X266000Y238000
X256000Y238000
X246000Y238000
X236000Y238000
X236000Y253000
X246000Y253000
X256000Y253000
X266000Y253000
X276000Y253000
X286000Y253000
X296000Y253000
X306000Y253000
X316000Y253000
T03
X306000Y218000
X296000Y218000
X286000Y218000
X276000Y218000
X266000Y218000
X256000Y218000
X246000Y218000
X236000Y218000
X216000Y183000
X216000Y173000
X181000Y163000
X171000Y163000
X161000Y163000
X131000Y163000
X131000Y173000
X131000Y183000
X131000Y193000
X161000Y193000
X171000Y193000
X181000Y193000
X181000Y223000
X171000Y223000
X161000Y223000
X161000Y253000
X171000Y253000
X181000Y253000
X181000Y283000
X171000Y283000
X161000Y283000
X106000Y308000
X96000Y308000
X86000Y308000
X76000Y308000
X66000Y308000
X56000Y308000
X46000Y308000
X36000Y308000
X36000Y218000
X46000Y218000
X56000Y218000
X66000Y218000
X76000Y218000
X86000Y218000
X96000Y218000
X106000Y218000
X106000Y173000
X106000Y163000
X106000Y153000
X106000Y143000
X106000Y133000
X106000Y123000
X106000Y108000
X106000Y98000
X106000Y88000
X106000Y78000
X106000Y68000
X106000Y58000
X131000Y58000
X131000Y68000
X131000Y78000
X131000Y88000
X131000Y98000
X131000Y108000
X131000Y118000
X131000Y128000
X131000Y138000
X131000Y148000
X161000Y133000
X171000Y133000
X181000Y133000
X181000Y103000
X171000Y103000
X161000Y103000
X161000Y73000
X171000Y73000
X181000Y73000
X181000Y43000
X171000Y43000
X161000Y43000
X216000Y63000
X226000Y63000
X236000Y63000
X246000Y63000
X266000Y58000
X266000Y68000
X266000Y78000
X266000Y88000
X266000Y98000
X266000Y108000
X266000Y123000
X266000Y133000
X266000Y143000
X266000Y153000
X266000Y163000
X266000Y173000
X306000Y173000
X306000Y163000
X306000Y153000
X306000Y143000
X306000Y133000
X306000Y123000
X306000Y108000
X306000Y98000
X306000Y88000
X306000Y78000
X306000Y68000
X306000Y58000
X331000Y58000
X331000Y68000
X331000Y78000
X331000Y88000
X331000Y98000
X331000Y108000
X331000Y118000
X331000Y128000
X331000Y138000
X331000Y148000
X331000Y163000
X331000Y173000
X331000Y183000
X331000Y193000
X361000Y193000
X371000Y193000
X381000Y193000
X381000Y223000
X371000Y223000
X361000Y223000
X361000Y253000
X371000Y253000
X381000Y253000
X381000Y283000
X371000Y283000
X361000Y283000
X306000Y308000
X296000Y308000
X286000Y308000
X276000Y308000
X266000Y308000
X256000Y308000
X246000Y308000
X236000Y308000
X66000Y173000
X66000Y163000
X66000Y153000
X66000Y143000
X66000Y133000
X66000Y123000
X66000Y108000
X66000Y98000
X66000Y88000
X66000Y78000
X66000Y68000
X66000Y58000
X46000Y63000
X36000Y63000
X26000Y63000
X16000Y63000
X16000Y173000
X16000Y183000
X361000Y163000
X371000Y163000
X381000Y163000
X381000Y133000
X371000Y133000
X361000Y133000
X361000Y103000
X371000Y103000
X381000Y103000
X381000Y73000
X371000Y73000
X361000Y73000
X361000Y43000
X371000Y43000
X381000Y43000
T04
X216000Y113000
X216000Y153000
X16000Y153000
X16000Y113000
T05
X26000Y28000
X126000Y28000
X226000Y28000
X326000Y28000
X326000Y278000
X226000Y278000
X126000Y278000
X26000Y278000
M30
