%
M48
M72
T01C0.04000
T02C0.12598
%
T01
X17600Y17600
X27600Y17600
X37600Y17600
X27600Y37600
X27600Y47600
X27600Y57600
X67600Y17600
X77600Y17600
X87600Y17600
X77600Y37600
X77600Y47600
X77600Y57600
X127600Y57600
X127600Y47600
X127600Y37600
X127600Y17600
X117600Y17600
X137600Y17600
X167600Y17600
X177600Y17600
X187600Y17600
X177600Y37600
X177600Y47600
X177600Y57600
X227600Y57600
X227600Y47600
X227600Y37600
X227600Y17600
X217600Y17600
X237600Y17600
X267600Y17600
X277600Y17600
X287600Y17600
X277600Y37600
X277600Y47600
X277600Y57600
X327600Y57600
X327600Y47600
X327600Y37600
X327600Y17600
X317600Y17600
X337600Y17600
X367600Y17600
X377600Y17600
X387600Y17600
X377600Y37600
X377600Y47600
X377600Y57600
X377600Y132600
X377600Y142600
X377600Y152600
X357600Y142600
X347600Y142600
X337600Y142600
X377600Y182600
X377600Y192600
X377600Y202600
X357600Y192600
X347600Y192600
X337600Y192600
X377600Y232600
X377600Y242600
X377600Y252600
X357600Y242600
X347600Y242600
X337600Y242600
X377600Y282600
X377600Y292600
X377600Y302600
X357600Y292600
X347600Y292600
X337600Y292600
X247600Y292600
X247600Y282600
X227600Y292600
X217600Y292600
X207600Y292600
X247600Y302600
X247600Y252600
X247600Y242600
X247600Y232600
X227600Y242600
X217600Y242600
X207600Y242600
X247600Y202600
X247600Y192600
X247600Y182600
X227600Y192600
X217600Y192600
X207600Y192600
X247600Y152600
X247600Y142600
X247600Y132600
X227600Y142600
X217600Y142600
X207600Y142600
X117600Y142600
X117600Y132600
X97600Y142600
X87600Y142600
X77600Y142600
X117600Y152600
X117600Y182600
X117600Y192600
X117600Y202600
X97600Y192600
X87600Y192600
X77600Y192600
X117600Y232600
X117600Y242600
X117600Y252600
X97600Y242600
X87600Y242600
X77600Y242600
X117600Y282600
X117600Y292600
X117600Y302600
X97600Y292600
X87600Y292600
X77600Y292600
T02
X27600Y292600
X27600Y242600
X27600Y192600
X27600Y142600
X27600Y92600
X77600Y92600
X127600Y92600
X177600Y92600
X227600Y92600
X277600Y92600
X327600Y92600
X377600Y92600
X287600Y142600
X287600Y192600
X287600Y242600
X287600Y292600
X157600Y292600
X157600Y242600
X157600Y192600
X157600Y142600
M30
