G75*
%MOIN*%
%OFA0B0*%
%FSLAX25Y25*%
%IPPOS*%
%LPD*%
%AMOC8*
5,1,8,0,0,1.08239X$1,22.5*
%
%ADD10C,0.00000*%
D10*
X0001000Y0002600D02*
X0001000Y0317561D01*
X0394701Y0317561D01*
X0394701Y0002600D01*
X0001000Y0002600D01*
X0014701Y0022600D02*
X0014703Y0022758D01*
X0014709Y0022916D01*
X0014719Y0023074D01*
X0014733Y0023232D01*
X0014751Y0023389D01*
X0014772Y0023546D01*
X0014798Y0023702D01*
X0014828Y0023858D01*
X0014861Y0024013D01*
X0014899Y0024166D01*
X0014940Y0024319D01*
X0014985Y0024471D01*
X0015034Y0024622D01*
X0015087Y0024771D01*
X0015143Y0024919D01*
X0015203Y0025065D01*
X0015267Y0025210D01*
X0015335Y0025353D01*
X0015406Y0025495D01*
X0015480Y0025635D01*
X0015558Y0025772D01*
X0015640Y0025908D01*
X0015724Y0026042D01*
X0015813Y0026173D01*
X0015904Y0026302D01*
X0015999Y0026429D01*
X0016096Y0026554D01*
X0016197Y0026676D01*
X0016301Y0026795D01*
X0016408Y0026912D01*
X0016518Y0027026D01*
X0016631Y0027137D01*
X0016746Y0027246D01*
X0016864Y0027351D01*
X0016985Y0027453D01*
X0017108Y0027553D01*
X0017234Y0027649D01*
X0017362Y0027742D01*
X0017492Y0027832D01*
X0017625Y0027918D01*
X0017760Y0028002D01*
X0017896Y0028081D01*
X0018035Y0028158D01*
X0018176Y0028230D01*
X0018318Y0028300D01*
X0018462Y0028365D01*
X0018608Y0028427D01*
X0018755Y0028485D01*
X0018904Y0028540D01*
X0019054Y0028591D01*
X0019205Y0028638D01*
X0019357Y0028681D01*
X0019510Y0028720D01*
X0019665Y0028756D01*
X0019820Y0028787D01*
X0019976Y0028815D01*
X0020132Y0028839D01*
X0020289Y0028859D01*
X0020447Y0028875D01*
X0020604Y0028887D01*
X0020763Y0028895D01*
X0020921Y0028899D01*
X0021079Y0028899D01*
X0021237Y0028895D01*
X0021396Y0028887D01*
X0021553Y0028875D01*
X0021711Y0028859D01*
X0021868Y0028839D01*
X0022024Y0028815D01*
X0022180Y0028787D01*
X0022335Y0028756D01*
X0022490Y0028720D01*
X0022643Y0028681D01*
X0022795Y0028638D01*
X0022946Y0028591D01*
X0023096Y0028540D01*
X0023245Y0028485D01*
X0023392Y0028427D01*
X0023538Y0028365D01*
X0023682Y0028300D01*
X0023824Y0028230D01*
X0023965Y0028158D01*
X0024104Y0028081D01*
X0024240Y0028002D01*
X0024375Y0027918D01*
X0024508Y0027832D01*
X0024638Y0027742D01*
X0024766Y0027649D01*
X0024892Y0027553D01*
X0025015Y0027453D01*
X0025136Y0027351D01*
X0025254Y0027246D01*
X0025369Y0027137D01*
X0025482Y0027026D01*
X0025592Y0026912D01*
X0025699Y0026795D01*
X0025803Y0026676D01*
X0025904Y0026554D01*
X0026001Y0026429D01*
X0026096Y0026302D01*
X0026187Y0026173D01*
X0026276Y0026042D01*
X0026360Y0025908D01*
X0026442Y0025772D01*
X0026520Y0025635D01*
X0026594Y0025495D01*
X0026665Y0025353D01*
X0026733Y0025210D01*
X0026797Y0025065D01*
X0026857Y0024919D01*
X0026913Y0024771D01*
X0026966Y0024622D01*
X0027015Y0024471D01*
X0027060Y0024319D01*
X0027101Y0024166D01*
X0027139Y0024013D01*
X0027172Y0023858D01*
X0027202Y0023702D01*
X0027228Y0023546D01*
X0027249Y0023389D01*
X0027267Y0023232D01*
X0027281Y0023074D01*
X0027291Y0022916D01*
X0027297Y0022758D01*
X0027299Y0022600D01*
X0027297Y0022442D01*
X0027291Y0022284D01*
X0027281Y0022126D01*
X0027267Y0021968D01*
X0027249Y0021811D01*
X0027228Y0021654D01*
X0027202Y0021498D01*
X0027172Y0021342D01*
X0027139Y0021187D01*
X0027101Y0021034D01*
X0027060Y0020881D01*
X0027015Y0020729D01*
X0026966Y0020578D01*
X0026913Y0020429D01*
X0026857Y0020281D01*
X0026797Y0020135D01*
X0026733Y0019990D01*
X0026665Y0019847D01*
X0026594Y0019705D01*
X0026520Y0019565D01*
X0026442Y0019428D01*
X0026360Y0019292D01*
X0026276Y0019158D01*
X0026187Y0019027D01*
X0026096Y0018898D01*
X0026001Y0018771D01*
X0025904Y0018646D01*
X0025803Y0018524D01*
X0025699Y0018405D01*
X0025592Y0018288D01*
X0025482Y0018174D01*
X0025369Y0018063D01*
X0025254Y0017954D01*
X0025136Y0017849D01*
X0025015Y0017747D01*
X0024892Y0017647D01*
X0024766Y0017551D01*
X0024638Y0017458D01*
X0024508Y0017368D01*
X0024375Y0017282D01*
X0024240Y0017198D01*
X0024104Y0017119D01*
X0023965Y0017042D01*
X0023824Y0016970D01*
X0023682Y0016900D01*
X0023538Y0016835D01*
X0023392Y0016773D01*
X0023245Y0016715D01*
X0023096Y0016660D01*
X0022946Y0016609D01*
X0022795Y0016562D01*
X0022643Y0016519D01*
X0022490Y0016480D01*
X0022335Y0016444D01*
X0022180Y0016413D01*
X0022024Y0016385D01*
X0021868Y0016361D01*
X0021711Y0016341D01*
X0021553Y0016325D01*
X0021396Y0016313D01*
X0021237Y0016305D01*
X0021079Y0016301D01*
X0020921Y0016301D01*
X0020763Y0016305D01*
X0020604Y0016313D01*
X0020447Y0016325D01*
X0020289Y0016341D01*
X0020132Y0016361D01*
X0019976Y0016385D01*
X0019820Y0016413D01*
X0019665Y0016444D01*
X0019510Y0016480D01*
X0019357Y0016519D01*
X0019205Y0016562D01*
X0019054Y0016609D01*
X0018904Y0016660D01*
X0018755Y0016715D01*
X0018608Y0016773D01*
X0018462Y0016835D01*
X0018318Y0016900D01*
X0018176Y0016970D01*
X0018035Y0017042D01*
X0017896Y0017119D01*
X0017760Y0017198D01*
X0017625Y0017282D01*
X0017492Y0017368D01*
X0017362Y0017458D01*
X0017234Y0017551D01*
X0017108Y0017647D01*
X0016985Y0017747D01*
X0016864Y0017849D01*
X0016746Y0017954D01*
X0016631Y0018063D01*
X0016518Y0018174D01*
X0016408Y0018288D01*
X0016301Y0018405D01*
X0016197Y0018524D01*
X0016096Y0018646D01*
X0015999Y0018771D01*
X0015904Y0018898D01*
X0015813Y0019027D01*
X0015724Y0019158D01*
X0015640Y0019292D01*
X0015558Y0019428D01*
X0015480Y0019565D01*
X0015406Y0019705D01*
X0015335Y0019847D01*
X0015267Y0019990D01*
X0015203Y0020135D01*
X0015143Y0020281D01*
X0015087Y0020429D01*
X0015034Y0020578D01*
X0014985Y0020729D01*
X0014940Y0020881D01*
X0014899Y0021034D01*
X0014861Y0021187D01*
X0014828Y0021342D01*
X0014798Y0021498D01*
X0014772Y0021654D01*
X0014751Y0021811D01*
X0014733Y0021968D01*
X0014719Y0022126D01*
X0014709Y0022284D01*
X0014703Y0022442D01*
X0014701Y0022600D01*
X0174701Y0022600D02*
X0174703Y0022758D01*
X0174709Y0022916D01*
X0174719Y0023074D01*
X0174733Y0023232D01*
X0174751Y0023389D01*
X0174772Y0023546D01*
X0174798Y0023702D01*
X0174828Y0023858D01*
X0174861Y0024013D01*
X0174899Y0024166D01*
X0174940Y0024319D01*
X0174985Y0024471D01*
X0175034Y0024622D01*
X0175087Y0024771D01*
X0175143Y0024919D01*
X0175203Y0025065D01*
X0175267Y0025210D01*
X0175335Y0025353D01*
X0175406Y0025495D01*
X0175480Y0025635D01*
X0175558Y0025772D01*
X0175640Y0025908D01*
X0175724Y0026042D01*
X0175813Y0026173D01*
X0175904Y0026302D01*
X0175999Y0026429D01*
X0176096Y0026554D01*
X0176197Y0026676D01*
X0176301Y0026795D01*
X0176408Y0026912D01*
X0176518Y0027026D01*
X0176631Y0027137D01*
X0176746Y0027246D01*
X0176864Y0027351D01*
X0176985Y0027453D01*
X0177108Y0027553D01*
X0177234Y0027649D01*
X0177362Y0027742D01*
X0177492Y0027832D01*
X0177625Y0027918D01*
X0177760Y0028002D01*
X0177896Y0028081D01*
X0178035Y0028158D01*
X0178176Y0028230D01*
X0178318Y0028300D01*
X0178462Y0028365D01*
X0178608Y0028427D01*
X0178755Y0028485D01*
X0178904Y0028540D01*
X0179054Y0028591D01*
X0179205Y0028638D01*
X0179357Y0028681D01*
X0179510Y0028720D01*
X0179665Y0028756D01*
X0179820Y0028787D01*
X0179976Y0028815D01*
X0180132Y0028839D01*
X0180289Y0028859D01*
X0180447Y0028875D01*
X0180604Y0028887D01*
X0180763Y0028895D01*
X0180921Y0028899D01*
X0181079Y0028899D01*
X0181237Y0028895D01*
X0181396Y0028887D01*
X0181553Y0028875D01*
X0181711Y0028859D01*
X0181868Y0028839D01*
X0182024Y0028815D01*
X0182180Y0028787D01*
X0182335Y0028756D01*
X0182490Y0028720D01*
X0182643Y0028681D01*
X0182795Y0028638D01*
X0182946Y0028591D01*
X0183096Y0028540D01*
X0183245Y0028485D01*
X0183392Y0028427D01*
X0183538Y0028365D01*
X0183682Y0028300D01*
X0183824Y0028230D01*
X0183965Y0028158D01*
X0184104Y0028081D01*
X0184240Y0028002D01*
X0184375Y0027918D01*
X0184508Y0027832D01*
X0184638Y0027742D01*
X0184766Y0027649D01*
X0184892Y0027553D01*
X0185015Y0027453D01*
X0185136Y0027351D01*
X0185254Y0027246D01*
X0185369Y0027137D01*
X0185482Y0027026D01*
X0185592Y0026912D01*
X0185699Y0026795D01*
X0185803Y0026676D01*
X0185904Y0026554D01*
X0186001Y0026429D01*
X0186096Y0026302D01*
X0186187Y0026173D01*
X0186276Y0026042D01*
X0186360Y0025908D01*
X0186442Y0025772D01*
X0186520Y0025635D01*
X0186594Y0025495D01*
X0186665Y0025353D01*
X0186733Y0025210D01*
X0186797Y0025065D01*
X0186857Y0024919D01*
X0186913Y0024771D01*
X0186966Y0024622D01*
X0187015Y0024471D01*
X0187060Y0024319D01*
X0187101Y0024166D01*
X0187139Y0024013D01*
X0187172Y0023858D01*
X0187202Y0023702D01*
X0187228Y0023546D01*
X0187249Y0023389D01*
X0187267Y0023232D01*
X0187281Y0023074D01*
X0187291Y0022916D01*
X0187297Y0022758D01*
X0187299Y0022600D01*
X0187297Y0022442D01*
X0187291Y0022284D01*
X0187281Y0022126D01*
X0187267Y0021968D01*
X0187249Y0021811D01*
X0187228Y0021654D01*
X0187202Y0021498D01*
X0187172Y0021342D01*
X0187139Y0021187D01*
X0187101Y0021034D01*
X0187060Y0020881D01*
X0187015Y0020729D01*
X0186966Y0020578D01*
X0186913Y0020429D01*
X0186857Y0020281D01*
X0186797Y0020135D01*
X0186733Y0019990D01*
X0186665Y0019847D01*
X0186594Y0019705D01*
X0186520Y0019565D01*
X0186442Y0019428D01*
X0186360Y0019292D01*
X0186276Y0019158D01*
X0186187Y0019027D01*
X0186096Y0018898D01*
X0186001Y0018771D01*
X0185904Y0018646D01*
X0185803Y0018524D01*
X0185699Y0018405D01*
X0185592Y0018288D01*
X0185482Y0018174D01*
X0185369Y0018063D01*
X0185254Y0017954D01*
X0185136Y0017849D01*
X0185015Y0017747D01*
X0184892Y0017647D01*
X0184766Y0017551D01*
X0184638Y0017458D01*
X0184508Y0017368D01*
X0184375Y0017282D01*
X0184240Y0017198D01*
X0184104Y0017119D01*
X0183965Y0017042D01*
X0183824Y0016970D01*
X0183682Y0016900D01*
X0183538Y0016835D01*
X0183392Y0016773D01*
X0183245Y0016715D01*
X0183096Y0016660D01*
X0182946Y0016609D01*
X0182795Y0016562D01*
X0182643Y0016519D01*
X0182490Y0016480D01*
X0182335Y0016444D01*
X0182180Y0016413D01*
X0182024Y0016385D01*
X0181868Y0016361D01*
X0181711Y0016341D01*
X0181553Y0016325D01*
X0181396Y0016313D01*
X0181237Y0016305D01*
X0181079Y0016301D01*
X0180921Y0016301D01*
X0180763Y0016305D01*
X0180604Y0016313D01*
X0180447Y0016325D01*
X0180289Y0016341D01*
X0180132Y0016361D01*
X0179976Y0016385D01*
X0179820Y0016413D01*
X0179665Y0016444D01*
X0179510Y0016480D01*
X0179357Y0016519D01*
X0179205Y0016562D01*
X0179054Y0016609D01*
X0178904Y0016660D01*
X0178755Y0016715D01*
X0178608Y0016773D01*
X0178462Y0016835D01*
X0178318Y0016900D01*
X0178176Y0016970D01*
X0178035Y0017042D01*
X0177896Y0017119D01*
X0177760Y0017198D01*
X0177625Y0017282D01*
X0177492Y0017368D01*
X0177362Y0017458D01*
X0177234Y0017551D01*
X0177108Y0017647D01*
X0176985Y0017747D01*
X0176864Y0017849D01*
X0176746Y0017954D01*
X0176631Y0018063D01*
X0176518Y0018174D01*
X0176408Y0018288D01*
X0176301Y0018405D01*
X0176197Y0018524D01*
X0176096Y0018646D01*
X0175999Y0018771D01*
X0175904Y0018898D01*
X0175813Y0019027D01*
X0175724Y0019158D01*
X0175640Y0019292D01*
X0175558Y0019428D01*
X0175480Y0019565D01*
X0175406Y0019705D01*
X0175335Y0019847D01*
X0175267Y0019990D01*
X0175203Y0020135D01*
X0175143Y0020281D01*
X0175087Y0020429D01*
X0175034Y0020578D01*
X0174985Y0020729D01*
X0174940Y0020881D01*
X0174899Y0021034D01*
X0174861Y0021187D01*
X0174828Y0021342D01*
X0174798Y0021498D01*
X0174772Y0021654D01*
X0174751Y0021811D01*
X0174733Y0021968D01*
X0174719Y0022126D01*
X0174709Y0022284D01*
X0174703Y0022442D01*
X0174701Y0022600D01*
X0214701Y0022600D02*
X0214703Y0022758D01*
X0214709Y0022916D01*
X0214719Y0023074D01*
X0214733Y0023232D01*
X0214751Y0023389D01*
X0214772Y0023546D01*
X0214798Y0023702D01*
X0214828Y0023858D01*
X0214861Y0024013D01*
X0214899Y0024166D01*
X0214940Y0024319D01*
X0214985Y0024471D01*
X0215034Y0024622D01*
X0215087Y0024771D01*
X0215143Y0024919D01*
X0215203Y0025065D01*
X0215267Y0025210D01*
X0215335Y0025353D01*
X0215406Y0025495D01*
X0215480Y0025635D01*
X0215558Y0025772D01*
X0215640Y0025908D01*
X0215724Y0026042D01*
X0215813Y0026173D01*
X0215904Y0026302D01*
X0215999Y0026429D01*
X0216096Y0026554D01*
X0216197Y0026676D01*
X0216301Y0026795D01*
X0216408Y0026912D01*
X0216518Y0027026D01*
X0216631Y0027137D01*
X0216746Y0027246D01*
X0216864Y0027351D01*
X0216985Y0027453D01*
X0217108Y0027553D01*
X0217234Y0027649D01*
X0217362Y0027742D01*
X0217492Y0027832D01*
X0217625Y0027918D01*
X0217760Y0028002D01*
X0217896Y0028081D01*
X0218035Y0028158D01*
X0218176Y0028230D01*
X0218318Y0028300D01*
X0218462Y0028365D01*
X0218608Y0028427D01*
X0218755Y0028485D01*
X0218904Y0028540D01*
X0219054Y0028591D01*
X0219205Y0028638D01*
X0219357Y0028681D01*
X0219510Y0028720D01*
X0219665Y0028756D01*
X0219820Y0028787D01*
X0219976Y0028815D01*
X0220132Y0028839D01*
X0220289Y0028859D01*
X0220447Y0028875D01*
X0220604Y0028887D01*
X0220763Y0028895D01*
X0220921Y0028899D01*
X0221079Y0028899D01*
X0221237Y0028895D01*
X0221396Y0028887D01*
X0221553Y0028875D01*
X0221711Y0028859D01*
X0221868Y0028839D01*
X0222024Y0028815D01*
X0222180Y0028787D01*
X0222335Y0028756D01*
X0222490Y0028720D01*
X0222643Y0028681D01*
X0222795Y0028638D01*
X0222946Y0028591D01*
X0223096Y0028540D01*
X0223245Y0028485D01*
X0223392Y0028427D01*
X0223538Y0028365D01*
X0223682Y0028300D01*
X0223824Y0028230D01*
X0223965Y0028158D01*
X0224104Y0028081D01*
X0224240Y0028002D01*
X0224375Y0027918D01*
X0224508Y0027832D01*
X0224638Y0027742D01*
X0224766Y0027649D01*
X0224892Y0027553D01*
X0225015Y0027453D01*
X0225136Y0027351D01*
X0225254Y0027246D01*
X0225369Y0027137D01*
X0225482Y0027026D01*
X0225592Y0026912D01*
X0225699Y0026795D01*
X0225803Y0026676D01*
X0225904Y0026554D01*
X0226001Y0026429D01*
X0226096Y0026302D01*
X0226187Y0026173D01*
X0226276Y0026042D01*
X0226360Y0025908D01*
X0226442Y0025772D01*
X0226520Y0025635D01*
X0226594Y0025495D01*
X0226665Y0025353D01*
X0226733Y0025210D01*
X0226797Y0025065D01*
X0226857Y0024919D01*
X0226913Y0024771D01*
X0226966Y0024622D01*
X0227015Y0024471D01*
X0227060Y0024319D01*
X0227101Y0024166D01*
X0227139Y0024013D01*
X0227172Y0023858D01*
X0227202Y0023702D01*
X0227228Y0023546D01*
X0227249Y0023389D01*
X0227267Y0023232D01*
X0227281Y0023074D01*
X0227291Y0022916D01*
X0227297Y0022758D01*
X0227299Y0022600D01*
X0227297Y0022442D01*
X0227291Y0022284D01*
X0227281Y0022126D01*
X0227267Y0021968D01*
X0227249Y0021811D01*
X0227228Y0021654D01*
X0227202Y0021498D01*
X0227172Y0021342D01*
X0227139Y0021187D01*
X0227101Y0021034D01*
X0227060Y0020881D01*
X0227015Y0020729D01*
X0226966Y0020578D01*
X0226913Y0020429D01*
X0226857Y0020281D01*
X0226797Y0020135D01*
X0226733Y0019990D01*
X0226665Y0019847D01*
X0226594Y0019705D01*
X0226520Y0019565D01*
X0226442Y0019428D01*
X0226360Y0019292D01*
X0226276Y0019158D01*
X0226187Y0019027D01*
X0226096Y0018898D01*
X0226001Y0018771D01*
X0225904Y0018646D01*
X0225803Y0018524D01*
X0225699Y0018405D01*
X0225592Y0018288D01*
X0225482Y0018174D01*
X0225369Y0018063D01*
X0225254Y0017954D01*
X0225136Y0017849D01*
X0225015Y0017747D01*
X0224892Y0017647D01*
X0224766Y0017551D01*
X0224638Y0017458D01*
X0224508Y0017368D01*
X0224375Y0017282D01*
X0224240Y0017198D01*
X0224104Y0017119D01*
X0223965Y0017042D01*
X0223824Y0016970D01*
X0223682Y0016900D01*
X0223538Y0016835D01*
X0223392Y0016773D01*
X0223245Y0016715D01*
X0223096Y0016660D01*
X0222946Y0016609D01*
X0222795Y0016562D01*
X0222643Y0016519D01*
X0222490Y0016480D01*
X0222335Y0016444D01*
X0222180Y0016413D01*
X0222024Y0016385D01*
X0221868Y0016361D01*
X0221711Y0016341D01*
X0221553Y0016325D01*
X0221396Y0016313D01*
X0221237Y0016305D01*
X0221079Y0016301D01*
X0220921Y0016301D01*
X0220763Y0016305D01*
X0220604Y0016313D01*
X0220447Y0016325D01*
X0220289Y0016341D01*
X0220132Y0016361D01*
X0219976Y0016385D01*
X0219820Y0016413D01*
X0219665Y0016444D01*
X0219510Y0016480D01*
X0219357Y0016519D01*
X0219205Y0016562D01*
X0219054Y0016609D01*
X0218904Y0016660D01*
X0218755Y0016715D01*
X0218608Y0016773D01*
X0218462Y0016835D01*
X0218318Y0016900D01*
X0218176Y0016970D01*
X0218035Y0017042D01*
X0217896Y0017119D01*
X0217760Y0017198D01*
X0217625Y0017282D01*
X0217492Y0017368D01*
X0217362Y0017458D01*
X0217234Y0017551D01*
X0217108Y0017647D01*
X0216985Y0017747D01*
X0216864Y0017849D01*
X0216746Y0017954D01*
X0216631Y0018063D01*
X0216518Y0018174D01*
X0216408Y0018288D01*
X0216301Y0018405D01*
X0216197Y0018524D01*
X0216096Y0018646D01*
X0215999Y0018771D01*
X0215904Y0018898D01*
X0215813Y0019027D01*
X0215724Y0019158D01*
X0215640Y0019292D01*
X0215558Y0019428D01*
X0215480Y0019565D01*
X0215406Y0019705D01*
X0215335Y0019847D01*
X0215267Y0019990D01*
X0215203Y0020135D01*
X0215143Y0020281D01*
X0215087Y0020429D01*
X0215034Y0020578D01*
X0214985Y0020729D01*
X0214940Y0020881D01*
X0214899Y0021034D01*
X0214861Y0021187D01*
X0214828Y0021342D01*
X0214798Y0021498D01*
X0214772Y0021654D01*
X0214751Y0021811D01*
X0214733Y0021968D01*
X0214719Y0022126D01*
X0214709Y0022284D01*
X0214703Y0022442D01*
X0214701Y0022600D01*
X0369701Y0022600D02*
X0369703Y0022758D01*
X0369709Y0022916D01*
X0369719Y0023074D01*
X0369733Y0023232D01*
X0369751Y0023389D01*
X0369772Y0023546D01*
X0369798Y0023702D01*
X0369828Y0023858D01*
X0369861Y0024013D01*
X0369899Y0024166D01*
X0369940Y0024319D01*
X0369985Y0024471D01*
X0370034Y0024622D01*
X0370087Y0024771D01*
X0370143Y0024919D01*
X0370203Y0025065D01*
X0370267Y0025210D01*
X0370335Y0025353D01*
X0370406Y0025495D01*
X0370480Y0025635D01*
X0370558Y0025772D01*
X0370640Y0025908D01*
X0370724Y0026042D01*
X0370813Y0026173D01*
X0370904Y0026302D01*
X0370999Y0026429D01*
X0371096Y0026554D01*
X0371197Y0026676D01*
X0371301Y0026795D01*
X0371408Y0026912D01*
X0371518Y0027026D01*
X0371631Y0027137D01*
X0371746Y0027246D01*
X0371864Y0027351D01*
X0371985Y0027453D01*
X0372108Y0027553D01*
X0372234Y0027649D01*
X0372362Y0027742D01*
X0372492Y0027832D01*
X0372625Y0027918D01*
X0372760Y0028002D01*
X0372896Y0028081D01*
X0373035Y0028158D01*
X0373176Y0028230D01*
X0373318Y0028300D01*
X0373462Y0028365D01*
X0373608Y0028427D01*
X0373755Y0028485D01*
X0373904Y0028540D01*
X0374054Y0028591D01*
X0374205Y0028638D01*
X0374357Y0028681D01*
X0374510Y0028720D01*
X0374665Y0028756D01*
X0374820Y0028787D01*
X0374976Y0028815D01*
X0375132Y0028839D01*
X0375289Y0028859D01*
X0375447Y0028875D01*
X0375604Y0028887D01*
X0375763Y0028895D01*
X0375921Y0028899D01*
X0376079Y0028899D01*
X0376237Y0028895D01*
X0376396Y0028887D01*
X0376553Y0028875D01*
X0376711Y0028859D01*
X0376868Y0028839D01*
X0377024Y0028815D01*
X0377180Y0028787D01*
X0377335Y0028756D01*
X0377490Y0028720D01*
X0377643Y0028681D01*
X0377795Y0028638D01*
X0377946Y0028591D01*
X0378096Y0028540D01*
X0378245Y0028485D01*
X0378392Y0028427D01*
X0378538Y0028365D01*
X0378682Y0028300D01*
X0378824Y0028230D01*
X0378965Y0028158D01*
X0379104Y0028081D01*
X0379240Y0028002D01*
X0379375Y0027918D01*
X0379508Y0027832D01*
X0379638Y0027742D01*
X0379766Y0027649D01*
X0379892Y0027553D01*
X0380015Y0027453D01*
X0380136Y0027351D01*
X0380254Y0027246D01*
X0380369Y0027137D01*
X0380482Y0027026D01*
X0380592Y0026912D01*
X0380699Y0026795D01*
X0380803Y0026676D01*
X0380904Y0026554D01*
X0381001Y0026429D01*
X0381096Y0026302D01*
X0381187Y0026173D01*
X0381276Y0026042D01*
X0381360Y0025908D01*
X0381442Y0025772D01*
X0381520Y0025635D01*
X0381594Y0025495D01*
X0381665Y0025353D01*
X0381733Y0025210D01*
X0381797Y0025065D01*
X0381857Y0024919D01*
X0381913Y0024771D01*
X0381966Y0024622D01*
X0382015Y0024471D01*
X0382060Y0024319D01*
X0382101Y0024166D01*
X0382139Y0024013D01*
X0382172Y0023858D01*
X0382202Y0023702D01*
X0382228Y0023546D01*
X0382249Y0023389D01*
X0382267Y0023232D01*
X0382281Y0023074D01*
X0382291Y0022916D01*
X0382297Y0022758D01*
X0382299Y0022600D01*
X0382297Y0022442D01*
X0382291Y0022284D01*
X0382281Y0022126D01*
X0382267Y0021968D01*
X0382249Y0021811D01*
X0382228Y0021654D01*
X0382202Y0021498D01*
X0382172Y0021342D01*
X0382139Y0021187D01*
X0382101Y0021034D01*
X0382060Y0020881D01*
X0382015Y0020729D01*
X0381966Y0020578D01*
X0381913Y0020429D01*
X0381857Y0020281D01*
X0381797Y0020135D01*
X0381733Y0019990D01*
X0381665Y0019847D01*
X0381594Y0019705D01*
X0381520Y0019565D01*
X0381442Y0019428D01*
X0381360Y0019292D01*
X0381276Y0019158D01*
X0381187Y0019027D01*
X0381096Y0018898D01*
X0381001Y0018771D01*
X0380904Y0018646D01*
X0380803Y0018524D01*
X0380699Y0018405D01*
X0380592Y0018288D01*
X0380482Y0018174D01*
X0380369Y0018063D01*
X0380254Y0017954D01*
X0380136Y0017849D01*
X0380015Y0017747D01*
X0379892Y0017647D01*
X0379766Y0017551D01*
X0379638Y0017458D01*
X0379508Y0017368D01*
X0379375Y0017282D01*
X0379240Y0017198D01*
X0379104Y0017119D01*
X0378965Y0017042D01*
X0378824Y0016970D01*
X0378682Y0016900D01*
X0378538Y0016835D01*
X0378392Y0016773D01*
X0378245Y0016715D01*
X0378096Y0016660D01*
X0377946Y0016609D01*
X0377795Y0016562D01*
X0377643Y0016519D01*
X0377490Y0016480D01*
X0377335Y0016444D01*
X0377180Y0016413D01*
X0377024Y0016385D01*
X0376868Y0016361D01*
X0376711Y0016341D01*
X0376553Y0016325D01*
X0376396Y0016313D01*
X0376237Y0016305D01*
X0376079Y0016301D01*
X0375921Y0016301D01*
X0375763Y0016305D01*
X0375604Y0016313D01*
X0375447Y0016325D01*
X0375289Y0016341D01*
X0375132Y0016361D01*
X0374976Y0016385D01*
X0374820Y0016413D01*
X0374665Y0016444D01*
X0374510Y0016480D01*
X0374357Y0016519D01*
X0374205Y0016562D01*
X0374054Y0016609D01*
X0373904Y0016660D01*
X0373755Y0016715D01*
X0373608Y0016773D01*
X0373462Y0016835D01*
X0373318Y0016900D01*
X0373176Y0016970D01*
X0373035Y0017042D01*
X0372896Y0017119D01*
X0372760Y0017198D01*
X0372625Y0017282D01*
X0372492Y0017368D01*
X0372362Y0017458D01*
X0372234Y0017551D01*
X0372108Y0017647D01*
X0371985Y0017747D01*
X0371864Y0017849D01*
X0371746Y0017954D01*
X0371631Y0018063D01*
X0371518Y0018174D01*
X0371408Y0018288D01*
X0371301Y0018405D01*
X0371197Y0018524D01*
X0371096Y0018646D01*
X0370999Y0018771D01*
X0370904Y0018898D01*
X0370813Y0019027D01*
X0370724Y0019158D01*
X0370640Y0019292D01*
X0370558Y0019428D01*
X0370480Y0019565D01*
X0370406Y0019705D01*
X0370335Y0019847D01*
X0370267Y0019990D01*
X0370203Y0020135D01*
X0370143Y0020281D01*
X0370087Y0020429D01*
X0370034Y0020578D01*
X0369985Y0020729D01*
X0369940Y0020881D01*
X0369899Y0021034D01*
X0369861Y0021187D01*
X0369828Y0021342D01*
X0369798Y0021498D01*
X0369772Y0021654D01*
X0369751Y0021811D01*
X0369733Y0021968D01*
X0369719Y0022126D01*
X0369709Y0022284D01*
X0369703Y0022442D01*
X0369701Y0022600D01*
X0369701Y0297600D02*
X0369703Y0297758D01*
X0369709Y0297916D01*
X0369719Y0298074D01*
X0369733Y0298232D01*
X0369751Y0298389D01*
X0369772Y0298546D01*
X0369798Y0298702D01*
X0369828Y0298858D01*
X0369861Y0299013D01*
X0369899Y0299166D01*
X0369940Y0299319D01*
X0369985Y0299471D01*
X0370034Y0299622D01*
X0370087Y0299771D01*
X0370143Y0299919D01*
X0370203Y0300065D01*
X0370267Y0300210D01*
X0370335Y0300353D01*
X0370406Y0300495D01*
X0370480Y0300635D01*
X0370558Y0300772D01*
X0370640Y0300908D01*
X0370724Y0301042D01*
X0370813Y0301173D01*
X0370904Y0301302D01*
X0370999Y0301429D01*
X0371096Y0301554D01*
X0371197Y0301676D01*
X0371301Y0301795D01*
X0371408Y0301912D01*
X0371518Y0302026D01*
X0371631Y0302137D01*
X0371746Y0302246D01*
X0371864Y0302351D01*
X0371985Y0302453D01*
X0372108Y0302553D01*
X0372234Y0302649D01*
X0372362Y0302742D01*
X0372492Y0302832D01*
X0372625Y0302918D01*
X0372760Y0303002D01*
X0372896Y0303081D01*
X0373035Y0303158D01*
X0373176Y0303230D01*
X0373318Y0303300D01*
X0373462Y0303365D01*
X0373608Y0303427D01*
X0373755Y0303485D01*
X0373904Y0303540D01*
X0374054Y0303591D01*
X0374205Y0303638D01*
X0374357Y0303681D01*
X0374510Y0303720D01*
X0374665Y0303756D01*
X0374820Y0303787D01*
X0374976Y0303815D01*
X0375132Y0303839D01*
X0375289Y0303859D01*
X0375447Y0303875D01*
X0375604Y0303887D01*
X0375763Y0303895D01*
X0375921Y0303899D01*
X0376079Y0303899D01*
X0376237Y0303895D01*
X0376396Y0303887D01*
X0376553Y0303875D01*
X0376711Y0303859D01*
X0376868Y0303839D01*
X0377024Y0303815D01*
X0377180Y0303787D01*
X0377335Y0303756D01*
X0377490Y0303720D01*
X0377643Y0303681D01*
X0377795Y0303638D01*
X0377946Y0303591D01*
X0378096Y0303540D01*
X0378245Y0303485D01*
X0378392Y0303427D01*
X0378538Y0303365D01*
X0378682Y0303300D01*
X0378824Y0303230D01*
X0378965Y0303158D01*
X0379104Y0303081D01*
X0379240Y0303002D01*
X0379375Y0302918D01*
X0379508Y0302832D01*
X0379638Y0302742D01*
X0379766Y0302649D01*
X0379892Y0302553D01*
X0380015Y0302453D01*
X0380136Y0302351D01*
X0380254Y0302246D01*
X0380369Y0302137D01*
X0380482Y0302026D01*
X0380592Y0301912D01*
X0380699Y0301795D01*
X0380803Y0301676D01*
X0380904Y0301554D01*
X0381001Y0301429D01*
X0381096Y0301302D01*
X0381187Y0301173D01*
X0381276Y0301042D01*
X0381360Y0300908D01*
X0381442Y0300772D01*
X0381520Y0300635D01*
X0381594Y0300495D01*
X0381665Y0300353D01*
X0381733Y0300210D01*
X0381797Y0300065D01*
X0381857Y0299919D01*
X0381913Y0299771D01*
X0381966Y0299622D01*
X0382015Y0299471D01*
X0382060Y0299319D01*
X0382101Y0299166D01*
X0382139Y0299013D01*
X0382172Y0298858D01*
X0382202Y0298702D01*
X0382228Y0298546D01*
X0382249Y0298389D01*
X0382267Y0298232D01*
X0382281Y0298074D01*
X0382291Y0297916D01*
X0382297Y0297758D01*
X0382299Y0297600D01*
X0382297Y0297442D01*
X0382291Y0297284D01*
X0382281Y0297126D01*
X0382267Y0296968D01*
X0382249Y0296811D01*
X0382228Y0296654D01*
X0382202Y0296498D01*
X0382172Y0296342D01*
X0382139Y0296187D01*
X0382101Y0296034D01*
X0382060Y0295881D01*
X0382015Y0295729D01*
X0381966Y0295578D01*
X0381913Y0295429D01*
X0381857Y0295281D01*
X0381797Y0295135D01*
X0381733Y0294990D01*
X0381665Y0294847D01*
X0381594Y0294705D01*
X0381520Y0294565D01*
X0381442Y0294428D01*
X0381360Y0294292D01*
X0381276Y0294158D01*
X0381187Y0294027D01*
X0381096Y0293898D01*
X0381001Y0293771D01*
X0380904Y0293646D01*
X0380803Y0293524D01*
X0380699Y0293405D01*
X0380592Y0293288D01*
X0380482Y0293174D01*
X0380369Y0293063D01*
X0380254Y0292954D01*
X0380136Y0292849D01*
X0380015Y0292747D01*
X0379892Y0292647D01*
X0379766Y0292551D01*
X0379638Y0292458D01*
X0379508Y0292368D01*
X0379375Y0292282D01*
X0379240Y0292198D01*
X0379104Y0292119D01*
X0378965Y0292042D01*
X0378824Y0291970D01*
X0378682Y0291900D01*
X0378538Y0291835D01*
X0378392Y0291773D01*
X0378245Y0291715D01*
X0378096Y0291660D01*
X0377946Y0291609D01*
X0377795Y0291562D01*
X0377643Y0291519D01*
X0377490Y0291480D01*
X0377335Y0291444D01*
X0377180Y0291413D01*
X0377024Y0291385D01*
X0376868Y0291361D01*
X0376711Y0291341D01*
X0376553Y0291325D01*
X0376396Y0291313D01*
X0376237Y0291305D01*
X0376079Y0291301D01*
X0375921Y0291301D01*
X0375763Y0291305D01*
X0375604Y0291313D01*
X0375447Y0291325D01*
X0375289Y0291341D01*
X0375132Y0291361D01*
X0374976Y0291385D01*
X0374820Y0291413D01*
X0374665Y0291444D01*
X0374510Y0291480D01*
X0374357Y0291519D01*
X0374205Y0291562D01*
X0374054Y0291609D01*
X0373904Y0291660D01*
X0373755Y0291715D01*
X0373608Y0291773D01*
X0373462Y0291835D01*
X0373318Y0291900D01*
X0373176Y0291970D01*
X0373035Y0292042D01*
X0372896Y0292119D01*
X0372760Y0292198D01*
X0372625Y0292282D01*
X0372492Y0292368D01*
X0372362Y0292458D01*
X0372234Y0292551D01*
X0372108Y0292647D01*
X0371985Y0292747D01*
X0371864Y0292849D01*
X0371746Y0292954D01*
X0371631Y0293063D01*
X0371518Y0293174D01*
X0371408Y0293288D01*
X0371301Y0293405D01*
X0371197Y0293524D01*
X0371096Y0293646D01*
X0370999Y0293771D01*
X0370904Y0293898D01*
X0370813Y0294027D01*
X0370724Y0294158D01*
X0370640Y0294292D01*
X0370558Y0294428D01*
X0370480Y0294565D01*
X0370406Y0294705D01*
X0370335Y0294847D01*
X0370267Y0294990D01*
X0370203Y0295135D01*
X0370143Y0295281D01*
X0370087Y0295429D01*
X0370034Y0295578D01*
X0369985Y0295729D01*
X0369940Y0295881D01*
X0369899Y0296034D01*
X0369861Y0296187D01*
X0369828Y0296342D01*
X0369798Y0296498D01*
X0369772Y0296654D01*
X0369751Y0296811D01*
X0369733Y0296968D01*
X0369719Y0297126D01*
X0369709Y0297284D01*
X0369703Y0297442D01*
X0369701Y0297600D01*
X0174701Y0297600D02*
X0174703Y0297758D01*
X0174709Y0297916D01*
X0174719Y0298074D01*
X0174733Y0298232D01*
X0174751Y0298389D01*
X0174772Y0298546D01*
X0174798Y0298702D01*
X0174828Y0298858D01*
X0174861Y0299013D01*
X0174899Y0299166D01*
X0174940Y0299319D01*
X0174985Y0299471D01*
X0175034Y0299622D01*
X0175087Y0299771D01*
X0175143Y0299919D01*
X0175203Y0300065D01*
X0175267Y0300210D01*
X0175335Y0300353D01*
X0175406Y0300495D01*
X0175480Y0300635D01*
X0175558Y0300772D01*
X0175640Y0300908D01*
X0175724Y0301042D01*
X0175813Y0301173D01*
X0175904Y0301302D01*
X0175999Y0301429D01*
X0176096Y0301554D01*
X0176197Y0301676D01*
X0176301Y0301795D01*
X0176408Y0301912D01*
X0176518Y0302026D01*
X0176631Y0302137D01*
X0176746Y0302246D01*
X0176864Y0302351D01*
X0176985Y0302453D01*
X0177108Y0302553D01*
X0177234Y0302649D01*
X0177362Y0302742D01*
X0177492Y0302832D01*
X0177625Y0302918D01*
X0177760Y0303002D01*
X0177896Y0303081D01*
X0178035Y0303158D01*
X0178176Y0303230D01*
X0178318Y0303300D01*
X0178462Y0303365D01*
X0178608Y0303427D01*
X0178755Y0303485D01*
X0178904Y0303540D01*
X0179054Y0303591D01*
X0179205Y0303638D01*
X0179357Y0303681D01*
X0179510Y0303720D01*
X0179665Y0303756D01*
X0179820Y0303787D01*
X0179976Y0303815D01*
X0180132Y0303839D01*
X0180289Y0303859D01*
X0180447Y0303875D01*
X0180604Y0303887D01*
X0180763Y0303895D01*
X0180921Y0303899D01*
X0181079Y0303899D01*
X0181237Y0303895D01*
X0181396Y0303887D01*
X0181553Y0303875D01*
X0181711Y0303859D01*
X0181868Y0303839D01*
X0182024Y0303815D01*
X0182180Y0303787D01*
X0182335Y0303756D01*
X0182490Y0303720D01*
X0182643Y0303681D01*
X0182795Y0303638D01*
X0182946Y0303591D01*
X0183096Y0303540D01*
X0183245Y0303485D01*
X0183392Y0303427D01*
X0183538Y0303365D01*
X0183682Y0303300D01*
X0183824Y0303230D01*
X0183965Y0303158D01*
X0184104Y0303081D01*
X0184240Y0303002D01*
X0184375Y0302918D01*
X0184508Y0302832D01*
X0184638Y0302742D01*
X0184766Y0302649D01*
X0184892Y0302553D01*
X0185015Y0302453D01*
X0185136Y0302351D01*
X0185254Y0302246D01*
X0185369Y0302137D01*
X0185482Y0302026D01*
X0185592Y0301912D01*
X0185699Y0301795D01*
X0185803Y0301676D01*
X0185904Y0301554D01*
X0186001Y0301429D01*
X0186096Y0301302D01*
X0186187Y0301173D01*
X0186276Y0301042D01*
X0186360Y0300908D01*
X0186442Y0300772D01*
X0186520Y0300635D01*
X0186594Y0300495D01*
X0186665Y0300353D01*
X0186733Y0300210D01*
X0186797Y0300065D01*
X0186857Y0299919D01*
X0186913Y0299771D01*
X0186966Y0299622D01*
X0187015Y0299471D01*
X0187060Y0299319D01*
X0187101Y0299166D01*
X0187139Y0299013D01*
X0187172Y0298858D01*
X0187202Y0298702D01*
X0187228Y0298546D01*
X0187249Y0298389D01*
X0187267Y0298232D01*
X0187281Y0298074D01*
X0187291Y0297916D01*
X0187297Y0297758D01*
X0187299Y0297600D01*
X0187297Y0297442D01*
X0187291Y0297284D01*
X0187281Y0297126D01*
X0187267Y0296968D01*
X0187249Y0296811D01*
X0187228Y0296654D01*
X0187202Y0296498D01*
X0187172Y0296342D01*
X0187139Y0296187D01*
X0187101Y0296034D01*
X0187060Y0295881D01*
X0187015Y0295729D01*
X0186966Y0295578D01*
X0186913Y0295429D01*
X0186857Y0295281D01*
X0186797Y0295135D01*
X0186733Y0294990D01*
X0186665Y0294847D01*
X0186594Y0294705D01*
X0186520Y0294565D01*
X0186442Y0294428D01*
X0186360Y0294292D01*
X0186276Y0294158D01*
X0186187Y0294027D01*
X0186096Y0293898D01*
X0186001Y0293771D01*
X0185904Y0293646D01*
X0185803Y0293524D01*
X0185699Y0293405D01*
X0185592Y0293288D01*
X0185482Y0293174D01*
X0185369Y0293063D01*
X0185254Y0292954D01*
X0185136Y0292849D01*
X0185015Y0292747D01*
X0184892Y0292647D01*
X0184766Y0292551D01*
X0184638Y0292458D01*
X0184508Y0292368D01*
X0184375Y0292282D01*
X0184240Y0292198D01*
X0184104Y0292119D01*
X0183965Y0292042D01*
X0183824Y0291970D01*
X0183682Y0291900D01*
X0183538Y0291835D01*
X0183392Y0291773D01*
X0183245Y0291715D01*
X0183096Y0291660D01*
X0182946Y0291609D01*
X0182795Y0291562D01*
X0182643Y0291519D01*
X0182490Y0291480D01*
X0182335Y0291444D01*
X0182180Y0291413D01*
X0182024Y0291385D01*
X0181868Y0291361D01*
X0181711Y0291341D01*
X0181553Y0291325D01*
X0181396Y0291313D01*
X0181237Y0291305D01*
X0181079Y0291301D01*
X0180921Y0291301D01*
X0180763Y0291305D01*
X0180604Y0291313D01*
X0180447Y0291325D01*
X0180289Y0291341D01*
X0180132Y0291361D01*
X0179976Y0291385D01*
X0179820Y0291413D01*
X0179665Y0291444D01*
X0179510Y0291480D01*
X0179357Y0291519D01*
X0179205Y0291562D01*
X0179054Y0291609D01*
X0178904Y0291660D01*
X0178755Y0291715D01*
X0178608Y0291773D01*
X0178462Y0291835D01*
X0178318Y0291900D01*
X0178176Y0291970D01*
X0178035Y0292042D01*
X0177896Y0292119D01*
X0177760Y0292198D01*
X0177625Y0292282D01*
X0177492Y0292368D01*
X0177362Y0292458D01*
X0177234Y0292551D01*
X0177108Y0292647D01*
X0176985Y0292747D01*
X0176864Y0292849D01*
X0176746Y0292954D01*
X0176631Y0293063D01*
X0176518Y0293174D01*
X0176408Y0293288D01*
X0176301Y0293405D01*
X0176197Y0293524D01*
X0176096Y0293646D01*
X0175999Y0293771D01*
X0175904Y0293898D01*
X0175813Y0294027D01*
X0175724Y0294158D01*
X0175640Y0294292D01*
X0175558Y0294428D01*
X0175480Y0294565D01*
X0175406Y0294705D01*
X0175335Y0294847D01*
X0175267Y0294990D01*
X0175203Y0295135D01*
X0175143Y0295281D01*
X0175087Y0295429D01*
X0175034Y0295578D01*
X0174985Y0295729D01*
X0174940Y0295881D01*
X0174899Y0296034D01*
X0174861Y0296187D01*
X0174828Y0296342D01*
X0174798Y0296498D01*
X0174772Y0296654D01*
X0174751Y0296811D01*
X0174733Y0296968D01*
X0174719Y0297126D01*
X0174709Y0297284D01*
X0174703Y0297442D01*
X0174701Y0297600D01*
M02*
