%
M48
M72
T01C0.01181
T02C0.03150
T03C0.03200
T04C0.04000
T05C0.04400
T06C0.12598
%
T01
X232750Y222350
X234250Y244100
T02
X316000Y157600
X316000Y147600
X316000Y137600
X336000Y137600
X336000Y147600
X336000Y157600
X336000Y117600
X316000Y117600
X316000Y97600
X316000Y87600
X316000Y77600
X336000Y77600
X336000Y87600
X336000Y97600
X336000Y57600
X316000Y57600
X136000Y57600
X116000Y57600
X116000Y77600
X116000Y87600
X116000Y97600
X136000Y97600
X136000Y87600
X136000Y77600
X136000Y117600
X116000Y117600
X116000Y137600
X116000Y147600
X116000Y157600
X136000Y157600
X136000Y147600
X136000Y137600
T03
X81000Y152600
X81000Y162600
X81000Y172600
X66000Y187600
X61000Y180100
X56000Y187600
X81000Y202600
X76000Y217600
X91000Y217600
X106000Y212600
X116000Y212600
X141000Y207600
X141000Y192600
X141000Y182600
X116000Y182600
X106000Y182600
X61000Y157600
X56000Y165100
X51000Y157600
X31000Y162600
X21000Y162600
X26000Y170100
X21000Y187600
X26000Y195100
X31000Y187600
X46000Y217600
X61000Y217600
X61000Y247600
X61000Y257600
X46000Y257600
X46000Y247600
X76000Y247600
X76000Y257600
X91000Y257600
X91000Y247600
X91000Y287600
X76000Y287600
X61000Y287600
X46000Y287600
X136000Y297600
X136000Y307600
X151000Y262600
X141000Y237600
X151000Y232600
X221000Y187600
X226000Y195100
X231000Y187600
X226000Y170100
X221000Y162600
X231000Y162600
X251000Y157600
X256000Y165100
X261000Y157600
X281000Y152600
X281000Y162600
X281000Y177600
X261000Y187600
X256000Y180100
X251000Y187600
X281000Y207600
X276000Y217600
X261000Y217600
X246000Y217600
X246000Y247600
X246000Y257600
X261000Y257600
X261000Y247600
X276000Y247600
X276000Y257600
X291000Y257600
X291000Y247600
X291000Y217600
X306000Y212600
X316000Y212600
X336000Y202600
X341000Y192600
X341000Y182600
X316000Y182600
X306000Y182600
X336000Y232600
X346000Y237600
X346000Y267600
X336000Y297600
X336000Y307600
X291000Y287600
X276000Y287600
X261000Y287600
X246000Y287600
X251000Y137600
X251000Y127600
X276000Y132600
X276000Y102600
X261000Y97600
X251000Y97600
X276000Y87600
X286000Y87600
X261000Y67600
X251000Y67600
X271000Y62600
X271000Y52600
X251000Y47600
X251000Y37600
X261000Y17600
X291000Y17600
X301000Y52600
X301000Y62600
X221000Y127600
X221000Y137600
X101000Y62600
X101000Y52600
X71000Y52600
X71000Y62600
X61000Y67600
X51000Y67600
X56000Y47600
X56000Y37600
X66000Y17600
X96000Y17600
X86000Y82600
X76000Y82600
X61000Y97600
X51000Y97600
X76000Y102600
X51000Y127600
X51000Y137600
X76000Y132600
X21000Y127600
X21000Y137600
T04
X26000Y112600
X26000Y102600
X26000Y92600
X26000Y72600
X26000Y62600
X26000Y52600
X81000Y37600
X101000Y37600
X126000Y37600
X146000Y37600
X146000Y17600
X126000Y17600
X161000Y57600
X171000Y57600
X181000Y57600
X181000Y87600
X171000Y87600
X161000Y87600
X161000Y117600
X171000Y117600
X181000Y117600
X181000Y147600
X171000Y147600
X161000Y147600
X166000Y177600
X176000Y177600
X166000Y212600
X186000Y212600
X186000Y232600
X166000Y232600
X176000Y257600
X186000Y257600
X151000Y277600
X131000Y277600
X111000Y272600
X111000Y262600
X111000Y252600
X111000Y242600
X111000Y232600
X111000Y282600
X111000Y292600
X111000Y302600
X71000Y302600
X61000Y302600
X51000Y302600
X41000Y302600
X21000Y302600
X21000Y292600
X21000Y282600
X21000Y272600
X21000Y262600
X21000Y252600
X21000Y242600
X21000Y232600
X221000Y232600
X221000Y242600
X221000Y252600
X221000Y262600
X221000Y272600
X221000Y282600
X221000Y292600
X221000Y302600
X241000Y302600
X251000Y302600
X261000Y302600
X271000Y302600
X311000Y302600
X311000Y292600
X311000Y282600
X311000Y272600
X311000Y262600
X311000Y252600
X311000Y242600
X311000Y232600
X361000Y232600
X381000Y232600
X381000Y212600
X361000Y212600
X366000Y177600
X376000Y177600
X371000Y147600
X361000Y147600
X381000Y147600
X381000Y117600
X371000Y117600
X361000Y117600
X361000Y87600
X371000Y87600
X381000Y87600
X381000Y57600
X371000Y57600
X361000Y57600
X341000Y37600
X321000Y37600
X321000Y17600
X341000Y17600
X291000Y37600
X271000Y37600
X226000Y52600
X226000Y62600
X226000Y72600
X226000Y92600
X226000Y102600
X226000Y112600
X371000Y257600
X381000Y257600
X351000Y282600
X331000Y282600
T05
X326000Y267600
X326000Y227600
X301000Y162600
X301000Y122600
X301000Y112600
X301000Y72600
X126000Y222600
X126000Y262600
X101000Y162600
X101000Y122600
X101000Y112600
X101000Y72600
T06
X21000Y22600
X181000Y22600
X221000Y22600
X376000Y22600
X376000Y297600
X181000Y297600
M30
