%
M48
M72
T01C0.03150
T02C0.03200
T03C0.04000
T04C0.04400
T05C0.11811
%
T01
X92600Y17600
X112600Y17600
X112600Y37600
X112600Y47600
X112600Y57600
X92600Y57600
X92600Y47600
X92600Y37600
X92600Y92600
X112600Y92600
X112600Y112600
X112600Y122600
X112600Y132600
X92600Y132600
X92600Y122600
X92600Y112600
X92600Y172600
X112600Y172600
X112600Y192600
X112600Y202600
X112600Y212600
X92600Y212600
X92600Y202600
X92600Y192600
X92600Y252600
X112600Y252600
X112600Y272600
X112600Y282600
X112600Y292600
X92600Y292600
X92600Y282600
X92600Y272600
X292600Y272600
X292600Y282600
X292600Y292600
X312600Y292600
X312600Y282600
X312600Y272600
X312600Y252600
X292600Y252600
X292600Y212600
X292600Y202600
X292600Y192600
X312600Y192600
X312600Y202600
X312600Y212600
X312600Y172600
X292600Y172600
X292600Y132600
X292600Y122600
X292600Y112600
X312600Y112600
X312600Y122600
X312600Y132600
X312600Y92600
X292600Y92600
X292600Y57600
X292600Y47600
X292600Y37600
X312600Y37600
X312600Y47600
X312600Y57600
X312600Y17600
X292600Y17600
T02
X277600Y67600
X247600Y67600
X222600Y67600
X222600Y57600
X222600Y137600
X222600Y147600
X242600Y142600
X272600Y142600
X222600Y217600
X222600Y227600
X242600Y222600
X272600Y222600
X222600Y297600
X222600Y307600
X242600Y302600
X272600Y302600
X72600Y302600
X42600Y302600
X22600Y297600
X22600Y307600
X22600Y227600
X22600Y217600
X42600Y222600
X72600Y222600
X22600Y147600
X22600Y137600
X42600Y142600
X72600Y142600
X72600Y67600
X42600Y67600
X22600Y67600
X22600Y57600
T03
X72600Y47600
X72600Y37600
X132600Y32600
X132600Y22600
X132600Y12600
X132600Y47600
X132600Y57600
X132600Y67600
X132600Y87600
X132600Y97600
X132600Y107600
X132600Y122600
X132600Y132600
X132600Y142600
X132600Y167600
X132600Y177600
X132600Y187600
X132600Y202600
X132600Y212600
X132600Y222600
X132600Y247600
X132600Y257600
X132600Y267600
X132600Y282600
X132600Y292600
X132600Y302600
X72600Y282600
X72600Y272600
X72600Y202600
X72600Y192600
X72600Y122600
X72600Y112600
X272600Y112600
X272600Y122600
X332600Y122600
X332600Y132600
X332600Y142600
X332600Y167600
X332600Y177600
X332600Y187600
X332600Y202600
X332600Y212600
X332600Y222600
X332600Y247600
X332600Y257600
X332600Y267600
X332600Y282600
X332600Y292600
X332600Y302600
X272600Y282600
X272600Y272600
X272600Y202600
X272600Y192600
X332600Y107600
X332600Y97600
X332600Y87600
X332600Y67600
X332600Y57600
X332600Y47600
X332600Y32600
X332600Y22600
X332600Y12600
X272600Y37600
X272600Y47600
T04
X32600Y17600
X72600Y17600
X72600Y92600
X32600Y92600
X32600Y172600
X72600Y172600
X72600Y252600
X32600Y252600
X232600Y252600
X272600Y252600
X272600Y172600
X232600Y172600
X232600Y92600
X272600Y92600
X277600Y17600
X237600Y17600
T05
X227600Y37600
X177600Y42600
X227600Y112600
X177600Y117600
X227600Y192600
X177600Y197600
X227600Y272600
X177600Y277600
X27600Y272600
X27600Y192600
X27600Y112600
X27600Y37600
X377600Y42600
X377600Y117600
X377600Y197600
X377600Y277600
M30
