G75*
%MOIN*%
%OFA0B0*%
%FSLAX25Y25*%
%IPPOS*%
%LPD*%
%AMOC8*
5,1,8,0,0,1.08239X$1,22.5*
%
%ADD10C,0.00000*%
%ADD11C,0.07400*%
%ADD12C,0.06800*%
%ADD13OC8,0.06000*%
%ADD14C,0.05950*%
%ADD15C,0.12611*%
D10*
X0002600Y0002600D02*
X0002600Y0317561D01*
X0396301Y0317561D01*
X0396301Y0002600D01*
X0002600Y0002600D01*
X0021694Y0037600D02*
X0021696Y0037753D01*
X0021702Y0037907D01*
X0021712Y0038060D01*
X0021726Y0038212D01*
X0021744Y0038365D01*
X0021766Y0038516D01*
X0021791Y0038667D01*
X0021821Y0038818D01*
X0021855Y0038968D01*
X0021892Y0039116D01*
X0021933Y0039264D01*
X0021978Y0039410D01*
X0022027Y0039556D01*
X0022080Y0039700D01*
X0022136Y0039842D01*
X0022196Y0039983D01*
X0022260Y0040123D01*
X0022327Y0040261D01*
X0022398Y0040397D01*
X0022473Y0040531D01*
X0022550Y0040663D01*
X0022632Y0040793D01*
X0022716Y0040921D01*
X0022804Y0041047D01*
X0022895Y0041170D01*
X0022989Y0041291D01*
X0023087Y0041409D01*
X0023187Y0041525D01*
X0023291Y0041638D01*
X0023397Y0041749D01*
X0023506Y0041857D01*
X0023618Y0041962D01*
X0023732Y0042063D01*
X0023850Y0042162D01*
X0023969Y0042258D01*
X0024091Y0042351D01*
X0024216Y0042440D01*
X0024343Y0042527D01*
X0024472Y0042609D01*
X0024603Y0042689D01*
X0024736Y0042765D01*
X0024871Y0042838D01*
X0025008Y0042907D01*
X0025147Y0042972D01*
X0025287Y0043034D01*
X0025429Y0043092D01*
X0025572Y0043147D01*
X0025717Y0043198D01*
X0025863Y0043245D01*
X0026010Y0043288D01*
X0026158Y0043327D01*
X0026307Y0043363D01*
X0026457Y0043394D01*
X0026608Y0043422D01*
X0026759Y0043446D01*
X0026912Y0043466D01*
X0027064Y0043482D01*
X0027217Y0043494D01*
X0027370Y0043502D01*
X0027523Y0043506D01*
X0027677Y0043506D01*
X0027830Y0043502D01*
X0027983Y0043494D01*
X0028136Y0043482D01*
X0028288Y0043466D01*
X0028441Y0043446D01*
X0028592Y0043422D01*
X0028743Y0043394D01*
X0028893Y0043363D01*
X0029042Y0043327D01*
X0029190Y0043288D01*
X0029337Y0043245D01*
X0029483Y0043198D01*
X0029628Y0043147D01*
X0029771Y0043092D01*
X0029913Y0043034D01*
X0030053Y0042972D01*
X0030192Y0042907D01*
X0030329Y0042838D01*
X0030464Y0042765D01*
X0030597Y0042689D01*
X0030728Y0042609D01*
X0030857Y0042527D01*
X0030984Y0042440D01*
X0031109Y0042351D01*
X0031231Y0042258D01*
X0031350Y0042162D01*
X0031468Y0042063D01*
X0031582Y0041962D01*
X0031694Y0041857D01*
X0031803Y0041749D01*
X0031909Y0041638D01*
X0032013Y0041525D01*
X0032113Y0041409D01*
X0032211Y0041291D01*
X0032305Y0041170D01*
X0032396Y0041047D01*
X0032484Y0040921D01*
X0032568Y0040793D01*
X0032650Y0040663D01*
X0032727Y0040531D01*
X0032802Y0040397D01*
X0032873Y0040261D01*
X0032940Y0040123D01*
X0033004Y0039983D01*
X0033064Y0039842D01*
X0033120Y0039700D01*
X0033173Y0039556D01*
X0033222Y0039410D01*
X0033267Y0039264D01*
X0033308Y0039116D01*
X0033345Y0038968D01*
X0033379Y0038818D01*
X0033409Y0038667D01*
X0033434Y0038516D01*
X0033456Y0038365D01*
X0033474Y0038212D01*
X0033488Y0038060D01*
X0033498Y0037907D01*
X0033504Y0037753D01*
X0033506Y0037600D01*
X0033504Y0037447D01*
X0033498Y0037293D01*
X0033488Y0037140D01*
X0033474Y0036988D01*
X0033456Y0036835D01*
X0033434Y0036684D01*
X0033409Y0036533D01*
X0033379Y0036382D01*
X0033345Y0036232D01*
X0033308Y0036084D01*
X0033267Y0035936D01*
X0033222Y0035790D01*
X0033173Y0035644D01*
X0033120Y0035500D01*
X0033064Y0035358D01*
X0033004Y0035217D01*
X0032940Y0035077D01*
X0032873Y0034939D01*
X0032802Y0034803D01*
X0032727Y0034669D01*
X0032650Y0034537D01*
X0032568Y0034407D01*
X0032484Y0034279D01*
X0032396Y0034153D01*
X0032305Y0034030D01*
X0032211Y0033909D01*
X0032113Y0033791D01*
X0032013Y0033675D01*
X0031909Y0033562D01*
X0031803Y0033451D01*
X0031694Y0033343D01*
X0031582Y0033238D01*
X0031468Y0033137D01*
X0031350Y0033038D01*
X0031231Y0032942D01*
X0031109Y0032849D01*
X0030984Y0032760D01*
X0030857Y0032673D01*
X0030728Y0032591D01*
X0030597Y0032511D01*
X0030464Y0032435D01*
X0030329Y0032362D01*
X0030192Y0032293D01*
X0030053Y0032228D01*
X0029913Y0032166D01*
X0029771Y0032108D01*
X0029628Y0032053D01*
X0029483Y0032002D01*
X0029337Y0031955D01*
X0029190Y0031912D01*
X0029042Y0031873D01*
X0028893Y0031837D01*
X0028743Y0031806D01*
X0028592Y0031778D01*
X0028441Y0031754D01*
X0028288Y0031734D01*
X0028136Y0031718D01*
X0027983Y0031706D01*
X0027830Y0031698D01*
X0027677Y0031694D01*
X0027523Y0031694D01*
X0027370Y0031698D01*
X0027217Y0031706D01*
X0027064Y0031718D01*
X0026912Y0031734D01*
X0026759Y0031754D01*
X0026608Y0031778D01*
X0026457Y0031806D01*
X0026307Y0031837D01*
X0026158Y0031873D01*
X0026010Y0031912D01*
X0025863Y0031955D01*
X0025717Y0032002D01*
X0025572Y0032053D01*
X0025429Y0032108D01*
X0025287Y0032166D01*
X0025147Y0032228D01*
X0025008Y0032293D01*
X0024871Y0032362D01*
X0024736Y0032435D01*
X0024603Y0032511D01*
X0024472Y0032591D01*
X0024343Y0032673D01*
X0024216Y0032760D01*
X0024091Y0032849D01*
X0023969Y0032942D01*
X0023850Y0033038D01*
X0023732Y0033137D01*
X0023618Y0033238D01*
X0023506Y0033343D01*
X0023397Y0033451D01*
X0023291Y0033562D01*
X0023187Y0033675D01*
X0023087Y0033791D01*
X0022989Y0033909D01*
X0022895Y0034030D01*
X0022804Y0034153D01*
X0022716Y0034279D01*
X0022632Y0034407D01*
X0022550Y0034537D01*
X0022473Y0034669D01*
X0022398Y0034803D01*
X0022327Y0034939D01*
X0022260Y0035077D01*
X0022196Y0035217D01*
X0022136Y0035358D01*
X0022080Y0035500D01*
X0022027Y0035644D01*
X0021978Y0035790D01*
X0021933Y0035936D01*
X0021892Y0036084D01*
X0021855Y0036232D01*
X0021821Y0036382D01*
X0021791Y0036533D01*
X0021766Y0036684D01*
X0021744Y0036835D01*
X0021726Y0036988D01*
X0021712Y0037140D01*
X0021702Y0037293D01*
X0021696Y0037447D01*
X0021694Y0037600D01*
X0021694Y0112600D02*
X0021696Y0112753D01*
X0021702Y0112907D01*
X0021712Y0113060D01*
X0021726Y0113212D01*
X0021744Y0113365D01*
X0021766Y0113516D01*
X0021791Y0113667D01*
X0021821Y0113818D01*
X0021855Y0113968D01*
X0021892Y0114116D01*
X0021933Y0114264D01*
X0021978Y0114410D01*
X0022027Y0114556D01*
X0022080Y0114700D01*
X0022136Y0114842D01*
X0022196Y0114983D01*
X0022260Y0115123D01*
X0022327Y0115261D01*
X0022398Y0115397D01*
X0022473Y0115531D01*
X0022550Y0115663D01*
X0022632Y0115793D01*
X0022716Y0115921D01*
X0022804Y0116047D01*
X0022895Y0116170D01*
X0022989Y0116291D01*
X0023087Y0116409D01*
X0023187Y0116525D01*
X0023291Y0116638D01*
X0023397Y0116749D01*
X0023506Y0116857D01*
X0023618Y0116962D01*
X0023732Y0117063D01*
X0023850Y0117162D01*
X0023969Y0117258D01*
X0024091Y0117351D01*
X0024216Y0117440D01*
X0024343Y0117527D01*
X0024472Y0117609D01*
X0024603Y0117689D01*
X0024736Y0117765D01*
X0024871Y0117838D01*
X0025008Y0117907D01*
X0025147Y0117972D01*
X0025287Y0118034D01*
X0025429Y0118092D01*
X0025572Y0118147D01*
X0025717Y0118198D01*
X0025863Y0118245D01*
X0026010Y0118288D01*
X0026158Y0118327D01*
X0026307Y0118363D01*
X0026457Y0118394D01*
X0026608Y0118422D01*
X0026759Y0118446D01*
X0026912Y0118466D01*
X0027064Y0118482D01*
X0027217Y0118494D01*
X0027370Y0118502D01*
X0027523Y0118506D01*
X0027677Y0118506D01*
X0027830Y0118502D01*
X0027983Y0118494D01*
X0028136Y0118482D01*
X0028288Y0118466D01*
X0028441Y0118446D01*
X0028592Y0118422D01*
X0028743Y0118394D01*
X0028893Y0118363D01*
X0029042Y0118327D01*
X0029190Y0118288D01*
X0029337Y0118245D01*
X0029483Y0118198D01*
X0029628Y0118147D01*
X0029771Y0118092D01*
X0029913Y0118034D01*
X0030053Y0117972D01*
X0030192Y0117907D01*
X0030329Y0117838D01*
X0030464Y0117765D01*
X0030597Y0117689D01*
X0030728Y0117609D01*
X0030857Y0117527D01*
X0030984Y0117440D01*
X0031109Y0117351D01*
X0031231Y0117258D01*
X0031350Y0117162D01*
X0031468Y0117063D01*
X0031582Y0116962D01*
X0031694Y0116857D01*
X0031803Y0116749D01*
X0031909Y0116638D01*
X0032013Y0116525D01*
X0032113Y0116409D01*
X0032211Y0116291D01*
X0032305Y0116170D01*
X0032396Y0116047D01*
X0032484Y0115921D01*
X0032568Y0115793D01*
X0032650Y0115663D01*
X0032727Y0115531D01*
X0032802Y0115397D01*
X0032873Y0115261D01*
X0032940Y0115123D01*
X0033004Y0114983D01*
X0033064Y0114842D01*
X0033120Y0114700D01*
X0033173Y0114556D01*
X0033222Y0114410D01*
X0033267Y0114264D01*
X0033308Y0114116D01*
X0033345Y0113968D01*
X0033379Y0113818D01*
X0033409Y0113667D01*
X0033434Y0113516D01*
X0033456Y0113365D01*
X0033474Y0113212D01*
X0033488Y0113060D01*
X0033498Y0112907D01*
X0033504Y0112753D01*
X0033506Y0112600D01*
X0033504Y0112447D01*
X0033498Y0112293D01*
X0033488Y0112140D01*
X0033474Y0111988D01*
X0033456Y0111835D01*
X0033434Y0111684D01*
X0033409Y0111533D01*
X0033379Y0111382D01*
X0033345Y0111232D01*
X0033308Y0111084D01*
X0033267Y0110936D01*
X0033222Y0110790D01*
X0033173Y0110644D01*
X0033120Y0110500D01*
X0033064Y0110358D01*
X0033004Y0110217D01*
X0032940Y0110077D01*
X0032873Y0109939D01*
X0032802Y0109803D01*
X0032727Y0109669D01*
X0032650Y0109537D01*
X0032568Y0109407D01*
X0032484Y0109279D01*
X0032396Y0109153D01*
X0032305Y0109030D01*
X0032211Y0108909D01*
X0032113Y0108791D01*
X0032013Y0108675D01*
X0031909Y0108562D01*
X0031803Y0108451D01*
X0031694Y0108343D01*
X0031582Y0108238D01*
X0031468Y0108137D01*
X0031350Y0108038D01*
X0031231Y0107942D01*
X0031109Y0107849D01*
X0030984Y0107760D01*
X0030857Y0107673D01*
X0030728Y0107591D01*
X0030597Y0107511D01*
X0030464Y0107435D01*
X0030329Y0107362D01*
X0030192Y0107293D01*
X0030053Y0107228D01*
X0029913Y0107166D01*
X0029771Y0107108D01*
X0029628Y0107053D01*
X0029483Y0107002D01*
X0029337Y0106955D01*
X0029190Y0106912D01*
X0029042Y0106873D01*
X0028893Y0106837D01*
X0028743Y0106806D01*
X0028592Y0106778D01*
X0028441Y0106754D01*
X0028288Y0106734D01*
X0028136Y0106718D01*
X0027983Y0106706D01*
X0027830Y0106698D01*
X0027677Y0106694D01*
X0027523Y0106694D01*
X0027370Y0106698D01*
X0027217Y0106706D01*
X0027064Y0106718D01*
X0026912Y0106734D01*
X0026759Y0106754D01*
X0026608Y0106778D01*
X0026457Y0106806D01*
X0026307Y0106837D01*
X0026158Y0106873D01*
X0026010Y0106912D01*
X0025863Y0106955D01*
X0025717Y0107002D01*
X0025572Y0107053D01*
X0025429Y0107108D01*
X0025287Y0107166D01*
X0025147Y0107228D01*
X0025008Y0107293D01*
X0024871Y0107362D01*
X0024736Y0107435D01*
X0024603Y0107511D01*
X0024472Y0107591D01*
X0024343Y0107673D01*
X0024216Y0107760D01*
X0024091Y0107849D01*
X0023969Y0107942D01*
X0023850Y0108038D01*
X0023732Y0108137D01*
X0023618Y0108238D01*
X0023506Y0108343D01*
X0023397Y0108451D01*
X0023291Y0108562D01*
X0023187Y0108675D01*
X0023087Y0108791D01*
X0022989Y0108909D01*
X0022895Y0109030D01*
X0022804Y0109153D01*
X0022716Y0109279D01*
X0022632Y0109407D01*
X0022550Y0109537D01*
X0022473Y0109669D01*
X0022398Y0109803D01*
X0022327Y0109939D01*
X0022260Y0110077D01*
X0022196Y0110217D01*
X0022136Y0110358D01*
X0022080Y0110500D01*
X0022027Y0110644D01*
X0021978Y0110790D01*
X0021933Y0110936D01*
X0021892Y0111084D01*
X0021855Y0111232D01*
X0021821Y0111382D01*
X0021791Y0111533D01*
X0021766Y0111684D01*
X0021744Y0111835D01*
X0021726Y0111988D01*
X0021712Y0112140D01*
X0021702Y0112293D01*
X0021696Y0112447D01*
X0021694Y0112600D01*
X0021694Y0192600D02*
X0021696Y0192753D01*
X0021702Y0192907D01*
X0021712Y0193060D01*
X0021726Y0193212D01*
X0021744Y0193365D01*
X0021766Y0193516D01*
X0021791Y0193667D01*
X0021821Y0193818D01*
X0021855Y0193968D01*
X0021892Y0194116D01*
X0021933Y0194264D01*
X0021978Y0194410D01*
X0022027Y0194556D01*
X0022080Y0194700D01*
X0022136Y0194842D01*
X0022196Y0194983D01*
X0022260Y0195123D01*
X0022327Y0195261D01*
X0022398Y0195397D01*
X0022473Y0195531D01*
X0022550Y0195663D01*
X0022632Y0195793D01*
X0022716Y0195921D01*
X0022804Y0196047D01*
X0022895Y0196170D01*
X0022989Y0196291D01*
X0023087Y0196409D01*
X0023187Y0196525D01*
X0023291Y0196638D01*
X0023397Y0196749D01*
X0023506Y0196857D01*
X0023618Y0196962D01*
X0023732Y0197063D01*
X0023850Y0197162D01*
X0023969Y0197258D01*
X0024091Y0197351D01*
X0024216Y0197440D01*
X0024343Y0197527D01*
X0024472Y0197609D01*
X0024603Y0197689D01*
X0024736Y0197765D01*
X0024871Y0197838D01*
X0025008Y0197907D01*
X0025147Y0197972D01*
X0025287Y0198034D01*
X0025429Y0198092D01*
X0025572Y0198147D01*
X0025717Y0198198D01*
X0025863Y0198245D01*
X0026010Y0198288D01*
X0026158Y0198327D01*
X0026307Y0198363D01*
X0026457Y0198394D01*
X0026608Y0198422D01*
X0026759Y0198446D01*
X0026912Y0198466D01*
X0027064Y0198482D01*
X0027217Y0198494D01*
X0027370Y0198502D01*
X0027523Y0198506D01*
X0027677Y0198506D01*
X0027830Y0198502D01*
X0027983Y0198494D01*
X0028136Y0198482D01*
X0028288Y0198466D01*
X0028441Y0198446D01*
X0028592Y0198422D01*
X0028743Y0198394D01*
X0028893Y0198363D01*
X0029042Y0198327D01*
X0029190Y0198288D01*
X0029337Y0198245D01*
X0029483Y0198198D01*
X0029628Y0198147D01*
X0029771Y0198092D01*
X0029913Y0198034D01*
X0030053Y0197972D01*
X0030192Y0197907D01*
X0030329Y0197838D01*
X0030464Y0197765D01*
X0030597Y0197689D01*
X0030728Y0197609D01*
X0030857Y0197527D01*
X0030984Y0197440D01*
X0031109Y0197351D01*
X0031231Y0197258D01*
X0031350Y0197162D01*
X0031468Y0197063D01*
X0031582Y0196962D01*
X0031694Y0196857D01*
X0031803Y0196749D01*
X0031909Y0196638D01*
X0032013Y0196525D01*
X0032113Y0196409D01*
X0032211Y0196291D01*
X0032305Y0196170D01*
X0032396Y0196047D01*
X0032484Y0195921D01*
X0032568Y0195793D01*
X0032650Y0195663D01*
X0032727Y0195531D01*
X0032802Y0195397D01*
X0032873Y0195261D01*
X0032940Y0195123D01*
X0033004Y0194983D01*
X0033064Y0194842D01*
X0033120Y0194700D01*
X0033173Y0194556D01*
X0033222Y0194410D01*
X0033267Y0194264D01*
X0033308Y0194116D01*
X0033345Y0193968D01*
X0033379Y0193818D01*
X0033409Y0193667D01*
X0033434Y0193516D01*
X0033456Y0193365D01*
X0033474Y0193212D01*
X0033488Y0193060D01*
X0033498Y0192907D01*
X0033504Y0192753D01*
X0033506Y0192600D01*
X0033504Y0192447D01*
X0033498Y0192293D01*
X0033488Y0192140D01*
X0033474Y0191988D01*
X0033456Y0191835D01*
X0033434Y0191684D01*
X0033409Y0191533D01*
X0033379Y0191382D01*
X0033345Y0191232D01*
X0033308Y0191084D01*
X0033267Y0190936D01*
X0033222Y0190790D01*
X0033173Y0190644D01*
X0033120Y0190500D01*
X0033064Y0190358D01*
X0033004Y0190217D01*
X0032940Y0190077D01*
X0032873Y0189939D01*
X0032802Y0189803D01*
X0032727Y0189669D01*
X0032650Y0189537D01*
X0032568Y0189407D01*
X0032484Y0189279D01*
X0032396Y0189153D01*
X0032305Y0189030D01*
X0032211Y0188909D01*
X0032113Y0188791D01*
X0032013Y0188675D01*
X0031909Y0188562D01*
X0031803Y0188451D01*
X0031694Y0188343D01*
X0031582Y0188238D01*
X0031468Y0188137D01*
X0031350Y0188038D01*
X0031231Y0187942D01*
X0031109Y0187849D01*
X0030984Y0187760D01*
X0030857Y0187673D01*
X0030728Y0187591D01*
X0030597Y0187511D01*
X0030464Y0187435D01*
X0030329Y0187362D01*
X0030192Y0187293D01*
X0030053Y0187228D01*
X0029913Y0187166D01*
X0029771Y0187108D01*
X0029628Y0187053D01*
X0029483Y0187002D01*
X0029337Y0186955D01*
X0029190Y0186912D01*
X0029042Y0186873D01*
X0028893Y0186837D01*
X0028743Y0186806D01*
X0028592Y0186778D01*
X0028441Y0186754D01*
X0028288Y0186734D01*
X0028136Y0186718D01*
X0027983Y0186706D01*
X0027830Y0186698D01*
X0027677Y0186694D01*
X0027523Y0186694D01*
X0027370Y0186698D01*
X0027217Y0186706D01*
X0027064Y0186718D01*
X0026912Y0186734D01*
X0026759Y0186754D01*
X0026608Y0186778D01*
X0026457Y0186806D01*
X0026307Y0186837D01*
X0026158Y0186873D01*
X0026010Y0186912D01*
X0025863Y0186955D01*
X0025717Y0187002D01*
X0025572Y0187053D01*
X0025429Y0187108D01*
X0025287Y0187166D01*
X0025147Y0187228D01*
X0025008Y0187293D01*
X0024871Y0187362D01*
X0024736Y0187435D01*
X0024603Y0187511D01*
X0024472Y0187591D01*
X0024343Y0187673D01*
X0024216Y0187760D01*
X0024091Y0187849D01*
X0023969Y0187942D01*
X0023850Y0188038D01*
X0023732Y0188137D01*
X0023618Y0188238D01*
X0023506Y0188343D01*
X0023397Y0188451D01*
X0023291Y0188562D01*
X0023187Y0188675D01*
X0023087Y0188791D01*
X0022989Y0188909D01*
X0022895Y0189030D01*
X0022804Y0189153D01*
X0022716Y0189279D01*
X0022632Y0189407D01*
X0022550Y0189537D01*
X0022473Y0189669D01*
X0022398Y0189803D01*
X0022327Y0189939D01*
X0022260Y0190077D01*
X0022196Y0190217D01*
X0022136Y0190358D01*
X0022080Y0190500D01*
X0022027Y0190644D01*
X0021978Y0190790D01*
X0021933Y0190936D01*
X0021892Y0191084D01*
X0021855Y0191232D01*
X0021821Y0191382D01*
X0021791Y0191533D01*
X0021766Y0191684D01*
X0021744Y0191835D01*
X0021726Y0191988D01*
X0021712Y0192140D01*
X0021702Y0192293D01*
X0021696Y0192447D01*
X0021694Y0192600D01*
X0021694Y0272600D02*
X0021696Y0272753D01*
X0021702Y0272907D01*
X0021712Y0273060D01*
X0021726Y0273212D01*
X0021744Y0273365D01*
X0021766Y0273516D01*
X0021791Y0273667D01*
X0021821Y0273818D01*
X0021855Y0273968D01*
X0021892Y0274116D01*
X0021933Y0274264D01*
X0021978Y0274410D01*
X0022027Y0274556D01*
X0022080Y0274700D01*
X0022136Y0274842D01*
X0022196Y0274983D01*
X0022260Y0275123D01*
X0022327Y0275261D01*
X0022398Y0275397D01*
X0022473Y0275531D01*
X0022550Y0275663D01*
X0022632Y0275793D01*
X0022716Y0275921D01*
X0022804Y0276047D01*
X0022895Y0276170D01*
X0022989Y0276291D01*
X0023087Y0276409D01*
X0023187Y0276525D01*
X0023291Y0276638D01*
X0023397Y0276749D01*
X0023506Y0276857D01*
X0023618Y0276962D01*
X0023732Y0277063D01*
X0023850Y0277162D01*
X0023969Y0277258D01*
X0024091Y0277351D01*
X0024216Y0277440D01*
X0024343Y0277527D01*
X0024472Y0277609D01*
X0024603Y0277689D01*
X0024736Y0277765D01*
X0024871Y0277838D01*
X0025008Y0277907D01*
X0025147Y0277972D01*
X0025287Y0278034D01*
X0025429Y0278092D01*
X0025572Y0278147D01*
X0025717Y0278198D01*
X0025863Y0278245D01*
X0026010Y0278288D01*
X0026158Y0278327D01*
X0026307Y0278363D01*
X0026457Y0278394D01*
X0026608Y0278422D01*
X0026759Y0278446D01*
X0026912Y0278466D01*
X0027064Y0278482D01*
X0027217Y0278494D01*
X0027370Y0278502D01*
X0027523Y0278506D01*
X0027677Y0278506D01*
X0027830Y0278502D01*
X0027983Y0278494D01*
X0028136Y0278482D01*
X0028288Y0278466D01*
X0028441Y0278446D01*
X0028592Y0278422D01*
X0028743Y0278394D01*
X0028893Y0278363D01*
X0029042Y0278327D01*
X0029190Y0278288D01*
X0029337Y0278245D01*
X0029483Y0278198D01*
X0029628Y0278147D01*
X0029771Y0278092D01*
X0029913Y0278034D01*
X0030053Y0277972D01*
X0030192Y0277907D01*
X0030329Y0277838D01*
X0030464Y0277765D01*
X0030597Y0277689D01*
X0030728Y0277609D01*
X0030857Y0277527D01*
X0030984Y0277440D01*
X0031109Y0277351D01*
X0031231Y0277258D01*
X0031350Y0277162D01*
X0031468Y0277063D01*
X0031582Y0276962D01*
X0031694Y0276857D01*
X0031803Y0276749D01*
X0031909Y0276638D01*
X0032013Y0276525D01*
X0032113Y0276409D01*
X0032211Y0276291D01*
X0032305Y0276170D01*
X0032396Y0276047D01*
X0032484Y0275921D01*
X0032568Y0275793D01*
X0032650Y0275663D01*
X0032727Y0275531D01*
X0032802Y0275397D01*
X0032873Y0275261D01*
X0032940Y0275123D01*
X0033004Y0274983D01*
X0033064Y0274842D01*
X0033120Y0274700D01*
X0033173Y0274556D01*
X0033222Y0274410D01*
X0033267Y0274264D01*
X0033308Y0274116D01*
X0033345Y0273968D01*
X0033379Y0273818D01*
X0033409Y0273667D01*
X0033434Y0273516D01*
X0033456Y0273365D01*
X0033474Y0273212D01*
X0033488Y0273060D01*
X0033498Y0272907D01*
X0033504Y0272753D01*
X0033506Y0272600D01*
X0033504Y0272447D01*
X0033498Y0272293D01*
X0033488Y0272140D01*
X0033474Y0271988D01*
X0033456Y0271835D01*
X0033434Y0271684D01*
X0033409Y0271533D01*
X0033379Y0271382D01*
X0033345Y0271232D01*
X0033308Y0271084D01*
X0033267Y0270936D01*
X0033222Y0270790D01*
X0033173Y0270644D01*
X0033120Y0270500D01*
X0033064Y0270358D01*
X0033004Y0270217D01*
X0032940Y0270077D01*
X0032873Y0269939D01*
X0032802Y0269803D01*
X0032727Y0269669D01*
X0032650Y0269537D01*
X0032568Y0269407D01*
X0032484Y0269279D01*
X0032396Y0269153D01*
X0032305Y0269030D01*
X0032211Y0268909D01*
X0032113Y0268791D01*
X0032013Y0268675D01*
X0031909Y0268562D01*
X0031803Y0268451D01*
X0031694Y0268343D01*
X0031582Y0268238D01*
X0031468Y0268137D01*
X0031350Y0268038D01*
X0031231Y0267942D01*
X0031109Y0267849D01*
X0030984Y0267760D01*
X0030857Y0267673D01*
X0030728Y0267591D01*
X0030597Y0267511D01*
X0030464Y0267435D01*
X0030329Y0267362D01*
X0030192Y0267293D01*
X0030053Y0267228D01*
X0029913Y0267166D01*
X0029771Y0267108D01*
X0029628Y0267053D01*
X0029483Y0267002D01*
X0029337Y0266955D01*
X0029190Y0266912D01*
X0029042Y0266873D01*
X0028893Y0266837D01*
X0028743Y0266806D01*
X0028592Y0266778D01*
X0028441Y0266754D01*
X0028288Y0266734D01*
X0028136Y0266718D01*
X0027983Y0266706D01*
X0027830Y0266698D01*
X0027677Y0266694D01*
X0027523Y0266694D01*
X0027370Y0266698D01*
X0027217Y0266706D01*
X0027064Y0266718D01*
X0026912Y0266734D01*
X0026759Y0266754D01*
X0026608Y0266778D01*
X0026457Y0266806D01*
X0026307Y0266837D01*
X0026158Y0266873D01*
X0026010Y0266912D01*
X0025863Y0266955D01*
X0025717Y0267002D01*
X0025572Y0267053D01*
X0025429Y0267108D01*
X0025287Y0267166D01*
X0025147Y0267228D01*
X0025008Y0267293D01*
X0024871Y0267362D01*
X0024736Y0267435D01*
X0024603Y0267511D01*
X0024472Y0267591D01*
X0024343Y0267673D01*
X0024216Y0267760D01*
X0024091Y0267849D01*
X0023969Y0267942D01*
X0023850Y0268038D01*
X0023732Y0268137D01*
X0023618Y0268238D01*
X0023506Y0268343D01*
X0023397Y0268451D01*
X0023291Y0268562D01*
X0023187Y0268675D01*
X0023087Y0268791D01*
X0022989Y0268909D01*
X0022895Y0269030D01*
X0022804Y0269153D01*
X0022716Y0269279D01*
X0022632Y0269407D01*
X0022550Y0269537D01*
X0022473Y0269669D01*
X0022398Y0269803D01*
X0022327Y0269939D01*
X0022260Y0270077D01*
X0022196Y0270217D01*
X0022136Y0270358D01*
X0022080Y0270500D01*
X0022027Y0270644D01*
X0021978Y0270790D01*
X0021933Y0270936D01*
X0021892Y0271084D01*
X0021855Y0271232D01*
X0021821Y0271382D01*
X0021791Y0271533D01*
X0021766Y0271684D01*
X0021744Y0271835D01*
X0021726Y0271988D01*
X0021712Y0272140D01*
X0021702Y0272293D01*
X0021696Y0272447D01*
X0021694Y0272600D01*
X0171694Y0277600D02*
X0171696Y0277753D01*
X0171702Y0277907D01*
X0171712Y0278060D01*
X0171726Y0278212D01*
X0171744Y0278365D01*
X0171766Y0278516D01*
X0171791Y0278667D01*
X0171821Y0278818D01*
X0171855Y0278968D01*
X0171892Y0279116D01*
X0171933Y0279264D01*
X0171978Y0279410D01*
X0172027Y0279556D01*
X0172080Y0279700D01*
X0172136Y0279842D01*
X0172196Y0279983D01*
X0172260Y0280123D01*
X0172327Y0280261D01*
X0172398Y0280397D01*
X0172473Y0280531D01*
X0172550Y0280663D01*
X0172632Y0280793D01*
X0172716Y0280921D01*
X0172804Y0281047D01*
X0172895Y0281170D01*
X0172989Y0281291D01*
X0173087Y0281409D01*
X0173187Y0281525D01*
X0173291Y0281638D01*
X0173397Y0281749D01*
X0173506Y0281857D01*
X0173618Y0281962D01*
X0173732Y0282063D01*
X0173850Y0282162D01*
X0173969Y0282258D01*
X0174091Y0282351D01*
X0174216Y0282440D01*
X0174343Y0282527D01*
X0174472Y0282609D01*
X0174603Y0282689D01*
X0174736Y0282765D01*
X0174871Y0282838D01*
X0175008Y0282907D01*
X0175147Y0282972D01*
X0175287Y0283034D01*
X0175429Y0283092D01*
X0175572Y0283147D01*
X0175717Y0283198D01*
X0175863Y0283245D01*
X0176010Y0283288D01*
X0176158Y0283327D01*
X0176307Y0283363D01*
X0176457Y0283394D01*
X0176608Y0283422D01*
X0176759Y0283446D01*
X0176912Y0283466D01*
X0177064Y0283482D01*
X0177217Y0283494D01*
X0177370Y0283502D01*
X0177523Y0283506D01*
X0177677Y0283506D01*
X0177830Y0283502D01*
X0177983Y0283494D01*
X0178136Y0283482D01*
X0178288Y0283466D01*
X0178441Y0283446D01*
X0178592Y0283422D01*
X0178743Y0283394D01*
X0178893Y0283363D01*
X0179042Y0283327D01*
X0179190Y0283288D01*
X0179337Y0283245D01*
X0179483Y0283198D01*
X0179628Y0283147D01*
X0179771Y0283092D01*
X0179913Y0283034D01*
X0180053Y0282972D01*
X0180192Y0282907D01*
X0180329Y0282838D01*
X0180464Y0282765D01*
X0180597Y0282689D01*
X0180728Y0282609D01*
X0180857Y0282527D01*
X0180984Y0282440D01*
X0181109Y0282351D01*
X0181231Y0282258D01*
X0181350Y0282162D01*
X0181468Y0282063D01*
X0181582Y0281962D01*
X0181694Y0281857D01*
X0181803Y0281749D01*
X0181909Y0281638D01*
X0182013Y0281525D01*
X0182113Y0281409D01*
X0182211Y0281291D01*
X0182305Y0281170D01*
X0182396Y0281047D01*
X0182484Y0280921D01*
X0182568Y0280793D01*
X0182650Y0280663D01*
X0182727Y0280531D01*
X0182802Y0280397D01*
X0182873Y0280261D01*
X0182940Y0280123D01*
X0183004Y0279983D01*
X0183064Y0279842D01*
X0183120Y0279700D01*
X0183173Y0279556D01*
X0183222Y0279410D01*
X0183267Y0279264D01*
X0183308Y0279116D01*
X0183345Y0278968D01*
X0183379Y0278818D01*
X0183409Y0278667D01*
X0183434Y0278516D01*
X0183456Y0278365D01*
X0183474Y0278212D01*
X0183488Y0278060D01*
X0183498Y0277907D01*
X0183504Y0277753D01*
X0183506Y0277600D01*
X0183504Y0277447D01*
X0183498Y0277293D01*
X0183488Y0277140D01*
X0183474Y0276988D01*
X0183456Y0276835D01*
X0183434Y0276684D01*
X0183409Y0276533D01*
X0183379Y0276382D01*
X0183345Y0276232D01*
X0183308Y0276084D01*
X0183267Y0275936D01*
X0183222Y0275790D01*
X0183173Y0275644D01*
X0183120Y0275500D01*
X0183064Y0275358D01*
X0183004Y0275217D01*
X0182940Y0275077D01*
X0182873Y0274939D01*
X0182802Y0274803D01*
X0182727Y0274669D01*
X0182650Y0274537D01*
X0182568Y0274407D01*
X0182484Y0274279D01*
X0182396Y0274153D01*
X0182305Y0274030D01*
X0182211Y0273909D01*
X0182113Y0273791D01*
X0182013Y0273675D01*
X0181909Y0273562D01*
X0181803Y0273451D01*
X0181694Y0273343D01*
X0181582Y0273238D01*
X0181468Y0273137D01*
X0181350Y0273038D01*
X0181231Y0272942D01*
X0181109Y0272849D01*
X0180984Y0272760D01*
X0180857Y0272673D01*
X0180728Y0272591D01*
X0180597Y0272511D01*
X0180464Y0272435D01*
X0180329Y0272362D01*
X0180192Y0272293D01*
X0180053Y0272228D01*
X0179913Y0272166D01*
X0179771Y0272108D01*
X0179628Y0272053D01*
X0179483Y0272002D01*
X0179337Y0271955D01*
X0179190Y0271912D01*
X0179042Y0271873D01*
X0178893Y0271837D01*
X0178743Y0271806D01*
X0178592Y0271778D01*
X0178441Y0271754D01*
X0178288Y0271734D01*
X0178136Y0271718D01*
X0177983Y0271706D01*
X0177830Y0271698D01*
X0177677Y0271694D01*
X0177523Y0271694D01*
X0177370Y0271698D01*
X0177217Y0271706D01*
X0177064Y0271718D01*
X0176912Y0271734D01*
X0176759Y0271754D01*
X0176608Y0271778D01*
X0176457Y0271806D01*
X0176307Y0271837D01*
X0176158Y0271873D01*
X0176010Y0271912D01*
X0175863Y0271955D01*
X0175717Y0272002D01*
X0175572Y0272053D01*
X0175429Y0272108D01*
X0175287Y0272166D01*
X0175147Y0272228D01*
X0175008Y0272293D01*
X0174871Y0272362D01*
X0174736Y0272435D01*
X0174603Y0272511D01*
X0174472Y0272591D01*
X0174343Y0272673D01*
X0174216Y0272760D01*
X0174091Y0272849D01*
X0173969Y0272942D01*
X0173850Y0273038D01*
X0173732Y0273137D01*
X0173618Y0273238D01*
X0173506Y0273343D01*
X0173397Y0273451D01*
X0173291Y0273562D01*
X0173187Y0273675D01*
X0173087Y0273791D01*
X0172989Y0273909D01*
X0172895Y0274030D01*
X0172804Y0274153D01*
X0172716Y0274279D01*
X0172632Y0274407D01*
X0172550Y0274537D01*
X0172473Y0274669D01*
X0172398Y0274803D01*
X0172327Y0274939D01*
X0172260Y0275077D01*
X0172196Y0275217D01*
X0172136Y0275358D01*
X0172080Y0275500D01*
X0172027Y0275644D01*
X0171978Y0275790D01*
X0171933Y0275936D01*
X0171892Y0276084D01*
X0171855Y0276232D01*
X0171821Y0276382D01*
X0171791Y0276533D01*
X0171766Y0276684D01*
X0171744Y0276835D01*
X0171726Y0276988D01*
X0171712Y0277140D01*
X0171702Y0277293D01*
X0171696Y0277447D01*
X0171694Y0277600D01*
X0221694Y0272600D02*
X0221696Y0272753D01*
X0221702Y0272907D01*
X0221712Y0273060D01*
X0221726Y0273212D01*
X0221744Y0273365D01*
X0221766Y0273516D01*
X0221791Y0273667D01*
X0221821Y0273818D01*
X0221855Y0273968D01*
X0221892Y0274116D01*
X0221933Y0274264D01*
X0221978Y0274410D01*
X0222027Y0274556D01*
X0222080Y0274700D01*
X0222136Y0274842D01*
X0222196Y0274983D01*
X0222260Y0275123D01*
X0222327Y0275261D01*
X0222398Y0275397D01*
X0222473Y0275531D01*
X0222550Y0275663D01*
X0222632Y0275793D01*
X0222716Y0275921D01*
X0222804Y0276047D01*
X0222895Y0276170D01*
X0222989Y0276291D01*
X0223087Y0276409D01*
X0223187Y0276525D01*
X0223291Y0276638D01*
X0223397Y0276749D01*
X0223506Y0276857D01*
X0223618Y0276962D01*
X0223732Y0277063D01*
X0223850Y0277162D01*
X0223969Y0277258D01*
X0224091Y0277351D01*
X0224216Y0277440D01*
X0224343Y0277527D01*
X0224472Y0277609D01*
X0224603Y0277689D01*
X0224736Y0277765D01*
X0224871Y0277838D01*
X0225008Y0277907D01*
X0225147Y0277972D01*
X0225287Y0278034D01*
X0225429Y0278092D01*
X0225572Y0278147D01*
X0225717Y0278198D01*
X0225863Y0278245D01*
X0226010Y0278288D01*
X0226158Y0278327D01*
X0226307Y0278363D01*
X0226457Y0278394D01*
X0226608Y0278422D01*
X0226759Y0278446D01*
X0226912Y0278466D01*
X0227064Y0278482D01*
X0227217Y0278494D01*
X0227370Y0278502D01*
X0227523Y0278506D01*
X0227677Y0278506D01*
X0227830Y0278502D01*
X0227983Y0278494D01*
X0228136Y0278482D01*
X0228288Y0278466D01*
X0228441Y0278446D01*
X0228592Y0278422D01*
X0228743Y0278394D01*
X0228893Y0278363D01*
X0229042Y0278327D01*
X0229190Y0278288D01*
X0229337Y0278245D01*
X0229483Y0278198D01*
X0229628Y0278147D01*
X0229771Y0278092D01*
X0229913Y0278034D01*
X0230053Y0277972D01*
X0230192Y0277907D01*
X0230329Y0277838D01*
X0230464Y0277765D01*
X0230597Y0277689D01*
X0230728Y0277609D01*
X0230857Y0277527D01*
X0230984Y0277440D01*
X0231109Y0277351D01*
X0231231Y0277258D01*
X0231350Y0277162D01*
X0231468Y0277063D01*
X0231582Y0276962D01*
X0231694Y0276857D01*
X0231803Y0276749D01*
X0231909Y0276638D01*
X0232013Y0276525D01*
X0232113Y0276409D01*
X0232211Y0276291D01*
X0232305Y0276170D01*
X0232396Y0276047D01*
X0232484Y0275921D01*
X0232568Y0275793D01*
X0232650Y0275663D01*
X0232727Y0275531D01*
X0232802Y0275397D01*
X0232873Y0275261D01*
X0232940Y0275123D01*
X0233004Y0274983D01*
X0233064Y0274842D01*
X0233120Y0274700D01*
X0233173Y0274556D01*
X0233222Y0274410D01*
X0233267Y0274264D01*
X0233308Y0274116D01*
X0233345Y0273968D01*
X0233379Y0273818D01*
X0233409Y0273667D01*
X0233434Y0273516D01*
X0233456Y0273365D01*
X0233474Y0273212D01*
X0233488Y0273060D01*
X0233498Y0272907D01*
X0233504Y0272753D01*
X0233506Y0272600D01*
X0233504Y0272447D01*
X0233498Y0272293D01*
X0233488Y0272140D01*
X0233474Y0271988D01*
X0233456Y0271835D01*
X0233434Y0271684D01*
X0233409Y0271533D01*
X0233379Y0271382D01*
X0233345Y0271232D01*
X0233308Y0271084D01*
X0233267Y0270936D01*
X0233222Y0270790D01*
X0233173Y0270644D01*
X0233120Y0270500D01*
X0233064Y0270358D01*
X0233004Y0270217D01*
X0232940Y0270077D01*
X0232873Y0269939D01*
X0232802Y0269803D01*
X0232727Y0269669D01*
X0232650Y0269537D01*
X0232568Y0269407D01*
X0232484Y0269279D01*
X0232396Y0269153D01*
X0232305Y0269030D01*
X0232211Y0268909D01*
X0232113Y0268791D01*
X0232013Y0268675D01*
X0231909Y0268562D01*
X0231803Y0268451D01*
X0231694Y0268343D01*
X0231582Y0268238D01*
X0231468Y0268137D01*
X0231350Y0268038D01*
X0231231Y0267942D01*
X0231109Y0267849D01*
X0230984Y0267760D01*
X0230857Y0267673D01*
X0230728Y0267591D01*
X0230597Y0267511D01*
X0230464Y0267435D01*
X0230329Y0267362D01*
X0230192Y0267293D01*
X0230053Y0267228D01*
X0229913Y0267166D01*
X0229771Y0267108D01*
X0229628Y0267053D01*
X0229483Y0267002D01*
X0229337Y0266955D01*
X0229190Y0266912D01*
X0229042Y0266873D01*
X0228893Y0266837D01*
X0228743Y0266806D01*
X0228592Y0266778D01*
X0228441Y0266754D01*
X0228288Y0266734D01*
X0228136Y0266718D01*
X0227983Y0266706D01*
X0227830Y0266698D01*
X0227677Y0266694D01*
X0227523Y0266694D01*
X0227370Y0266698D01*
X0227217Y0266706D01*
X0227064Y0266718D01*
X0226912Y0266734D01*
X0226759Y0266754D01*
X0226608Y0266778D01*
X0226457Y0266806D01*
X0226307Y0266837D01*
X0226158Y0266873D01*
X0226010Y0266912D01*
X0225863Y0266955D01*
X0225717Y0267002D01*
X0225572Y0267053D01*
X0225429Y0267108D01*
X0225287Y0267166D01*
X0225147Y0267228D01*
X0225008Y0267293D01*
X0224871Y0267362D01*
X0224736Y0267435D01*
X0224603Y0267511D01*
X0224472Y0267591D01*
X0224343Y0267673D01*
X0224216Y0267760D01*
X0224091Y0267849D01*
X0223969Y0267942D01*
X0223850Y0268038D01*
X0223732Y0268137D01*
X0223618Y0268238D01*
X0223506Y0268343D01*
X0223397Y0268451D01*
X0223291Y0268562D01*
X0223187Y0268675D01*
X0223087Y0268791D01*
X0222989Y0268909D01*
X0222895Y0269030D01*
X0222804Y0269153D01*
X0222716Y0269279D01*
X0222632Y0269407D01*
X0222550Y0269537D01*
X0222473Y0269669D01*
X0222398Y0269803D01*
X0222327Y0269939D01*
X0222260Y0270077D01*
X0222196Y0270217D01*
X0222136Y0270358D01*
X0222080Y0270500D01*
X0222027Y0270644D01*
X0221978Y0270790D01*
X0221933Y0270936D01*
X0221892Y0271084D01*
X0221855Y0271232D01*
X0221821Y0271382D01*
X0221791Y0271533D01*
X0221766Y0271684D01*
X0221744Y0271835D01*
X0221726Y0271988D01*
X0221712Y0272140D01*
X0221702Y0272293D01*
X0221696Y0272447D01*
X0221694Y0272600D01*
X0171694Y0197600D02*
X0171696Y0197753D01*
X0171702Y0197907D01*
X0171712Y0198060D01*
X0171726Y0198212D01*
X0171744Y0198365D01*
X0171766Y0198516D01*
X0171791Y0198667D01*
X0171821Y0198818D01*
X0171855Y0198968D01*
X0171892Y0199116D01*
X0171933Y0199264D01*
X0171978Y0199410D01*
X0172027Y0199556D01*
X0172080Y0199700D01*
X0172136Y0199842D01*
X0172196Y0199983D01*
X0172260Y0200123D01*
X0172327Y0200261D01*
X0172398Y0200397D01*
X0172473Y0200531D01*
X0172550Y0200663D01*
X0172632Y0200793D01*
X0172716Y0200921D01*
X0172804Y0201047D01*
X0172895Y0201170D01*
X0172989Y0201291D01*
X0173087Y0201409D01*
X0173187Y0201525D01*
X0173291Y0201638D01*
X0173397Y0201749D01*
X0173506Y0201857D01*
X0173618Y0201962D01*
X0173732Y0202063D01*
X0173850Y0202162D01*
X0173969Y0202258D01*
X0174091Y0202351D01*
X0174216Y0202440D01*
X0174343Y0202527D01*
X0174472Y0202609D01*
X0174603Y0202689D01*
X0174736Y0202765D01*
X0174871Y0202838D01*
X0175008Y0202907D01*
X0175147Y0202972D01*
X0175287Y0203034D01*
X0175429Y0203092D01*
X0175572Y0203147D01*
X0175717Y0203198D01*
X0175863Y0203245D01*
X0176010Y0203288D01*
X0176158Y0203327D01*
X0176307Y0203363D01*
X0176457Y0203394D01*
X0176608Y0203422D01*
X0176759Y0203446D01*
X0176912Y0203466D01*
X0177064Y0203482D01*
X0177217Y0203494D01*
X0177370Y0203502D01*
X0177523Y0203506D01*
X0177677Y0203506D01*
X0177830Y0203502D01*
X0177983Y0203494D01*
X0178136Y0203482D01*
X0178288Y0203466D01*
X0178441Y0203446D01*
X0178592Y0203422D01*
X0178743Y0203394D01*
X0178893Y0203363D01*
X0179042Y0203327D01*
X0179190Y0203288D01*
X0179337Y0203245D01*
X0179483Y0203198D01*
X0179628Y0203147D01*
X0179771Y0203092D01*
X0179913Y0203034D01*
X0180053Y0202972D01*
X0180192Y0202907D01*
X0180329Y0202838D01*
X0180464Y0202765D01*
X0180597Y0202689D01*
X0180728Y0202609D01*
X0180857Y0202527D01*
X0180984Y0202440D01*
X0181109Y0202351D01*
X0181231Y0202258D01*
X0181350Y0202162D01*
X0181468Y0202063D01*
X0181582Y0201962D01*
X0181694Y0201857D01*
X0181803Y0201749D01*
X0181909Y0201638D01*
X0182013Y0201525D01*
X0182113Y0201409D01*
X0182211Y0201291D01*
X0182305Y0201170D01*
X0182396Y0201047D01*
X0182484Y0200921D01*
X0182568Y0200793D01*
X0182650Y0200663D01*
X0182727Y0200531D01*
X0182802Y0200397D01*
X0182873Y0200261D01*
X0182940Y0200123D01*
X0183004Y0199983D01*
X0183064Y0199842D01*
X0183120Y0199700D01*
X0183173Y0199556D01*
X0183222Y0199410D01*
X0183267Y0199264D01*
X0183308Y0199116D01*
X0183345Y0198968D01*
X0183379Y0198818D01*
X0183409Y0198667D01*
X0183434Y0198516D01*
X0183456Y0198365D01*
X0183474Y0198212D01*
X0183488Y0198060D01*
X0183498Y0197907D01*
X0183504Y0197753D01*
X0183506Y0197600D01*
X0183504Y0197447D01*
X0183498Y0197293D01*
X0183488Y0197140D01*
X0183474Y0196988D01*
X0183456Y0196835D01*
X0183434Y0196684D01*
X0183409Y0196533D01*
X0183379Y0196382D01*
X0183345Y0196232D01*
X0183308Y0196084D01*
X0183267Y0195936D01*
X0183222Y0195790D01*
X0183173Y0195644D01*
X0183120Y0195500D01*
X0183064Y0195358D01*
X0183004Y0195217D01*
X0182940Y0195077D01*
X0182873Y0194939D01*
X0182802Y0194803D01*
X0182727Y0194669D01*
X0182650Y0194537D01*
X0182568Y0194407D01*
X0182484Y0194279D01*
X0182396Y0194153D01*
X0182305Y0194030D01*
X0182211Y0193909D01*
X0182113Y0193791D01*
X0182013Y0193675D01*
X0181909Y0193562D01*
X0181803Y0193451D01*
X0181694Y0193343D01*
X0181582Y0193238D01*
X0181468Y0193137D01*
X0181350Y0193038D01*
X0181231Y0192942D01*
X0181109Y0192849D01*
X0180984Y0192760D01*
X0180857Y0192673D01*
X0180728Y0192591D01*
X0180597Y0192511D01*
X0180464Y0192435D01*
X0180329Y0192362D01*
X0180192Y0192293D01*
X0180053Y0192228D01*
X0179913Y0192166D01*
X0179771Y0192108D01*
X0179628Y0192053D01*
X0179483Y0192002D01*
X0179337Y0191955D01*
X0179190Y0191912D01*
X0179042Y0191873D01*
X0178893Y0191837D01*
X0178743Y0191806D01*
X0178592Y0191778D01*
X0178441Y0191754D01*
X0178288Y0191734D01*
X0178136Y0191718D01*
X0177983Y0191706D01*
X0177830Y0191698D01*
X0177677Y0191694D01*
X0177523Y0191694D01*
X0177370Y0191698D01*
X0177217Y0191706D01*
X0177064Y0191718D01*
X0176912Y0191734D01*
X0176759Y0191754D01*
X0176608Y0191778D01*
X0176457Y0191806D01*
X0176307Y0191837D01*
X0176158Y0191873D01*
X0176010Y0191912D01*
X0175863Y0191955D01*
X0175717Y0192002D01*
X0175572Y0192053D01*
X0175429Y0192108D01*
X0175287Y0192166D01*
X0175147Y0192228D01*
X0175008Y0192293D01*
X0174871Y0192362D01*
X0174736Y0192435D01*
X0174603Y0192511D01*
X0174472Y0192591D01*
X0174343Y0192673D01*
X0174216Y0192760D01*
X0174091Y0192849D01*
X0173969Y0192942D01*
X0173850Y0193038D01*
X0173732Y0193137D01*
X0173618Y0193238D01*
X0173506Y0193343D01*
X0173397Y0193451D01*
X0173291Y0193562D01*
X0173187Y0193675D01*
X0173087Y0193791D01*
X0172989Y0193909D01*
X0172895Y0194030D01*
X0172804Y0194153D01*
X0172716Y0194279D01*
X0172632Y0194407D01*
X0172550Y0194537D01*
X0172473Y0194669D01*
X0172398Y0194803D01*
X0172327Y0194939D01*
X0172260Y0195077D01*
X0172196Y0195217D01*
X0172136Y0195358D01*
X0172080Y0195500D01*
X0172027Y0195644D01*
X0171978Y0195790D01*
X0171933Y0195936D01*
X0171892Y0196084D01*
X0171855Y0196232D01*
X0171821Y0196382D01*
X0171791Y0196533D01*
X0171766Y0196684D01*
X0171744Y0196835D01*
X0171726Y0196988D01*
X0171712Y0197140D01*
X0171702Y0197293D01*
X0171696Y0197447D01*
X0171694Y0197600D01*
X0221694Y0192600D02*
X0221696Y0192753D01*
X0221702Y0192907D01*
X0221712Y0193060D01*
X0221726Y0193212D01*
X0221744Y0193365D01*
X0221766Y0193516D01*
X0221791Y0193667D01*
X0221821Y0193818D01*
X0221855Y0193968D01*
X0221892Y0194116D01*
X0221933Y0194264D01*
X0221978Y0194410D01*
X0222027Y0194556D01*
X0222080Y0194700D01*
X0222136Y0194842D01*
X0222196Y0194983D01*
X0222260Y0195123D01*
X0222327Y0195261D01*
X0222398Y0195397D01*
X0222473Y0195531D01*
X0222550Y0195663D01*
X0222632Y0195793D01*
X0222716Y0195921D01*
X0222804Y0196047D01*
X0222895Y0196170D01*
X0222989Y0196291D01*
X0223087Y0196409D01*
X0223187Y0196525D01*
X0223291Y0196638D01*
X0223397Y0196749D01*
X0223506Y0196857D01*
X0223618Y0196962D01*
X0223732Y0197063D01*
X0223850Y0197162D01*
X0223969Y0197258D01*
X0224091Y0197351D01*
X0224216Y0197440D01*
X0224343Y0197527D01*
X0224472Y0197609D01*
X0224603Y0197689D01*
X0224736Y0197765D01*
X0224871Y0197838D01*
X0225008Y0197907D01*
X0225147Y0197972D01*
X0225287Y0198034D01*
X0225429Y0198092D01*
X0225572Y0198147D01*
X0225717Y0198198D01*
X0225863Y0198245D01*
X0226010Y0198288D01*
X0226158Y0198327D01*
X0226307Y0198363D01*
X0226457Y0198394D01*
X0226608Y0198422D01*
X0226759Y0198446D01*
X0226912Y0198466D01*
X0227064Y0198482D01*
X0227217Y0198494D01*
X0227370Y0198502D01*
X0227523Y0198506D01*
X0227677Y0198506D01*
X0227830Y0198502D01*
X0227983Y0198494D01*
X0228136Y0198482D01*
X0228288Y0198466D01*
X0228441Y0198446D01*
X0228592Y0198422D01*
X0228743Y0198394D01*
X0228893Y0198363D01*
X0229042Y0198327D01*
X0229190Y0198288D01*
X0229337Y0198245D01*
X0229483Y0198198D01*
X0229628Y0198147D01*
X0229771Y0198092D01*
X0229913Y0198034D01*
X0230053Y0197972D01*
X0230192Y0197907D01*
X0230329Y0197838D01*
X0230464Y0197765D01*
X0230597Y0197689D01*
X0230728Y0197609D01*
X0230857Y0197527D01*
X0230984Y0197440D01*
X0231109Y0197351D01*
X0231231Y0197258D01*
X0231350Y0197162D01*
X0231468Y0197063D01*
X0231582Y0196962D01*
X0231694Y0196857D01*
X0231803Y0196749D01*
X0231909Y0196638D01*
X0232013Y0196525D01*
X0232113Y0196409D01*
X0232211Y0196291D01*
X0232305Y0196170D01*
X0232396Y0196047D01*
X0232484Y0195921D01*
X0232568Y0195793D01*
X0232650Y0195663D01*
X0232727Y0195531D01*
X0232802Y0195397D01*
X0232873Y0195261D01*
X0232940Y0195123D01*
X0233004Y0194983D01*
X0233064Y0194842D01*
X0233120Y0194700D01*
X0233173Y0194556D01*
X0233222Y0194410D01*
X0233267Y0194264D01*
X0233308Y0194116D01*
X0233345Y0193968D01*
X0233379Y0193818D01*
X0233409Y0193667D01*
X0233434Y0193516D01*
X0233456Y0193365D01*
X0233474Y0193212D01*
X0233488Y0193060D01*
X0233498Y0192907D01*
X0233504Y0192753D01*
X0233506Y0192600D01*
X0233504Y0192447D01*
X0233498Y0192293D01*
X0233488Y0192140D01*
X0233474Y0191988D01*
X0233456Y0191835D01*
X0233434Y0191684D01*
X0233409Y0191533D01*
X0233379Y0191382D01*
X0233345Y0191232D01*
X0233308Y0191084D01*
X0233267Y0190936D01*
X0233222Y0190790D01*
X0233173Y0190644D01*
X0233120Y0190500D01*
X0233064Y0190358D01*
X0233004Y0190217D01*
X0232940Y0190077D01*
X0232873Y0189939D01*
X0232802Y0189803D01*
X0232727Y0189669D01*
X0232650Y0189537D01*
X0232568Y0189407D01*
X0232484Y0189279D01*
X0232396Y0189153D01*
X0232305Y0189030D01*
X0232211Y0188909D01*
X0232113Y0188791D01*
X0232013Y0188675D01*
X0231909Y0188562D01*
X0231803Y0188451D01*
X0231694Y0188343D01*
X0231582Y0188238D01*
X0231468Y0188137D01*
X0231350Y0188038D01*
X0231231Y0187942D01*
X0231109Y0187849D01*
X0230984Y0187760D01*
X0230857Y0187673D01*
X0230728Y0187591D01*
X0230597Y0187511D01*
X0230464Y0187435D01*
X0230329Y0187362D01*
X0230192Y0187293D01*
X0230053Y0187228D01*
X0229913Y0187166D01*
X0229771Y0187108D01*
X0229628Y0187053D01*
X0229483Y0187002D01*
X0229337Y0186955D01*
X0229190Y0186912D01*
X0229042Y0186873D01*
X0228893Y0186837D01*
X0228743Y0186806D01*
X0228592Y0186778D01*
X0228441Y0186754D01*
X0228288Y0186734D01*
X0228136Y0186718D01*
X0227983Y0186706D01*
X0227830Y0186698D01*
X0227677Y0186694D01*
X0227523Y0186694D01*
X0227370Y0186698D01*
X0227217Y0186706D01*
X0227064Y0186718D01*
X0226912Y0186734D01*
X0226759Y0186754D01*
X0226608Y0186778D01*
X0226457Y0186806D01*
X0226307Y0186837D01*
X0226158Y0186873D01*
X0226010Y0186912D01*
X0225863Y0186955D01*
X0225717Y0187002D01*
X0225572Y0187053D01*
X0225429Y0187108D01*
X0225287Y0187166D01*
X0225147Y0187228D01*
X0225008Y0187293D01*
X0224871Y0187362D01*
X0224736Y0187435D01*
X0224603Y0187511D01*
X0224472Y0187591D01*
X0224343Y0187673D01*
X0224216Y0187760D01*
X0224091Y0187849D01*
X0223969Y0187942D01*
X0223850Y0188038D01*
X0223732Y0188137D01*
X0223618Y0188238D01*
X0223506Y0188343D01*
X0223397Y0188451D01*
X0223291Y0188562D01*
X0223187Y0188675D01*
X0223087Y0188791D01*
X0222989Y0188909D01*
X0222895Y0189030D01*
X0222804Y0189153D01*
X0222716Y0189279D01*
X0222632Y0189407D01*
X0222550Y0189537D01*
X0222473Y0189669D01*
X0222398Y0189803D01*
X0222327Y0189939D01*
X0222260Y0190077D01*
X0222196Y0190217D01*
X0222136Y0190358D01*
X0222080Y0190500D01*
X0222027Y0190644D01*
X0221978Y0190790D01*
X0221933Y0190936D01*
X0221892Y0191084D01*
X0221855Y0191232D01*
X0221821Y0191382D01*
X0221791Y0191533D01*
X0221766Y0191684D01*
X0221744Y0191835D01*
X0221726Y0191988D01*
X0221712Y0192140D01*
X0221702Y0192293D01*
X0221696Y0192447D01*
X0221694Y0192600D01*
X0171694Y0117600D02*
X0171696Y0117753D01*
X0171702Y0117907D01*
X0171712Y0118060D01*
X0171726Y0118212D01*
X0171744Y0118365D01*
X0171766Y0118516D01*
X0171791Y0118667D01*
X0171821Y0118818D01*
X0171855Y0118968D01*
X0171892Y0119116D01*
X0171933Y0119264D01*
X0171978Y0119410D01*
X0172027Y0119556D01*
X0172080Y0119700D01*
X0172136Y0119842D01*
X0172196Y0119983D01*
X0172260Y0120123D01*
X0172327Y0120261D01*
X0172398Y0120397D01*
X0172473Y0120531D01*
X0172550Y0120663D01*
X0172632Y0120793D01*
X0172716Y0120921D01*
X0172804Y0121047D01*
X0172895Y0121170D01*
X0172989Y0121291D01*
X0173087Y0121409D01*
X0173187Y0121525D01*
X0173291Y0121638D01*
X0173397Y0121749D01*
X0173506Y0121857D01*
X0173618Y0121962D01*
X0173732Y0122063D01*
X0173850Y0122162D01*
X0173969Y0122258D01*
X0174091Y0122351D01*
X0174216Y0122440D01*
X0174343Y0122527D01*
X0174472Y0122609D01*
X0174603Y0122689D01*
X0174736Y0122765D01*
X0174871Y0122838D01*
X0175008Y0122907D01*
X0175147Y0122972D01*
X0175287Y0123034D01*
X0175429Y0123092D01*
X0175572Y0123147D01*
X0175717Y0123198D01*
X0175863Y0123245D01*
X0176010Y0123288D01*
X0176158Y0123327D01*
X0176307Y0123363D01*
X0176457Y0123394D01*
X0176608Y0123422D01*
X0176759Y0123446D01*
X0176912Y0123466D01*
X0177064Y0123482D01*
X0177217Y0123494D01*
X0177370Y0123502D01*
X0177523Y0123506D01*
X0177677Y0123506D01*
X0177830Y0123502D01*
X0177983Y0123494D01*
X0178136Y0123482D01*
X0178288Y0123466D01*
X0178441Y0123446D01*
X0178592Y0123422D01*
X0178743Y0123394D01*
X0178893Y0123363D01*
X0179042Y0123327D01*
X0179190Y0123288D01*
X0179337Y0123245D01*
X0179483Y0123198D01*
X0179628Y0123147D01*
X0179771Y0123092D01*
X0179913Y0123034D01*
X0180053Y0122972D01*
X0180192Y0122907D01*
X0180329Y0122838D01*
X0180464Y0122765D01*
X0180597Y0122689D01*
X0180728Y0122609D01*
X0180857Y0122527D01*
X0180984Y0122440D01*
X0181109Y0122351D01*
X0181231Y0122258D01*
X0181350Y0122162D01*
X0181468Y0122063D01*
X0181582Y0121962D01*
X0181694Y0121857D01*
X0181803Y0121749D01*
X0181909Y0121638D01*
X0182013Y0121525D01*
X0182113Y0121409D01*
X0182211Y0121291D01*
X0182305Y0121170D01*
X0182396Y0121047D01*
X0182484Y0120921D01*
X0182568Y0120793D01*
X0182650Y0120663D01*
X0182727Y0120531D01*
X0182802Y0120397D01*
X0182873Y0120261D01*
X0182940Y0120123D01*
X0183004Y0119983D01*
X0183064Y0119842D01*
X0183120Y0119700D01*
X0183173Y0119556D01*
X0183222Y0119410D01*
X0183267Y0119264D01*
X0183308Y0119116D01*
X0183345Y0118968D01*
X0183379Y0118818D01*
X0183409Y0118667D01*
X0183434Y0118516D01*
X0183456Y0118365D01*
X0183474Y0118212D01*
X0183488Y0118060D01*
X0183498Y0117907D01*
X0183504Y0117753D01*
X0183506Y0117600D01*
X0183504Y0117447D01*
X0183498Y0117293D01*
X0183488Y0117140D01*
X0183474Y0116988D01*
X0183456Y0116835D01*
X0183434Y0116684D01*
X0183409Y0116533D01*
X0183379Y0116382D01*
X0183345Y0116232D01*
X0183308Y0116084D01*
X0183267Y0115936D01*
X0183222Y0115790D01*
X0183173Y0115644D01*
X0183120Y0115500D01*
X0183064Y0115358D01*
X0183004Y0115217D01*
X0182940Y0115077D01*
X0182873Y0114939D01*
X0182802Y0114803D01*
X0182727Y0114669D01*
X0182650Y0114537D01*
X0182568Y0114407D01*
X0182484Y0114279D01*
X0182396Y0114153D01*
X0182305Y0114030D01*
X0182211Y0113909D01*
X0182113Y0113791D01*
X0182013Y0113675D01*
X0181909Y0113562D01*
X0181803Y0113451D01*
X0181694Y0113343D01*
X0181582Y0113238D01*
X0181468Y0113137D01*
X0181350Y0113038D01*
X0181231Y0112942D01*
X0181109Y0112849D01*
X0180984Y0112760D01*
X0180857Y0112673D01*
X0180728Y0112591D01*
X0180597Y0112511D01*
X0180464Y0112435D01*
X0180329Y0112362D01*
X0180192Y0112293D01*
X0180053Y0112228D01*
X0179913Y0112166D01*
X0179771Y0112108D01*
X0179628Y0112053D01*
X0179483Y0112002D01*
X0179337Y0111955D01*
X0179190Y0111912D01*
X0179042Y0111873D01*
X0178893Y0111837D01*
X0178743Y0111806D01*
X0178592Y0111778D01*
X0178441Y0111754D01*
X0178288Y0111734D01*
X0178136Y0111718D01*
X0177983Y0111706D01*
X0177830Y0111698D01*
X0177677Y0111694D01*
X0177523Y0111694D01*
X0177370Y0111698D01*
X0177217Y0111706D01*
X0177064Y0111718D01*
X0176912Y0111734D01*
X0176759Y0111754D01*
X0176608Y0111778D01*
X0176457Y0111806D01*
X0176307Y0111837D01*
X0176158Y0111873D01*
X0176010Y0111912D01*
X0175863Y0111955D01*
X0175717Y0112002D01*
X0175572Y0112053D01*
X0175429Y0112108D01*
X0175287Y0112166D01*
X0175147Y0112228D01*
X0175008Y0112293D01*
X0174871Y0112362D01*
X0174736Y0112435D01*
X0174603Y0112511D01*
X0174472Y0112591D01*
X0174343Y0112673D01*
X0174216Y0112760D01*
X0174091Y0112849D01*
X0173969Y0112942D01*
X0173850Y0113038D01*
X0173732Y0113137D01*
X0173618Y0113238D01*
X0173506Y0113343D01*
X0173397Y0113451D01*
X0173291Y0113562D01*
X0173187Y0113675D01*
X0173087Y0113791D01*
X0172989Y0113909D01*
X0172895Y0114030D01*
X0172804Y0114153D01*
X0172716Y0114279D01*
X0172632Y0114407D01*
X0172550Y0114537D01*
X0172473Y0114669D01*
X0172398Y0114803D01*
X0172327Y0114939D01*
X0172260Y0115077D01*
X0172196Y0115217D01*
X0172136Y0115358D01*
X0172080Y0115500D01*
X0172027Y0115644D01*
X0171978Y0115790D01*
X0171933Y0115936D01*
X0171892Y0116084D01*
X0171855Y0116232D01*
X0171821Y0116382D01*
X0171791Y0116533D01*
X0171766Y0116684D01*
X0171744Y0116835D01*
X0171726Y0116988D01*
X0171712Y0117140D01*
X0171702Y0117293D01*
X0171696Y0117447D01*
X0171694Y0117600D01*
X0221694Y0112600D02*
X0221696Y0112753D01*
X0221702Y0112907D01*
X0221712Y0113060D01*
X0221726Y0113212D01*
X0221744Y0113365D01*
X0221766Y0113516D01*
X0221791Y0113667D01*
X0221821Y0113818D01*
X0221855Y0113968D01*
X0221892Y0114116D01*
X0221933Y0114264D01*
X0221978Y0114410D01*
X0222027Y0114556D01*
X0222080Y0114700D01*
X0222136Y0114842D01*
X0222196Y0114983D01*
X0222260Y0115123D01*
X0222327Y0115261D01*
X0222398Y0115397D01*
X0222473Y0115531D01*
X0222550Y0115663D01*
X0222632Y0115793D01*
X0222716Y0115921D01*
X0222804Y0116047D01*
X0222895Y0116170D01*
X0222989Y0116291D01*
X0223087Y0116409D01*
X0223187Y0116525D01*
X0223291Y0116638D01*
X0223397Y0116749D01*
X0223506Y0116857D01*
X0223618Y0116962D01*
X0223732Y0117063D01*
X0223850Y0117162D01*
X0223969Y0117258D01*
X0224091Y0117351D01*
X0224216Y0117440D01*
X0224343Y0117527D01*
X0224472Y0117609D01*
X0224603Y0117689D01*
X0224736Y0117765D01*
X0224871Y0117838D01*
X0225008Y0117907D01*
X0225147Y0117972D01*
X0225287Y0118034D01*
X0225429Y0118092D01*
X0225572Y0118147D01*
X0225717Y0118198D01*
X0225863Y0118245D01*
X0226010Y0118288D01*
X0226158Y0118327D01*
X0226307Y0118363D01*
X0226457Y0118394D01*
X0226608Y0118422D01*
X0226759Y0118446D01*
X0226912Y0118466D01*
X0227064Y0118482D01*
X0227217Y0118494D01*
X0227370Y0118502D01*
X0227523Y0118506D01*
X0227677Y0118506D01*
X0227830Y0118502D01*
X0227983Y0118494D01*
X0228136Y0118482D01*
X0228288Y0118466D01*
X0228441Y0118446D01*
X0228592Y0118422D01*
X0228743Y0118394D01*
X0228893Y0118363D01*
X0229042Y0118327D01*
X0229190Y0118288D01*
X0229337Y0118245D01*
X0229483Y0118198D01*
X0229628Y0118147D01*
X0229771Y0118092D01*
X0229913Y0118034D01*
X0230053Y0117972D01*
X0230192Y0117907D01*
X0230329Y0117838D01*
X0230464Y0117765D01*
X0230597Y0117689D01*
X0230728Y0117609D01*
X0230857Y0117527D01*
X0230984Y0117440D01*
X0231109Y0117351D01*
X0231231Y0117258D01*
X0231350Y0117162D01*
X0231468Y0117063D01*
X0231582Y0116962D01*
X0231694Y0116857D01*
X0231803Y0116749D01*
X0231909Y0116638D01*
X0232013Y0116525D01*
X0232113Y0116409D01*
X0232211Y0116291D01*
X0232305Y0116170D01*
X0232396Y0116047D01*
X0232484Y0115921D01*
X0232568Y0115793D01*
X0232650Y0115663D01*
X0232727Y0115531D01*
X0232802Y0115397D01*
X0232873Y0115261D01*
X0232940Y0115123D01*
X0233004Y0114983D01*
X0233064Y0114842D01*
X0233120Y0114700D01*
X0233173Y0114556D01*
X0233222Y0114410D01*
X0233267Y0114264D01*
X0233308Y0114116D01*
X0233345Y0113968D01*
X0233379Y0113818D01*
X0233409Y0113667D01*
X0233434Y0113516D01*
X0233456Y0113365D01*
X0233474Y0113212D01*
X0233488Y0113060D01*
X0233498Y0112907D01*
X0233504Y0112753D01*
X0233506Y0112600D01*
X0233504Y0112447D01*
X0233498Y0112293D01*
X0233488Y0112140D01*
X0233474Y0111988D01*
X0233456Y0111835D01*
X0233434Y0111684D01*
X0233409Y0111533D01*
X0233379Y0111382D01*
X0233345Y0111232D01*
X0233308Y0111084D01*
X0233267Y0110936D01*
X0233222Y0110790D01*
X0233173Y0110644D01*
X0233120Y0110500D01*
X0233064Y0110358D01*
X0233004Y0110217D01*
X0232940Y0110077D01*
X0232873Y0109939D01*
X0232802Y0109803D01*
X0232727Y0109669D01*
X0232650Y0109537D01*
X0232568Y0109407D01*
X0232484Y0109279D01*
X0232396Y0109153D01*
X0232305Y0109030D01*
X0232211Y0108909D01*
X0232113Y0108791D01*
X0232013Y0108675D01*
X0231909Y0108562D01*
X0231803Y0108451D01*
X0231694Y0108343D01*
X0231582Y0108238D01*
X0231468Y0108137D01*
X0231350Y0108038D01*
X0231231Y0107942D01*
X0231109Y0107849D01*
X0230984Y0107760D01*
X0230857Y0107673D01*
X0230728Y0107591D01*
X0230597Y0107511D01*
X0230464Y0107435D01*
X0230329Y0107362D01*
X0230192Y0107293D01*
X0230053Y0107228D01*
X0229913Y0107166D01*
X0229771Y0107108D01*
X0229628Y0107053D01*
X0229483Y0107002D01*
X0229337Y0106955D01*
X0229190Y0106912D01*
X0229042Y0106873D01*
X0228893Y0106837D01*
X0228743Y0106806D01*
X0228592Y0106778D01*
X0228441Y0106754D01*
X0228288Y0106734D01*
X0228136Y0106718D01*
X0227983Y0106706D01*
X0227830Y0106698D01*
X0227677Y0106694D01*
X0227523Y0106694D01*
X0227370Y0106698D01*
X0227217Y0106706D01*
X0227064Y0106718D01*
X0226912Y0106734D01*
X0226759Y0106754D01*
X0226608Y0106778D01*
X0226457Y0106806D01*
X0226307Y0106837D01*
X0226158Y0106873D01*
X0226010Y0106912D01*
X0225863Y0106955D01*
X0225717Y0107002D01*
X0225572Y0107053D01*
X0225429Y0107108D01*
X0225287Y0107166D01*
X0225147Y0107228D01*
X0225008Y0107293D01*
X0224871Y0107362D01*
X0224736Y0107435D01*
X0224603Y0107511D01*
X0224472Y0107591D01*
X0224343Y0107673D01*
X0224216Y0107760D01*
X0224091Y0107849D01*
X0223969Y0107942D01*
X0223850Y0108038D01*
X0223732Y0108137D01*
X0223618Y0108238D01*
X0223506Y0108343D01*
X0223397Y0108451D01*
X0223291Y0108562D01*
X0223187Y0108675D01*
X0223087Y0108791D01*
X0222989Y0108909D01*
X0222895Y0109030D01*
X0222804Y0109153D01*
X0222716Y0109279D01*
X0222632Y0109407D01*
X0222550Y0109537D01*
X0222473Y0109669D01*
X0222398Y0109803D01*
X0222327Y0109939D01*
X0222260Y0110077D01*
X0222196Y0110217D01*
X0222136Y0110358D01*
X0222080Y0110500D01*
X0222027Y0110644D01*
X0221978Y0110790D01*
X0221933Y0110936D01*
X0221892Y0111084D01*
X0221855Y0111232D01*
X0221821Y0111382D01*
X0221791Y0111533D01*
X0221766Y0111684D01*
X0221744Y0111835D01*
X0221726Y0111988D01*
X0221712Y0112140D01*
X0221702Y0112293D01*
X0221696Y0112447D01*
X0221694Y0112600D01*
X0171694Y0042600D02*
X0171696Y0042753D01*
X0171702Y0042907D01*
X0171712Y0043060D01*
X0171726Y0043212D01*
X0171744Y0043365D01*
X0171766Y0043516D01*
X0171791Y0043667D01*
X0171821Y0043818D01*
X0171855Y0043968D01*
X0171892Y0044116D01*
X0171933Y0044264D01*
X0171978Y0044410D01*
X0172027Y0044556D01*
X0172080Y0044700D01*
X0172136Y0044842D01*
X0172196Y0044983D01*
X0172260Y0045123D01*
X0172327Y0045261D01*
X0172398Y0045397D01*
X0172473Y0045531D01*
X0172550Y0045663D01*
X0172632Y0045793D01*
X0172716Y0045921D01*
X0172804Y0046047D01*
X0172895Y0046170D01*
X0172989Y0046291D01*
X0173087Y0046409D01*
X0173187Y0046525D01*
X0173291Y0046638D01*
X0173397Y0046749D01*
X0173506Y0046857D01*
X0173618Y0046962D01*
X0173732Y0047063D01*
X0173850Y0047162D01*
X0173969Y0047258D01*
X0174091Y0047351D01*
X0174216Y0047440D01*
X0174343Y0047527D01*
X0174472Y0047609D01*
X0174603Y0047689D01*
X0174736Y0047765D01*
X0174871Y0047838D01*
X0175008Y0047907D01*
X0175147Y0047972D01*
X0175287Y0048034D01*
X0175429Y0048092D01*
X0175572Y0048147D01*
X0175717Y0048198D01*
X0175863Y0048245D01*
X0176010Y0048288D01*
X0176158Y0048327D01*
X0176307Y0048363D01*
X0176457Y0048394D01*
X0176608Y0048422D01*
X0176759Y0048446D01*
X0176912Y0048466D01*
X0177064Y0048482D01*
X0177217Y0048494D01*
X0177370Y0048502D01*
X0177523Y0048506D01*
X0177677Y0048506D01*
X0177830Y0048502D01*
X0177983Y0048494D01*
X0178136Y0048482D01*
X0178288Y0048466D01*
X0178441Y0048446D01*
X0178592Y0048422D01*
X0178743Y0048394D01*
X0178893Y0048363D01*
X0179042Y0048327D01*
X0179190Y0048288D01*
X0179337Y0048245D01*
X0179483Y0048198D01*
X0179628Y0048147D01*
X0179771Y0048092D01*
X0179913Y0048034D01*
X0180053Y0047972D01*
X0180192Y0047907D01*
X0180329Y0047838D01*
X0180464Y0047765D01*
X0180597Y0047689D01*
X0180728Y0047609D01*
X0180857Y0047527D01*
X0180984Y0047440D01*
X0181109Y0047351D01*
X0181231Y0047258D01*
X0181350Y0047162D01*
X0181468Y0047063D01*
X0181582Y0046962D01*
X0181694Y0046857D01*
X0181803Y0046749D01*
X0181909Y0046638D01*
X0182013Y0046525D01*
X0182113Y0046409D01*
X0182211Y0046291D01*
X0182305Y0046170D01*
X0182396Y0046047D01*
X0182484Y0045921D01*
X0182568Y0045793D01*
X0182650Y0045663D01*
X0182727Y0045531D01*
X0182802Y0045397D01*
X0182873Y0045261D01*
X0182940Y0045123D01*
X0183004Y0044983D01*
X0183064Y0044842D01*
X0183120Y0044700D01*
X0183173Y0044556D01*
X0183222Y0044410D01*
X0183267Y0044264D01*
X0183308Y0044116D01*
X0183345Y0043968D01*
X0183379Y0043818D01*
X0183409Y0043667D01*
X0183434Y0043516D01*
X0183456Y0043365D01*
X0183474Y0043212D01*
X0183488Y0043060D01*
X0183498Y0042907D01*
X0183504Y0042753D01*
X0183506Y0042600D01*
X0183504Y0042447D01*
X0183498Y0042293D01*
X0183488Y0042140D01*
X0183474Y0041988D01*
X0183456Y0041835D01*
X0183434Y0041684D01*
X0183409Y0041533D01*
X0183379Y0041382D01*
X0183345Y0041232D01*
X0183308Y0041084D01*
X0183267Y0040936D01*
X0183222Y0040790D01*
X0183173Y0040644D01*
X0183120Y0040500D01*
X0183064Y0040358D01*
X0183004Y0040217D01*
X0182940Y0040077D01*
X0182873Y0039939D01*
X0182802Y0039803D01*
X0182727Y0039669D01*
X0182650Y0039537D01*
X0182568Y0039407D01*
X0182484Y0039279D01*
X0182396Y0039153D01*
X0182305Y0039030D01*
X0182211Y0038909D01*
X0182113Y0038791D01*
X0182013Y0038675D01*
X0181909Y0038562D01*
X0181803Y0038451D01*
X0181694Y0038343D01*
X0181582Y0038238D01*
X0181468Y0038137D01*
X0181350Y0038038D01*
X0181231Y0037942D01*
X0181109Y0037849D01*
X0180984Y0037760D01*
X0180857Y0037673D01*
X0180728Y0037591D01*
X0180597Y0037511D01*
X0180464Y0037435D01*
X0180329Y0037362D01*
X0180192Y0037293D01*
X0180053Y0037228D01*
X0179913Y0037166D01*
X0179771Y0037108D01*
X0179628Y0037053D01*
X0179483Y0037002D01*
X0179337Y0036955D01*
X0179190Y0036912D01*
X0179042Y0036873D01*
X0178893Y0036837D01*
X0178743Y0036806D01*
X0178592Y0036778D01*
X0178441Y0036754D01*
X0178288Y0036734D01*
X0178136Y0036718D01*
X0177983Y0036706D01*
X0177830Y0036698D01*
X0177677Y0036694D01*
X0177523Y0036694D01*
X0177370Y0036698D01*
X0177217Y0036706D01*
X0177064Y0036718D01*
X0176912Y0036734D01*
X0176759Y0036754D01*
X0176608Y0036778D01*
X0176457Y0036806D01*
X0176307Y0036837D01*
X0176158Y0036873D01*
X0176010Y0036912D01*
X0175863Y0036955D01*
X0175717Y0037002D01*
X0175572Y0037053D01*
X0175429Y0037108D01*
X0175287Y0037166D01*
X0175147Y0037228D01*
X0175008Y0037293D01*
X0174871Y0037362D01*
X0174736Y0037435D01*
X0174603Y0037511D01*
X0174472Y0037591D01*
X0174343Y0037673D01*
X0174216Y0037760D01*
X0174091Y0037849D01*
X0173969Y0037942D01*
X0173850Y0038038D01*
X0173732Y0038137D01*
X0173618Y0038238D01*
X0173506Y0038343D01*
X0173397Y0038451D01*
X0173291Y0038562D01*
X0173187Y0038675D01*
X0173087Y0038791D01*
X0172989Y0038909D01*
X0172895Y0039030D01*
X0172804Y0039153D01*
X0172716Y0039279D01*
X0172632Y0039407D01*
X0172550Y0039537D01*
X0172473Y0039669D01*
X0172398Y0039803D01*
X0172327Y0039939D01*
X0172260Y0040077D01*
X0172196Y0040217D01*
X0172136Y0040358D01*
X0172080Y0040500D01*
X0172027Y0040644D01*
X0171978Y0040790D01*
X0171933Y0040936D01*
X0171892Y0041084D01*
X0171855Y0041232D01*
X0171821Y0041382D01*
X0171791Y0041533D01*
X0171766Y0041684D01*
X0171744Y0041835D01*
X0171726Y0041988D01*
X0171712Y0042140D01*
X0171702Y0042293D01*
X0171696Y0042447D01*
X0171694Y0042600D01*
X0221694Y0037600D02*
X0221696Y0037753D01*
X0221702Y0037907D01*
X0221712Y0038060D01*
X0221726Y0038212D01*
X0221744Y0038365D01*
X0221766Y0038516D01*
X0221791Y0038667D01*
X0221821Y0038818D01*
X0221855Y0038968D01*
X0221892Y0039116D01*
X0221933Y0039264D01*
X0221978Y0039410D01*
X0222027Y0039556D01*
X0222080Y0039700D01*
X0222136Y0039842D01*
X0222196Y0039983D01*
X0222260Y0040123D01*
X0222327Y0040261D01*
X0222398Y0040397D01*
X0222473Y0040531D01*
X0222550Y0040663D01*
X0222632Y0040793D01*
X0222716Y0040921D01*
X0222804Y0041047D01*
X0222895Y0041170D01*
X0222989Y0041291D01*
X0223087Y0041409D01*
X0223187Y0041525D01*
X0223291Y0041638D01*
X0223397Y0041749D01*
X0223506Y0041857D01*
X0223618Y0041962D01*
X0223732Y0042063D01*
X0223850Y0042162D01*
X0223969Y0042258D01*
X0224091Y0042351D01*
X0224216Y0042440D01*
X0224343Y0042527D01*
X0224472Y0042609D01*
X0224603Y0042689D01*
X0224736Y0042765D01*
X0224871Y0042838D01*
X0225008Y0042907D01*
X0225147Y0042972D01*
X0225287Y0043034D01*
X0225429Y0043092D01*
X0225572Y0043147D01*
X0225717Y0043198D01*
X0225863Y0043245D01*
X0226010Y0043288D01*
X0226158Y0043327D01*
X0226307Y0043363D01*
X0226457Y0043394D01*
X0226608Y0043422D01*
X0226759Y0043446D01*
X0226912Y0043466D01*
X0227064Y0043482D01*
X0227217Y0043494D01*
X0227370Y0043502D01*
X0227523Y0043506D01*
X0227677Y0043506D01*
X0227830Y0043502D01*
X0227983Y0043494D01*
X0228136Y0043482D01*
X0228288Y0043466D01*
X0228441Y0043446D01*
X0228592Y0043422D01*
X0228743Y0043394D01*
X0228893Y0043363D01*
X0229042Y0043327D01*
X0229190Y0043288D01*
X0229337Y0043245D01*
X0229483Y0043198D01*
X0229628Y0043147D01*
X0229771Y0043092D01*
X0229913Y0043034D01*
X0230053Y0042972D01*
X0230192Y0042907D01*
X0230329Y0042838D01*
X0230464Y0042765D01*
X0230597Y0042689D01*
X0230728Y0042609D01*
X0230857Y0042527D01*
X0230984Y0042440D01*
X0231109Y0042351D01*
X0231231Y0042258D01*
X0231350Y0042162D01*
X0231468Y0042063D01*
X0231582Y0041962D01*
X0231694Y0041857D01*
X0231803Y0041749D01*
X0231909Y0041638D01*
X0232013Y0041525D01*
X0232113Y0041409D01*
X0232211Y0041291D01*
X0232305Y0041170D01*
X0232396Y0041047D01*
X0232484Y0040921D01*
X0232568Y0040793D01*
X0232650Y0040663D01*
X0232727Y0040531D01*
X0232802Y0040397D01*
X0232873Y0040261D01*
X0232940Y0040123D01*
X0233004Y0039983D01*
X0233064Y0039842D01*
X0233120Y0039700D01*
X0233173Y0039556D01*
X0233222Y0039410D01*
X0233267Y0039264D01*
X0233308Y0039116D01*
X0233345Y0038968D01*
X0233379Y0038818D01*
X0233409Y0038667D01*
X0233434Y0038516D01*
X0233456Y0038365D01*
X0233474Y0038212D01*
X0233488Y0038060D01*
X0233498Y0037907D01*
X0233504Y0037753D01*
X0233506Y0037600D01*
X0233504Y0037447D01*
X0233498Y0037293D01*
X0233488Y0037140D01*
X0233474Y0036988D01*
X0233456Y0036835D01*
X0233434Y0036684D01*
X0233409Y0036533D01*
X0233379Y0036382D01*
X0233345Y0036232D01*
X0233308Y0036084D01*
X0233267Y0035936D01*
X0233222Y0035790D01*
X0233173Y0035644D01*
X0233120Y0035500D01*
X0233064Y0035358D01*
X0233004Y0035217D01*
X0232940Y0035077D01*
X0232873Y0034939D01*
X0232802Y0034803D01*
X0232727Y0034669D01*
X0232650Y0034537D01*
X0232568Y0034407D01*
X0232484Y0034279D01*
X0232396Y0034153D01*
X0232305Y0034030D01*
X0232211Y0033909D01*
X0232113Y0033791D01*
X0232013Y0033675D01*
X0231909Y0033562D01*
X0231803Y0033451D01*
X0231694Y0033343D01*
X0231582Y0033238D01*
X0231468Y0033137D01*
X0231350Y0033038D01*
X0231231Y0032942D01*
X0231109Y0032849D01*
X0230984Y0032760D01*
X0230857Y0032673D01*
X0230728Y0032591D01*
X0230597Y0032511D01*
X0230464Y0032435D01*
X0230329Y0032362D01*
X0230192Y0032293D01*
X0230053Y0032228D01*
X0229913Y0032166D01*
X0229771Y0032108D01*
X0229628Y0032053D01*
X0229483Y0032002D01*
X0229337Y0031955D01*
X0229190Y0031912D01*
X0229042Y0031873D01*
X0228893Y0031837D01*
X0228743Y0031806D01*
X0228592Y0031778D01*
X0228441Y0031754D01*
X0228288Y0031734D01*
X0228136Y0031718D01*
X0227983Y0031706D01*
X0227830Y0031698D01*
X0227677Y0031694D01*
X0227523Y0031694D01*
X0227370Y0031698D01*
X0227217Y0031706D01*
X0227064Y0031718D01*
X0226912Y0031734D01*
X0226759Y0031754D01*
X0226608Y0031778D01*
X0226457Y0031806D01*
X0226307Y0031837D01*
X0226158Y0031873D01*
X0226010Y0031912D01*
X0225863Y0031955D01*
X0225717Y0032002D01*
X0225572Y0032053D01*
X0225429Y0032108D01*
X0225287Y0032166D01*
X0225147Y0032228D01*
X0225008Y0032293D01*
X0224871Y0032362D01*
X0224736Y0032435D01*
X0224603Y0032511D01*
X0224472Y0032591D01*
X0224343Y0032673D01*
X0224216Y0032760D01*
X0224091Y0032849D01*
X0223969Y0032942D01*
X0223850Y0033038D01*
X0223732Y0033137D01*
X0223618Y0033238D01*
X0223506Y0033343D01*
X0223397Y0033451D01*
X0223291Y0033562D01*
X0223187Y0033675D01*
X0223087Y0033791D01*
X0222989Y0033909D01*
X0222895Y0034030D01*
X0222804Y0034153D01*
X0222716Y0034279D01*
X0222632Y0034407D01*
X0222550Y0034537D01*
X0222473Y0034669D01*
X0222398Y0034803D01*
X0222327Y0034939D01*
X0222260Y0035077D01*
X0222196Y0035217D01*
X0222136Y0035358D01*
X0222080Y0035500D01*
X0222027Y0035644D01*
X0221978Y0035790D01*
X0221933Y0035936D01*
X0221892Y0036084D01*
X0221855Y0036232D01*
X0221821Y0036382D01*
X0221791Y0036533D01*
X0221766Y0036684D01*
X0221744Y0036835D01*
X0221726Y0036988D01*
X0221712Y0037140D01*
X0221702Y0037293D01*
X0221696Y0037447D01*
X0221694Y0037600D01*
X0371694Y0042600D02*
X0371696Y0042753D01*
X0371702Y0042907D01*
X0371712Y0043060D01*
X0371726Y0043212D01*
X0371744Y0043365D01*
X0371766Y0043516D01*
X0371791Y0043667D01*
X0371821Y0043818D01*
X0371855Y0043968D01*
X0371892Y0044116D01*
X0371933Y0044264D01*
X0371978Y0044410D01*
X0372027Y0044556D01*
X0372080Y0044700D01*
X0372136Y0044842D01*
X0372196Y0044983D01*
X0372260Y0045123D01*
X0372327Y0045261D01*
X0372398Y0045397D01*
X0372473Y0045531D01*
X0372550Y0045663D01*
X0372632Y0045793D01*
X0372716Y0045921D01*
X0372804Y0046047D01*
X0372895Y0046170D01*
X0372989Y0046291D01*
X0373087Y0046409D01*
X0373187Y0046525D01*
X0373291Y0046638D01*
X0373397Y0046749D01*
X0373506Y0046857D01*
X0373618Y0046962D01*
X0373732Y0047063D01*
X0373850Y0047162D01*
X0373969Y0047258D01*
X0374091Y0047351D01*
X0374216Y0047440D01*
X0374343Y0047527D01*
X0374472Y0047609D01*
X0374603Y0047689D01*
X0374736Y0047765D01*
X0374871Y0047838D01*
X0375008Y0047907D01*
X0375147Y0047972D01*
X0375287Y0048034D01*
X0375429Y0048092D01*
X0375572Y0048147D01*
X0375717Y0048198D01*
X0375863Y0048245D01*
X0376010Y0048288D01*
X0376158Y0048327D01*
X0376307Y0048363D01*
X0376457Y0048394D01*
X0376608Y0048422D01*
X0376759Y0048446D01*
X0376912Y0048466D01*
X0377064Y0048482D01*
X0377217Y0048494D01*
X0377370Y0048502D01*
X0377523Y0048506D01*
X0377677Y0048506D01*
X0377830Y0048502D01*
X0377983Y0048494D01*
X0378136Y0048482D01*
X0378288Y0048466D01*
X0378441Y0048446D01*
X0378592Y0048422D01*
X0378743Y0048394D01*
X0378893Y0048363D01*
X0379042Y0048327D01*
X0379190Y0048288D01*
X0379337Y0048245D01*
X0379483Y0048198D01*
X0379628Y0048147D01*
X0379771Y0048092D01*
X0379913Y0048034D01*
X0380053Y0047972D01*
X0380192Y0047907D01*
X0380329Y0047838D01*
X0380464Y0047765D01*
X0380597Y0047689D01*
X0380728Y0047609D01*
X0380857Y0047527D01*
X0380984Y0047440D01*
X0381109Y0047351D01*
X0381231Y0047258D01*
X0381350Y0047162D01*
X0381468Y0047063D01*
X0381582Y0046962D01*
X0381694Y0046857D01*
X0381803Y0046749D01*
X0381909Y0046638D01*
X0382013Y0046525D01*
X0382113Y0046409D01*
X0382211Y0046291D01*
X0382305Y0046170D01*
X0382396Y0046047D01*
X0382484Y0045921D01*
X0382568Y0045793D01*
X0382650Y0045663D01*
X0382727Y0045531D01*
X0382802Y0045397D01*
X0382873Y0045261D01*
X0382940Y0045123D01*
X0383004Y0044983D01*
X0383064Y0044842D01*
X0383120Y0044700D01*
X0383173Y0044556D01*
X0383222Y0044410D01*
X0383267Y0044264D01*
X0383308Y0044116D01*
X0383345Y0043968D01*
X0383379Y0043818D01*
X0383409Y0043667D01*
X0383434Y0043516D01*
X0383456Y0043365D01*
X0383474Y0043212D01*
X0383488Y0043060D01*
X0383498Y0042907D01*
X0383504Y0042753D01*
X0383506Y0042600D01*
X0383504Y0042447D01*
X0383498Y0042293D01*
X0383488Y0042140D01*
X0383474Y0041988D01*
X0383456Y0041835D01*
X0383434Y0041684D01*
X0383409Y0041533D01*
X0383379Y0041382D01*
X0383345Y0041232D01*
X0383308Y0041084D01*
X0383267Y0040936D01*
X0383222Y0040790D01*
X0383173Y0040644D01*
X0383120Y0040500D01*
X0383064Y0040358D01*
X0383004Y0040217D01*
X0382940Y0040077D01*
X0382873Y0039939D01*
X0382802Y0039803D01*
X0382727Y0039669D01*
X0382650Y0039537D01*
X0382568Y0039407D01*
X0382484Y0039279D01*
X0382396Y0039153D01*
X0382305Y0039030D01*
X0382211Y0038909D01*
X0382113Y0038791D01*
X0382013Y0038675D01*
X0381909Y0038562D01*
X0381803Y0038451D01*
X0381694Y0038343D01*
X0381582Y0038238D01*
X0381468Y0038137D01*
X0381350Y0038038D01*
X0381231Y0037942D01*
X0381109Y0037849D01*
X0380984Y0037760D01*
X0380857Y0037673D01*
X0380728Y0037591D01*
X0380597Y0037511D01*
X0380464Y0037435D01*
X0380329Y0037362D01*
X0380192Y0037293D01*
X0380053Y0037228D01*
X0379913Y0037166D01*
X0379771Y0037108D01*
X0379628Y0037053D01*
X0379483Y0037002D01*
X0379337Y0036955D01*
X0379190Y0036912D01*
X0379042Y0036873D01*
X0378893Y0036837D01*
X0378743Y0036806D01*
X0378592Y0036778D01*
X0378441Y0036754D01*
X0378288Y0036734D01*
X0378136Y0036718D01*
X0377983Y0036706D01*
X0377830Y0036698D01*
X0377677Y0036694D01*
X0377523Y0036694D01*
X0377370Y0036698D01*
X0377217Y0036706D01*
X0377064Y0036718D01*
X0376912Y0036734D01*
X0376759Y0036754D01*
X0376608Y0036778D01*
X0376457Y0036806D01*
X0376307Y0036837D01*
X0376158Y0036873D01*
X0376010Y0036912D01*
X0375863Y0036955D01*
X0375717Y0037002D01*
X0375572Y0037053D01*
X0375429Y0037108D01*
X0375287Y0037166D01*
X0375147Y0037228D01*
X0375008Y0037293D01*
X0374871Y0037362D01*
X0374736Y0037435D01*
X0374603Y0037511D01*
X0374472Y0037591D01*
X0374343Y0037673D01*
X0374216Y0037760D01*
X0374091Y0037849D01*
X0373969Y0037942D01*
X0373850Y0038038D01*
X0373732Y0038137D01*
X0373618Y0038238D01*
X0373506Y0038343D01*
X0373397Y0038451D01*
X0373291Y0038562D01*
X0373187Y0038675D01*
X0373087Y0038791D01*
X0372989Y0038909D01*
X0372895Y0039030D01*
X0372804Y0039153D01*
X0372716Y0039279D01*
X0372632Y0039407D01*
X0372550Y0039537D01*
X0372473Y0039669D01*
X0372398Y0039803D01*
X0372327Y0039939D01*
X0372260Y0040077D01*
X0372196Y0040217D01*
X0372136Y0040358D01*
X0372080Y0040500D01*
X0372027Y0040644D01*
X0371978Y0040790D01*
X0371933Y0040936D01*
X0371892Y0041084D01*
X0371855Y0041232D01*
X0371821Y0041382D01*
X0371791Y0041533D01*
X0371766Y0041684D01*
X0371744Y0041835D01*
X0371726Y0041988D01*
X0371712Y0042140D01*
X0371702Y0042293D01*
X0371696Y0042447D01*
X0371694Y0042600D01*
X0371694Y0117600D02*
X0371696Y0117753D01*
X0371702Y0117907D01*
X0371712Y0118060D01*
X0371726Y0118212D01*
X0371744Y0118365D01*
X0371766Y0118516D01*
X0371791Y0118667D01*
X0371821Y0118818D01*
X0371855Y0118968D01*
X0371892Y0119116D01*
X0371933Y0119264D01*
X0371978Y0119410D01*
X0372027Y0119556D01*
X0372080Y0119700D01*
X0372136Y0119842D01*
X0372196Y0119983D01*
X0372260Y0120123D01*
X0372327Y0120261D01*
X0372398Y0120397D01*
X0372473Y0120531D01*
X0372550Y0120663D01*
X0372632Y0120793D01*
X0372716Y0120921D01*
X0372804Y0121047D01*
X0372895Y0121170D01*
X0372989Y0121291D01*
X0373087Y0121409D01*
X0373187Y0121525D01*
X0373291Y0121638D01*
X0373397Y0121749D01*
X0373506Y0121857D01*
X0373618Y0121962D01*
X0373732Y0122063D01*
X0373850Y0122162D01*
X0373969Y0122258D01*
X0374091Y0122351D01*
X0374216Y0122440D01*
X0374343Y0122527D01*
X0374472Y0122609D01*
X0374603Y0122689D01*
X0374736Y0122765D01*
X0374871Y0122838D01*
X0375008Y0122907D01*
X0375147Y0122972D01*
X0375287Y0123034D01*
X0375429Y0123092D01*
X0375572Y0123147D01*
X0375717Y0123198D01*
X0375863Y0123245D01*
X0376010Y0123288D01*
X0376158Y0123327D01*
X0376307Y0123363D01*
X0376457Y0123394D01*
X0376608Y0123422D01*
X0376759Y0123446D01*
X0376912Y0123466D01*
X0377064Y0123482D01*
X0377217Y0123494D01*
X0377370Y0123502D01*
X0377523Y0123506D01*
X0377677Y0123506D01*
X0377830Y0123502D01*
X0377983Y0123494D01*
X0378136Y0123482D01*
X0378288Y0123466D01*
X0378441Y0123446D01*
X0378592Y0123422D01*
X0378743Y0123394D01*
X0378893Y0123363D01*
X0379042Y0123327D01*
X0379190Y0123288D01*
X0379337Y0123245D01*
X0379483Y0123198D01*
X0379628Y0123147D01*
X0379771Y0123092D01*
X0379913Y0123034D01*
X0380053Y0122972D01*
X0380192Y0122907D01*
X0380329Y0122838D01*
X0380464Y0122765D01*
X0380597Y0122689D01*
X0380728Y0122609D01*
X0380857Y0122527D01*
X0380984Y0122440D01*
X0381109Y0122351D01*
X0381231Y0122258D01*
X0381350Y0122162D01*
X0381468Y0122063D01*
X0381582Y0121962D01*
X0381694Y0121857D01*
X0381803Y0121749D01*
X0381909Y0121638D01*
X0382013Y0121525D01*
X0382113Y0121409D01*
X0382211Y0121291D01*
X0382305Y0121170D01*
X0382396Y0121047D01*
X0382484Y0120921D01*
X0382568Y0120793D01*
X0382650Y0120663D01*
X0382727Y0120531D01*
X0382802Y0120397D01*
X0382873Y0120261D01*
X0382940Y0120123D01*
X0383004Y0119983D01*
X0383064Y0119842D01*
X0383120Y0119700D01*
X0383173Y0119556D01*
X0383222Y0119410D01*
X0383267Y0119264D01*
X0383308Y0119116D01*
X0383345Y0118968D01*
X0383379Y0118818D01*
X0383409Y0118667D01*
X0383434Y0118516D01*
X0383456Y0118365D01*
X0383474Y0118212D01*
X0383488Y0118060D01*
X0383498Y0117907D01*
X0383504Y0117753D01*
X0383506Y0117600D01*
X0383504Y0117447D01*
X0383498Y0117293D01*
X0383488Y0117140D01*
X0383474Y0116988D01*
X0383456Y0116835D01*
X0383434Y0116684D01*
X0383409Y0116533D01*
X0383379Y0116382D01*
X0383345Y0116232D01*
X0383308Y0116084D01*
X0383267Y0115936D01*
X0383222Y0115790D01*
X0383173Y0115644D01*
X0383120Y0115500D01*
X0383064Y0115358D01*
X0383004Y0115217D01*
X0382940Y0115077D01*
X0382873Y0114939D01*
X0382802Y0114803D01*
X0382727Y0114669D01*
X0382650Y0114537D01*
X0382568Y0114407D01*
X0382484Y0114279D01*
X0382396Y0114153D01*
X0382305Y0114030D01*
X0382211Y0113909D01*
X0382113Y0113791D01*
X0382013Y0113675D01*
X0381909Y0113562D01*
X0381803Y0113451D01*
X0381694Y0113343D01*
X0381582Y0113238D01*
X0381468Y0113137D01*
X0381350Y0113038D01*
X0381231Y0112942D01*
X0381109Y0112849D01*
X0380984Y0112760D01*
X0380857Y0112673D01*
X0380728Y0112591D01*
X0380597Y0112511D01*
X0380464Y0112435D01*
X0380329Y0112362D01*
X0380192Y0112293D01*
X0380053Y0112228D01*
X0379913Y0112166D01*
X0379771Y0112108D01*
X0379628Y0112053D01*
X0379483Y0112002D01*
X0379337Y0111955D01*
X0379190Y0111912D01*
X0379042Y0111873D01*
X0378893Y0111837D01*
X0378743Y0111806D01*
X0378592Y0111778D01*
X0378441Y0111754D01*
X0378288Y0111734D01*
X0378136Y0111718D01*
X0377983Y0111706D01*
X0377830Y0111698D01*
X0377677Y0111694D01*
X0377523Y0111694D01*
X0377370Y0111698D01*
X0377217Y0111706D01*
X0377064Y0111718D01*
X0376912Y0111734D01*
X0376759Y0111754D01*
X0376608Y0111778D01*
X0376457Y0111806D01*
X0376307Y0111837D01*
X0376158Y0111873D01*
X0376010Y0111912D01*
X0375863Y0111955D01*
X0375717Y0112002D01*
X0375572Y0112053D01*
X0375429Y0112108D01*
X0375287Y0112166D01*
X0375147Y0112228D01*
X0375008Y0112293D01*
X0374871Y0112362D01*
X0374736Y0112435D01*
X0374603Y0112511D01*
X0374472Y0112591D01*
X0374343Y0112673D01*
X0374216Y0112760D01*
X0374091Y0112849D01*
X0373969Y0112942D01*
X0373850Y0113038D01*
X0373732Y0113137D01*
X0373618Y0113238D01*
X0373506Y0113343D01*
X0373397Y0113451D01*
X0373291Y0113562D01*
X0373187Y0113675D01*
X0373087Y0113791D01*
X0372989Y0113909D01*
X0372895Y0114030D01*
X0372804Y0114153D01*
X0372716Y0114279D01*
X0372632Y0114407D01*
X0372550Y0114537D01*
X0372473Y0114669D01*
X0372398Y0114803D01*
X0372327Y0114939D01*
X0372260Y0115077D01*
X0372196Y0115217D01*
X0372136Y0115358D01*
X0372080Y0115500D01*
X0372027Y0115644D01*
X0371978Y0115790D01*
X0371933Y0115936D01*
X0371892Y0116084D01*
X0371855Y0116232D01*
X0371821Y0116382D01*
X0371791Y0116533D01*
X0371766Y0116684D01*
X0371744Y0116835D01*
X0371726Y0116988D01*
X0371712Y0117140D01*
X0371702Y0117293D01*
X0371696Y0117447D01*
X0371694Y0117600D01*
X0371694Y0197600D02*
X0371696Y0197753D01*
X0371702Y0197907D01*
X0371712Y0198060D01*
X0371726Y0198212D01*
X0371744Y0198365D01*
X0371766Y0198516D01*
X0371791Y0198667D01*
X0371821Y0198818D01*
X0371855Y0198968D01*
X0371892Y0199116D01*
X0371933Y0199264D01*
X0371978Y0199410D01*
X0372027Y0199556D01*
X0372080Y0199700D01*
X0372136Y0199842D01*
X0372196Y0199983D01*
X0372260Y0200123D01*
X0372327Y0200261D01*
X0372398Y0200397D01*
X0372473Y0200531D01*
X0372550Y0200663D01*
X0372632Y0200793D01*
X0372716Y0200921D01*
X0372804Y0201047D01*
X0372895Y0201170D01*
X0372989Y0201291D01*
X0373087Y0201409D01*
X0373187Y0201525D01*
X0373291Y0201638D01*
X0373397Y0201749D01*
X0373506Y0201857D01*
X0373618Y0201962D01*
X0373732Y0202063D01*
X0373850Y0202162D01*
X0373969Y0202258D01*
X0374091Y0202351D01*
X0374216Y0202440D01*
X0374343Y0202527D01*
X0374472Y0202609D01*
X0374603Y0202689D01*
X0374736Y0202765D01*
X0374871Y0202838D01*
X0375008Y0202907D01*
X0375147Y0202972D01*
X0375287Y0203034D01*
X0375429Y0203092D01*
X0375572Y0203147D01*
X0375717Y0203198D01*
X0375863Y0203245D01*
X0376010Y0203288D01*
X0376158Y0203327D01*
X0376307Y0203363D01*
X0376457Y0203394D01*
X0376608Y0203422D01*
X0376759Y0203446D01*
X0376912Y0203466D01*
X0377064Y0203482D01*
X0377217Y0203494D01*
X0377370Y0203502D01*
X0377523Y0203506D01*
X0377677Y0203506D01*
X0377830Y0203502D01*
X0377983Y0203494D01*
X0378136Y0203482D01*
X0378288Y0203466D01*
X0378441Y0203446D01*
X0378592Y0203422D01*
X0378743Y0203394D01*
X0378893Y0203363D01*
X0379042Y0203327D01*
X0379190Y0203288D01*
X0379337Y0203245D01*
X0379483Y0203198D01*
X0379628Y0203147D01*
X0379771Y0203092D01*
X0379913Y0203034D01*
X0380053Y0202972D01*
X0380192Y0202907D01*
X0380329Y0202838D01*
X0380464Y0202765D01*
X0380597Y0202689D01*
X0380728Y0202609D01*
X0380857Y0202527D01*
X0380984Y0202440D01*
X0381109Y0202351D01*
X0381231Y0202258D01*
X0381350Y0202162D01*
X0381468Y0202063D01*
X0381582Y0201962D01*
X0381694Y0201857D01*
X0381803Y0201749D01*
X0381909Y0201638D01*
X0382013Y0201525D01*
X0382113Y0201409D01*
X0382211Y0201291D01*
X0382305Y0201170D01*
X0382396Y0201047D01*
X0382484Y0200921D01*
X0382568Y0200793D01*
X0382650Y0200663D01*
X0382727Y0200531D01*
X0382802Y0200397D01*
X0382873Y0200261D01*
X0382940Y0200123D01*
X0383004Y0199983D01*
X0383064Y0199842D01*
X0383120Y0199700D01*
X0383173Y0199556D01*
X0383222Y0199410D01*
X0383267Y0199264D01*
X0383308Y0199116D01*
X0383345Y0198968D01*
X0383379Y0198818D01*
X0383409Y0198667D01*
X0383434Y0198516D01*
X0383456Y0198365D01*
X0383474Y0198212D01*
X0383488Y0198060D01*
X0383498Y0197907D01*
X0383504Y0197753D01*
X0383506Y0197600D01*
X0383504Y0197447D01*
X0383498Y0197293D01*
X0383488Y0197140D01*
X0383474Y0196988D01*
X0383456Y0196835D01*
X0383434Y0196684D01*
X0383409Y0196533D01*
X0383379Y0196382D01*
X0383345Y0196232D01*
X0383308Y0196084D01*
X0383267Y0195936D01*
X0383222Y0195790D01*
X0383173Y0195644D01*
X0383120Y0195500D01*
X0383064Y0195358D01*
X0383004Y0195217D01*
X0382940Y0195077D01*
X0382873Y0194939D01*
X0382802Y0194803D01*
X0382727Y0194669D01*
X0382650Y0194537D01*
X0382568Y0194407D01*
X0382484Y0194279D01*
X0382396Y0194153D01*
X0382305Y0194030D01*
X0382211Y0193909D01*
X0382113Y0193791D01*
X0382013Y0193675D01*
X0381909Y0193562D01*
X0381803Y0193451D01*
X0381694Y0193343D01*
X0381582Y0193238D01*
X0381468Y0193137D01*
X0381350Y0193038D01*
X0381231Y0192942D01*
X0381109Y0192849D01*
X0380984Y0192760D01*
X0380857Y0192673D01*
X0380728Y0192591D01*
X0380597Y0192511D01*
X0380464Y0192435D01*
X0380329Y0192362D01*
X0380192Y0192293D01*
X0380053Y0192228D01*
X0379913Y0192166D01*
X0379771Y0192108D01*
X0379628Y0192053D01*
X0379483Y0192002D01*
X0379337Y0191955D01*
X0379190Y0191912D01*
X0379042Y0191873D01*
X0378893Y0191837D01*
X0378743Y0191806D01*
X0378592Y0191778D01*
X0378441Y0191754D01*
X0378288Y0191734D01*
X0378136Y0191718D01*
X0377983Y0191706D01*
X0377830Y0191698D01*
X0377677Y0191694D01*
X0377523Y0191694D01*
X0377370Y0191698D01*
X0377217Y0191706D01*
X0377064Y0191718D01*
X0376912Y0191734D01*
X0376759Y0191754D01*
X0376608Y0191778D01*
X0376457Y0191806D01*
X0376307Y0191837D01*
X0376158Y0191873D01*
X0376010Y0191912D01*
X0375863Y0191955D01*
X0375717Y0192002D01*
X0375572Y0192053D01*
X0375429Y0192108D01*
X0375287Y0192166D01*
X0375147Y0192228D01*
X0375008Y0192293D01*
X0374871Y0192362D01*
X0374736Y0192435D01*
X0374603Y0192511D01*
X0374472Y0192591D01*
X0374343Y0192673D01*
X0374216Y0192760D01*
X0374091Y0192849D01*
X0373969Y0192942D01*
X0373850Y0193038D01*
X0373732Y0193137D01*
X0373618Y0193238D01*
X0373506Y0193343D01*
X0373397Y0193451D01*
X0373291Y0193562D01*
X0373187Y0193675D01*
X0373087Y0193791D01*
X0372989Y0193909D01*
X0372895Y0194030D01*
X0372804Y0194153D01*
X0372716Y0194279D01*
X0372632Y0194407D01*
X0372550Y0194537D01*
X0372473Y0194669D01*
X0372398Y0194803D01*
X0372327Y0194939D01*
X0372260Y0195077D01*
X0372196Y0195217D01*
X0372136Y0195358D01*
X0372080Y0195500D01*
X0372027Y0195644D01*
X0371978Y0195790D01*
X0371933Y0195936D01*
X0371892Y0196084D01*
X0371855Y0196232D01*
X0371821Y0196382D01*
X0371791Y0196533D01*
X0371766Y0196684D01*
X0371744Y0196835D01*
X0371726Y0196988D01*
X0371712Y0197140D01*
X0371702Y0197293D01*
X0371696Y0197447D01*
X0371694Y0197600D01*
X0371694Y0277600D02*
X0371696Y0277753D01*
X0371702Y0277907D01*
X0371712Y0278060D01*
X0371726Y0278212D01*
X0371744Y0278365D01*
X0371766Y0278516D01*
X0371791Y0278667D01*
X0371821Y0278818D01*
X0371855Y0278968D01*
X0371892Y0279116D01*
X0371933Y0279264D01*
X0371978Y0279410D01*
X0372027Y0279556D01*
X0372080Y0279700D01*
X0372136Y0279842D01*
X0372196Y0279983D01*
X0372260Y0280123D01*
X0372327Y0280261D01*
X0372398Y0280397D01*
X0372473Y0280531D01*
X0372550Y0280663D01*
X0372632Y0280793D01*
X0372716Y0280921D01*
X0372804Y0281047D01*
X0372895Y0281170D01*
X0372989Y0281291D01*
X0373087Y0281409D01*
X0373187Y0281525D01*
X0373291Y0281638D01*
X0373397Y0281749D01*
X0373506Y0281857D01*
X0373618Y0281962D01*
X0373732Y0282063D01*
X0373850Y0282162D01*
X0373969Y0282258D01*
X0374091Y0282351D01*
X0374216Y0282440D01*
X0374343Y0282527D01*
X0374472Y0282609D01*
X0374603Y0282689D01*
X0374736Y0282765D01*
X0374871Y0282838D01*
X0375008Y0282907D01*
X0375147Y0282972D01*
X0375287Y0283034D01*
X0375429Y0283092D01*
X0375572Y0283147D01*
X0375717Y0283198D01*
X0375863Y0283245D01*
X0376010Y0283288D01*
X0376158Y0283327D01*
X0376307Y0283363D01*
X0376457Y0283394D01*
X0376608Y0283422D01*
X0376759Y0283446D01*
X0376912Y0283466D01*
X0377064Y0283482D01*
X0377217Y0283494D01*
X0377370Y0283502D01*
X0377523Y0283506D01*
X0377677Y0283506D01*
X0377830Y0283502D01*
X0377983Y0283494D01*
X0378136Y0283482D01*
X0378288Y0283466D01*
X0378441Y0283446D01*
X0378592Y0283422D01*
X0378743Y0283394D01*
X0378893Y0283363D01*
X0379042Y0283327D01*
X0379190Y0283288D01*
X0379337Y0283245D01*
X0379483Y0283198D01*
X0379628Y0283147D01*
X0379771Y0283092D01*
X0379913Y0283034D01*
X0380053Y0282972D01*
X0380192Y0282907D01*
X0380329Y0282838D01*
X0380464Y0282765D01*
X0380597Y0282689D01*
X0380728Y0282609D01*
X0380857Y0282527D01*
X0380984Y0282440D01*
X0381109Y0282351D01*
X0381231Y0282258D01*
X0381350Y0282162D01*
X0381468Y0282063D01*
X0381582Y0281962D01*
X0381694Y0281857D01*
X0381803Y0281749D01*
X0381909Y0281638D01*
X0382013Y0281525D01*
X0382113Y0281409D01*
X0382211Y0281291D01*
X0382305Y0281170D01*
X0382396Y0281047D01*
X0382484Y0280921D01*
X0382568Y0280793D01*
X0382650Y0280663D01*
X0382727Y0280531D01*
X0382802Y0280397D01*
X0382873Y0280261D01*
X0382940Y0280123D01*
X0383004Y0279983D01*
X0383064Y0279842D01*
X0383120Y0279700D01*
X0383173Y0279556D01*
X0383222Y0279410D01*
X0383267Y0279264D01*
X0383308Y0279116D01*
X0383345Y0278968D01*
X0383379Y0278818D01*
X0383409Y0278667D01*
X0383434Y0278516D01*
X0383456Y0278365D01*
X0383474Y0278212D01*
X0383488Y0278060D01*
X0383498Y0277907D01*
X0383504Y0277753D01*
X0383506Y0277600D01*
X0383504Y0277447D01*
X0383498Y0277293D01*
X0383488Y0277140D01*
X0383474Y0276988D01*
X0383456Y0276835D01*
X0383434Y0276684D01*
X0383409Y0276533D01*
X0383379Y0276382D01*
X0383345Y0276232D01*
X0383308Y0276084D01*
X0383267Y0275936D01*
X0383222Y0275790D01*
X0383173Y0275644D01*
X0383120Y0275500D01*
X0383064Y0275358D01*
X0383004Y0275217D01*
X0382940Y0275077D01*
X0382873Y0274939D01*
X0382802Y0274803D01*
X0382727Y0274669D01*
X0382650Y0274537D01*
X0382568Y0274407D01*
X0382484Y0274279D01*
X0382396Y0274153D01*
X0382305Y0274030D01*
X0382211Y0273909D01*
X0382113Y0273791D01*
X0382013Y0273675D01*
X0381909Y0273562D01*
X0381803Y0273451D01*
X0381694Y0273343D01*
X0381582Y0273238D01*
X0381468Y0273137D01*
X0381350Y0273038D01*
X0381231Y0272942D01*
X0381109Y0272849D01*
X0380984Y0272760D01*
X0380857Y0272673D01*
X0380728Y0272591D01*
X0380597Y0272511D01*
X0380464Y0272435D01*
X0380329Y0272362D01*
X0380192Y0272293D01*
X0380053Y0272228D01*
X0379913Y0272166D01*
X0379771Y0272108D01*
X0379628Y0272053D01*
X0379483Y0272002D01*
X0379337Y0271955D01*
X0379190Y0271912D01*
X0379042Y0271873D01*
X0378893Y0271837D01*
X0378743Y0271806D01*
X0378592Y0271778D01*
X0378441Y0271754D01*
X0378288Y0271734D01*
X0378136Y0271718D01*
X0377983Y0271706D01*
X0377830Y0271698D01*
X0377677Y0271694D01*
X0377523Y0271694D01*
X0377370Y0271698D01*
X0377217Y0271706D01*
X0377064Y0271718D01*
X0376912Y0271734D01*
X0376759Y0271754D01*
X0376608Y0271778D01*
X0376457Y0271806D01*
X0376307Y0271837D01*
X0376158Y0271873D01*
X0376010Y0271912D01*
X0375863Y0271955D01*
X0375717Y0272002D01*
X0375572Y0272053D01*
X0375429Y0272108D01*
X0375287Y0272166D01*
X0375147Y0272228D01*
X0375008Y0272293D01*
X0374871Y0272362D01*
X0374736Y0272435D01*
X0374603Y0272511D01*
X0374472Y0272591D01*
X0374343Y0272673D01*
X0374216Y0272760D01*
X0374091Y0272849D01*
X0373969Y0272942D01*
X0373850Y0273038D01*
X0373732Y0273137D01*
X0373618Y0273238D01*
X0373506Y0273343D01*
X0373397Y0273451D01*
X0373291Y0273562D01*
X0373187Y0273675D01*
X0373087Y0273791D01*
X0372989Y0273909D01*
X0372895Y0274030D01*
X0372804Y0274153D01*
X0372716Y0274279D01*
X0372632Y0274407D01*
X0372550Y0274537D01*
X0372473Y0274669D01*
X0372398Y0274803D01*
X0372327Y0274939D01*
X0372260Y0275077D01*
X0372196Y0275217D01*
X0372136Y0275358D01*
X0372080Y0275500D01*
X0372027Y0275644D01*
X0371978Y0275790D01*
X0371933Y0275936D01*
X0371892Y0276084D01*
X0371855Y0276232D01*
X0371821Y0276382D01*
X0371791Y0276533D01*
X0371766Y0276684D01*
X0371744Y0276835D01*
X0371726Y0276988D01*
X0371712Y0277140D01*
X0371702Y0277293D01*
X0371696Y0277447D01*
X0371694Y0277600D01*
D11*
X0272600Y0252600D03*
X0232600Y0252600D03*
X0232600Y0172600D03*
X0272600Y0172600D03*
X0272600Y0092600D03*
X0232600Y0092600D03*
X0237600Y0017600D03*
X0277600Y0017600D03*
X0072600Y0017600D03*
X0032600Y0017600D03*
X0032600Y0092600D03*
X0072600Y0092600D03*
X0072600Y0172600D03*
X0032600Y0172600D03*
X0032600Y0252600D03*
X0072600Y0252600D03*
D12*
X0069600Y0272600D02*
X0075600Y0272600D01*
X0075600Y0282600D02*
X0069600Y0282600D01*
X0129600Y0282600D02*
X0135600Y0282600D01*
X0135600Y0292600D02*
X0129600Y0292600D01*
X0129600Y0302600D02*
X0135600Y0302600D01*
X0135600Y0267600D02*
X0129600Y0267600D01*
X0129600Y0257600D02*
X0135600Y0257600D01*
X0135600Y0247600D02*
X0129600Y0247600D01*
X0129600Y0222600D02*
X0135600Y0222600D01*
X0135600Y0212600D02*
X0129600Y0212600D01*
X0129600Y0202600D02*
X0135600Y0202600D01*
X0135600Y0187600D02*
X0129600Y0187600D01*
X0129600Y0177600D02*
X0135600Y0177600D01*
X0135600Y0167600D02*
X0129600Y0167600D01*
X0129600Y0142600D02*
X0135600Y0142600D01*
X0135600Y0132600D02*
X0129600Y0132600D01*
X0129600Y0122600D02*
X0135600Y0122600D01*
X0135600Y0107600D02*
X0129600Y0107600D01*
X0129600Y0097600D02*
X0135600Y0097600D01*
X0135600Y0087600D02*
X0129600Y0087600D01*
X0129600Y0067600D02*
X0135600Y0067600D01*
X0135600Y0057600D02*
X0129600Y0057600D01*
X0129600Y0047600D02*
X0135600Y0047600D01*
X0135600Y0032600D02*
X0129600Y0032600D01*
X0129600Y0022600D02*
X0135600Y0022600D01*
X0135600Y0012600D02*
X0129600Y0012600D01*
X0075600Y0037600D02*
X0069600Y0037600D01*
X0069600Y0047600D02*
X0075600Y0047600D01*
X0075600Y0112600D02*
X0069600Y0112600D01*
X0069600Y0122600D02*
X0075600Y0122600D01*
X0075600Y0192600D02*
X0069600Y0192600D01*
X0069600Y0202600D02*
X0075600Y0202600D01*
X0269600Y0202600D02*
X0275600Y0202600D01*
X0275600Y0192600D02*
X0269600Y0192600D01*
X0329600Y0187600D02*
X0335600Y0187600D01*
X0335600Y0177600D02*
X0329600Y0177600D01*
X0329600Y0167600D02*
X0335600Y0167600D01*
X0335600Y0142600D02*
X0329600Y0142600D01*
X0329600Y0132600D02*
X0335600Y0132600D01*
X0335600Y0122600D02*
X0329600Y0122600D01*
X0329600Y0107600D02*
X0335600Y0107600D01*
X0335600Y0097600D02*
X0329600Y0097600D01*
X0329600Y0087600D02*
X0335600Y0087600D01*
X0335600Y0067600D02*
X0329600Y0067600D01*
X0329600Y0057600D02*
X0335600Y0057600D01*
X0335600Y0047600D02*
X0329600Y0047600D01*
X0329600Y0032600D02*
X0335600Y0032600D01*
X0335600Y0022600D02*
X0329600Y0022600D01*
X0329600Y0012600D02*
X0335600Y0012600D01*
X0275600Y0037600D02*
X0269600Y0037600D01*
X0269600Y0047600D02*
X0275600Y0047600D01*
X0275600Y0112600D02*
X0269600Y0112600D01*
X0269600Y0122600D02*
X0275600Y0122600D01*
X0329600Y0202600D02*
X0335600Y0202600D01*
X0335600Y0212600D02*
X0329600Y0212600D01*
X0329600Y0222600D02*
X0335600Y0222600D01*
X0335600Y0247600D02*
X0329600Y0247600D01*
X0329600Y0257600D02*
X0335600Y0257600D01*
X0335600Y0267600D02*
X0329600Y0267600D01*
X0329600Y0282600D02*
X0335600Y0282600D01*
X0335600Y0292600D02*
X0329600Y0292600D01*
X0329600Y0302600D02*
X0335600Y0302600D01*
X0275600Y0282600D02*
X0269600Y0282600D01*
X0269600Y0272600D02*
X0275600Y0272600D01*
D13*
X0272600Y0302600D03*
X0242600Y0302600D03*
X0222600Y0297600D03*
X0222600Y0307600D03*
X0222600Y0227600D03*
X0222600Y0217600D03*
X0242600Y0222600D03*
X0272600Y0222600D03*
X0222600Y0147600D03*
X0222600Y0137600D03*
X0242600Y0142600D03*
X0272600Y0142600D03*
X0277600Y0067600D03*
X0247600Y0067600D03*
X0222600Y0067600D03*
X0222600Y0057600D03*
X0072600Y0067600D03*
X0042600Y0067600D03*
X0022600Y0067600D03*
X0022600Y0057600D03*
X0022600Y0137600D03*
X0022600Y0147600D03*
X0042600Y0142600D03*
X0072600Y0142600D03*
X0022600Y0217600D03*
X0022600Y0227600D03*
X0042600Y0222600D03*
X0072600Y0222600D03*
X0022600Y0297600D03*
X0022600Y0307600D03*
X0042600Y0302600D03*
X0072600Y0302600D03*
D14*
X0090025Y0292600D02*
X0095175Y0292600D01*
X0095175Y0282600D02*
X0090025Y0282600D01*
X0090025Y0272600D02*
X0095175Y0272600D01*
X0110025Y0272600D02*
X0115175Y0272600D01*
X0115175Y0282600D02*
X0110025Y0282600D01*
X0110025Y0292600D02*
X0115175Y0292600D01*
X0115175Y0252600D02*
X0110025Y0252600D01*
X0095175Y0252600D02*
X0090025Y0252600D01*
X0090025Y0212600D02*
X0095175Y0212600D01*
X0095175Y0202600D02*
X0090025Y0202600D01*
X0090025Y0192600D02*
X0095175Y0192600D01*
X0110025Y0192600D02*
X0115175Y0192600D01*
X0115175Y0202600D02*
X0110025Y0202600D01*
X0110025Y0212600D02*
X0115175Y0212600D01*
X0115175Y0172600D02*
X0110025Y0172600D01*
X0095175Y0172600D02*
X0090025Y0172600D01*
X0090025Y0132600D02*
X0095175Y0132600D01*
X0095175Y0122600D02*
X0090025Y0122600D01*
X0090025Y0112600D02*
X0095175Y0112600D01*
X0110025Y0112600D02*
X0115175Y0112600D01*
X0115175Y0122600D02*
X0110025Y0122600D01*
X0110025Y0132600D02*
X0115175Y0132600D01*
X0115175Y0092600D02*
X0110025Y0092600D01*
X0095175Y0092600D02*
X0090025Y0092600D01*
X0090025Y0057600D02*
X0095175Y0057600D01*
X0095175Y0047600D02*
X0090025Y0047600D01*
X0090025Y0037600D02*
X0095175Y0037600D01*
X0110025Y0037600D02*
X0115175Y0037600D01*
X0115175Y0047600D02*
X0110025Y0047600D01*
X0110025Y0057600D02*
X0115175Y0057600D01*
X0115175Y0017600D02*
X0110025Y0017600D01*
X0095175Y0017600D02*
X0090025Y0017600D01*
X0290025Y0017600D02*
X0295175Y0017600D01*
X0310025Y0017600D02*
X0315175Y0017600D01*
X0315175Y0037600D02*
X0310025Y0037600D01*
X0310025Y0047600D02*
X0315175Y0047600D01*
X0315175Y0057600D02*
X0310025Y0057600D01*
X0295175Y0057600D02*
X0290025Y0057600D01*
X0290025Y0047600D02*
X0295175Y0047600D01*
X0295175Y0037600D02*
X0290025Y0037600D01*
X0290025Y0092600D02*
X0295175Y0092600D01*
X0310025Y0092600D02*
X0315175Y0092600D01*
X0315175Y0112600D02*
X0310025Y0112600D01*
X0310025Y0122600D02*
X0315175Y0122600D01*
X0315175Y0132600D02*
X0310025Y0132600D01*
X0295175Y0132600D02*
X0290025Y0132600D01*
X0290025Y0122600D02*
X0295175Y0122600D01*
X0295175Y0112600D02*
X0290025Y0112600D01*
X0290025Y0172600D02*
X0295175Y0172600D01*
X0310025Y0172600D02*
X0315175Y0172600D01*
X0315175Y0192600D02*
X0310025Y0192600D01*
X0310025Y0202600D02*
X0315175Y0202600D01*
X0315175Y0212600D02*
X0310025Y0212600D01*
X0295175Y0212600D02*
X0290025Y0212600D01*
X0290025Y0202600D02*
X0295175Y0202600D01*
X0295175Y0192600D02*
X0290025Y0192600D01*
X0290025Y0252600D02*
X0295175Y0252600D01*
X0310025Y0252600D02*
X0315175Y0252600D01*
X0315175Y0272600D02*
X0310025Y0272600D01*
X0310025Y0282600D02*
X0315175Y0282600D01*
X0315175Y0292600D02*
X0310025Y0292600D01*
X0295175Y0292600D02*
X0290025Y0292600D01*
X0290025Y0282600D02*
X0295175Y0282600D01*
X0295175Y0272600D02*
X0290025Y0272600D01*
D15*
X0227600Y0272600D03*
X0177600Y0277600D03*
X0177600Y0197600D03*
X0227600Y0192600D03*
X0177600Y0117600D03*
X0227600Y0112600D03*
X0177600Y0042600D03*
X0227600Y0037600D03*
X0377600Y0042600D03*
X0377600Y0117600D03*
X0377600Y0197600D03*
X0377600Y0277600D03*
X0027600Y0272600D03*
X0027600Y0192600D03*
X0027600Y0112600D03*
X0027600Y0037600D03*
M02*
