%
M48
M72
T01C0.04000
T02C0.12598
%
T01
X16000Y47600
X26000Y47600
X36000Y62600
X36000Y72600
X36000Y82600
X36000Y92600
X36000Y102600
X36000Y112600
X36000Y122600
X36000Y132600
X36000Y142600
X36000Y152600
X131000Y152600
X131000Y142600
X131000Y132600
X131000Y122600
X131000Y112600
X131000Y102600
X131000Y92600
X131000Y82600
X131000Y72600
X131000Y62600
X126000Y47600
X116000Y47600
X216000Y47600
X226000Y47600
X231000Y62600
X231000Y72600
X231000Y82600
X231000Y92600
X231000Y102600
X231000Y112600
X231000Y122600
X231000Y132600
X231000Y142600
X231000Y152600
X331000Y152600
X331000Y142600
X331000Y132600
X331000Y122600
X331000Y112600
X331000Y102600
X331000Y92600
X331000Y82600
X331000Y72600
X331000Y62600
X326000Y47600
X316000Y47600
T02
X66000Y27600
X161000Y27600
X261000Y27600
X361000Y27600
X336000Y177600
X236000Y177600
X136000Y177600
X41000Y177600
M30
