G75*
%MOIN*%
%OFA0B0*%
%FSLAX25Y25*%
%IPPOS*%
%LPD*%
%AMOC8*
5,1,8,0,0,1.08239X$1,22.5*
%
%ADD10C,0.00600*%
%ADD11C,0.03200*%
D10*
X0062368Y0077900D02*
X0064503Y0077900D01*
X0065570Y0078968D01*
X0065570Y0081103D01*
X0064503Y0082170D01*
X0063435Y0082170D01*
X0063435Y0077900D01*
X0062368Y0077900D02*
X0061300Y0078968D01*
X0061300Y0081103D01*
X0061300Y0084345D02*
X0061300Y0086481D01*
X0061300Y0085413D02*
X0067705Y0085413D01*
X0067705Y0084345D01*
X0065570Y0088642D02*
X0065570Y0090778D01*
X0066638Y0089710D02*
X0062368Y0089710D01*
X0061300Y0090778D01*
X0061300Y0092939D02*
X0065570Y0092939D01*
X0063435Y0092939D02*
X0065570Y0095075D01*
X0065570Y0096142D01*
X0065570Y0099378D02*
X0065570Y0101513D01*
X0064503Y0102581D01*
X0061300Y0102581D01*
X0061300Y0099378D01*
X0062368Y0098311D01*
X0063435Y0099378D01*
X0063435Y0102581D01*
X0062368Y0104756D02*
X0061300Y0105824D01*
X0061300Y0109027D01*
X0062368Y0111202D02*
X0061300Y0112269D01*
X0061300Y0114404D01*
X0062368Y0115472D01*
X0064503Y0115472D01*
X0065570Y0114404D01*
X0065570Y0112269D01*
X0064503Y0111202D01*
X0062368Y0111202D01*
X0065570Y0109027D02*
X0065570Y0105824D01*
X0064503Y0104756D01*
X0062368Y0104756D01*
X0161300Y0105824D02*
X0161300Y0109027D01*
X0162368Y0111202D02*
X0161300Y0112269D01*
X0161300Y0114404D01*
X0162368Y0115472D01*
X0164503Y0115472D01*
X0165570Y0114404D01*
X0165570Y0112269D01*
X0164503Y0111202D01*
X0162368Y0111202D01*
X0165570Y0109027D02*
X0165570Y0105824D01*
X0164503Y0104756D01*
X0162368Y0104756D01*
X0161300Y0105824D01*
X0161300Y0102581D02*
X0161300Y0099378D01*
X0162368Y0098311D01*
X0163435Y0099378D01*
X0163435Y0102581D01*
X0164503Y0102581D02*
X0161300Y0102581D01*
X0164503Y0102581D02*
X0165570Y0101513D01*
X0165570Y0099378D01*
X0165570Y0096142D02*
X0165570Y0095075D01*
X0163435Y0092939D01*
X0161300Y0092939D02*
X0165570Y0092939D01*
X0165570Y0090778D02*
X0165570Y0088642D01*
X0166638Y0089710D02*
X0162368Y0089710D01*
X0161300Y0090778D01*
X0161300Y0086481D02*
X0161300Y0084345D01*
X0161300Y0085413D02*
X0167705Y0085413D01*
X0167705Y0084345D01*
X0164503Y0082170D02*
X0163435Y0082170D01*
X0163435Y0077900D01*
X0162368Y0077900D02*
X0164503Y0077900D01*
X0165570Y0078968D01*
X0165570Y0081103D01*
X0164503Y0082170D01*
X0161300Y0081103D02*
X0161300Y0078968D01*
X0162368Y0077900D01*
X0256300Y0078968D02*
X0257368Y0077900D01*
X0259503Y0077900D01*
X0260570Y0078968D01*
X0260570Y0081103D01*
X0259503Y0082170D01*
X0258435Y0082170D01*
X0258435Y0077900D01*
X0256300Y0078968D02*
X0256300Y0081103D01*
X0256300Y0084345D02*
X0256300Y0086481D01*
X0256300Y0085413D02*
X0262705Y0085413D01*
X0262705Y0084345D01*
X0260570Y0088642D02*
X0260570Y0090778D01*
X0261638Y0089710D02*
X0257368Y0089710D01*
X0256300Y0090778D01*
X0256300Y0092939D02*
X0260570Y0092939D01*
X0258435Y0092939D02*
X0260570Y0095075D01*
X0260570Y0096142D01*
X0260570Y0099378D02*
X0260570Y0101513D01*
X0259503Y0102581D01*
X0256300Y0102581D01*
X0256300Y0099378D01*
X0257368Y0098311D01*
X0258435Y0099378D01*
X0258435Y0102581D01*
X0257368Y0104756D02*
X0256300Y0105824D01*
X0256300Y0109027D01*
X0257368Y0111202D02*
X0256300Y0112269D01*
X0256300Y0114404D01*
X0257368Y0115472D01*
X0259503Y0115472D01*
X0260570Y0114404D01*
X0260570Y0112269D01*
X0259503Y0111202D01*
X0257368Y0111202D01*
X0260570Y0109027D02*
X0260570Y0105824D01*
X0259503Y0104756D01*
X0257368Y0104756D01*
X0356300Y0105824D02*
X0356300Y0109027D01*
X0357368Y0111202D02*
X0356300Y0112269D01*
X0356300Y0114404D01*
X0357368Y0115472D01*
X0359503Y0115472D01*
X0360570Y0114404D01*
X0360570Y0112269D01*
X0359503Y0111202D01*
X0357368Y0111202D01*
X0360570Y0109027D02*
X0360570Y0105824D01*
X0359503Y0104756D01*
X0357368Y0104756D01*
X0356300Y0105824D01*
X0356300Y0102581D02*
X0356300Y0099378D01*
X0357368Y0098311D01*
X0358435Y0099378D01*
X0358435Y0102581D01*
X0359503Y0102581D02*
X0356300Y0102581D01*
X0359503Y0102581D02*
X0360570Y0101513D01*
X0360570Y0099378D01*
X0360570Y0096142D02*
X0360570Y0095075D01*
X0358435Y0092939D01*
X0356300Y0092939D02*
X0360570Y0092939D01*
X0360570Y0090778D02*
X0360570Y0088642D01*
X0361638Y0089710D02*
X0357368Y0089710D01*
X0356300Y0090778D01*
X0356300Y0086481D02*
X0356300Y0084345D01*
X0356300Y0085413D02*
X0362705Y0085413D01*
X0362705Y0084345D01*
X0359503Y0082170D02*
X0358435Y0082170D01*
X0358435Y0077900D01*
X0357368Y0077900D02*
X0359503Y0077900D01*
X0360570Y0078968D01*
X0360570Y0081103D01*
X0359503Y0082170D01*
X0356300Y0081103D02*
X0356300Y0078968D01*
X0357368Y0077900D01*
D11*
X0096000Y0002600D02*
X0096000Y0197600D01*
X0196000Y0197600D02*
X0196000Y0002600D01*
X0296000Y0002600D02*
X0296000Y0197600D01*
M02*
