G75*
%MOIN*%
%OFA0B0*%
%FSLAX25Y25*%
%IPPOS*%
%LPD*%
%AMOC8*
5,1,8,0,0,1.08239X$1,22.5*
%
%ADD10C,0.00000*%
D10*
X0001000Y0003000D02*
X0001000Y0317961D01*
X0394701Y0317961D01*
X0394701Y0003000D01*
X0001000Y0003000D01*
X0019701Y0023000D02*
X0019703Y0023158D01*
X0019709Y0023316D01*
X0019719Y0023474D01*
X0019733Y0023632D01*
X0019751Y0023789D01*
X0019772Y0023946D01*
X0019798Y0024102D01*
X0019828Y0024258D01*
X0019861Y0024413D01*
X0019899Y0024566D01*
X0019940Y0024719D01*
X0019985Y0024871D01*
X0020034Y0025022D01*
X0020087Y0025171D01*
X0020143Y0025319D01*
X0020203Y0025465D01*
X0020267Y0025610D01*
X0020335Y0025753D01*
X0020406Y0025895D01*
X0020480Y0026035D01*
X0020558Y0026172D01*
X0020640Y0026308D01*
X0020724Y0026442D01*
X0020813Y0026573D01*
X0020904Y0026702D01*
X0020999Y0026829D01*
X0021096Y0026954D01*
X0021197Y0027076D01*
X0021301Y0027195D01*
X0021408Y0027312D01*
X0021518Y0027426D01*
X0021631Y0027537D01*
X0021746Y0027646D01*
X0021864Y0027751D01*
X0021985Y0027853D01*
X0022108Y0027953D01*
X0022234Y0028049D01*
X0022362Y0028142D01*
X0022492Y0028232D01*
X0022625Y0028318D01*
X0022760Y0028402D01*
X0022896Y0028481D01*
X0023035Y0028558D01*
X0023176Y0028630D01*
X0023318Y0028700D01*
X0023462Y0028765D01*
X0023608Y0028827D01*
X0023755Y0028885D01*
X0023904Y0028940D01*
X0024054Y0028991D01*
X0024205Y0029038D01*
X0024357Y0029081D01*
X0024510Y0029120D01*
X0024665Y0029156D01*
X0024820Y0029187D01*
X0024976Y0029215D01*
X0025132Y0029239D01*
X0025289Y0029259D01*
X0025447Y0029275D01*
X0025604Y0029287D01*
X0025763Y0029295D01*
X0025921Y0029299D01*
X0026079Y0029299D01*
X0026237Y0029295D01*
X0026396Y0029287D01*
X0026553Y0029275D01*
X0026711Y0029259D01*
X0026868Y0029239D01*
X0027024Y0029215D01*
X0027180Y0029187D01*
X0027335Y0029156D01*
X0027490Y0029120D01*
X0027643Y0029081D01*
X0027795Y0029038D01*
X0027946Y0028991D01*
X0028096Y0028940D01*
X0028245Y0028885D01*
X0028392Y0028827D01*
X0028538Y0028765D01*
X0028682Y0028700D01*
X0028824Y0028630D01*
X0028965Y0028558D01*
X0029104Y0028481D01*
X0029240Y0028402D01*
X0029375Y0028318D01*
X0029508Y0028232D01*
X0029638Y0028142D01*
X0029766Y0028049D01*
X0029892Y0027953D01*
X0030015Y0027853D01*
X0030136Y0027751D01*
X0030254Y0027646D01*
X0030369Y0027537D01*
X0030482Y0027426D01*
X0030592Y0027312D01*
X0030699Y0027195D01*
X0030803Y0027076D01*
X0030904Y0026954D01*
X0031001Y0026829D01*
X0031096Y0026702D01*
X0031187Y0026573D01*
X0031276Y0026442D01*
X0031360Y0026308D01*
X0031442Y0026172D01*
X0031520Y0026035D01*
X0031594Y0025895D01*
X0031665Y0025753D01*
X0031733Y0025610D01*
X0031797Y0025465D01*
X0031857Y0025319D01*
X0031913Y0025171D01*
X0031966Y0025022D01*
X0032015Y0024871D01*
X0032060Y0024719D01*
X0032101Y0024566D01*
X0032139Y0024413D01*
X0032172Y0024258D01*
X0032202Y0024102D01*
X0032228Y0023946D01*
X0032249Y0023789D01*
X0032267Y0023632D01*
X0032281Y0023474D01*
X0032291Y0023316D01*
X0032297Y0023158D01*
X0032299Y0023000D01*
X0032297Y0022842D01*
X0032291Y0022684D01*
X0032281Y0022526D01*
X0032267Y0022368D01*
X0032249Y0022211D01*
X0032228Y0022054D01*
X0032202Y0021898D01*
X0032172Y0021742D01*
X0032139Y0021587D01*
X0032101Y0021434D01*
X0032060Y0021281D01*
X0032015Y0021129D01*
X0031966Y0020978D01*
X0031913Y0020829D01*
X0031857Y0020681D01*
X0031797Y0020535D01*
X0031733Y0020390D01*
X0031665Y0020247D01*
X0031594Y0020105D01*
X0031520Y0019965D01*
X0031442Y0019828D01*
X0031360Y0019692D01*
X0031276Y0019558D01*
X0031187Y0019427D01*
X0031096Y0019298D01*
X0031001Y0019171D01*
X0030904Y0019046D01*
X0030803Y0018924D01*
X0030699Y0018805D01*
X0030592Y0018688D01*
X0030482Y0018574D01*
X0030369Y0018463D01*
X0030254Y0018354D01*
X0030136Y0018249D01*
X0030015Y0018147D01*
X0029892Y0018047D01*
X0029766Y0017951D01*
X0029638Y0017858D01*
X0029508Y0017768D01*
X0029375Y0017682D01*
X0029240Y0017598D01*
X0029104Y0017519D01*
X0028965Y0017442D01*
X0028824Y0017370D01*
X0028682Y0017300D01*
X0028538Y0017235D01*
X0028392Y0017173D01*
X0028245Y0017115D01*
X0028096Y0017060D01*
X0027946Y0017009D01*
X0027795Y0016962D01*
X0027643Y0016919D01*
X0027490Y0016880D01*
X0027335Y0016844D01*
X0027180Y0016813D01*
X0027024Y0016785D01*
X0026868Y0016761D01*
X0026711Y0016741D01*
X0026553Y0016725D01*
X0026396Y0016713D01*
X0026237Y0016705D01*
X0026079Y0016701D01*
X0025921Y0016701D01*
X0025763Y0016705D01*
X0025604Y0016713D01*
X0025447Y0016725D01*
X0025289Y0016741D01*
X0025132Y0016761D01*
X0024976Y0016785D01*
X0024820Y0016813D01*
X0024665Y0016844D01*
X0024510Y0016880D01*
X0024357Y0016919D01*
X0024205Y0016962D01*
X0024054Y0017009D01*
X0023904Y0017060D01*
X0023755Y0017115D01*
X0023608Y0017173D01*
X0023462Y0017235D01*
X0023318Y0017300D01*
X0023176Y0017370D01*
X0023035Y0017442D01*
X0022896Y0017519D01*
X0022760Y0017598D01*
X0022625Y0017682D01*
X0022492Y0017768D01*
X0022362Y0017858D01*
X0022234Y0017951D01*
X0022108Y0018047D01*
X0021985Y0018147D01*
X0021864Y0018249D01*
X0021746Y0018354D01*
X0021631Y0018463D01*
X0021518Y0018574D01*
X0021408Y0018688D01*
X0021301Y0018805D01*
X0021197Y0018924D01*
X0021096Y0019046D01*
X0020999Y0019171D01*
X0020904Y0019298D01*
X0020813Y0019427D01*
X0020724Y0019558D01*
X0020640Y0019692D01*
X0020558Y0019828D01*
X0020480Y0019965D01*
X0020406Y0020105D01*
X0020335Y0020247D01*
X0020267Y0020390D01*
X0020203Y0020535D01*
X0020143Y0020681D01*
X0020087Y0020829D01*
X0020034Y0020978D01*
X0019985Y0021129D01*
X0019940Y0021281D01*
X0019899Y0021434D01*
X0019861Y0021587D01*
X0019828Y0021742D01*
X0019798Y0021898D01*
X0019772Y0022054D01*
X0019751Y0022211D01*
X0019733Y0022368D01*
X0019719Y0022526D01*
X0019709Y0022684D01*
X0019703Y0022842D01*
X0019701Y0023000D01*
X0099701Y0023000D02*
X0099703Y0023158D01*
X0099709Y0023316D01*
X0099719Y0023474D01*
X0099733Y0023632D01*
X0099751Y0023789D01*
X0099772Y0023946D01*
X0099798Y0024102D01*
X0099828Y0024258D01*
X0099861Y0024413D01*
X0099899Y0024566D01*
X0099940Y0024719D01*
X0099985Y0024871D01*
X0100034Y0025022D01*
X0100087Y0025171D01*
X0100143Y0025319D01*
X0100203Y0025465D01*
X0100267Y0025610D01*
X0100335Y0025753D01*
X0100406Y0025895D01*
X0100480Y0026035D01*
X0100558Y0026172D01*
X0100640Y0026308D01*
X0100724Y0026442D01*
X0100813Y0026573D01*
X0100904Y0026702D01*
X0100999Y0026829D01*
X0101096Y0026954D01*
X0101197Y0027076D01*
X0101301Y0027195D01*
X0101408Y0027312D01*
X0101518Y0027426D01*
X0101631Y0027537D01*
X0101746Y0027646D01*
X0101864Y0027751D01*
X0101985Y0027853D01*
X0102108Y0027953D01*
X0102234Y0028049D01*
X0102362Y0028142D01*
X0102492Y0028232D01*
X0102625Y0028318D01*
X0102760Y0028402D01*
X0102896Y0028481D01*
X0103035Y0028558D01*
X0103176Y0028630D01*
X0103318Y0028700D01*
X0103462Y0028765D01*
X0103608Y0028827D01*
X0103755Y0028885D01*
X0103904Y0028940D01*
X0104054Y0028991D01*
X0104205Y0029038D01*
X0104357Y0029081D01*
X0104510Y0029120D01*
X0104665Y0029156D01*
X0104820Y0029187D01*
X0104976Y0029215D01*
X0105132Y0029239D01*
X0105289Y0029259D01*
X0105447Y0029275D01*
X0105604Y0029287D01*
X0105763Y0029295D01*
X0105921Y0029299D01*
X0106079Y0029299D01*
X0106237Y0029295D01*
X0106396Y0029287D01*
X0106553Y0029275D01*
X0106711Y0029259D01*
X0106868Y0029239D01*
X0107024Y0029215D01*
X0107180Y0029187D01*
X0107335Y0029156D01*
X0107490Y0029120D01*
X0107643Y0029081D01*
X0107795Y0029038D01*
X0107946Y0028991D01*
X0108096Y0028940D01*
X0108245Y0028885D01*
X0108392Y0028827D01*
X0108538Y0028765D01*
X0108682Y0028700D01*
X0108824Y0028630D01*
X0108965Y0028558D01*
X0109104Y0028481D01*
X0109240Y0028402D01*
X0109375Y0028318D01*
X0109508Y0028232D01*
X0109638Y0028142D01*
X0109766Y0028049D01*
X0109892Y0027953D01*
X0110015Y0027853D01*
X0110136Y0027751D01*
X0110254Y0027646D01*
X0110369Y0027537D01*
X0110482Y0027426D01*
X0110592Y0027312D01*
X0110699Y0027195D01*
X0110803Y0027076D01*
X0110904Y0026954D01*
X0111001Y0026829D01*
X0111096Y0026702D01*
X0111187Y0026573D01*
X0111276Y0026442D01*
X0111360Y0026308D01*
X0111442Y0026172D01*
X0111520Y0026035D01*
X0111594Y0025895D01*
X0111665Y0025753D01*
X0111733Y0025610D01*
X0111797Y0025465D01*
X0111857Y0025319D01*
X0111913Y0025171D01*
X0111966Y0025022D01*
X0112015Y0024871D01*
X0112060Y0024719D01*
X0112101Y0024566D01*
X0112139Y0024413D01*
X0112172Y0024258D01*
X0112202Y0024102D01*
X0112228Y0023946D01*
X0112249Y0023789D01*
X0112267Y0023632D01*
X0112281Y0023474D01*
X0112291Y0023316D01*
X0112297Y0023158D01*
X0112299Y0023000D01*
X0112297Y0022842D01*
X0112291Y0022684D01*
X0112281Y0022526D01*
X0112267Y0022368D01*
X0112249Y0022211D01*
X0112228Y0022054D01*
X0112202Y0021898D01*
X0112172Y0021742D01*
X0112139Y0021587D01*
X0112101Y0021434D01*
X0112060Y0021281D01*
X0112015Y0021129D01*
X0111966Y0020978D01*
X0111913Y0020829D01*
X0111857Y0020681D01*
X0111797Y0020535D01*
X0111733Y0020390D01*
X0111665Y0020247D01*
X0111594Y0020105D01*
X0111520Y0019965D01*
X0111442Y0019828D01*
X0111360Y0019692D01*
X0111276Y0019558D01*
X0111187Y0019427D01*
X0111096Y0019298D01*
X0111001Y0019171D01*
X0110904Y0019046D01*
X0110803Y0018924D01*
X0110699Y0018805D01*
X0110592Y0018688D01*
X0110482Y0018574D01*
X0110369Y0018463D01*
X0110254Y0018354D01*
X0110136Y0018249D01*
X0110015Y0018147D01*
X0109892Y0018047D01*
X0109766Y0017951D01*
X0109638Y0017858D01*
X0109508Y0017768D01*
X0109375Y0017682D01*
X0109240Y0017598D01*
X0109104Y0017519D01*
X0108965Y0017442D01*
X0108824Y0017370D01*
X0108682Y0017300D01*
X0108538Y0017235D01*
X0108392Y0017173D01*
X0108245Y0017115D01*
X0108096Y0017060D01*
X0107946Y0017009D01*
X0107795Y0016962D01*
X0107643Y0016919D01*
X0107490Y0016880D01*
X0107335Y0016844D01*
X0107180Y0016813D01*
X0107024Y0016785D01*
X0106868Y0016761D01*
X0106711Y0016741D01*
X0106553Y0016725D01*
X0106396Y0016713D01*
X0106237Y0016705D01*
X0106079Y0016701D01*
X0105921Y0016701D01*
X0105763Y0016705D01*
X0105604Y0016713D01*
X0105447Y0016725D01*
X0105289Y0016741D01*
X0105132Y0016761D01*
X0104976Y0016785D01*
X0104820Y0016813D01*
X0104665Y0016844D01*
X0104510Y0016880D01*
X0104357Y0016919D01*
X0104205Y0016962D01*
X0104054Y0017009D01*
X0103904Y0017060D01*
X0103755Y0017115D01*
X0103608Y0017173D01*
X0103462Y0017235D01*
X0103318Y0017300D01*
X0103176Y0017370D01*
X0103035Y0017442D01*
X0102896Y0017519D01*
X0102760Y0017598D01*
X0102625Y0017682D01*
X0102492Y0017768D01*
X0102362Y0017858D01*
X0102234Y0017951D01*
X0102108Y0018047D01*
X0101985Y0018147D01*
X0101864Y0018249D01*
X0101746Y0018354D01*
X0101631Y0018463D01*
X0101518Y0018574D01*
X0101408Y0018688D01*
X0101301Y0018805D01*
X0101197Y0018924D01*
X0101096Y0019046D01*
X0100999Y0019171D01*
X0100904Y0019298D01*
X0100813Y0019427D01*
X0100724Y0019558D01*
X0100640Y0019692D01*
X0100558Y0019828D01*
X0100480Y0019965D01*
X0100406Y0020105D01*
X0100335Y0020247D01*
X0100267Y0020390D01*
X0100203Y0020535D01*
X0100143Y0020681D01*
X0100087Y0020829D01*
X0100034Y0020978D01*
X0099985Y0021129D01*
X0099940Y0021281D01*
X0099899Y0021434D01*
X0099861Y0021587D01*
X0099828Y0021742D01*
X0099798Y0021898D01*
X0099772Y0022054D01*
X0099751Y0022211D01*
X0099733Y0022368D01*
X0099719Y0022526D01*
X0099709Y0022684D01*
X0099703Y0022842D01*
X0099701Y0023000D01*
X0149701Y0023000D02*
X0149703Y0023158D01*
X0149709Y0023316D01*
X0149719Y0023474D01*
X0149733Y0023632D01*
X0149751Y0023789D01*
X0149772Y0023946D01*
X0149798Y0024102D01*
X0149828Y0024258D01*
X0149861Y0024413D01*
X0149899Y0024566D01*
X0149940Y0024719D01*
X0149985Y0024871D01*
X0150034Y0025022D01*
X0150087Y0025171D01*
X0150143Y0025319D01*
X0150203Y0025465D01*
X0150267Y0025610D01*
X0150335Y0025753D01*
X0150406Y0025895D01*
X0150480Y0026035D01*
X0150558Y0026172D01*
X0150640Y0026308D01*
X0150724Y0026442D01*
X0150813Y0026573D01*
X0150904Y0026702D01*
X0150999Y0026829D01*
X0151096Y0026954D01*
X0151197Y0027076D01*
X0151301Y0027195D01*
X0151408Y0027312D01*
X0151518Y0027426D01*
X0151631Y0027537D01*
X0151746Y0027646D01*
X0151864Y0027751D01*
X0151985Y0027853D01*
X0152108Y0027953D01*
X0152234Y0028049D01*
X0152362Y0028142D01*
X0152492Y0028232D01*
X0152625Y0028318D01*
X0152760Y0028402D01*
X0152896Y0028481D01*
X0153035Y0028558D01*
X0153176Y0028630D01*
X0153318Y0028700D01*
X0153462Y0028765D01*
X0153608Y0028827D01*
X0153755Y0028885D01*
X0153904Y0028940D01*
X0154054Y0028991D01*
X0154205Y0029038D01*
X0154357Y0029081D01*
X0154510Y0029120D01*
X0154665Y0029156D01*
X0154820Y0029187D01*
X0154976Y0029215D01*
X0155132Y0029239D01*
X0155289Y0029259D01*
X0155447Y0029275D01*
X0155604Y0029287D01*
X0155763Y0029295D01*
X0155921Y0029299D01*
X0156079Y0029299D01*
X0156237Y0029295D01*
X0156396Y0029287D01*
X0156553Y0029275D01*
X0156711Y0029259D01*
X0156868Y0029239D01*
X0157024Y0029215D01*
X0157180Y0029187D01*
X0157335Y0029156D01*
X0157490Y0029120D01*
X0157643Y0029081D01*
X0157795Y0029038D01*
X0157946Y0028991D01*
X0158096Y0028940D01*
X0158245Y0028885D01*
X0158392Y0028827D01*
X0158538Y0028765D01*
X0158682Y0028700D01*
X0158824Y0028630D01*
X0158965Y0028558D01*
X0159104Y0028481D01*
X0159240Y0028402D01*
X0159375Y0028318D01*
X0159508Y0028232D01*
X0159638Y0028142D01*
X0159766Y0028049D01*
X0159892Y0027953D01*
X0160015Y0027853D01*
X0160136Y0027751D01*
X0160254Y0027646D01*
X0160369Y0027537D01*
X0160482Y0027426D01*
X0160592Y0027312D01*
X0160699Y0027195D01*
X0160803Y0027076D01*
X0160904Y0026954D01*
X0161001Y0026829D01*
X0161096Y0026702D01*
X0161187Y0026573D01*
X0161276Y0026442D01*
X0161360Y0026308D01*
X0161442Y0026172D01*
X0161520Y0026035D01*
X0161594Y0025895D01*
X0161665Y0025753D01*
X0161733Y0025610D01*
X0161797Y0025465D01*
X0161857Y0025319D01*
X0161913Y0025171D01*
X0161966Y0025022D01*
X0162015Y0024871D01*
X0162060Y0024719D01*
X0162101Y0024566D01*
X0162139Y0024413D01*
X0162172Y0024258D01*
X0162202Y0024102D01*
X0162228Y0023946D01*
X0162249Y0023789D01*
X0162267Y0023632D01*
X0162281Y0023474D01*
X0162291Y0023316D01*
X0162297Y0023158D01*
X0162299Y0023000D01*
X0162297Y0022842D01*
X0162291Y0022684D01*
X0162281Y0022526D01*
X0162267Y0022368D01*
X0162249Y0022211D01*
X0162228Y0022054D01*
X0162202Y0021898D01*
X0162172Y0021742D01*
X0162139Y0021587D01*
X0162101Y0021434D01*
X0162060Y0021281D01*
X0162015Y0021129D01*
X0161966Y0020978D01*
X0161913Y0020829D01*
X0161857Y0020681D01*
X0161797Y0020535D01*
X0161733Y0020390D01*
X0161665Y0020247D01*
X0161594Y0020105D01*
X0161520Y0019965D01*
X0161442Y0019828D01*
X0161360Y0019692D01*
X0161276Y0019558D01*
X0161187Y0019427D01*
X0161096Y0019298D01*
X0161001Y0019171D01*
X0160904Y0019046D01*
X0160803Y0018924D01*
X0160699Y0018805D01*
X0160592Y0018688D01*
X0160482Y0018574D01*
X0160369Y0018463D01*
X0160254Y0018354D01*
X0160136Y0018249D01*
X0160015Y0018147D01*
X0159892Y0018047D01*
X0159766Y0017951D01*
X0159638Y0017858D01*
X0159508Y0017768D01*
X0159375Y0017682D01*
X0159240Y0017598D01*
X0159104Y0017519D01*
X0158965Y0017442D01*
X0158824Y0017370D01*
X0158682Y0017300D01*
X0158538Y0017235D01*
X0158392Y0017173D01*
X0158245Y0017115D01*
X0158096Y0017060D01*
X0157946Y0017009D01*
X0157795Y0016962D01*
X0157643Y0016919D01*
X0157490Y0016880D01*
X0157335Y0016844D01*
X0157180Y0016813D01*
X0157024Y0016785D01*
X0156868Y0016761D01*
X0156711Y0016741D01*
X0156553Y0016725D01*
X0156396Y0016713D01*
X0156237Y0016705D01*
X0156079Y0016701D01*
X0155921Y0016701D01*
X0155763Y0016705D01*
X0155604Y0016713D01*
X0155447Y0016725D01*
X0155289Y0016741D01*
X0155132Y0016761D01*
X0154976Y0016785D01*
X0154820Y0016813D01*
X0154665Y0016844D01*
X0154510Y0016880D01*
X0154357Y0016919D01*
X0154205Y0016962D01*
X0154054Y0017009D01*
X0153904Y0017060D01*
X0153755Y0017115D01*
X0153608Y0017173D01*
X0153462Y0017235D01*
X0153318Y0017300D01*
X0153176Y0017370D01*
X0153035Y0017442D01*
X0152896Y0017519D01*
X0152760Y0017598D01*
X0152625Y0017682D01*
X0152492Y0017768D01*
X0152362Y0017858D01*
X0152234Y0017951D01*
X0152108Y0018047D01*
X0151985Y0018147D01*
X0151864Y0018249D01*
X0151746Y0018354D01*
X0151631Y0018463D01*
X0151518Y0018574D01*
X0151408Y0018688D01*
X0151301Y0018805D01*
X0151197Y0018924D01*
X0151096Y0019046D01*
X0150999Y0019171D01*
X0150904Y0019298D01*
X0150813Y0019427D01*
X0150724Y0019558D01*
X0150640Y0019692D01*
X0150558Y0019828D01*
X0150480Y0019965D01*
X0150406Y0020105D01*
X0150335Y0020247D01*
X0150267Y0020390D01*
X0150203Y0020535D01*
X0150143Y0020681D01*
X0150087Y0020829D01*
X0150034Y0020978D01*
X0149985Y0021129D01*
X0149940Y0021281D01*
X0149899Y0021434D01*
X0149861Y0021587D01*
X0149828Y0021742D01*
X0149798Y0021898D01*
X0149772Y0022054D01*
X0149751Y0022211D01*
X0149733Y0022368D01*
X0149719Y0022526D01*
X0149709Y0022684D01*
X0149703Y0022842D01*
X0149701Y0023000D01*
X0229701Y0023000D02*
X0229703Y0023158D01*
X0229709Y0023316D01*
X0229719Y0023474D01*
X0229733Y0023632D01*
X0229751Y0023789D01*
X0229772Y0023946D01*
X0229798Y0024102D01*
X0229828Y0024258D01*
X0229861Y0024413D01*
X0229899Y0024566D01*
X0229940Y0024719D01*
X0229985Y0024871D01*
X0230034Y0025022D01*
X0230087Y0025171D01*
X0230143Y0025319D01*
X0230203Y0025465D01*
X0230267Y0025610D01*
X0230335Y0025753D01*
X0230406Y0025895D01*
X0230480Y0026035D01*
X0230558Y0026172D01*
X0230640Y0026308D01*
X0230724Y0026442D01*
X0230813Y0026573D01*
X0230904Y0026702D01*
X0230999Y0026829D01*
X0231096Y0026954D01*
X0231197Y0027076D01*
X0231301Y0027195D01*
X0231408Y0027312D01*
X0231518Y0027426D01*
X0231631Y0027537D01*
X0231746Y0027646D01*
X0231864Y0027751D01*
X0231985Y0027853D01*
X0232108Y0027953D01*
X0232234Y0028049D01*
X0232362Y0028142D01*
X0232492Y0028232D01*
X0232625Y0028318D01*
X0232760Y0028402D01*
X0232896Y0028481D01*
X0233035Y0028558D01*
X0233176Y0028630D01*
X0233318Y0028700D01*
X0233462Y0028765D01*
X0233608Y0028827D01*
X0233755Y0028885D01*
X0233904Y0028940D01*
X0234054Y0028991D01*
X0234205Y0029038D01*
X0234357Y0029081D01*
X0234510Y0029120D01*
X0234665Y0029156D01*
X0234820Y0029187D01*
X0234976Y0029215D01*
X0235132Y0029239D01*
X0235289Y0029259D01*
X0235447Y0029275D01*
X0235604Y0029287D01*
X0235763Y0029295D01*
X0235921Y0029299D01*
X0236079Y0029299D01*
X0236237Y0029295D01*
X0236396Y0029287D01*
X0236553Y0029275D01*
X0236711Y0029259D01*
X0236868Y0029239D01*
X0237024Y0029215D01*
X0237180Y0029187D01*
X0237335Y0029156D01*
X0237490Y0029120D01*
X0237643Y0029081D01*
X0237795Y0029038D01*
X0237946Y0028991D01*
X0238096Y0028940D01*
X0238245Y0028885D01*
X0238392Y0028827D01*
X0238538Y0028765D01*
X0238682Y0028700D01*
X0238824Y0028630D01*
X0238965Y0028558D01*
X0239104Y0028481D01*
X0239240Y0028402D01*
X0239375Y0028318D01*
X0239508Y0028232D01*
X0239638Y0028142D01*
X0239766Y0028049D01*
X0239892Y0027953D01*
X0240015Y0027853D01*
X0240136Y0027751D01*
X0240254Y0027646D01*
X0240369Y0027537D01*
X0240482Y0027426D01*
X0240592Y0027312D01*
X0240699Y0027195D01*
X0240803Y0027076D01*
X0240904Y0026954D01*
X0241001Y0026829D01*
X0241096Y0026702D01*
X0241187Y0026573D01*
X0241276Y0026442D01*
X0241360Y0026308D01*
X0241442Y0026172D01*
X0241520Y0026035D01*
X0241594Y0025895D01*
X0241665Y0025753D01*
X0241733Y0025610D01*
X0241797Y0025465D01*
X0241857Y0025319D01*
X0241913Y0025171D01*
X0241966Y0025022D01*
X0242015Y0024871D01*
X0242060Y0024719D01*
X0242101Y0024566D01*
X0242139Y0024413D01*
X0242172Y0024258D01*
X0242202Y0024102D01*
X0242228Y0023946D01*
X0242249Y0023789D01*
X0242267Y0023632D01*
X0242281Y0023474D01*
X0242291Y0023316D01*
X0242297Y0023158D01*
X0242299Y0023000D01*
X0242297Y0022842D01*
X0242291Y0022684D01*
X0242281Y0022526D01*
X0242267Y0022368D01*
X0242249Y0022211D01*
X0242228Y0022054D01*
X0242202Y0021898D01*
X0242172Y0021742D01*
X0242139Y0021587D01*
X0242101Y0021434D01*
X0242060Y0021281D01*
X0242015Y0021129D01*
X0241966Y0020978D01*
X0241913Y0020829D01*
X0241857Y0020681D01*
X0241797Y0020535D01*
X0241733Y0020390D01*
X0241665Y0020247D01*
X0241594Y0020105D01*
X0241520Y0019965D01*
X0241442Y0019828D01*
X0241360Y0019692D01*
X0241276Y0019558D01*
X0241187Y0019427D01*
X0241096Y0019298D01*
X0241001Y0019171D01*
X0240904Y0019046D01*
X0240803Y0018924D01*
X0240699Y0018805D01*
X0240592Y0018688D01*
X0240482Y0018574D01*
X0240369Y0018463D01*
X0240254Y0018354D01*
X0240136Y0018249D01*
X0240015Y0018147D01*
X0239892Y0018047D01*
X0239766Y0017951D01*
X0239638Y0017858D01*
X0239508Y0017768D01*
X0239375Y0017682D01*
X0239240Y0017598D01*
X0239104Y0017519D01*
X0238965Y0017442D01*
X0238824Y0017370D01*
X0238682Y0017300D01*
X0238538Y0017235D01*
X0238392Y0017173D01*
X0238245Y0017115D01*
X0238096Y0017060D01*
X0237946Y0017009D01*
X0237795Y0016962D01*
X0237643Y0016919D01*
X0237490Y0016880D01*
X0237335Y0016844D01*
X0237180Y0016813D01*
X0237024Y0016785D01*
X0236868Y0016761D01*
X0236711Y0016741D01*
X0236553Y0016725D01*
X0236396Y0016713D01*
X0236237Y0016705D01*
X0236079Y0016701D01*
X0235921Y0016701D01*
X0235763Y0016705D01*
X0235604Y0016713D01*
X0235447Y0016725D01*
X0235289Y0016741D01*
X0235132Y0016761D01*
X0234976Y0016785D01*
X0234820Y0016813D01*
X0234665Y0016844D01*
X0234510Y0016880D01*
X0234357Y0016919D01*
X0234205Y0016962D01*
X0234054Y0017009D01*
X0233904Y0017060D01*
X0233755Y0017115D01*
X0233608Y0017173D01*
X0233462Y0017235D01*
X0233318Y0017300D01*
X0233176Y0017370D01*
X0233035Y0017442D01*
X0232896Y0017519D01*
X0232760Y0017598D01*
X0232625Y0017682D01*
X0232492Y0017768D01*
X0232362Y0017858D01*
X0232234Y0017951D01*
X0232108Y0018047D01*
X0231985Y0018147D01*
X0231864Y0018249D01*
X0231746Y0018354D01*
X0231631Y0018463D01*
X0231518Y0018574D01*
X0231408Y0018688D01*
X0231301Y0018805D01*
X0231197Y0018924D01*
X0231096Y0019046D01*
X0230999Y0019171D01*
X0230904Y0019298D01*
X0230813Y0019427D01*
X0230724Y0019558D01*
X0230640Y0019692D01*
X0230558Y0019828D01*
X0230480Y0019965D01*
X0230406Y0020105D01*
X0230335Y0020247D01*
X0230267Y0020390D01*
X0230203Y0020535D01*
X0230143Y0020681D01*
X0230087Y0020829D01*
X0230034Y0020978D01*
X0229985Y0021129D01*
X0229940Y0021281D01*
X0229899Y0021434D01*
X0229861Y0021587D01*
X0229828Y0021742D01*
X0229798Y0021898D01*
X0229772Y0022054D01*
X0229751Y0022211D01*
X0229733Y0022368D01*
X0229719Y0022526D01*
X0229709Y0022684D01*
X0229703Y0022842D01*
X0229701Y0023000D01*
X0279701Y0023000D02*
X0279703Y0023158D01*
X0279709Y0023316D01*
X0279719Y0023474D01*
X0279733Y0023632D01*
X0279751Y0023789D01*
X0279772Y0023946D01*
X0279798Y0024102D01*
X0279828Y0024258D01*
X0279861Y0024413D01*
X0279899Y0024566D01*
X0279940Y0024719D01*
X0279985Y0024871D01*
X0280034Y0025022D01*
X0280087Y0025171D01*
X0280143Y0025319D01*
X0280203Y0025465D01*
X0280267Y0025610D01*
X0280335Y0025753D01*
X0280406Y0025895D01*
X0280480Y0026035D01*
X0280558Y0026172D01*
X0280640Y0026308D01*
X0280724Y0026442D01*
X0280813Y0026573D01*
X0280904Y0026702D01*
X0280999Y0026829D01*
X0281096Y0026954D01*
X0281197Y0027076D01*
X0281301Y0027195D01*
X0281408Y0027312D01*
X0281518Y0027426D01*
X0281631Y0027537D01*
X0281746Y0027646D01*
X0281864Y0027751D01*
X0281985Y0027853D01*
X0282108Y0027953D01*
X0282234Y0028049D01*
X0282362Y0028142D01*
X0282492Y0028232D01*
X0282625Y0028318D01*
X0282760Y0028402D01*
X0282896Y0028481D01*
X0283035Y0028558D01*
X0283176Y0028630D01*
X0283318Y0028700D01*
X0283462Y0028765D01*
X0283608Y0028827D01*
X0283755Y0028885D01*
X0283904Y0028940D01*
X0284054Y0028991D01*
X0284205Y0029038D01*
X0284357Y0029081D01*
X0284510Y0029120D01*
X0284665Y0029156D01*
X0284820Y0029187D01*
X0284976Y0029215D01*
X0285132Y0029239D01*
X0285289Y0029259D01*
X0285447Y0029275D01*
X0285604Y0029287D01*
X0285763Y0029295D01*
X0285921Y0029299D01*
X0286079Y0029299D01*
X0286237Y0029295D01*
X0286396Y0029287D01*
X0286553Y0029275D01*
X0286711Y0029259D01*
X0286868Y0029239D01*
X0287024Y0029215D01*
X0287180Y0029187D01*
X0287335Y0029156D01*
X0287490Y0029120D01*
X0287643Y0029081D01*
X0287795Y0029038D01*
X0287946Y0028991D01*
X0288096Y0028940D01*
X0288245Y0028885D01*
X0288392Y0028827D01*
X0288538Y0028765D01*
X0288682Y0028700D01*
X0288824Y0028630D01*
X0288965Y0028558D01*
X0289104Y0028481D01*
X0289240Y0028402D01*
X0289375Y0028318D01*
X0289508Y0028232D01*
X0289638Y0028142D01*
X0289766Y0028049D01*
X0289892Y0027953D01*
X0290015Y0027853D01*
X0290136Y0027751D01*
X0290254Y0027646D01*
X0290369Y0027537D01*
X0290482Y0027426D01*
X0290592Y0027312D01*
X0290699Y0027195D01*
X0290803Y0027076D01*
X0290904Y0026954D01*
X0291001Y0026829D01*
X0291096Y0026702D01*
X0291187Y0026573D01*
X0291276Y0026442D01*
X0291360Y0026308D01*
X0291442Y0026172D01*
X0291520Y0026035D01*
X0291594Y0025895D01*
X0291665Y0025753D01*
X0291733Y0025610D01*
X0291797Y0025465D01*
X0291857Y0025319D01*
X0291913Y0025171D01*
X0291966Y0025022D01*
X0292015Y0024871D01*
X0292060Y0024719D01*
X0292101Y0024566D01*
X0292139Y0024413D01*
X0292172Y0024258D01*
X0292202Y0024102D01*
X0292228Y0023946D01*
X0292249Y0023789D01*
X0292267Y0023632D01*
X0292281Y0023474D01*
X0292291Y0023316D01*
X0292297Y0023158D01*
X0292299Y0023000D01*
X0292297Y0022842D01*
X0292291Y0022684D01*
X0292281Y0022526D01*
X0292267Y0022368D01*
X0292249Y0022211D01*
X0292228Y0022054D01*
X0292202Y0021898D01*
X0292172Y0021742D01*
X0292139Y0021587D01*
X0292101Y0021434D01*
X0292060Y0021281D01*
X0292015Y0021129D01*
X0291966Y0020978D01*
X0291913Y0020829D01*
X0291857Y0020681D01*
X0291797Y0020535D01*
X0291733Y0020390D01*
X0291665Y0020247D01*
X0291594Y0020105D01*
X0291520Y0019965D01*
X0291442Y0019828D01*
X0291360Y0019692D01*
X0291276Y0019558D01*
X0291187Y0019427D01*
X0291096Y0019298D01*
X0291001Y0019171D01*
X0290904Y0019046D01*
X0290803Y0018924D01*
X0290699Y0018805D01*
X0290592Y0018688D01*
X0290482Y0018574D01*
X0290369Y0018463D01*
X0290254Y0018354D01*
X0290136Y0018249D01*
X0290015Y0018147D01*
X0289892Y0018047D01*
X0289766Y0017951D01*
X0289638Y0017858D01*
X0289508Y0017768D01*
X0289375Y0017682D01*
X0289240Y0017598D01*
X0289104Y0017519D01*
X0288965Y0017442D01*
X0288824Y0017370D01*
X0288682Y0017300D01*
X0288538Y0017235D01*
X0288392Y0017173D01*
X0288245Y0017115D01*
X0288096Y0017060D01*
X0287946Y0017009D01*
X0287795Y0016962D01*
X0287643Y0016919D01*
X0287490Y0016880D01*
X0287335Y0016844D01*
X0287180Y0016813D01*
X0287024Y0016785D01*
X0286868Y0016761D01*
X0286711Y0016741D01*
X0286553Y0016725D01*
X0286396Y0016713D01*
X0286237Y0016705D01*
X0286079Y0016701D01*
X0285921Y0016701D01*
X0285763Y0016705D01*
X0285604Y0016713D01*
X0285447Y0016725D01*
X0285289Y0016741D01*
X0285132Y0016761D01*
X0284976Y0016785D01*
X0284820Y0016813D01*
X0284665Y0016844D01*
X0284510Y0016880D01*
X0284357Y0016919D01*
X0284205Y0016962D01*
X0284054Y0017009D01*
X0283904Y0017060D01*
X0283755Y0017115D01*
X0283608Y0017173D01*
X0283462Y0017235D01*
X0283318Y0017300D01*
X0283176Y0017370D01*
X0283035Y0017442D01*
X0282896Y0017519D01*
X0282760Y0017598D01*
X0282625Y0017682D01*
X0282492Y0017768D01*
X0282362Y0017858D01*
X0282234Y0017951D01*
X0282108Y0018047D01*
X0281985Y0018147D01*
X0281864Y0018249D01*
X0281746Y0018354D01*
X0281631Y0018463D01*
X0281518Y0018574D01*
X0281408Y0018688D01*
X0281301Y0018805D01*
X0281197Y0018924D01*
X0281096Y0019046D01*
X0280999Y0019171D01*
X0280904Y0019298D01*
X0280813Y0019427D01*
X0280724Y0019558D01*
X0280640Y0019692D01*
X0280558Y0019828D01*
X0280480Y0019965D01*
X0280406Y0020105D01*
X0280335Y0020247D01*
X0280267Y0020390D01*
X0280203Y0020535D01*
X0280143Y0020681D01*
X0280087Y0020829D01*
X0280034Y0020978D01*
X0279985Y0021129D01*
X0279940Y0021281D01*
X0279899Y0021434D01*
X0279861Y0021587D01*
X0279828Y0021742D01*
X0279798Y0021898D01*
X0279772Y0022054D01*
X0279751Y0022211D01*
X0279733Y0022368D01*
X0279719Y0022526D01*
X0279709Y0022684D01*
X0279703Y0022842D01*
X0279701Y0023000D01*
X0359701Y0023000D02*
X0359703Y0023158D01*
X0359709Y0023316D01*
X0359719Y0023474D01*
X0359733Y0023632D01*
X0359751Y0023789D01*
X0359772Y0023946D01*
X0359798Y0024102D01*
X0359828Y0024258D01*
X0359861Y0024413D01*
X0359899Y0024566D01*
X0359940Y0024719D01*
X0359985Y0024871D01*
X0360034Y0025022D01*
X0360087Y0025171D01*
X0360143Y0025319D01*
X0360203Y0025465D01*
X0360267Y0025610D01*
X0360335Y0025753D01*
X0360406Y0025895D01*
X0360480Y0026035D01*
X0360558Y0026172D01*
X0360640Y0026308D01*
X0360724Y0026442D01*
X0360813Y0026573D01*
X0360904Y0026702D01*
X0360999Y0026829D01*
X0361096Y0026954D01*
X0361197Y0027076D01*
X0361301Y0027195D01*
X0361408Y0027312D01*
X0361518Y0027426D01*
X0361631Y0027537D01*
X0361746Y0027646D01*
X0361864Y0027751D01*
X0361985Y0027853D01*
X0362108Y0027953D01*
X0362234Y0028049D01*
X0362362Y0028142D01*
X0362492Y0028232D01*
X0362625Y0028318D01*
X0362760Y0028402D01*
X0362896Y0028481D01*
X0363035Y0028558D01*
X0363176Y0028630D01*
X0363318Y0028700D01*
X0363462Y0028765D01*
X0363608Y0028827D01*
X0363755Y0028885D01*
X0363904Y0028940D01*
X0364054Y0028991D01*
X0364205Y0029038D01*
X0364357Y0029081D01*
X0364510Y0029120D01*
X0364665Y0029156D01*
X0364820Y0029187D01*
X0364976Y0029215D01*
X0365132Y0029239D01*
X0365289Y0029259D01*
X0365447Y0029275D01*
X0365604Y0029287D01*
X0365763Y0029295D01*
X0365921Y0029299D01*
X0366079Y0029299D01*
X0366237Y0029295D01*
X0366396Y0029287D01*
X0366553Y0029275D01*
X0366711Y0029259D01*
X0366868Y0029239D01*
X0367024Y0029215D01*
X0367180Y0029187D01*
X0367335Y0029156D01*
X0367490Y0029120D01*
X0367643Y0029081D01*
X0367795Y0029038D01*
X0367946Y0028991D01*
X0368096Y0028940D01*
X0368245Y0028885D01*
X0368392Y0028827D01*
X0368538Y0028765D01*
X0368682Y0028700D01*
X0368824Y0028630D01*
X0368965Y0028558D01*
X0369104Y0028481D01*
X0369240Y0028402D01*
X0369375Y0028318D01*
X0369508Y0028232D01*
X0369638Y0028142D01*
X0369766Y0028049D01*
X0369892Y0027953D01*
X0370015Y0027853D01*
X0370136Y0027751D01*
X0370254Y0027646D01*
X0370369Y0027537D01*
X0370482Y0027426D01*
X0370592Y0027312D01*
X0370699Y0027195D01*
X0370803Y0027076D01*
X0370904Y0026954D01*
X0371001Y0026829D01*
X0371096Y0026702D01*
X0371187Y0026573D01*
X0371276Y0026442D01*
X0371360Y0026308D01*
X0371442Y0026172D01*
X0371520Y0026035D01*
X0371594Y0025895D01*
X0371665Y0025753D01*
X0371733Y0025610D01*
X0371797Y0025465D01*
X0371857Y0025319D01*
X0371913Y0025171D01*
X0371966Y0025022D01*
X0372015Y0024871D01*
X0372060Y0024719D01*
X0372101Y0024566D01*
X0372139Y0024413D01*
X0372172Y0024258D01*
X0372202Y0024102D01*
X0372228Y0023946D01*
X0372249Y0023789D01*
X0372267Y0023632D01*
X0372281Y0023474D01*
X0372291Y0023316D01*
X0372297Y0023158D01*
X0372299Y0023000D01*
X0372297Y0022842D01*
X0372291Y0022684D01*
X0372281Y0022526D01*
X0372267Y0022368D01*
X0372249Y0022211D01*
X0372228Y0022054D01*
X0372202Y0021898D01*
X0372172Y0021742D01*
X0372139Y0021587D01*
X0372101Y0021434D01*
X0372060Y0021281D01*
X0372015Y0021129D01*
X0371966Y0020978D01*
X0371913Y0020829D01*
X0371857Y0020681D01*
X0371797Y0020535D01*
X0371733Y0020390D01*
X0371665Y0020247D01*
X0371594Y0020105D01*
X0371520Y0019965D01*
X0371442Y0019828D01*
X0371360Y0019692D01*
X0371276Y0019558D01*
X0371187Y0019427D01*
X0371096Y0019298D01*
X0371001Y0019171D01*
X0370904Y0019046D01*
X0370803Y0018924D01*
X0370699Y0018805D01*
X0370592Y0018688D01*
X0370482Y0018574D01*
X0370369Y0018463D01*
X0370254Y0018354D01*
X0370136Y0018249D01*
X0370015Y0018147D01*
X0369892Y0018047D01*
X0369766Y0017951D01*
X0369638Y0017858D01*
X0369508Y0017768D01*
X0369375Y0017682D01*
X0369240Y0017598D01*
X0369104Y0017519D01*
X0368965Y0017442D01*
X0368824Y0017370D01*
X0368682Y0017300D01*
X0368538Y0017235D01*
X0368392Y0017173D01*
X0368245Y0017115D01*
X0368096Y0017060D01*
X0367946Y0017009D01*
X0367795Y0016962D01*
X0367643Y0016919D01*
X0367490Y0016880D01*
X0367335Y0016844D01*
X0367180Y0016813D01*
X0367024Y0016785D01*
X0366868Y0016761D01*
X0366711Y0016741D01*
X0366553Y0016725D01*
X0366396Y0016713D01*
X0366237Y0016705D01*
X0366079Y0016701D01*
X0365921Y0016701D01*
X0365763Y0016705D01*
X0365604Y0016713D01*
X0365447Y0016725D01*
X0365289Y0016741D01*
X0365132Y0016761D01*
X0364976Y0016785D01*
X0364820Y0016813D01*
X0364665Y0016844D01*
X0364510Y0016880D01*
X0364357Y0016919D01*
X0364205Y0016962D01*
X0364054Y0017009D01*
X0363904Y0017060D01*
X0363755Y0017115D01*
X0363608Y0017173D01*
X0363462Y0017235D01*
X0363318Y0017300D01*
X0363176Y0017370D01*
X0363035Y0017442D01*
X0362896Y0017519D01*
X0362760Y0017598D01*
X0362625Y0017682D01*
X0362492Y0017768D01*
X0362362Y0017858D01*
X0362234Y0017951D01*
X0362108Y0018047D01*
X0361985Y0018147D01*
X0361864Y0018249D01*
X0361746Y0018354D01*
X0361631Y0018463D01*
X0361518Y0018574D01*
X0361408Y0018688D01*
X0361301Y0018805D01*
X0361197Y0018924D01*
X0361096Y0019046D01*
X0360999Y0019171D01*
X0360904Y0019298D01*
X0360813Y0019427D01*
X0360724Y0019558D01*
X0360640Y0019692D01*
X0360558Y0019828D01*
X0360480Y0019965D01*
X0360406Y0020105D01*
X0360335Y0020247D01*
X0360267Y0020390D01*
X0360203Y0020535D01*
X0360143Y0020681D01*
X0360087Y0020829D01*
X0360034Y0020978D01*
X0359985Y0021129D01*
X0359940Y0021281D01*
X0359899Y0021434D01*
X0359861Y0021587D01*
X0359828Y0021742D01*
X0359798Y0021898D01*
X0359772Y0022054D01*
X0359751Y0022211D01*
X0359733Y0022368D01*
X0359719Y0022526D01*
X0359709Y0022684D01*
X0359703Y0022842D01*
X0359701Y0023000D01*
X0359701Y0298000D02*
X0359703Y0298158D01*
X0359709Y0298316D01*
X0359719Y0298474D01*
X0359733Y0298632D01*
X0359751Y0298789D01*
X0359772Y0298946D01*
X0359798Y0299102D01*
X0359828Y0299258D01*
X0359861Y0299413D01*
X0359899Y0299566D01*
X0359940Y0299719D01*
X0359985Y0299871D01*
X0360034Y0300022D01*
X0360087Y0300171D01*
X0360143Y0300319D01*
X0360203Y0300465D01*
X0360267Y0300610D01*
X0360335Y0300753D01*
X0360406Y0300895D01*
X0360480Y0301035D01*
X0360558Y0301172D01*
X0360640Y0301308D01*
X0360724Y0301442D01*
X0360813Y0301573D01*
X0360904Y0301702D01*
X0360999Y0301829D01*
X0361096Y0301954D01*
X0361197Y0302076D01*
X0361301Y0302195D01*
X0361408Y0302312D01*
X0361518Y0302426D01*
X0361631Y0302537D01*
X0361746Y0302646D01*
X0361864Y0302751D01*
X0361985Y0302853D01*
X0362108Y0302953D01*
X0362234Y0303049D01*
X0362362Y0303142D01*
X0362492Y0303232D01*
X0362625Y0303318D01*
X0362760Y0303402D01*
X0362896Y0303481D01*
X0363035Y0303558D01*
X0363176Y0303630D01*
X0363318Y0303700D01*
X0363462Y0303765D01*
X0363608Y0303827D01*
X0363755Y0303885D01*
X0363904Y0303940D01*
X0364054Y0303991D01*
X0364205Y0304038D01*
X0364357Y0304081D01*
X0364510Y0304120D01*
X0364665Y0304156D01*
X0364820Y0304187D01*
X0364976Y0304215D01*
X0365132Y0304239D01*
X0365289Y0304259D01*
X0365447Y0304275D01*
X0365604Y0304287D01*
X0365763Y0304295D01*
X0365921Y0304299D01*
X0366079Y0304299D01*
X0366237Y0304295D01*
X0366396Y0304287D01*
X0366553Y0304275D01*
X0366711Y0304259D01*
X0366868Y0304239D01*
X0367024Y0304215D01*
X0367180Y0304187D01*
X0367335Y0304156D01*
X0367490Y0304120D01*
X0367643Y0304081D01*
X0367795Y0304038D01*
X0367946Y0303991D01*
X0368096Y0303940D01*
X0368245Y0303885D01*
X0368392Y0303827D01*
X0368538Y0303765D01*
X0368682Y0303700D01*
X0368824Y0303630D01*
X0368965Y0303558D01*
X0369104Y0303481D01*
X0369240Y0303402D01*
X0369375Y0303318D01*
X0369508Y0303232D01*
X0369638Y0303142D01*
X0369766Y0303049D01*
X0369892Y0302953D01*
X0370015Y0302853D01*
X0370136Y0302751D01*
X0370254Y0302646D01*
X0370369Y0302537D01*
X0370482Y0302426D01*
X0370592Y0302312D01*
X0370699Y0302195D01*
X0370803Y0302076D01*
X0370904Y0301954D01*
X0371001Y0301829D01*
X0371096Y0301702D01*
X0371187Y0301573D01*
X0371276Y0301442D01*
X0371360Y0301308D01*
X0371442Y0301172D01*
X0371520Y0301035D01*
X0371594Y0300895D01*
X0371665Y0300753D01*
X0371733Y0300610D01*
X0371797Y0300465D01*
X0371857Y0300319D01*
X0371913Y0300171D01*
X0371966Y0300022D01*
X0372015Y0299871D01*
X0372060Y0299719D01*
X0372101Y0299566D01*
X0372139Y0299413D01*
X0372172Y0299258D01*
X0372202Y0299102D01*
X0372228Y0298946D01*
X0372249Y0298789D01*
X0372267Y0298632D01*
X0372281Y0298474D01*
X0372291Y0298316D01*
X0372297Y0298158D01*
X0372299Y0298000D01*
X0372297Y0297842D01*
X0372291Y0297684D01*
X0372281Y0297526D01*
X0372267Y0297368D01*
X0372249Y0297211D01*
X0372228Y0297054D01*
X0372202Y0296898D01*
X0372172Y0296742D01*
X0372139Y0296587D01*
X0372101Y0296434D01*
X0372060Y0296281D01*
X0372015Y0296129D01*
X0371966Y0295978D01*
X0371913Y0295829D01*
X0371857Y0295681D01*
X0371797Y0295535D01*
X0371733Y0295390D01*
X0371665Y0295247D01*
X0371594Y0295105D01*
X0371520Y0294965D01*
X0371442Y0294828D01*
X0371360Y0294692D01*
X0371276Y0294558D01*
X0371187Y0294427D01*
X0371096Y0294298D01*
X0371001Y0294171D01*
X0370904Y0294046D01*
X0370803Y0293924D01*
X0370699Y0293805D01*
X0370592Y0293688D01*
X0370482Y0293574D01*
X0370369Y0293463D01*
X0370254Y0293354D01*
X0370136Y0293249D01*
X0370015Y0293147D01*
X0369892Y0293047D01*
X0369766Y0292951D01*
X0369638Y0292858D01*
X0369508Y0292768D01*
X0369375Y0292682D01*
X0369240Y0292598D01*
X0369104Y0292519D01*
X0368965Y0292442D01*
X0368824Y0292370D01*
X0368682Y0292300D01*
X0368538Y0292235D01*
X0368392Y0292173D01*
X0368245Y0292115D01*
X0368096Y0292060D01*
X0367946Y0292009D01*
X0367795Y0291962D01*
X0367643Y0291919D01*
X0367490Y0291880D01*
X0367335Y0291844D01*
X0367180Y0291813D01*
X0367024Y0291785D01*
X0366868Y0291761D01*
X0366711Y0291741D01*
X0366553Y0291725D01*
X0366396Y0291713D01*
X0366237Y0291705D01*
X0366079Y0291701D01*
X0365921Y0291701D01*
X0365763Y0291705D01*
X0365604Y0291713D01*
X0365447Y0291725D01*
X0365289Y0291741D01*
X0365132Y0291761D01*
X0364976Y0291785D01*
X0364820Y0291813D01*
X0364665Y0291844D01*
X0364510Y0291880D01*
X0364357Y0291919D01*
X0364205Y0291962D01*
X0364054Y0292009D01*
X0363904Y0292060D01*
X0363755Y0292115D01*
X0363608Y0292173D01*
X0363462Y0292235D01*
X0363318Y0292300D01*
X0363176Y0292370D01*
X0363035Y0292442D01*
X0362896Y0292519D01*
X0362760Y0292598D01*
X0362625Y0292682D01*
X0362492Y0292768D01*
X0362362Y0292858D01*
X0362234Y0292951D01*
X0362108Y0293047D01*
X0361985Y0293147D01*
X0361864Y0293249D01*
X0361746Y0293354D01*
X0361631Y0293463D01*
X0361518Y0293574D01*
X0361408Y0293688D01*
X0361301Y0293805D01*
X0361197Y0293924D01*
X0361096Y0294046D01*
X0360999Y0294171D01*
X0360904Y0294298D01*
X0360813Y0294427D01*
X0360724Y0294558D01*
X0360640Y0294692D01*
X0360558Y0294828D01*
X0360480Y0294965D01*
X0360406Y0295105D01*
X0360335Y0295247D01*
X0360267Y0295390D01*
X0360203Y0295535D01*
X0360143Y0295681D01*
X0360087Y0295829D01*
X0360034Y0295978D01*
X0359985Y0296129D01*
X0359940Y0296281D01*
X0359899Y0296434D01*
X0359861Y0296587D01*
X0359828Y0296742D01*
X0359798Y0296898D01*
X0359772Y0297054D01*
X0359751Y0297211D01*
X0359733Y0297368D01*
X0359719Y0297526D01*
X0359709Y0297684D01*
X0359703Y0297842D01*
X0359701Y0298000D01*
X0229701Y0298000D02*
X0229703Y0298158D01*
X0229709Y0298316D01*
X0229719Y0298474D01*
X0229733Y0298632D01*
X0229751Y0298789D01*
X0229772Y0298946D01*
X0229798Y0299102D01*
X0229828Y0299258D01*
X0229861Y0299413D01*
X0229899Y0299566D01*
X0229940Y0299719D01*
X0229985Y0299871D01*
X0230034Y0300022D01*
X0230087Y0300171D01*
X0230143Y0300319D01*
X0230203Y0300465D01*
X0230267Y0300610D01*
X0230335Y0300753D01*
X0230406Y0300895D01*
X0230480Y0301035D01*
X0230558Y0301172D01*
X0230640Y0301308D01*
X0230724Y0301442D01*
X0230813Y0301573D01*
X0230904Y0301702D01*
X0230999Y0301829D01*
X0231096Y0301954D01*
X0231197Y0302076D01*
X0231301Y0302195D01*
X0231408Y0302312D01*
X0231518Y0302426D01*
X0231631Y0302537D01*
X0231746Y0302646D01*
X0231864Y0302751D01*
X0231985Y0302853D01*
X0232108Y0302953D01*
X0232234Y0303049D01*
X0232362Y0303142D01*
X0232492Y0303232D01*
X0232625Y0303318D01*
X0232760Y0303402D01*
X0232896Y0303481D01*
X0233035Y0303558D01*
X0233176Y0303630D01*
X0233318Y0303700D01*
X0233462Y0303765D01*
X0233608Y0303827D01*
X0233755Y0303885D01*
X0233904Y0303940D01*
X0234054Y0303991D01*
X0234205Y0304038D01*
X0234357Y0304081D01*
X0234510Y0304120D01*
X0234665Y0304156D01*
X0234820Y0304187D01*
X0234976Y0304215D01*
X0235132Y0304239D01*
X0235289Y0304259D01*
X0235447Y0304275D01*
X0235604Y0304287D01*
X0235763Y0304295D01*
X0235921Y0304299D01*
X0236079Y0304299D01*
X0236237Y0304295D01*
X0236396Y0304287D01*
X0236553Y0304275D01*
X0236711Y0304259D01*
X0236868Y0304239D01*
X0237024Y0304215D01*
X0237180Y0304187D01*
X0237335Y0304156D01*
X0237490Y0304120D01*
X0237643Y0304081D01*
X0237795Y0304038D01*
X0237946Y0303991D01*
X0238096Y0303940D01*
X0238245Y0303885D01*
X0238392Y0303827D01*
X0238538Y0303765D01*
X0238682Y0303700D01*
X0238824Y0303630D01*
X0238965Y0303558D01*
X0239104Y0303481D01*
X0239240Y0303402D01*
X0239375Y0303318D01*
X0239508Y0303232D01*
X0239638Y0303142D01*
X0239766Y0303049D01*
X0239892Y0302953D01*
X0240015Y0302853D01*
X0240136Y0302751D01*
X0240254Y0302646D01*
X0240369Y0302537D01*
X0240482Y0302426D01*
X0240592Y0302312D01*
X0240699Y0302195D01*
X0240803Y0302076D01*
X0240904Y0301954D01*
X0241001Y0301829D01*
X0241096Y0301702D01*
X0241187Y0301573D01*
X0241276Y0301442D01*
X0241360Y0301308D01*
X0241442Y0301172D01*
X0241520Y0301035D01*
X0241594Y0300895D01*
X0241665Y0300753D01*
X0241733Y0300610D01*
X0241797Y0300465D01*
X0241857Y0300319D01*
X0241913Y0300171D01*
X0241966Y0300022D01*
X0242015Y0299871D01*
X0242060Y0299719D01*
X0242101Y0299566D01*
X0242139Y0299413D01*
X0242172Y0299258D01*
X0242202Y0299102D01*
X0242228Y0298946D01*
X0242249Y0298789D01*
X0242267Y0298632D01*
X0242281Y0298474D01*
X0242291Y0298316D01*
X0242297Y0298158D01*
X0242299Y0298000D01*
X0242297Y0297842D01*
X0242291Y0297684D01*
X0242281Y0297526D01*
X0242267Y0297368D01*
X0242249Y0297211D01*
X0242228Y0297054D01*
X0242202Y0296898D01*
X0242172Y0296742D01*
X0242139Y0296587D01*
X0242101Y0296434D01*
X0242060Y0296281D01*
X0242015Y0296129D01*
X0241966Y0295978D01*
X0241913Y0295829D01*
X0241857Y0295681D01*
X0241797Y0295535D01*
X0241733Y0295390D01*
X0241665Y0295247D01*
X0241594Y0295105D01*
X0241520Y0294965D01*
X0241442Y0294828D01*
X0241360Y0294692D01*
X0241276Y0294558D01*
X0241187Y0294427D01*
X0241096Y0294298D01*
X0241001Y0294171D01*
X0240904Y0294046D01*
X0240803Y0293924D01*
X0240699Y0293805D01*
X0240592Y0293688D01*
X0240482Y0293574D01*
X0240369Y0293463D01*
X0240254Y0293354D01*
X0240136Y0293249D01*
X0240015Y0293147D01*
X0239892Y0293047D01*
X0239766Y0292951D01*
X0239638Y0292858D01*
X0239508Y0292768D01*
X0239375Y0292682D01*
X0239240Y0292598D01*
X0239104Y0292519D01*
X0238965Y0292442D01*
X0238824Y0292370D01*
X0238682Y0292300D01*
X0238538Y0292235D01*
X0238392Y0292173D01*
X0238245Y0292115D01*
X0238096Y0292060D01*
X0237946Y0292009D01*
X0237795Y0291962D01*
X0237643Y0291919D01*
X0237490Y0291880D01*
X0237335Y0291844D01*
X0237180Y0291813D01*
X0237024Y0291785D01*
X0236868Y0291761D01*
X0236711Y0291741D01*
X0236553Y0291725D01*
X0236396Y0291713D01*
X0236237Y0291705D01*
X0236079Y0291701D01*
X0235921Y0291701D01*
X0235763Y0291705D01*
X0235604Y0291713D01*
X0235447Y0291725D01*
X0235289Y0291741D01*
X0235132Y0291761D01*
X0234976Y0291785D01*
X0234820Y0291813D01*
X0234665Y0291844D01*
X0234510Y0291880D01*
X0234357Y0291919D01*
X0234205Y0291962D01*
X0234054Y0292009D01*
X0233904Y0292060D01*
X0233755Y0292115D01*
X0233608Y0292173D01*
X0233462Y0292235D01*
X0233318Y0292300D01*
X0233176Y0292370D01*
X0233035Y0292442D01*
X0232896Y0292519D01*
X0232760Y0292598D01*
X0232625Y0292682D01*
X0232492Y0292768D01*
X0232362Y0292858D01*
X0232234Y0292951D01*
X0232108Y0293047D01*
X0231985Y0293147D01*
X0231864Y0293249D01*
X0231746Y0293354D01*
X0231631Y0293463D01*
X0231518Y0293574D01*
X0231408Y0293688D01*
X0231301Y0293805D01*
X0231197Y0293924D01*
X0231096Y0294046D01*
X0230999Y0294171D01*
X0230904Y0294298D01*
X0230813Y0294427D01*
X0230724Y0294558D01*
X0230640Y0294692D01*
X0230558Y0294828D01*
X0230480Y0294965D01*
X0230406Y0295105D01*
X0230335Y0295247D01*
X0230267Y0295390D01*
X0230203Y0295535D01*
X0230143Y0295681D01*
X0230087Y0295829D01*
X0230034Y0295978D01*
X0229985Y0296129D01*
X0229940Y0296281D01*
X0229899Y0296434D01*
X0229861Y0296587D01*
X0229828Y0296742D01*
X0229798Y0296898D01*
X0229772Y0297054D01*
X0229751Y0297211D01*
X0229733Y0297368D01*
X0229719Y0297526D01*
X0229709Y0297684D01*
X0229703Y0297842D01*
X0229701Y0298000D01*
X0099701Y0298000D02*
X0099703Y0298158D01*
X0099709Y0298316D01*
X0099719Y0298474D01*
X0099733Y0298632D01*
X0099751Y0298789D01*
X0099772Y0298946D01*
X0099798Y0299102D01*
X0099828Y0299258D01*
X0099861Y0299413D01*
X0099899Y0299566D01*
X0099940Y0299719D01*
X0099985Y0299871D01*
X0100034Y0300022D01*
X0100087Y0300171D01*
X0100143Y0300319D01*
X0100203Y0300465D01*
X0100267Y0300610D01*
X0100335Y0300753D01*
X0100406Y0300895D01*
X0100480Y0301035D01*
X0100558Y0301172D01*
X0100640Y0301308D01*
X0100724Y0301442D01*
X0100813Y0301573D01*
X0100904Y0301702D01*
X0100999Y0301829D01*
X0101096Y0301954D01*
X0101197Y0302076D01*
X0101301Y0302195D01*
X0101408Y0302312D01*
X0101518Y0302426D01*
X0101631Y0302537D01*
X0101746Y0302646D01*
X0101864Y0302751D01*
X0101985Y0302853D01*
X0102108Y0302953D01*
X0102234Y0303049D01*
X0102362Y0303142D01*
X0102492Y0303232D01*
X0102625Y0303318D01*
X0102760Y0303402D01*
X0102896Y0303481D01*
X0103035Y0303558D01*
X0103176Y0303630D01*
X0103318Y0303700D01*
X0103462Y0303765D01*
X0103608Y0303827D01*
X0103755Y0303885D01*
X0103904Y0303940D01*
X0104054Y0303991D01*
X0104205Y0304038D01*
X0104357Y0304081D01*
X0104510Y0304120D01*
X0104665Y0304156D01*
X0104820Y0304187D01*
X0104976Y0304215D01*
X0105132Y0304239D01*
X0105289Y0304259D01*
X0105447Y0304275D01*
X0105604Y0304287D01*
X0105763Y0304295D01*
X0105921Y0304299D01*
X0106079Y0304299D01*
X0106237Y0304295D01*
X0106396Y0304287D01*
X0106553Y0304275D01*
X0106711Y0304259D01*
X0106868Y0304239D01*
X0107024Y0304215D01*
X0107180Y0304187D01*
X0107335Y0304156D01*
X0107490Y0304120D01*
X0107643Y0304081D01*
X0107795Y0304038D01*
X0107946Y0303991D01*
X0108096Y0303940D01*
X0108245Y0303885D01*
X0108392Y0303827D01*
X0108538Y0303765D01*
X0108682Y0303700D01*
X0108824Y0303630D01*
X0108965Y0303558D01*
X0109104Y0303481D01*
X0109240Y0303402D01*
X0109375Y0303318D01*
X0109508Y0303232D01*
X0109638Y0303142D01*
X0109766Y0303049D01*
X0109892Y0302953D01*
X0110015Y0302853D01*
X0110136Y0302751D01*
X0110254Y0302646D01*
X0110369Y0302537D01*
X0110482Y0302426D01*
X0110592Y0302312D01*
X0110699Y0302195D01*
X0110803Y0302076D01*
X0110904Y0301954D01*
X0111001Y0301829D01*
X0111096Y0301702D01*
X0111187Y0301573D01*
X0111276Y0301442D01*
X0111360Y0301308D01*
X0111442Y0301172D01*
X0111520Y0301035D01*
X0111594Y0300895D01*
X0111665Y0300753D01*
X0111733Y0300610D01*
X0111797Y0300465D01*
X0111857Y0300319D01*
X0111913Y0300171D01*
X0111966Y0300022D01*
X0112015Y0299871D01*
X0112060Y0299719D01*
X0112101Y0299566D01*
X0112139Y0299413D01*
X0112172Y0299258D01*
X0112202Y0299102D01*
X0112228Y0298946D01*
X0112249Y0298789D01*
X0112267Y0298632D01*
X0112281Y0298474D01*
X0112291Y0298316D01*
X0112297Y0298158D01*
X0112299Y0298000D01*
X0112297Y0297842D01*
X0112291Y0297684D01*
X0112281Y0297526D01*
X0112267Y0297368D01*
X0112249Y0297211D01*
X0112228Y0297054D01*
X0112202Y0296898D01*
X0112172Y0296742D01*
X0112139Y0296587D01*
X0112101Y0296434D01*
X0112060Y0296281D01*
X0112015Y0296129D01*
X0111966Y0295978D01*
X0111913Y0295829D01*
X0111857Y0295681D01*
X0111797Y0295535D01*
X0111733Y0295390D01*
X0111665Y0295247D01*
X0111594Y0295105D01*
X0111520Y0294965D01*
X0111442Y0294828D01*
X0111360Y0294692D01*
X0111276Y0294558D01*
X0111187Y0294427D01*
X0111096Y0294298D01*
X0111001Y0294171D01*
X0110904Y0294046D01*
X0110803Y0293924D01*
X0110699Y0293805D01*
X0110592Y0293688D01*
X0110482Y0293574D01*
X0110369Y0293463D01*
X0110254Y0293354D01*
X0110136Y0293249D01*
X0110015Y0293147D01*
X0109892Y0293047D01*
X0109766Y0292951D01*
X0109638Y0292858D01*
X0109508Y0292768D01*
X0109375Y0292682D01*
X0109240Y0292598D01*
X0109104Y0292519D01*
X0108965Y0292442D01*
X0108824Y0292370D01*
X0108682Y0292300D01*
X0108538Y0292235D01*
X0108392Y0292173D01*
X0108245Y0292115D01*
X0108096Y0292060D01*
X0107946Y0292009D01*
X0107795Y0291962D01*
X0107643Y0291919D01*
X0107490Y0291880D01*
X0107335Y0291844D01*
X0107180Y0291813D01*
X0107024Y0291785D01*
X0106868Y0291761D01*
X0106711Y0291741D01*
X0106553Y0291725D01*
X0106396Y0291713D01*
X0106237Y0291705D01*
X0106079Y0291701D01*
X0105921Y0291701D01*
X0105763Y0291705D01*
X0105604Y0291713D01*
X0105447Y0291725D01*
X0105289Y0291741D01*
X0105132Y0291761D01*
X0104976Y0291785D01*
X0104820Y0291813D01*
X0104665Y0291844D01*
X0104510Y0291880D01*
X0104357Y0291919D01*
X0104205Y0291962D01*
X0104054Y0292009D01*
X0103904Y0292060D01*
X0103755Y0292115D01*
X0103608Y0292173D01*
X0103462Y0292235D01*
X0103318Y0292300D01*
X0103176Y0292370D01*
X0103035Y0292442D01*
X0102896Y0292519D01*
X0102760Y0292598D01*
X0102625Y0292682D01*
X0102492Y0292768D01*
X0102362Y0292858D01*
X0102234Y0292951D01*
X0102108Y0293047D01*
X0101985Y0293147D01*
X0101864Y0293249D01*
X0101746Y0293354D01*
X0101631Y0293463D01*
X0101518Y0293574D01*
X0101408Y0293688D01*
X0101301Y0293805D01*
X0101197Y0293924D01*
X0101096Y0294046D01*
X0100999Y0294171D01*
X0100904Y0294298D01*
X0100813Y0294427D01*
X0100724Y0294558D01*
X0100640Y0294692D01*
X0100558Y0294828D01*
X0100480Y0294965D01*
X0100406Y0295105D01*
X0100335Y0295247D01*
X0100267Y0295390D01*
X0100203Y0295535D01*
X0100143Y0295681D01*
X0100087Y0295829D01*
X0100034Y0295978D01*
X0099985Y0296129D01*
X0099940Y0296281D01*
X0099899Y0296434D01*
X0099861Y0296587D01*
X0099828Y0296742D01*
X0099798Y0296898D01*
X0099772Y0297054D01*
X0099751Y0297211D01*
X0099733Y0297368D01*
X0099719Y0297526D01*
X0099709Y0297684D01*
X0099703Y0297842D01*
X0099701Y0298000D01*
M02*
