%
M48
M72
T01C0.01181
T02C0.03200
T03C0.03600
T04C0.04000
T05C0.04400
T06C0.12598
%
T01
X38500Y130500
X79750Y138000
X38500Y179250
X88750Y215250
X225250Y67500
X355750Y87750
X346000Y233250
T02
X341000Y228000
X341000Y218000
X341000Y208000
X341000Y198000
X341000Y188000
X341000Y178000
X341000Y168000
X341000Y158000
X341000Y148000
X331000Y133000
X321000Y133000
X321000Y123000
X331000Y123000
X331000Y113000
X321000Y113000
X321000Y103000
X331000Y103000
X361000Y103000
X361000Y113000
X361000Y123000
X361000Y133000
X311000Y148000
X311000Y158000
X311000Y168000
X311000Y178000
X311000Y188000
X311000Y198000
X311000Y208000
X311000Y218000
X311000Y228000
X296000Y248000
X336000Y248000
X336000Y298000
X336000Y308000
X211000Y248000
X211000Y228000
X211000Y218000
X211000Y208000
X211000Y198000
X211000Y188000
X211000Y178000
X211000Y168000
X211000Y158000
X211000Y148000
X201000Y133000
X191000Y133000
X191000Y123000
X201000Y123000
X201000Y113000
X191000Y113000
X191000Y103000
X201000Y103000
X231000Y103000
X231000Y113000
X231000Y123000
X231000Y133000
X181000Y148000
X181000Y158000
X181000Y168000
X181000Y178000
X181000Y188000
X181000Y198000
X181000Y208000
X181000Y218000
X181000Y228000
X171000Y248000
X206000Y298000
X206000Y308000
X81000Y248000
X81000Y228000
X81000Y218000
X81000Y208000
X81000Y198000
X81000Y188000
X81000Y178000
X81000Y168000
X81000Y158000
X81000Y148000
X71000Y133000
X61000Y133000
X61000Y123000
X71000Y123000
X71000Y113000
X61000Y113000
X61000Y103000
X71000Y103000
X101000Y103000
X101000Y113000
X101000Y123000
X101000Y133000
X51000Y148000
X51000Y158000
X51000Y168000
X51000Y178000
X51000Y188000
X51000Y198000
X51000Y208000
X51000Y218000
X51000Y228000
X41000Y248000
X76000Y298000
X76000Y308000
X31000Y133000
X31000Y123000
X31000Y113000
X31000Y103000
X161000Y103000
X161000Y113000
X161000Y123000
X161000Y133000
X291000Y133000
X291000Y123000
X291000Y113000
X291000Y103000
T03
X241000Y253000
X241000Y263000
X241000Y273000
X111000Y273000
X111000Y263000
X111000Y253000
X371000Y253000
X371000Y263000
X371000Y273000
T04
X371000Y203000
X371000Y193000
X371000Y183000
X371000Y173000
X371000Y163000
X371000Y153000
X371000Y143000
X371000Y133000
X371000Y83000
X371000Y73000
X371000Y63000
X371000Y53000
X341000Y53000
X341000Y63000
X341000Y73000
X341000Y83000
X311000Y83000
X311000Y73000
X311000Y63000
X311000Y53000
X281000Y53000
X281000Y63000
X281000Y73000
X281000Y83000
X241000Y83000
X241000Y73000
X241000Y63000
X241000Y53000
X211000Y53000
X211000Y63000
X211000Y73000
X211000Y83000
X181000Y83000
X181000Y73000
X181000Y63000
X181000Y53000
X151000Y53000
X151000Y63000
X151000Y73000
X151000Y83000
X111000Y83000
X111000Y73000
X111000Y63000
X111000Y53000
X81000Y53000
X81000Y63000
X81000Y73000
X81000Y83000
X51000Y83000
X51000Y73000
X51000Y63000
X51000Y53000
X21000Y53000
X21000Y63000
X21000Y73000
X21000Y83000
X21000Y133000
X21000Y143000
X21000Y153000
X21000Y163000
X21000Y173000
X21000Y183000
X21000Y193000
X21000Y203000
X21000Y243000
X21000Y253000
X21000Y263000
X21000Y273000
X21000Y298000
X21000Y308000
X111000Y203000
X111000Y193000
X111000Y183000
X111000Y173000
X111000Y163000
X111000Y153000
X111000Y143000
X111000Y133000
X151000Y133000
X151000Y143000
X151000Y153000
X151000Y163000
X151000Y173000
X151000Y183000
X151000Y193000
X151000Y203000
X151000Y243000
X151000Y253000
X151000Y263000
X151000Y273000
X151000Y298000
X151000Y308000
X241000Y203000
X241000Y193000
X241000Y183000
X241000Y173000
X241000Y163000
X241000Y153000
X241000Y143000
X241000Y133000
X281000Y133000
X281000Y143000
X281000Y153000
X281000Y163000
X281000Y173000
X281000Y183000
X281000Y193000
X281000Y203000
X281000Y243000
X281000Y253000
X281000Y263000
X281000Y273000
X281000Y298000
X281000Y308000
T05
X296000Y263000
X336000Y263000
X211000Y263000
X171000Y263000
X81000Y263000
X41000Y263000
T06
X26000Y23000
X106000Y23000
X156000Y23000
X236000Y23000
X286000Y23000
X366000Y23000
X366000Y298000
X236000Y298000
X106000Y298000
M30
