%
M48
M72
T01C0.01181
T02C0.03150
T03C0.03200
T04C0.04000
T05C0.04400
T06C0.12598
%
T01
X43167Y142100
X215667Y49100
X249417Y110600
X262167Y130850
T02
X322667Y207600
X342667Y207600
X342667Y227600
X342667Y237600
X342667Y247600
X322667Y247600
X322667Y237600
X322667Y227600
X142667Y227600
X142667Y237600
X142667Y247600
X122667Y247600
X122667Y237600
X122667Y227600
X122667Y207600
X142667Y207600
T03
X147667Y192600
X147667Y172600
X137667Y172600
X112667Y172600
X107667Y180100
X102667Y172600
X82667Y177600
X67667Y177600
X67667Y162600
X82667Y147600
X102667Y142600
X110167Y147600
X102667Y152600
X117667Y192600
X107667Y207600
X87667Y227600
X87667Y237600
X77667Y247600
X77667Y257600
X67667Y272600
X57667Y277600
X57667Y262600
X57667Y252600
X57667Y237600
X57667Y227600
X42667Y232600
X32667Y232600
X97667Y272600
X107667Y257600
X107667Y247600
X107667Y237600
X37667Y177600
X37667Y162600
X37667Y87600
X47667Y87600
X57667Y87600
X67667Y87600
X77667Y87600
X87667Y87600
X97667Y87600
X67667Y72600
X57667Y72600
X47667Y72600
X37667Y72600
X27667Y72600
X27667Y87600
X227667Y87600
X237667Y87600
X247667Y87600
X257667Y87600
X267667Y87600
X277667Y87600
X287667Y87600
X297667Y87600
X267667Y72600
X257667Y72600
X247667Y72600
X237667Y72600
X227667Y72600
X302667Y142600
X310167Y147600
X302667Y152600
X282667Y147600
X267667Y162600
X267667Y177600
X282667Y177600
X302667Y172600
X312667Y172600
X307667Y180100
X317667Y192600
X307667Y207600
X287667Y227600
X287667Y237600
X277667Y247600
X277667Y257600
X267667Y272600
X257667Y277600
X257667Y262600
X257667Y252600
X257667Y237600
X257667Y227600
X242667Y232600
X232667Y232600
X297667Y272600
X307667Y257600
X307667Y247600
X307667Y237600
X347667Y192600
X347667Y177600
X337667Y177600
X237667Y177600
X237667Y162600
X257667Y307600
X57667Y307600
T04
X17667Y17600
X27667Y17600
X37667Y17600
X47667Y17600
X57667Y17600
X67667Y17600
X92667Y17600
X102667Y17600
X112667Y17600
X112667Y52600
X102667Y52600
X92667Y52600
X67667Y57600
X57667Y57600
X47667Y57600
X37667Y57600
X27667Y57600
X17667Y57600
X17667Y122600
X27667Y122600
X37667Y122600
X47667Y122600
X57667Y122600
X67667Y122600
X77667Y122600
X87667Y122600
X17667Y142600
X17667Y152600
X17667Y162600
X17667Y172600
X17667Y212600
X27667Y212600
X37667Y212600
X47667Y212600
X57667Y212600
X67667Y212600
X77667Y212600
X87667Y212600
X22667Y252600
X22667Y262600
X72667Y287600
X92667Y287600
X112667Y287600
X112667Y307600
X92667Y307600
X72667Y307600
X162667Y252600
X172667Y252600
X182667Y252600
X222667Y252600
X222667Y262600
X177667Y292600
X167667Y292600
X217667Y212600
X227667Y212600
X237667Y212600
X247667Y212600
X257667Y212600
X267667Y212600
X277667Y212600
X287667Y212600
X217667Y172600
X217667Y162600
X217667Y152600
X217667Y142600
X217667Y122600
X227667Y122600
X237667Y122600
X247667Y122600
X257667Y122600
X267667Y122600
X277667Y122600
X287667Y122600
X362667Y152600
X372667Y152600
X382667Y152600
X382667Y207600
X372667Y207600
X362667Y207600
X362667Y257600
X372667Y257600
X382667Y257600
X377667Y297600
X367667Y297600
X312667Y287600
X292667Y287600
X272667Y287600
X272667Y307600
X292667Y307600
X312667Y307600
X182667Y207600
X172667Y207600
X162667Y207600
X162667Y152600
X172667Y152600
X182667Y152600
X217667Y57600
X227667Y57600
X237667Y57600
X247667Y57600
X257667Y57600
X267667Y57600
X292667Y52600
X302667Y52600
X312667Y52600
X312667Y17600
X302667Y17600
X292667Y17600
X267667Y17600
X257667Y17600
X247667Y17600
X237667Y17600
X227667Y17600
X217667Y17600
X182667Y17600
X172667Y17600
X162667Y17600
X162667Y52600
X172667Y52600
X182667Y52600
X362667Y52600
X372667Y52600
X382667Y52600
X382667Y17600
X372667Y17600
X362667Y17600
T05
X307667Y197600
X267667Y197600
X257667Y197600
X217667Y197600
X107667Y197600
X67667Y197600
X57667Y197600
X17667Y197600
T06
X32667Y292600
X137667Y292600
X232667Y292600
X337667Y292600
X337667Y132600
X337667Y37600
X137667Y37600
X137667Y132600
M30
