G75*
%MOIN*%
%OFA0B0*%
%FSLAX25Y25*%
%IPPOS*%
%LPD*%
%AMOC8*
5,1,8,0,0,1.08239X$1,22.5*
%
%ADD10C,0.00000*%
%ADD11OC8,0.05200*%
%ADD12OC8,0.06000*%
%ADD13C,0.05200*%
%ADD14C,0.06000*%
%ADD15C,0.06000*%
%ADD16C,0.02000*%
%ADD17C,0.04000*%
%ADD18C,0.03000*%
D10*
X0002600Y0002600D02*
X0002600Y0317561D01*
X0396301Y0317561D01*
X0396301Y0002600D01*
X0002600Y0002600D01*
X0021301Y0082600D02*
X0021303Y0082758D01*
X0021309Y0082916D01*
X0021319Y0083074D01*
X0021333Y0083232D01*
X0021351Y0083389D01*
X0021372Y0083546D01*
X0021398Y0083702D01*
X0021428Y0083858D01*
X0021461Y0084013D01*
X0021499Y0084166D01*
X0021540Y0084319D01*
X0021585Y0084471D01*
X0021634Y0084622D01*
X0021687Y0084771D01*
X0021743Y0084919D01*
X0021803Y0085065D01*
X0021867Y0085210D01*
X0021935Y0085353D01*
X0022006Y0085495D01*
X0022080Y0085635D01*
X0022158Y0085772D01*
X0022240Y0085908D01*
X0022324Y0086042D01*
X0022413Y0086173D01*
X0022504Y0086302D01*
X0022599Y0086429D01*
X0022696Y0086554D01*
X0022797Y0086676D01*
X0022901Y0086795D01*
X0023008Y0086912D01*
X0023118Y0087026D01*
X0023231Y0087137D01*
X0023346Y0087246D01*
X0023464Y0087351D01*
X0023585Y0087453D01*
X0023708Y0087553D01*
X0023834Y0087649D01*
X0023962Y0087742D01*
X0024092Y0087832D01*
X0024225Y0087918D01*
X0024360Y0088002D01*
X0024496Y0088081D01*
X0024635Y0088158D01*
X0024776Y0088230D01*
X0024918Y0088300D01*
X0025062Y0088365D01*
X0025208Y0088427D01*
X0025355Y0088485D01*
X0025504Y0088540D01*
X0025654Y0088591D01*
X0025805Y0088638D01*
X0025957Y0088681D01*
X0026110Y0088720D01*
X0026265Y0088756D01*
X0026420Y0088787D01*
X0026576Y0088815D01*
X0026732Y0088839D01*
X0026889Y0088859D01*
X0027047Y0088875D01*
X0027204Y0088887D01*
X0027363Y0088895D01*
X0027521Y0088899D01*
X0027679Y0088899D01*
X0027837Y0088895D01*
X0027996Y0088887D01*
X0028153Y0088875D01*
X0028311Y0088859D01*
X0028468Y0088839D01*
X0028624Y0088815D01*
X0028780Y0088787D01*
X0028935Y0088756D01*
X0029090Y0088720D01*
X0029243Y0088681D01*
X0029395Y0088638D01*
X0029546Y0088591D01*
X0029696Y0088540D01*
X0029845Y0088485D01*
X0029992Y0088427D01*
X0030138Y0088365D01*
X0030282Y0088300D01*
X0030424Y0088230D01*
X0030565Y0088158D01*
X0030704Y0088081D01*
X0030840Y0088002D01*
X0030975Y0087918D01*
X0031108Y0087832D01*
X0031238Y0087742D01*
X0031366Y0087649D01*
X0031492Y0087553D01*
X0031615Y0087453D01*
X0031736Y0087351D01*
X0031854Y0087246D01*
X0031969Y0087137D01*
X0032082Y0087026D01*
X0032192Y0086912D01*
X0032299Y0086795D01*
X0032403Y0086676D01*
X0032504Y0086554D01*
X0032601Y0086429D01*
X0032696Y0086302D01*
X0032787Y0086173D01*
X0032876Y0086042D01*
X0032960Y0085908D01*
X0033042Y0085772D01*
X0033120Y0085635D01*
X0033194Y0085495D01*
X0033265Y0085353D01*
X0033333Y0085210D01*
X0033397Y0085065D01*
X0033457Y0084919D01*
X0033513Y0084771D01*
X0033566Y0084622D01*
X0033615Y0084471D01*
X0033660Y0084319D01*
X0033701Y0084166D01*
X0033739Y0084013D01*
X0033772Y0083858D01*
X0033802Y0083702D01*
X0033828Y0083546D01*
X0033849Y0083389D01*
X0033867Y0083232D01*
X0033881Y0083074D01*
X0033891Y0082916D01*
X0033897Y0082758D01*
X0033899Y0082600D01*
X0033897Y0082442D01*
X0033891Y0082284D01*
X0033881Y0082126D01*
X0033867Y0081968D01*
X0033849Y0081811D01*
X0033828Y0081654D01*
X0033802Y0081498D01*
X0033772Y0081342D01*
X0033739Y0081187D01*
X0033701Y0081034D01*
X0033660Y0080881D01*
X0033615Y0080729D01*
X0033566Y0080578D01*
X0033513Y0080429D01*
X0033457Y0080281D01*
X0033397Y0080135D01*
X0033333Y0079990D01*
X0033265Y0079847D01*
X0033194Y0079705D01*
X0033120Y0079565D01*
X0033042Y0079428D01*
X0032960Y0079292D01*
X0032876Y0079158D01*
X0032787Y0079027D01*
X0032696Y0078898D01*
X0032601Y0078771D01*
X0032504Y0078646D01*
X0032403Y0078524D01*
X0032299Y0078405D01*
X0032192Y0078288D01*
X0032082Y0078174D01*
X0031969Y0078063D01*
X0031854Y0077954D01*
X0031736Y0077849D01*
X0031615Y0077747D01*
X0031492Y0077647D01*
X0031366Y0077551D01*
X0031238Y0077458D01*
X0031108Y0077368D01*
X0030975Y0077282D01*
X0030840Y0077198D01*
X0030704Y0077119D01*
X0030565Y0077042D01*
X0030424Y0076970D01*
X0030282Y0076900D01*
X0030138Y0076835D01*
X0029992Y0076773D01*
X0029845Y0076715D01*
X0029696Y0076660D01*
X0029546Y0076609D01*
X0029395Y0076562D01*
X0029243Y0076519D01*
X0029090Y0076480D01*
X0028935Y0076444D01*
X0028780Y0076413D01*
X0028624Y0076385D01*
X0028468Y0076361D01*
X0028311Y0076341D01*
X0028153Y0076325D01*
X0027996Y0076313D01*
X0027837Y0076305D01*
X0027679Y0076301D01*
X0027521Y0076301D01*
X0027363Y0076305D01*
X0027204Y0076313D01*
X0027047Y0076325D01*
X0026889Y0076341D01*
X0026732Y0076361D01*
X0026576Y0076385D01*
X0026420Y0076413D01*
X0026265Y0076444D01*
X0026110Y0076480D01*
X0025957Y0076519D01*
X0025805Y0076562D01*
X0025654Y0076609D01*
X0025504Y0076660D01*
X0025355Y0076715D01*
X0025208Y0076773D01*
X0025062Y0076835D01*
X0024918Y0076900D01*
X0024776Y0076970D01*
X0024635Y0077042D01*
X0024496Y0077119D01*
X0024360Y0077198D01*
X0024225Y0077282D01*
X0024092Y0077368D01*
X0023962Y0077458D01*
X0023834Y0077551D01*
X0023708Y0077647D01*
X0023585Y0077747D01*
X0023464Y0077849D01*
X0023346Y0077954D01*
X0023231Y0078063D01*
X0023118Y0078174D01*
X0023008Y0078288D01*
X0022901Y0078405D01*
X0022797Y0078524D01*
X0022696Y0078646D01*
X0022599Y0078771D01*
X0022504Y0078898D01*
X0022413Y0079027D01*
X0022324Y0079158D01*
X0022240Y0079292D01*
X0022158Y0079428D01*
X0022080Y0079565D01*
X0022006Y0079705D01*
X0021935Y0079847D01*
X0021867Y0079990D01*
X0021803Y0080135D01*
X0021743Y0080281D01*
X0021687Y0080429D01*
X0021634Y0080578D01*
X0021585Y0080729D01*
X0021540Y0080881D01*
X0021499Y0081034D01*
X0021461Y0081187D01*
X0021428Y0081342D01*
X0021398Y0081498D01*
X0021372Y0081654D01*
X0021351Y0081811D01*
X0021333Y0081968D01*
X0021319Y0082126D01*
X0021309Y0082284D01*
X0021303Y0082442D01*
X0021301Y0082600D01*
X0141301Y0037600D02*
X0141303Y0037758D01*
X0141309Y0037916D01*
X0141319Y0038074D01*
X0141333Y0038232D01*
X0141351Y0038389D01*
X0141372Y0038546D01*
X0141398Y0038702D01*
X0141428Y0038858D01*
X0141461Y0039013D01*
X0141499Y0039166D01*
X0141540Y0039319D01*
X0141585Y0039471D01*
X0141634Y0039622D01*
X0141687Y0039771D01*
X0141743Y0039919D01*
X0141803Y0040065D01*
X0141867Y0040210D01*
X0141935Y0040353D01*
X0142006Y0040495D01*
X0142080Y0040635D01*
X0142158Y0040772D01*
X0142240Y0040908D01*
X0142324Y0041042D01*
X0142413Y0041173D01*
X0142504Y0041302D01*
X0142599Y0041429D01*
X0142696Y0041554D01*
X0142797Y0041676D01*
X0142901Y0041795D01*
X0143008Y0041912D01*
X0143118Y0042026D01*
X0143231Y0042137D01*
X0143346Y0042246D01*
X0143464Y0042351D01*
X0143585Y0042453D01*
X0143708Y0042553D01*
X0143834Y0042649D01*
X0143962Y0042742D01*
X0144092Y0042832D01*
X0144225Y0042918D01*
X0144360Y0043002D01*
X0144496Y0043081D01*
X0144635Y0043158D01*
X0144776Y0043230D01*
X0144918Y0043300D01*
X0145062Y0043365D01*
X0145208Y0043427D01*
X0145355Y0043485D01*
X0145504Y0043540D01*
X0145654Y0043591D01*
X0145805Y0043638D01*
X0145957Y0043681D01*
X0146110Y0043720D01*
X0146265Y0043756D01*
X0146420Y0043787D01*
X0146576Y0043815D01*
X0146732Y0043839D01*
X0146889Y0043859D01*
X0147047Y0043875D01*
X0147204Y0043887D01*
X0147363Y0043895D01*
X0147521Y0043899D01*
X0147679Y0043899D01*
X0147837Y0043895D01*
X0147996Y0043887D01*
X0148153Y0043875D01*
X0148311Y0043859D01*
X0148468Y0043839D01*
X0148624Y0043815D01*
X0148780Y0043787D01*
X0148935Y0043756D01*
X0149090Y0043720D01*
X0149243Y0043681D01*
X0149395Y0043638D01*
X0149546Y0043591D01*
X0149696Y0043540D01*
X0149845Y0043485D01*
X0149992Y0043427D01*
X0150138Y0043365D01*
X0150282Y0043300D01*
X0150424Y0043230D01*
X0150565Y0043158D01*
X0150704Y0043081D01*
X0150840Y0043002D01*
X0150975Y0042918D01*
X0151108Y0042832D01*
X0151238Y0042742D01*
X0151366Y0042649D01*
X0151492Y0042553D01*
X0151615Y0042453D01*
X0151736Y0042351D01*
X0151854Y0042246D01*
X0151969Y0042137D01*
X0152082Y0042026D01*
X0152192Y0041912D01*
X0152299Y0041795D01*
X0152403Y0041676D01*
X0152504Y0041554D01*
X0152601Y0041429D01*
X0152696Y0041302D01*
X0152787Y0041173D01*
X0152876Y0041042D01*
X0152960Y0040908D01*
X0153042Y0040772D01*
X0153120Y0040635D01*
X0153194Y0040495D01*
X0153265Y0040353D01*
X0153333Y0040210D01*
X0153397Y0040065D01*
X0153457Y0039919D01*
X0153513Y0039771D01*
X0153566Y0039622D01*
X0153615Y0039471D01*
X0153660Y0039319D01*
X0153701Y0039166D01*
X0153739Y0039013D01*
X0153772Y0038858D01*
X0153802Y0038702D01*
X0153828Y0038546D01*
X0153849Y0038389D01*
X0153867Y0038232D01*
X0153881Y0038074D01*
X0153891Y0037916D01*
X0153897Y0037758D01*
X0153899Y0037600D01*
X0153897Y0037442D01*
X0153891Y0037284D01*
X0153881Y0037126D01*
X0153867Y0036968D01*
X0153849Y0036811D01*
X0153828Y0036654D01*
X0153802Y0036498D01*
X0153772Y0036342D01*
X0153739Y0036187D01*
X0153701Y0036034D01*
X0153660Y0035881D01*
X0153615Y0035729D01*
X0153566Y0035578D01*
X0153513Y0035429D01*
X0153457Y0035281D01*
X0153397Y0035135D01*
X0153333Y0034990D01*
X0153265Y0034847D01*
X0153194Y0034705D01*
X0153120Y0034565D01*
X0153042Y0034428D01*
X0152960Y0034292D01*
X0152876Y0034158D01*
X0152787Y0034027D01*
X0152696Y0033898D01*
X0152601Y0033771D01*
X0152504Y0033646D01*
X0152403Y0033524D01*
X0152299Y0033405D01*
X0152192Y0033288D01*
X0152082Y0033174D01*
X0151969Y0033063D01*
X0151854Y0032954D01*
X0151736Y0032849D01*
X0151615Y0032747D01*
X0151492Y0032647D01*
X0151366Y0032551D01*
X0151238Y0032458D01*
X0151108Y0032368D01*
X0150975Y0032282D01*
X0150840Y0032198D01*
X0150704Y0032119D01*
X0150565Y0032042D01*
X0150424Y0031970D01*
X0150282Y0031900D01*
X0150138Y0031835D01*
X0149992Y0031773D01*
X0149845Y0031715D01*
X0149696Y0031660D01*
X0149546Y0031609D01*
X0149395Y0031562D01*
X0149243Y0031519D01*
X0149090Y0031480D01*
X0148935Y0031444D01*
X0148780Y0031413D01*
X0148624Y0031385D01*
X0148468Y0031361D01*
X0148311Y0031341D01*
X0148153Y0031325D01*
X0147996Y0031313D01*
X0147837Y0031305D01*
X0147679Y0031301D01*
X0147521Y0031301D01*
X0147363Y0031305D01*
X0147204Y0031313D01*
X0147047Y0031325D01*
X0146889Y0031341D01*
X0146732Y0031361D01*
X0146576Y0031385D01*
X0146420Y0031413D01*
X0146265Y0031444D01*
X0146110Y0031480D01*
X0145957Y0031519D01*
X0145805Y0031562D01*
X0145654Y0031609D01*
X0145504Y0031660D01*
X0145355Y0031715D01*
X0145208Y0031773D01*
X0145062Y0031835D01*
X0144918Y0031900D01*
X0144776Y0031970D01*
X0144635Y0032042D01*
X0144496Y0032119D01*
X0144360Y0032198D01*
X0144225Y0032282D01*
X0144092Y0032368D01*
X0143962Y0032458D01*
X0143834Y0032551D01*
X0143708Y0032647D01*
X0143585Y0032747D01*
X0143464Y0032849D01*
X0143346Y0032954D01*
X0143231Y0033063D01*
X0143118Y0033174D01*
X0143008Y0033288D01*
X0142901Y0033405D01*
X0142797Y0033524D01*
X0142696Y0033646D01*
X0142599Y0033771D01*
X0142504Y0033898D01*
X0142413Y0034027D01*
X0142324Y0034158D01*
X0142240Y0034292D01*
X0142158Y0034428D01*
X0142080Y0034565D01*
X0142006Y0034705D01*
X0141935Y0034847D01*
X0141867Y0034990D01*
X0141803Y0035135D01*
X0141743Y0035281D01*
X0141687Y0035429D01*
X0141634Y0035578D01*
X0141585Y0035729D01*
X0141540Y0035881D01*
X0141499Y0036034D01*
X0141461Y0036187D01*
X0141428Y0036342D01*
X0141398Y0036498D01*
X0141372Y0036654D01*
X0141351Y0036811D01*
X0141333Y0036968D01*
X0141319Y0037126D01*
X0141309Y0037284D01*
X0141303Y0037442D01*
X0141301Y0037600D01*
X0191301Y0082600D02*
X0191303Y0082758D01*
X0191309Y0082916D01*
X0191319Y0083074D01*
X0191333Y0083232D01*
X0191351Y0083389D01*
X0191372Y0083546D01*
X0191398Y0083702D01*
X0191428Y0083858D01*
X0191461Y0084013D01*
X0191499Y0084166D01*
X0191540Y0084319D01*
X0191585Y0084471D01*
X0191634Y0084622D01*
X0191687Y0084771D01*
X0191743Y0084919D01*
X0191803Y0085065D01*
X0191867Y0085210D01*
X0191935Y0085353D01*
X0192006Y0085495D01*
X0192080Y0085635D01*
X0192158Y0085772D01*
X0192240Y0085908D01*
X0192324Y0086042D01*
X0192413Y0086173D01*
X0192504Y0086302D01*
X0192599Y0086429D01*
X0192696Y0086554D01*
X0192797Y0086676D01*
X0192901Y0086795D01*
X0193008Y0086912D01*
X0193118Y0087026D01*
X0193231Y0087137D01*
X0193346Y0087246D01*
X0193464Y0087351D01*
X0193585Y0087453D01*
X0193708Y0087553D01*
X0193834Y0087649D01*
X0193962Y0087742D01*
X0194092Y0087832D01*
X0194225Y0087918D01*
X0194360Y0088002D01*
X0194496Y0088081D01*
X0194635Y0088158D01*
X0194776Y0088230D01*
X0194918Y0088300D01*
X0195062Y0088365D01*
X0195208Y0088427D01*
X0195355Y0088485D01*
X0195504Y0088540D01*
X0195654Y0088591D01*
X0195805Y0088638D01*
X0195957Y0088681D01*
X0196110Y0088720D01*
X0196265Y0088756D01*
X0196420Y0088787D01*
X0196576Y0088815D01*
X0196732Y0088839D01*
X0196889Y0088859D01*
X0197047Y0088875D01*
X0197204Y0088887D01*
X0197363Y0088895D01*
X0197521Y0088899D01*
X0197679Y0088899D01*
X0197837Y0088895D01*
X0197996Y0088887D01*
X0198153Y0088875D01*
X0198311Y0088859D01*
X0198468Y0088839D01*
X0198624Y0088815D01*
X0198780Y0088787D01*
X0198935Y0088756D01*
X0199090Y0088720D01*
X0199243Y0088681D01*
X0199395Y0088638D01*
X0199546Y0088591D01*
X0199696Y0088540D01*
X0199845Y0088485D01*
X0199992Y0088427D01*
X0200138Y0088365D01*
X0200282Y0088300D01*
X0200424Y0088230D01*
X0200565Y0088158D01*
X0200704Y0088081D01*
X0200840Y0088002D01*
X0200975Y0087918D01*
X0201108Y0087832D01*
X0201238Y0087742D01*
X0201366Y0087649D01*
X0201492Y0087553D01*
X0201615Y0087453D01*
X0201736Y0087351D01*
X0201854Y0087246D01*
X0201969Y0087137D01*
X0202082Y0087026D01*
X0202192Y0086912D01*
X0202299Y0086795D01*
X0202403Y0086676D01*
X0202504Y0086554D01*
X0202601Y0086429D01*
X0202696Y0086302D01*
X0202787Y0086173D01*
X0202876Y0086042D01*
X0202960Y0085908D01*
X0203042Y0085772D01*
X0203120Y0085635D01*
X0203194Y0085495D01*
X0203265Y0085353D01*
X0203333Y0085210D01*
X0203397Y0085065D01*
X0203457Y0084919D01*
X0203513Y0084771D01*
X0203566Y0084622D01*
X0203615Y0084471D01*
X0203660Y0084319D01*
X0203701Y0084166D01*
X0203739Y0084013D01*
X0203772Y0083858D01*
X0203802Y0083702D01*
X0203828Y0083546D01*
X0203849Y0083389D01*
X0203867Y0083232D01*
X0203881Y0083074D01*
X0203891Y0082916D01*
X0203897Y0082758D01*
X0203899Y0082600D01*
X0203897Y0082442D01*
X0203891Y0082284D01*
X0203881Y0082126D01*
X0203867Y0081968D01*
X0203849Y0081811D01*
X0203828Y0081654D01*
X0203802Y0081498D01*
X0203772Y0081342D01*
X0203739Y0081187D01*
X0203701Y0081034D01*
X0203660Y0080881D01*
X0203615Y0080729D01*
X0203566Y0080578D01*
X0203513Y0080429D01*
X0203457Y0080281D01*
X0203397Y0080135D01*
X0203333Y0079990D01*
X0203265Y0079847D01*
X0203194Y0079705D01*
X0203120Y0079565D01*
X0203042Y0079428D01*
X0202960Y0079292D01*
X0202876Y0079158D01*
X0202787Y0079027D01*
X0202696Y0078898D01*
X0202601Y0078771D01*
X0202504Y0078646D01*
X0202403Y0078524D01*
X0202299Y0078405D01*
X0202192Y0078288D01*
X0202082Y0078174D01*
X0201969Y0078063D01*
X0201854Y0077954D01*
X0201736Y0077849D01*
X0201615Y0077747D01*
X0201492Y0077647D01*
X0201366Y0077551D01*
X0201238Y0077458D01*
X0201108Y0077368D01*
X0200975Y0077282D01*
X0200840Y0077198D01*
X0200704Y0077119D01*
X0200565Y0077042D01*
X0200424Y0076970D01*
X0200282Y0076900D01*
X0200138Y0076835D01*
X0199992Y0076773D01*
X0199845Y0076715D01*
X0199696Y0076660D01*
X0199546Y0076609D01*
X0199395Y0076562D01*
X0199243Y0076519D01*
X0199090Y0076480D01*
X0198935Y0076444D01*
X0198780Y0076413D01*
X0198624Y0076385D01*
X0198468Y0076361D01*
X0198311Y0076341D01*
X0198153Y0076325D01*
X0197996Y0076313D01*
X0197837Y0076305D01*
X0197679Y0076301D01*
X0197521Y0076301D01*
X0197363Y0076305D01*
X0197204Y0076313D01*
X0197047Y0076325D01*
X0196889Y0076341D01*
X0196732Y0076361D01*
X0196576Y0076385D01*
X0196420Y0076413D01*
X0196265Y0076444D01*
X0196110Y0076480D01*
X0195957Y0076519D01*
X0195805Y0076562D01*
X0195654Y0076609D01*
X0195504Y0076660D01*
X0195355Y0076715D01*
X0195208Y0076773D01*
X0195062Y0076835D01*
X0194918Y0076900D01*
X0194776Y0076970D01*
X0194635Y0077042D01*
X0194496Y0077119D01*
X0194360Y0077198D01*
X0194225Y0077282D01*
X0194092Y0077368D01*
X0193962Y0077458D01*
X0193834Y0077551D01*
X0193708Y0077647D01*
X0193585Y0077747D01*
X0193464Y0077849D01*
X0193346Y0077954D01*
X0193231Y0078063D01*
X0193118Y0078174D01*
X0193008Y0078288D01*
X0192901Y0078405D01*
X0192797Y0078524D01*
X0192696Y0078646D01*
X0192599Y0078771D01*
X0192504Y0078898D01*
X0192413Y0079027D01*
X0192324Y0079158D01*
X0192240Y0079292D01*
X0192158Y0079428D01*
X0192080Y0079565D01*
X0192006Y0079705D01*
X0191935Y0079847D01*
X0191867Y0079990D01*
X0191803Y0080135D01*
X0191743Y0080281D01*
X0191687Y0080429D01*
X0191634Y0080578D01*
X0191585Y0080729D01*
X0191540Y0080881D01*
X0191499Y0081034D01*
X0191461Y0081187D01*
X0191428Y0081342D01*
X0191398Y0081498D01*
X0191372Y0081654D01*
X0191351Y0081811D01*
X0191333Y0081968D01*
X0191319Y0082126D01*
X0191309Y0082284D01*
X0191303Y0082442D01*
X0191301Y0082600D01*
X0141301Y0142600D02*
X0141303Y0142758D01*
X0141309Y0142916D01*
X0141319Y0143074D01*
X0141333Y0143232D01*
X0141351Y0143389D01*
X0141372Y0143546D01*
X0141398Y0143702D01*
X0141428Y0143858D01*
X0141461Y0144013D01*
X0141499Y0144166D01*
X0141540Y0144319D01*
X0141585Y0144471D01*
X0141634Y0144622D01*
X0141687Y0144771D01*
X0141743Y0144919D01*
X0141803Y0145065D01*
X0141867Y0145210D01*
X0141935Y0145353D01*
X0142006Y0145495D01*
X0142080Y0145635D01*
X0142158Y0145772D01*
X0142240Y0145908D01*
X0142324Y0146042D01*
X0142413Y0146173D01*
X0142504Y0146302D01*
X0142599Y0146429D01*
X0142696Y0146554D01*
X0142797Y0146676D01*
X0142901Y0146795D01*
X0143008Y0146912D01*
X0143118Y0147026D01*
X0143231Y0147137D01*
X0143346Y0147246D01*
X0143464Y0147351D01*
X0143585Y0147453D01*
X0143708Y0147553D01*
X0143834Y0147649D01*
X0143962Y0147742D01*
X0144092Y0147832D01*
X0144225Y0147918D01*
X0144360Y0148002D01*
X0144496Y0148081D01*
X0144635Y0148158D01*
X0144776Y0148230D01*
X0144918Y0148300D01*
X0145062Y0148365D01*
X0145208Y0148427D01*
X0145355Y0148485D01*
X0145504Y0148540D01*
X0145654Y0148591D01*
X0145805Y0148638D01*
X0145957Y0148681D01*
X0146110Y0148720D01*
X0146265Y0148756D01*
X0146420Y0148787D01*
X0146576Y0148815D01*
X0146732Y0148839D01*
X0146889Y0148859D01*
X0147047Y0148875D01*
X0147204Y0148887D01*
X0147363Y0148895D01*
X0147521Y0148899D01*
X0147679Y0148899D01*
X0147837Y0148895D01*
X0147996Y0148887D01*
X0148153Y0148875D01*
X0148311Y0148859D01*
X0148468Y0148839D01*
X0148624Y0148815D01*
X0148780Y0148787D01*
X0148935Y0148756D01*
X0149090Y0148720D01*
X0149243Y0148681D01*
X0149395Y0148638D01*
X0149546Y0148591D01*
X0149696Y0148540D01*
X0149845Y0148485D01*
X0149992Y0148427D01*
X0150138Y0148365D01*
X0150282Y0148300D01*
X0150424Y0148230D01*
X0150565Y0148158D01*
X0150704Y0148081D01*
X0150840Y0148002D01*
X0150975Y0147918D01*
X0151108Y0147832D01*
X0151238Y0147742D01*
X0151366Y0147649D01*
X0151492Y0147553D01*
X0151615Y0147453D01*
X0151736Y0147351D01*
X0151854Y0147246D01*
X0151969Y0147137D01*
X0152082Y0147026D01*
X0152192Y0146912D01*
X0152299Y0146795D01*
X0152403Y0146676D01*
X0152504Y0146554D01*
X0152601Y0146429D01*
X0152696Y0146302D01*
X0152787Y0146173D01*
X0152876Y0146042D01*
X0152960Y0145908D01*
X0153042Y0145772D01*
X0153120Y0145635D01*
X0153194Y0145495D01*
X0153265Y0145353D01*
X0153333Y0145210D01*
X0153397Y0145065D01*
X0153457Y0144919D01*
X0153513Y0144771D01*
X0153566Y0144622D01*
X0153615Y0144471D01*
X0153660Y0144319D01*
X0153701Y0144166D01*
X0153739Y0144013D01*
X0153772Y0143858D01*
X0153802Y0143702D01*
X0153828Y0143546D01*
X0153849Y0143389D01*
X0153867Y0143232D01*
X0153881Y0143074D01*
X0153891Y0142916D01*
X0153897Y0142758D01*
X0153899Y0142600D01*
X0153897Y0142442D01*
X0153891Y0142284D01*
X0153881Y0142126D01*
X0153867Y0141968D01*
X0153849Y0141811D01*
X0153828Y0141654D01*
X0153802Y0141498D01*
X0153772Y0141342D01*
X0153739Y0141187D01*
X0153701Y0141034D01*
X0153660Y0140881D01*
X0153615Y0140729D01*
X0153566Y0140578D01*
X0153513Y0140429D01*
X0153457Y0140281D01*
X0153397Y0140135D01*
X0153333Y0139990D01*
X0153265Y0139847D01*
X0153194Y0139705D01*
X0153120Y0139565D01*
X0153042Y0139428D01*
X0152960Y0139292D01*
X0152876Y0139158D01*
X0152787Y0139027D01*
X0152696Y0138898D01*
X0152601Y0138771D01*
X0152504Y0138646D01*
X0152403Y0138524D01*
X0152299Y0138405D01*
X0152192Y0138288D01*
X0152082Y0138174D01*
X0151969Y0138063D01*
X0151854Y0137954D01*
X0151736Y0137849D01*
X0151615Y0137747D01*
X0151492Y0137647D01*
X0151366Y0137551D01*
X0151238Y0137458D01*
X0151108Y0137368D01*
X0150975Y0137282D01*
X0150840Y0137198D01*
X0150704Y0137119D01*
X0150565Y0137042D01*
X0150424Y0136970D01*
X0150282Y0136900D01*
X0150138Y0136835D01*
X0149992Y0136773D01*
X0149845Y0136715D01*
X0149696Y0136660D01*
X0149546Y0136609D01*
X0149395Y0136562D01*
X0149243Y0136519D01*
X0149090Y0136480D01*
X0148935Y0136444D01*
X0148780Y0136413D01*
X0148624Y0136385D01*
X0148468Y0136361D01*
X0148311Y0136341D01*
X0148153Y0136325D01*
X0147996Y0136313D01*
X0147837Y0136305D01*
X0147679Y0136301D01*
X0147521Y0136301D01*
X0147363Y0136305D01*
X0147204Y0136313D01*
X0147047Y0136325D01*
X0146889Y0136341D01*
X0146732Y0136361D01*
X0146576Y0136385D01*
X0146420Y0136413D01*
X0146265Y0136444D01*
X0146110Y0136480D01*
X0145957Y0136519D01*
X0145805Y0136562D01*
X0145654Y0136609D01*
X0145504Y0136660D01*
X0145355Y0136715D01*
X0145208Y0136773D01*
X0145062Y0136835D01*
X0144918Y0136900D01*
X0144776Y0136970D01*
X0144635Y0137042D01*
X0144496Y0137119D01*
X0144360Y0137198D01*
X0144225Y0137282D01*
X0144092Y0137368D01*
X0143962Y0137458D01*
X0143834Y0137551D01*
X0143708Y0137647D01*
X0143585Y0137747D01*
X0143464Y0137849D01*
X0143346Y0137954D01*
X0143231Y0138063D01*
X0143118Y0138174D01*
X0143008Y0138288D01*
X0142901Y0138405D01*
X0142797Y0138524D01*
X0142696Y0138646D01*
X0142599Y0138771D01*
X0142504Y0138898D01*
X0142413Y0139027D01*
X0142324Y0139158D01*
X0142240Y0139292D01*
X0142158Y0139428D01*
X0142080Y0139565D01*
X0142006Y0139705D01*
X0141935Y0139847D01*
X0141867Y0139990D01*
X0141803Y0140135D01*
X0141743Y0140281D01*
X0141687Y0140429D01*
X0141634Y0140578D01*
X0141585Y0140729D01*
X0141540Y0140881D01*
X0141499Y0141034D01*
X0141461Y0141187D01*
X0141428Y0141342D01*
X0141398Y0141498D01*
X0141372Y0141654D01*
X0141351Y0141811D01*
X0141333Y0141968D01*
X0141319Y0142126D01*
X0141309Y0142284D01*
X0141303Y0142442D01*
X0141301Y0142600D01*
X0191301Y0187600D02*
X0191303Y0187758D01*
X0191309Y0187916D01*
X0191319Y0188074D01*
X0191333Y0188232D01*
X0191351Y0188389D01*
X0191372Y0188546D01*
X0191398Y0188702D01*
X0191428Y0188858D01*
X0191461Y0189013D01*
X0191499Y0189166D01*
X0191540Y0189319D01*
X0191585Y0189471D01*
X0191634Y0189622D01*
X0191687Y0189771D01*
X0191743Y0189919D01*
X0191803Y0190065D01*
X0191867Y0190210D01*
X0191935Y0190353D01*
X0192006Y0190495D01*
X0192080Y0190635D01*
X0192158Y0190772D01*
X0192240Y0190908D01*
X0192324Y0191042D01*
X0192413Y0191173D01*
X0192504Y0191302D01*
X0192599Y0191429D01*
X0192696Y0191554D01*
X0192797Y0191676D01*
X0192901Y0191795D01*
X0193008Y0191912D01*
X0193118Y0192026D01*
X0193231Y0192137D01*
X0193346Y0192246D01*
X0193464Y0192351D01*
X0193585Y0192453D01*
X0193708Y0192553D01*
X0193834Y0192649D01*
X0193962Y0192742D01*
X0194092Y0192832D01*
X0194225Y0192918D01*
X0194360Y0193002D01*
X0194496Y0193081D01*
X0194635Y0193158D01*
X0194776Y0193230D01*
X0194918Y0193300D01*
X0195062Y0193365D01*
X0195208Y0193427D01*
X0195355Y0193485D01*
X0195504Y0193540D01*
X0195654Y0193591D01*
X0195805Y0193638D01*
X0195957Y0193681D01*
X0196110Y0193720D01*
X0196265Y0193756D01*
X0196420Y0193787D01*
X0196576Y0193815D01*
X0196732Y0193839D01*
X0196889Y0193859D01*
X0197047Y0193875D01*
X0197204Y0193887D01*
X0197363Y0193895D01*
X0197521Y0193899D01*
X0197679Y0193899D01*
X0197837Y0193895D01*
X0197996Y0193887D01*
X0198153Y0193875D01*
X0198311Y0193859D01*
X0198468Y0193839D01*
X0198624Y0193815D01*
X0198780Y0193787D01*
X0198935Y0193756D01*
X0199090Y0193720D01*
X0199243Y0193681D01*
X0199395Y0193638D01*
X0199546Y0193591D01*
X0199696Y0193540D01*
X0199845Y0193485D01*
X0199992Y0193427D01*
X0200138Y0193365D01*
X0200282Y0193300D01*
X0200424Y0193230D01*
X0200565Y0193158D01*
X0200704Y0193081D01*
X0200840Y0193002D01*
X0200975Y0192918D01*
X0201108Y0192832D01*
X0201238Y0192742D01*
X0201366Y0192649D01*
X0201492Y0192553D01*
X0201615Y0192453D01*
X0201736Y0192351D01*
X0201854Y0192246D01*
X0201969Y0192137D01*
X0202082Y0192026D01*
X0202192Y0191912D01*
X0202299Y0191795D01*
X0202403Y0191676D01*
X0202504Y0191554D01*
X0202601Y0191429D01*
X0202696Y0191302D01*
X0202787Y0191173D01*
X0202876Y0191042D01*
X0202960Y0190908D01*
X0203042Y0190772D01*
X0203120Y0190635D01*
X0203194Y0190495D01*
X0203265Y0190353D01*
X0203333Y0190210D01*
X0203397Y0190065D01*
X0203457Y0189919D01*
X0203513Y0189771D01*
X0203566Y0189622D01*
X0203615Y0189471D01*
X0203660Y0189319D01*
X0203701Y0189166D01*
X0203739Y0189013D01*
X0203772Y0188858D01*
X0203802Y0188702D01*
X0203828Y0188546D01*
X0203849Y0188389D01*
X0203867Y0188232D01*
X0203881Y0188074D01*
X0203891Y0187916D01*
X0203897Y0187758D01*
X0203899Y0187600D01*
X0203897Y0187442D01*
X0203891Y0187284D01*
X0203881Y0187126D01*
X0203867Y0186968D01*
X0203849Y0186811D01*
X0203828Y0186654D01*
X0203802Y0186498D01*
X0203772Y0186342D01*
X0203739Y0186187D01*
X0203701Y0186034D01*
X0203660Y0185881D01*
X0203615Y0185729D01*
X0203566Y0185578D01*
X0203513Y0185429D01*
X0203457Y0185281D01*
X0203397Y0185135D01*
X0203333Y0184990D01*
X0203265Y0184847D01*
X0203194Y0184705D01*
X0203120Y0184565D01*
X0203042Y0184428D01*
X0202960Y0184292D01*
X0202876Y0184158D01*
X0202787Y0184027D01*
X0202696Y0183898D01*
X0202601Y0183771D01*
X0202504Y0183646D01*
X0202403Y0183524D01*
X0202299Y0183405D01*
X0202192Y0183288D01*
X0202082Y0183174D01*
X0201969Y0183063D01*
X0201854Y0182954D01*
X0201736Y0182849D01*
X0201615Y0182747D01*
X0201492Y0182647D01*
X0201366Y0182551D01*
X0201238Y0182458D01*
X0201108Y0182368D01*
X0200975Y0182282D01*
X0200840Y0182198D01*
X0200704Y0182119D01*
X0200565Y0182042D01*
X0200424Y0181970D01*
X0200282Y0181900D01*
X0200138Y0181835D01*
X0199992Y0181773D01*
X0199845Y0181715D01*
X0199696Y0181660D01*
X0199546Y0181609D01*
X0199395Y0181562D01*
X0199243Y0181519D01*
X0199090Y0181480D01*
X0198935Y0181444D01*
X0198780Y0181413D01*
X0198624Y0181385D01*
X0198468Y0181361D01*
X0198311Y0181341D01*
X0198153Y0181325D01*
X0197996Y0181313D01*
X0197837Y0181305D01*
X0197679Y0181301D01*
X0197521Y0181301D01*
X0197363Y0181305D01*
X0197204Y0181313D01*
X0197047Y0181325D01*
X0196889Y0181341D01*
X0196732Y0181361D01*
X0196576Y0181385D01*
X0196420Y0181413D01*
X0196265Y0181444D01*
X0196110Y0181480D01*
X0195957Y0181519D01*
X0195805Y0181562D01*
X0195654Y0181609D01*
X0195504Y0181660D01*
X0195355Y0181715D01*
X0195208Y0181773D01*
X0195062Y0181835D01*
X0194918Y0181900D01*
X0194776Y0181970D01*
X0194635Y0182042D01*
X0194496Y0182119D01*
X0194360Y0182198D01*
X0194225Y0182282D01*
X0194092Y0182368D01*
X0193962Y0182458D01*
X0193834Y0182551D01*
X0193708Y0182647D01*
X0193585Y0182747D01*
X0193464Y0182849D01*
X0193346Y0182954D01*
X0193231Y0183063D01*
X0193118Y0183174D01*
X0193008Y0183288D01*
X0192901Y0183405D01*
X0192797Y0183524D01*
X0192696Y0183646D01*
X0192599Y0183771D01*
X0192504Y0183898D01*
X0192413Y0184027D01*
X0192324Y0184158D01*
X0192240Y0184292D01*
X0192158Y0184428D01*
X0192080Y0184565D01*
X0192006Y0184705D01*
X0191935Y0184847D01*
X0191867Y0184990D01*
X0191803Y0185135D01*
X0191743Y0185281D01*
X0191687Y0185429D01*
X0191634Y0185578D01*
X0191585Y0185729D01*
X0191540Y0185881D01*
X0191499Y0186034D01*
X0191461Y0186187D01*
X0191428Y0186342D01*
X0191398Y0186498D01*
X0191372Y0186654D01*
X0191351Y0186811D01*
X0191333Y0186968D01*
X0191319Y0187126D01*
X0191309Y0187284D01*
X0191303Y0187442D01*
X0191301Y0187600D01*
X0141301Y0247600D02*
X0141303Y0247758D01*
X0141309Y0247916D01*
X0141319Y0248074D01*
X0141333Y0248232D01*
X0141351Y0248389D01*
X0141372Y0248546D01*
X0141398Y0248702D01*
X0141428Y0248858D01*
X0141461Y0249013D01*
X0141499Y0249166D01*
X0141540Y0249319D01*
X0141585Y0249471D01*
X0141634Y0249622D01*
X0141687Y0249771D01*
X0141743Y0249919D01*
X0141803Y0250065D01*
X0141867Y0250210D01*
X0141935Y0250353D01*
X0142006Y0250495D01*
X0142080Y0250635D01*
X0142158Y0250772D01*
X0142240Y0250908D01*
X0142324Y0251042D01*
X0142413Y0251173D01*
X0142504Y0251302D01*
X0142599Y0251429D01*
X0142696Y0251554D01*
X0142797Y0251676D01*
X0142901Y0251795D01*
X0143008Y0251912D01*
X0143118Y0252026D01*
X0143231Y0252137D01*
X0143346Y0252246D01*
X0143464Y0252351D01*
X0143585Y0252453D01*
X0143708Y0252553D01*
X0143834Y0252649D01*
X0143962Y0252742D01*
X0144092Y0252832D01*
X0144225Y0252918D01*
X0144360Y0253002D01*
X0144496Y0253081D01*
X0144635Y0253158D01*
X0144776Y0253230D01*
X0144918Y0253300D01*
X0145062Y0253365D01*
X0145208Y0253427D01*
X0145355Y0253485D01*
X0145504Y0253540D01*
X0145654Y0253591D01*
X0145805Y0253638D01*
X0145957Y0253681D01*
X0146110Y0253720D01*
X0146265Y0253756D01*
X0146420Y0253787D01*
X0146576Y0253815D01*
X0146732Y0253839D01*
X0146889Y0253859D01*
X0147047Y0253875D01*
X0147204Y0253887D01*
X0147363Y0253895D01*
X0147521Y0253899D01*
X0147679Y0253899D01*
X0147837Y0253895D01*
X0147996Y0253887D01*
X0148153Y0253875D01*
X0148311Y0253859D01*
X0148468Y0253839D01*
X0148624Y0253815D01*
X0148780Y0253787D01*
X0148935Y0253756D01*
X0149090Y0253720D01*
X0149243Y0253681D01*
X0149395Y0253638D01*
X0149546Y0253591D01*
X0149696Y0253540D01*
X0149845Y0253485D01*
X0149992Y0253427D01*
X0150138Y0253365D01*
X0150282Y0253300D01*
X0150424Y0253230D01*
X0150565Y0253158D01*
X0150704Y0253081D01*
X0150840Y0253002D01*
X0150975Y0252918D01*
X0151108Y0252832D01*
X0151238Y0252742D01*
X0151366Y0252649D01*
X0151492Y0252553D01*
X0151615Y0252453D01*
X0151736Y0252351D01*
X0151854Y0252246D01*
X0151969Y0252137D01*
X0152082Y0252026D01*
X0152192Y0251912D01*
X0152299Y0251795D01*
X0152403Y0251676D01*
X0152504Y0251554D01*
X0152601Y0251429D01*
X0152696Y0251302D01*
X0152787Y0251173D01*
X0152876Y0251042D01*
X0152960Y0250908D01*
X0153042Y0250772D01*
X0153120Y0250635D01*
X0153194Y0250495D01*
X0153265Y0250353D01*
X0153333Y0250210D01*
X0153397Y0250065D01*
X0153457Y0249919D01*
X0153513Y0249771D01*
X0153566Y0249622D01*
X0153615Y0249471D01*
X0153660Y0249319D01*
X0153701Y0249166D01*
X0153739Y0249013D01*
X0153772Y0248858D01*
X0153802Y0248702D01*
X0153828Y0248546D01*
X0153849Y0248389D01*
X0153867Y0248232D01*
X0153881Y0248074D01*
X0153891Y0247916D01*
X0153897Y0247758D01*
X0153899Y0247600D01*
X0153897Y0247442D01*
X0153891Y0247284D01*
X0153881Y0247126D01*
X0153867Y0246968D01*
X0153849Y0246811D01*
X0153828Y0246654D01*
X0153802Y0246498D01*
X0153772Y0246342D01*
X0153739Y0246187D01*
X0153701Y0246034D01*
X0153660Y0245881D01*
X0153615Y0245729D01*
X0153566Y0245578D01*
X0153513Y0245429D01*
X0153457Y0245281D01*
X0153397Y0245135D01*
X0153333Y0244990D01*
X0153265Y0244847D01*
X0153194Y0244705D01*
X0153120Y0244565D01*
X0153042Y0244428D01*
X0152960Y0244292D01*
X0152876Y0244158D01*
X0152787Y0244027D01*
X0152696Y0243898D01*
X0152601Y0243771D01*
X0152504Y0243646D01*
X0152403Y0243524D01*
X0152299Y0243405D01*
X0152192Y0243288D01*
X0152082Y0243174D01*
X0151969Y0243063D01*
X0151854Y0242954D01*
X0151736Y0242849D01*
X0151615Y0242747D01*
X0151492Y0242647D01*
X0151366Y0242551D01*
X0151238Y0242458D01*
X0151108Y0242368D01*
X0150975Y0242282D01*
X0150840Y0242198D01*
X0150704Y0242119D01*
X0150565Y0242042D01*
X0150424Y0241970D01*
X0150282Y0241900D01*
X0150138Y0241835D01*
X0149992Y0241773D01*
X0149845Y0241715D01*
X0149696Y0241660D01*
X0149546Y0241609D01*
X0149395Y0241562D01*
X0149243Y0241519D01*
X0149090Y0241480D01*
X0148935Y0241444D01*
X0148780Y0241413D01*
X0148624Y0241385D01*
X0148468Y0241361D01*
X0148311Y0241341D01*
X0148153Y0241325D01*
X0147996Y0241313D01*
X0147837Y0241305D01*
X0147679Y0241301D01*
X0147521Y0241301D01*
X0147363Y0241305D01*
X0147204Y0241313D01*
X0147047Y0241325D01*
X0146889Y0241341D01*
X0146732Y0241361D01*
X0146576Y0241385D01*
X0146420Y0241413D01*
X0146265Y0241444D01*
X0146110Y0241480D01*
X0145957Y0241519D01*
X0145805Y0241562D01*
X0145654Y0241609D01*
X0145504Y0241660D01*
X0145355Y0241715D01*
X0145208Y0241773D01*
X0145062Y0241835D01*
X0144918Y0241900D01*
X0144776Y0241970D01*
X0144635Y0242042D01*
X0144496Y0242119D01*
X0144360Y0242198D01*
X0144225Y0242282D01*
X0144092Y0242368D01*
X0143962Y0242458D01*
X0143834Y0242551D01*
X0143708Y0242647D01*
X0143585Y0242747D01*
X0143464Y0242849D01*
X0143346Y0242954D01*
X0143231Y0243063D01*
X0143118Y0243174D01*
X0143008Y0243288D01*
X0142901Y0243405D01*
X0142797Y0243524D01*
X0142696Y0243646D01*
X0142599Y0243771D01*
X0142504Y0243898D01*
X0142413Y0244027D01*
X0142324Y0244158D01*
X0142240Y0244292D01*
X0142158Y0244428D01*
X0142080Y0244565D01*
X0142006Y0244705D01*
X0141935Y0244847D01*
X0141867Y0244990D01*
X0141803Y0245135D01*
X0141743Y0245281D01*
X0141687Y0245429D01*
X0141634Y0245578D01*
X0141585Y0245729D01*
X0141540Y0245881D01*
X0141499Y0246034D01*
X0141461Y0246187D01*
X0141428Y0246342D01*
X0141398Y0246498D01*
X0141372Y0246654D01*
X0141351Y0246811D01*
X0141333Y0246968D01*
X0141319Y0247126D01*
X0141309Y0247284D01*
X0141303Y0247442D01*
X0141301Y0247600D01*
X0191301Y0292600D02*
X0191303Y0292758D01*
X0191309Y0292916D01*
X0191319Y0293074D01*
X0191333Y0293232D01*
X0191351Y0293389D01*
X0191372Y0293546D01*
X0191398Y0293702D01*
X0191428Y0293858D01*
X0191461Y0294013D01*
X0191499Y0294166D01*
X0191540Y0294319D01*
X0191585Y0294471D01*
X0191634Y0294622D01*
X0191687Y0294771D01*
X0191743Y0294919D01*
X0191803Y0295065D01*
X0191867Y0295210D01*
X0191935Y0295353D01*
X0192006Y0295495D01*
X0192080Y0295635D01*
X0192158Y0295772D01*
X0192240Y0295908D01*
X0192324Y0296042D01*
X0192413Y0296173D01*
X0192504Y0296302D01*
X0192599Y0296429D01*
X0192696Y0296554D01*
X0192797Y0296676D01*
X0192901Y0296795D01*
X0193008Y0296912D01*
X0193118Y0297026D01*
X0193231Y0297137D01*
X0193346Y0297246D01*
X0193464Y0297351D01*
X0193585Y0297453D01*
X0193708Y0297553D01*
X0193834Y0297649D01*
X0193962Y0297742D01*
X0194092Y0297832D01*
X0194225Y0297918D01*
X0194360Y0298002D01*
X0194496Y0298081D01*
X0194635Y0298158D01*
X0194776Y0298230D01*
X0194918Y0298300D01*
X0195062Y0298365D01*
X0195208Y0298427D01*
X0195355Y0298485D01*
X0195504Y0298540D01*
X0195654Y0298591D01*
X0195805Y0298638D01*
X0195957Y0298681D01*
X0196110Y0298720D01*
X0196265Y0298756D01*
X0196420Y0298787D01*
X0196576Y0298815D01*
X0196732Y0298839D01*
X0196889Y0298859D01*
X0197047Y0298875D01*
X0197204Y0298887D01*
X0197363Y0298895D01*
X0197521Y0298899D01*
X0197679Y0298899D01*
X0197837Y0298895D01*
X0197996Y0298887D01*
X0198153Y0298875D01*
X0198311Y0298859D01*
X0198468Y0298839D01*
X0198624Y0298815D01*
X0198780Y0298787D01*
X0198935Y0298756D01*
X0199090Y0298720D01*
X0199243Y0298681D01*
X0199395Y0298638D01*
X0199546Y0298591D01*
X0199696Y0298540D01*
X0199845Y0298485D01*
X0199992Y0298427D01*
X0200138Y0298365D01*
X0200282Y0298300D01*
X0200424Y0298230D01*
X0200565Y0298158D01*
X0200704Y0298081D01*
X0200840Y0298002D01*
X0200975Y0297918D01*
X0201108Y0297832D01*
X0201238Y0297742D01*
X0201366Y0297649D01*
X0201492Y0297553D01*
X0201615Y0297453D01*
X0201736Y0297351D01*
X0201854Y0297246D01*
X0201969Y0297137D01*
X0202082Y0297026D01*
X0202192Y0296912D01*
X0202299Y0296795D01*
X0202403Y0296676D01*
X0202504Y0296554D01*
X0202601Y0296429D01*
X0202696Y0296302D01*
X0202787Y0296173D01*
X0202876Y0296042D01*
X0202960Y0295908D01*
X0203042Y0295772D01*
X0203120Y0295635D01*
X0203194Y0295495D01*
X0203265Y0295353D01*
X0203333Y0295210D01*
X0203397Y0295065D01*
X0203457Y0294919D01*
X0203513Y0294771D01*
X0203566Y0294622D01*
X0203615Y0294471D01*
X0203660Y0294319D01*
X0203701Y0294166D01*
X0203739Y0294013D01*
X0203772Y0293858D01*
X0203802Y0293702D01*
X0203828Y0293546D01*
X0203849Y0293389D01*
X0203867Y0293232D01*
X0203881Y0293074D01*
X0203891Y0292916D01*
X0203897Y0292758D01*
X0203899Y0292600D01*
X0203897Y0292442D01*
X0203891Y0292284D01*
X0203881Y0292126D01*
X0203867Y0291968D01*
X0203849Y0291811D01*
X0203828Y0291654D01*
X0203802Y0291498D01*
X0203772Y0291342D01*
X0203739Y0291187D01*
X0203701Y0291034D01*
X0203660Y0290881D01*
X0203615Y0290729D01*
X0203566Y0290578D01*
X0203513Y0290429D01*
X0203457Y0290281D01*
X0203397Y0290135D01*
X0203333Y0289990D01*
X0203265Y0289847D01*
X0203194Y0289705D01*
X0203120Y0289565D01*
X0203042Y0289428D01*
X0202960Y0289292D01*
X0202876Y0289158D01*
X0202787Y0289027D01*
X0202696Y0288898D01*
X0202601Y0288771D01*
X0202504Y0288646D01*
X0202403Y0288524D01*
X0202299Y0288405D01*
X0202192Y0288288D01*
X0202082Y0288174D01*
X0201969Y0288063D01*
X0201854Y0287954D01*
X0201736Y0287849D01*
X0201615Y0287747D01*
X0201492Y0287647D01*
X0201366Y0287551D01*
X0201238Y0287458D01*
X0201108Y0287368D01*
X0200975Y0287282D01*
X0200840Y0287198D01*
X0200704Y0287119D01*
X0200565Y0287042D01*
X0200424Y0286970D01*
X0200282Y0286900D01*
X0200138Y0286835D01*
X0199992Y0286773D01*
X0199845Y0286715D01*
X0199696Y0286660D01*
X0199546Y0286609D01*
X0199395Y0286562D01*
X0199243Y0286519D01*
X0199090Y0286480D01*
X0198935Y0286444D01*
X0198780Y0286413D01*
X0198624Y0286385D01*
X0198468Y0286361D01*
X0198311Y0286341D01*
X0198153Y0286325D01*
X0197996Y0286313D01*
X0197837Y0286305D01*
X0197679Y0286301D01*
X0197521Y0286301D01*
X0197363Y0286305D01*
X0197204Y0286313D01*
X0197047Y0286325D01*
X0196889Y0286341D01*
X0196732Y0286361D01*
X0196576Y0286385D01*
X0196420Y0286413D01*
X0196265Y0286444D01*
X0196110Y0286480D01*
X0195957Y0286519D01*
X0195805Y0286562D01*
X0195654Y0286609D01*
X0195504Y0286660D01*
X0195355Y0286715D01*
X0195208Y0286773D01*
X0195062Y0286835D01*
X0194918Y0286900D01*
X0194776Y0286970D01*
X0194635Y0287042D01*
X0194496Y0287119D01*
X0194360Y0287198D01*
X0194225Y0287282D01*
X0194092Y0287368D01*
X0193962Y0287458D01*
X0193834Y0287551D01*
X0193708Y0287647D01*
X0193585Y0287747D01*
X0193464Y0287849D01*
X0193346Y0287954D01*
X0193231Y0288063D01*
X0193118Y0288174D01*
X0193008Y0288288D01*
X0192901Y0288405D01*
X0192797Y0288524D01*
X0192696Y0288646D01*
X0192599Y0288771D01*
X0192504Y0288898D01*
X0192413Y0289027D01*
X0192324Y0289158D01*
X0192240Y0289292D01*
X0192158Y0289428D01*
X0192080Y0289565D01*
X0192006Y0289705D01*
X0191935Y0289847D01*
X0191867Y0289990D01*
X0191803Y0290135D01*
X0191743Y0290281D01*
X0191687Y0290429D01*
X0191634Y0290578D01*
X0191585Y0290729D01*
X0191540Y0290881D01*
X0191499Y0291034D01*
X0191461Y0291187D01*
X0191428Y0291342D01*
X0191398Y0291498D01*
X0191372Y0291654D01*
X0191351Y0291811D01*
X0191333Y0291968D01*
X0191319Y0292126D01*
X0191309Y0292284D01*
X0191303Y0292442D01*
X0191301Y0292600D01*
X0316301Y0247600D02*
X0316303Y0247758D01*
X0316309Y0247916D01*
X0316319Y0248074D01*
X0316333Y0248232D01*
X0316351Y0248389D01*
X0316372Y0248546D01*
X0316398Y0248702D01*
X0316428Y0248858D01*
X0316461Y0249013D01*
X0316499Y0249166D01*
X0316540Y0249319D01*
X0316585Y0249471D01*
X0316634Y0249622D01*
X0316687Y0249771D01*
X0316743Y0249919D01*
X0316803Y0250065D01*
X0316867Y0250210D01*
X0316935Y0250353D01*
X0317006Y0250495D01*
X0317080Y0250635D01*
X0317158Y0250772D01*
X0317240Y0250908D01*
X0317324Y0251042D01*
X0317413Y0251173D01*
X0317504Y0251302D01*
X0317599Y0251429D01*
X0317696Y0251554D01*
X0317797Y0251676D01*
X0317901Y0251795D01*
X0318008Y0251912D01*
X0318118Y0252026D01*
X0318231Y0252137D01*
X0318346Y0252246D01*
X0318464Y0252351D01*
X0318585Y0252453D01*
X0318708Y0252553D01*
X0318834Y0252649D01*
X0318962Y0252742D01*
X0319092Y0252832D01*
X0319225Y0252918D01*
X0319360Y0253002D01*
X0319496Y0253081D01*
X0319635Y0253158D01*
X0319776Y0253230D01*
X0319918Y0253300D01*
X0320062Y0253365D01*
X0320208Y0253427D01*
X0320355Y0253485D01*
X0320504Y0253540D01*
X0320654Y0253591D01*
X0320805Y0253638D01*
X0320957Y0253681D01*
X0321110Y0253720D01*
X0321265Y0253756D01*
X0321420Y0253787D01*
X0321576Y0253815D01*
X0321732Y0253839D01*
X0321889Y0253859D01*
X0322047Y0253875D01*
X0322204Y0253887D01*
X0322363Y0253895D01*
X0322521Y0253899D01*
X0322679Y0253899D01*
X0322837Y0253895D01*
X0322996Y0253887D01*
X0323153Y0253875D01*
X0323311Y0253859D01*
X0323468Y0253839D01*
X0323624Y0253815D01*
X0323780Y0253787D01*
X0323935Y0253756D01*
X0324090Y0253720D01*
X0324243Y0253681D01*
X0324395Y0253638D01*
X0324546Y0253591D01*
X0324696Y0253540D01*
X0324845Y0253485D01*
X0324992Y0253427D01*
X0325138Y0253365D01*
X0325282Y0253300D01*
X0325424Y0253230D01*
X0325565Y0253158D01*
X0325704Y0253081D01*
X0325840Y0253002D01*
X0325975Y0252918D01*
X0326108Y0252832D01*
X0326238Y0252742D01*
X0326366Y0252649D01*
X0326492Y0252553D01*
X0326615Y0252453D01*
X0326736Y0252351D01*
X0326854Y0252246D01*
X0326969Y0252137D01*
X0327082Y0252026D01*
X0327192Y0251912D01*
X0327299Y0251795D01*
X0327403Y0251676D01*
X0327504Y0251554D01*
X0327601Y0251429D01*
X0327696Y0251302D01*
X0327787Y0251173D01*
X0327876Y0251042D01*
X0327960Y0250908D01*
X0328042Y0250772D01*
X0328120Y0250635D01*
X0328194Y0250495D01*
X0328265Y0250353D01*
X0328333Y0250210D01*
X0328397Y0250065D01*
X0328457Y0249919D01*
X0328513Y0249771D01*
X0328566Y0249622D01*
X0328615Y0249471D01*
X0328660Y0249319D01*
X0328701Y0249166D01*
X0328739Y0249013D01*
X0328772Y0248858D01*
X0328802Y0248702D01*
X0328828Y0248546D01*
X0328849Y0248389D01*
X0328867Y0248232D01*
X0328881Y0248074D01*
X0328891Y0247916D01*
X0328897Y0247758D01*
X0328899Y0247600D01*
X0328897Y0247442D01*
X0328891Y0247284D01*
X0328881Y0247126D01*
X0328867Y0246968D01*
X0328849Y0246811D01*
X0328828Y0246654D01*
X0328802Y0246498D01*
X0328772Y0246342D01*
X0328739Y0246187D01*
X0328701Y0246034D01*
X0328660Y0245881D01*
X0328615Y0245729D01*
X0328566Y0245578D01*
X0328513Y0245429D01*
X0328457Y0245281D01*
X0328397Y0245135D01*
X0328333Y0244990D01*
X0328265Y0244847D01*
X0328194Y0244705D01*
X0328120Y0244565D01*
X0328042Y0244428D01*
X0327960Y0244292D01*
X0327876Y0244158D01*
X0327787Y0244027D01*
X0327696Y0243898D01*
X0327601Y0243771D01*
X0327504Y0243646D01*
X0327403Y0243524D01*
X0327299Y0243405D01*
X0327192Y0243288D01*
X0327082Y0243174D01*
X0326969Y0243063D01*
X0326854Y0242954D01*
X0326736Y0242849D01*
X0326615Y0242747D01*
X0326492Y0242647D01*
X0326366Y0242551D01*
X0326238Y0242458D01*
X0326108Y0242368D01*
X0325975Y0242282D01*
X0325840Y0242198D01*
X0325704Y0242119D01*
X0325565Y0242042D01*
X0325424Y0241970D01*
X0325282Y0241900D01*
X0325138Y0241835D01*
X0324992Y0241773D01*
X0324845Y0241715D01*
X0324696Y0241660D01*
X0324546Y0241609D01*
X0324395Y0241562D01*
X0324243Y0241519D01*
X0324090Y0241480D01*
X0323935Y0241444D01*
X0323780Y0241413D01*
X0323624Y0241385D01*
X0323468Y0241361D01*
X0323311Y0241341D01*
X0323153Y0241325D01*
X0322996Y0241313D01*
X0322837Y0241305D01*
X0322679Y0241301D01*
X0322521Y0241301D01*
X0322363Y0241305D01*
X0322204Y0241313D01*
X0322047Y0241325D01*
X0321889Y0241341D01*
X0321732Y0241361D01*
X0321576Y0241385D01*
X0321420Y0241413D01*
X0321265Y0241444D01*
X0321110Y0241480D01*
X0320957Y0241519D01*
X0320805Y0241562D01*
X0320654Y0241609D01*
X0320504Y0241660D01*
X0320355Y0241715D01*
X0320208Y0241773D01*
X0320062Y0241835D01*
X0319918Y0241900D01*
X0319776Y0241970D01*
X0319635Y0242042D01*
X0319496Y0242119D01*
X0319360Y0242198D01*
X0319225Y0242282D01*
X0319092Y0242368D01*
X0318962Y0242458D01*
X0318834Y0242551D01*
X0318708Y0242647D01*
X0318585Y0242747D01*
X0318464Y0242849D01*
X0318346Y0242954D01*
X0318231Y0243063D01*
X0318118Y0243174D01*
X0318008Y0243288D01*
X0317901Y0243405D01*
X0317797Y0243524D01*
X0317696Y0243646D01*
X0317599Y0243771D01*
X0317504Y0243898D01*
X0317413Y0244027D01*
X0317324Y0244158D01*
X0317240Y0244292D01*
X0317158Y0244428D01*
X0317080Y0244565D01*
X0317006Y0244705D01*
X0316935Y0244847D01*
X0316867Y0244990D01*
X0316803Y0245135D01*
X0316743Y0245281D01*
X0316687Y0245429D01*
X0316634Y0245578D01*
X0316585Y0245729D01*
X0316540Y0245881D01*
X0316499Y0246034D01*
X0316461Y0246187D01*
X0316428Y0246342D01*
X0316398Y0246498D01*
X0316372Y0246654D01*
X0316351Y0246811D01*
X0316333Y0246968D01*
X0316319Y0247126D01*
X0316309Y0247284D01*
X0316303Y0247442D01*
X0316301Y0247600D01*
X0316301Y0142600D02*
X0316303Y0142758D01*
X0316309Y0142916D01*
X0316319Y0143074D01*
X0316333Y0143232D01*
X0316351Y0143389D01*
X0316372Y0143546D01*
X0316398Y0143702D01*
X0316428Y0143858D01*
X0316461Y0144013D01*
X0316499Y0144166D01*
X0316540Y0144319D01*
X0316585Y0144471D01*
X0316634Y0144622D01*
X0316687Y0144771D01*
X0316743Y0144919D01*
X0316803Y0145065D01*
X0316867Y0145210D01*
X0316935Y0145353D01*
X0317006Y0145495D01*
X0317080Y0145635D01*
X0317158Y0145772D01*
X0317240Y0145908D01*
X0317324Y0146042D01*
X0317413Y0146173D01*
X0317504Y0146302D01*
X0317599Y0146429D01*
X0317696Y0146554D01*
X0317797Y0146676D01*
X0317901Y0146795D01*
X0318008Y0146912D01*
X0318118Y0147026D01*
X0318231Y0147137D01*
X0318346Y0147246D01*
X0318464Y0147351D01*
X0318585Y0147453D01*
X0318708Y0147553D01*
X0318834Y0147649D01*
X0318962Y0147742D01*
X0319092Y0147832D01*
X0319225Y0147918D01*
X0319360Y0148002D01*
X0319496Y0148081D01*
X0319635Y0148158D01*
X0319776Y0148230D01*
X0319918Y0148300D01*
X0320062Y0148365D01*
X0320208Y0148427D01*
X0320355Y0148485D01*
X0320504Y0148540D01*
X0320654Y0148591D01*
X0320805Y0148638D01*
X0320957Y0148681D01*
X0321110Y0148720D01*
X0321265Y0148756D01*
X0321420Y0148787D01*
X0321576Y0148815D01*
X0321732Y0148839D01*
X0321889Y0148859D01*
X0322047Y0148875D01*
X0322204Y0148887D01*
X0322363Y0148895D01*
X0322521Y0148899D01*
X0322679Y0148899D01*
X0322837Y0148895D01*
X0322996Y0148887D01*
X0323153Y0148875D01*
X0323311Y0148859D01*
X0323468Y0148839D01*
X0323624Y0148815D01*
X0323780Y0148787D01*
X0323935Y0148756D01*
X0324090Y0148720D01*
X0324243Y0148681D01*
X0324395Y0148638D01*
X0324546Y0148591D01*
X0324696Y0148540D01*
X0324845Y0148485D01*
X0324992Y0148427D01*
X0325138Y0148365D01*
X0325282Y0148300D01*
X0325424Y0148230D01*
X0325565Y0148158D01*
X0325704Y0148081D01*
X0325840Y0148002D01*
X0325975Y0147918D01*
X0326108Y0147832D01*
X0326238Y0147742D01*
X0326366Y0147649D01*
X0326492Y0147553D01*
X0326615Y0147453D01*
X0326736Y0147351D01*
X0326854Y0147246D01*
X0326969Y0147137D01*
X0327082Y0147026D01*
X0327192Y0146912D01*
X0327299Y0146795D01*
X0327403Y0146676D01*
X0327504Y0146554D01*
X0327601Y0146429D01*
X0327696Y0146302D01*
X0327787Y0146173D01*
X0327876Y0146042D01*
X0327960Y0145908D01*
X0328042Y0145772D01*
X0328120Y0145635D01*
X0328194Y0145495D01*
X0328265Y0145353D01*
X0328333Y0145210D01*
X0328397Y0145065D01*
X0328457Y0144919D01*
X0328513Y0144771D01*
X0328566Y0144622D01*
X0328615Y0144471D01*
X0328660Y0144319D01*
X0328701Y0144166D01*
X0328739Y0144013D01*
X0328772Y0143858D01*
X0328802Y0143702D01*
X0328828Y0143546D01*
X0328849Y0143389D01*
X0328867Y0143232D01*
X0328881Y0143074D01*
X0328891Y0142916D01*
X0328897Y0142758D01*
X0328899Y0142600D01*
X0328897Y0142442D01*
X0328891Y0142284D01*
X0328881Y0142126D01*
X0328867Y0141968D01*
X0328849Y0141811D01*
X0328828Y0141654D01*
X0328802Y0141498D01*
X0328772Y0141342D01*
X0328739Y0141187D01*
X0328701Y0141034D01*
X0328660Y0140881D01*
X0328615Y0140729D01*
X0328566Y0140578D01*
X0328513Y0140429D01*
X0328457Y0140281D01*
X0328397Y0140135D01*
X0328333Y0139990D01*
X0328265Y0139847D01*
X0328194Y0139705D01*
X0328120Y0139565D01*
X0328042Y0139428D01*
X0327960Y0139292D01*
X0327876Y0139158D01*
X0327787Y0139027D01*
X0327696Y0138898D01*
X0327601Y0138771D01*
X0327504Y0138646D01*
X0327403Y0138524D01*
X0327299Y0138405D01*
X0327192Y0138288D01*
X0327082Y0138174D01*
X0326969Y0138063D01*
X0326854Y0137954D01*
X0326736Y0137849D01*
X0326615Y0137747D01*
X0326492Y0137647D01*
X0326366Y0137551D01*
X0326238Y0137458D01*
X0326108Y0137368D01*
X0325975Y0137282D01*
X0325840Y0137198D01*
X0325704Y0137119D01*
X0325565Y0137042D01*
X0325424Y0136970D01*
X0325282Y0136900D01*
X0325138Y0136835D01*
X0324992Y0136773D01*
X0324845Y0136715D01*
X0324696Y0136660D01*
X0324546Y0136609D01*
X0324395Y0136562D01*
X0324243Y0136519D01*
X0324090Y0136480D01*
X0323935Y0136444D01*
X0323780Y0136413D01*
X0323624Y0136385D01*
X0323468Y0136361D01*
X0323311Y0136341D01*
X0323153Y0136325D01*
X0322996Y0136313D01*
X0322837Y0136305D01*
X0322679Y0136301D01*
X0322521Y0136301D01*
X0322363Y0136305D01*
X0322204Y0136313D01*
X0322047Y0136325D01*
X0321889Y0136341D01*
X0321732Y0136361D01*
X0321576Y0136385D01*
X0321420Y0136413D01*
X0321265Y0136444D01*
X0321110Y0136480D01*
X0320957Y0136519D01*
X0320805Y0136562D01*
X0320654Y0136609D01*
X0320504Y0136660D01*
X0320355Y0136715D01*
X0320208Y0136773D01*
X0320062Y0136835D01*
X0319918Y0136900D01*
X0319776Y0136970D01*
X0319635Y0137042D01*
X0319496Y0137119D01*
X0319360Y0137198D01*
X0319225Y0137282D01*
X0319092Y0137368D01*
X0318962Y0137458D01*
X0318834Y0137551D01*
X0318708Y0137647D01*
X0318585Y0137747D01*
X0318464Y0137849D01*
X0318346Y0137954D01*
X0318231Y0138063D01*
X0318118Y0138174D01*
X0318008Y0138288D01*
X0317901Y0138405D01*
X0317797Y0138524D01*
X0317696Y0138646D01*
X0317599Y0138771D01*
X0317504Y0138898D01*
X0317413Y0139027D01*
X0317324Y0139158D01*
X0317240Y0139292D01*
X0317158Y0139428D01*
X0317080Y0139565D01*
X0317006Y0139705D01*
X0316935Y0139847D01*
X0316867Y0139990D01*
X0316803Y0140135D01*
X0316743Y0140281D01*
X0316687Y0140429D01*
X0316634Y0140578D01*
X0316585Y0140729D01*
X0316540Y0140881D01*
X0316499Y0141034D01*
X0316461Y0141187D01*
X0316428Y0141342D01*
X0316398Y0141498D01*
X0316372Y0141654D01*
X0316351Y0141811D01*
X0316333Y0141968D01*
X0316319Y0142126D01*
X0316309Y0142284D01*
X0316303Y0142442D01*
X0316301Y0142600D01*
X0316301Y0037600D02*
X0316303Y0037758D01*
X0316309Y0037916D01*
X0316319Y0038074D01*
X0316333Y0038232D01*
X0316351Y0038389D01*
X0316372Y0038546D01*
X0316398Y0038702D01*
X0316428Y0038858D01*
X0316461Y0039013D01*
X0316499Y0039166D01*
X0316540Y0039319D01*
X0316585Y0039471D01*
X0316634Y0039622D01*
X0316687Y0039771D01*
X0316743Y0039919D01*
X0316803Y0040065D01*
X0316867Y0040210D01*
X0316935Y0040353D01*
X0317006Y0040495D01*
X0317080Y0040635D01*
X0317158Y0040772D01*
X0317240Y0040908D01*
X0317324Y0041042D01*
X0317413Y0041173D01*
X0317504Y0041302D01*
X0317599Y0041429D01*
X0317696Y0041554D01*
X0317797Y0041676D01*
X0317901Y0041795D01*
X0318008Y0041912D01*
X0318118Y0042026D01*
X0318231Y0042137D01*
X0318346Y0042246D01*
X0318464Y0042351D01*
X0318585Y0042453D01*
X0318708Y0042553D01*
X0318834Y0042649D01*
X0318962Y0042742D01*
X0319092Y0042832D01*
X0319225Y0042918D01*
X0319360Y0043002D01*
X0319496Y0043081D01*
X0319635Y0043158D01*
X0319776Y0043230D01*
X0319918Y0043300D01*
X0320062Y0043365D01*
X0320208Y0043427D01*
X0320355Y0043485D01*
X0320504Y0043540D01*
X0320654Y0043591D01*
X0320805Y0043638D01*
X0320957Y0043681D01*
X0321110Y0043720D01*
X0321265Y0043756D01*
X0321420Y0043787D01*
X0321576Y0043815D01*
X0321732Y0043839D01*
X0321889Y0043859D01*
X0322047Y0043875D01*
X0322204Y0043887D01*
X0322363Y0043895D01*
X0322521Y0043899D01*
X0322679Y0043899D01*
X0322837Y0043895D01*
X0322996Y0043887D01*
X0323153Y0043875D01*
X0323311Y0043859D01*
X0323468Y0043839D01*
X0323624Y0043815D01*
X0323780Y0043787D01*
X0323935Y0043756D01*
X0324090Y0043720D01*
X0324243Y0043681D01*
X0324395Y0043638D01*
X0324546Y0043591D01*
X0324696Y0043540D01*
X0324845Y0043485D01*
X0324992Y0043427D01*
X0325138Y0043365D01*
X0325282Y0043300D01*
X0325424Y0043230D01*
X0325565Y0043158D01*
X0325704Y0043081D01*
X0325840Y0043002D01*
X0325975Y0042918D01*
X0326108Y0042832D01*
X0326238Y0042742D01*
X0326366Y0042649D01*
X0326492Y0042553D01*
X0326615Y0042453D01*
X0326736Y0042351D01*
X0326854Y0042246D01*
X0326969Y0042137D01*
X0327082Y0042026D01*
X0327192Y0041912D01*
X0327299Y0041795D01*
X0327403Y0041676D01*
X0327504Y0041554D01*
X0327601Y0041429D01*
X0327696Y0041302D01*
X0327787Y0041173D01*
X0327876Y0041042D01*
X0327960Y0040908D01*
X0328042Y0040772D01*
X0328120Y0040635D01*
X0328194Y0040495D01*
X0328265Y0040353D01*
X0328333Y0040210D01*
X0328397Y0040065D01*
X0328457Y0039919D01*
X0328513Y0039771D01*
X0328566Y0039622D01*
X0328615Y0039471D01*
X0328660Y0039319D01*
X0328701Y0039166D01*
X0328739Y0039013D01*
X0328772Y0038858D01*
X0328802Y0038702D01*
X0328828Y0038546D01*
X0328849Y0038389D01*
X0328867Y0038232D01*
X0328881Y0038074D01*
X0328891Y0037916D01*
X0328897Y0037758D01*
X0328899Y0037600D01*
X0328897Y0037442D01*
X0328891Y0037284D01*
X0328881Y0037126D01*
X0328867Y0036968D01*
X0328849Y0036811D01*
X0328828Y0036654D01*
X0328802Y0036498D01*
X0328772Y0036342D01*
X0328739Y0036187D01*
X0328701Y0036034D01*
X0328660Y0035881D01*
X0328615Y0035729D01*
X0328566Y0035578D01*
X0328513Y0035429D01*
X0328457Y0035281D01*
X0328397Y0035135D01*
X0328333Y0034990D01*
X0328265Y0034847D01*
X0328194Y0034705D01*
X0328120Y0034565D01*
X0328042Y0034428D01*
X0327960Y0034292D01*
X0327876Y0034158D01*
X0327787Y0034027D01*
X0327696Y0033898D01*
X0327601Y0033771D01*
X0327504Y0033646D01*
X0327403Y0033524D01*
X0327299Y0033405D01*
X0327192Y0033288D01*
X0327082Y0033174D01*
X0326969Y0033063D01*
X0326854Y0032954D01*
X0326736Y0032849D01*
X0326615Y0032747D01*
X0326492Y0032647D01*
X0326366Y0032551D01*
X0326238Y0032458D01*
X0326108Y0032368D01*
X0325975Y0032282D01*
X0325840Y0032198D01*
X0325704Y0032119D01*
X0325565Y0032042D01*
X0325424Y0031970D01*
X0325282Y0031900D01*
X0325138Y0031835D01*
X0324992Y0031773D01*
X0324845Y0031715D01*
X0324696Y0031660D01*
X0324546Y0031609D01*
X0324395Y0031562D01*
X0324243Y0031519D01*
X0324090Y0031480D01*
X0323935Y0031444D01*
X0323780Y0031413D01*
X0323624Y0031385D01*
X0323468Y0031361D01*
X0323311Y0031341D01*
X0323153Y0031325D01*
X0322996Y0031313D01*
X0322837Y0031305D01*
X0322679Y0031301D01*
X0322521Y0031301D01*
X0322363Y0031305D01*
X0322204Y0031313D01*
X0322047Y0031325D01*
X0321889Y0031341D01*
X0321732Y0031361D01*
X0321576Y0031385D01*
X0321420Y0031413D01*
X0321265Y0031444D01*
X0321110Y0031480D01*
X0320957Y0031519D01*
X0320805Y0031562D01*
X0320654Y0031609D01*
X0320504Y0031660D01*
X0320355Y0031715D01*
X0320208Y0031773D01*
X0320062Y0031835D01*
X0319918Y0031900D01*
X0319776Y0031970D01*
X0319635Y0032042D01*
X0319496Y0032119D01*
X0319360Y0032198D01*
X0319225Y0032282D01*
X0319092Y0032368D01*
X0318962Y0032458D01*
X0318834Y0032551D01*
X0318708Y0032647D01*
X0318585Y0032747D01*
X0318464Y0032849D01*
X0318346Y0032954D01*
X0318231Y0033063D01*
X0318118Y0033174D01*
X0318008Y0033288D01*
X0317901Y0033405D01*
X0317797Y0033524D01*
X0317696Y0033646D01*
X0317599Y0033771D01*
X0317504Y0033898D01*
X0317413Y0034027D01*
X0317324Y0034158D01*
X0317240Y0034292D01*
X0317158Y0034428D01*
X0317080Y0034565D01*
X0317006Y0034705D01*
X0316935Y0034847D01*
X0316867Y0034990D01*
X0316803Y0035135D01*
X0316743Y0035281D01*
X0316687Y0035429D01*
X0316634Y0035578D01*
X0316585Y0035729D01*
X0316540Y0035881D01*
X0316499Y0036034D01*
X0316461Y0036187D01*
X0316428Y0036342D01*
X0316398Y0036498D01*
X0316372Y0036654D01*
X0316351Y0036811D01*
X0316333Y0036968D01*
X0316319Y0037126D01*
X0316309Y0037284D01*
X0316303Y0037442D01*
X0316301Y0037600D01*
X0021301Y0187600D02*
X0021303Y0187758D01*
X0021309Y0187916D01*
X0021319Y0188074D01*
X0021333Y0188232D01*
X0021351Y0188389D01*
X0021372Y0188546D01*
X0021398Y0188702D01*
X0021428Y0188858D01*
X0021461Y0189013D01*
X0021499Y0189166D01*
X0021540Y0189319D01*
X0021585Y0189471D01*
X0021634Y0189622D01*
X0021687Y0189771D01*
X0021743Y0189919D01*
X0021803Y0190065D01*
X0021867Y0190210D01*
X0021935Y0190353D01*
X0022006Y0190495D01*
X0022080Y0190635D01*
X0022158Y0190772D01*
X0022240Y0190908D01*
X0022324Y0191042D01*
X0022413Y0191173D01*
X0022504Y0191302D01*
X0022599Y0191429D01*
X0022696Y0191554D01*
X0022797Y0191676D01*
X0022901Y0191795D01*
X0023008Y0191912D01*
X0023118Y0192026D01*
X0023231Y0192137D01*
X0023346Y0192246D01*
X0023464Y0192351D01*
X0023585Y0192453D01*
X0023708Y0192553D01*
X0023834Y0192649D01*
X0023962Y0192742D01*
X0024092Y0192832D01*
X0024225Y0192918D01*
X0024360Y0193002D01*
X0024496Y0193081D01*
X0024635Y0193158D01*
X0024776Y0193230D01*
X0024918Y0193300D01*
X0025062Y0193365D01*
X0025208Y0193427D01*
X0025355Y0193485D01*
X0025504Y0193540D01*
X0025654Y0193591D01*
X0025805Y0193638D01*
X0025957Y0193681D01*
X0026110Y0193720D01*
X0026265Y0193756D01*
X0026420Y0193787D01*
X0026576Y0193815D01*
X0026732Y0193839D01*
X0026889Y0193859D01*
X0027047Y0193875D01*
X0027204Y0193887D01*
X0027363Y0193895D01*
X0027521Y0193899D01*
X0027679Y0193899D01*
X0027837Y0193895D01*
X0027996Y0193887D01*
X0028153Y0193875D01*
X0028311Y0193859D01*
X0028468Y0193839D01*
X0028624Y0193815D01*
X0028780Y0193787D01*
X0028935Y0193756D01*
X0029090Y0193720D01*
X0029243Y0193681D01*
X0029395Y0193638D01*
X0029546Y0193591D01*
X0029696Y0193540D01*
X0029845Y0193485D01*
X0029992Y0193427D01*
X0030138Y0193365D01*
X0030282Y0193300D01*
X0030424Y0193230D01*
X0030565Y0193158D01*
X0030704Y0193081D01*
X0030840Y0193002D01*
X0030975Y0192918D01*
X0031108Y0192832D01*
X0031238Y0192742D01*
X0031366Y0192649D01*
X0031492Y0192553D01*
X0031615Y0192453D01*
X0031736Y0192351D01*
X0031854Y0192246D01*
X0031969Y0192137D01*
X0032082Y0192026D01*
X0032192Y0191912D01*
X0032299Y0191795D01*
X0032403Y0191676D01*
X0032504Y0191554D01*
X0032601Y0191429D01*
X0032696Y0191302D01*
X0032787Y0191173D01*
X0032876Y0191042D01*
X0032960Y0190908D01*
X0033042Y0190772D01*
X0033120Y0190635D01*
X0033194Y0190495D01*
X0033265Y0190353D01*
X0033333Y0190210D01*
X0033397Y0190065D01*
X0033457Y0189919D01*
X0033513Y0189771D01*
X0033566Y0189622D01*
X0033615Y0189471D01*
X0033660Y0189319D01*
X0033701Y0189166D01*
X0033739Y0189013D01*
X0033772Y0188858D01*
X0033802Y0188702D01*
X0033828Y0188546D01*
X0033849Y0188389D01*
X0033867Y0188232D01*
X0033881Y0188074D01*
X0033891Y0187916D01*
X0033897Y0187758D01*
X0033899Y0187600D01*
X0033897Y0187442D01*
X0033891Y0187284D01*
X0033881Y0187126D01*
X0033867Y0186968D01*
X0033849Y0186811D01*
X0033828Y0186654D01*
X0033802Y0186498D01*
X0033772Y0186342D01*
X0033739Y0186187D01*
X0033701Y0186034D01*
X0033660Y0185881D01*
X0033615Y0185729D01*
X0033566Y0185578D01*
X0033513Y0185429D01*
X0033457Y0185281D01*
X0033397Y0185135D01*
X0033333Y0184990D01*
X0033265Y0184847D01*
X0033194Y0184705D01*
X0033120Y0184565D01*
X0033042Y0184428D01*
X0032960Y0184292D01*
X0032876Y0184158D01*
X0032787Y0184027D01*
X0032696Y0183898D01*
X0032601Y0183771D01*
X0032504Y0183646D01*
X0032403Y0183524D01*
X0032299Y0183405D01*
X0032192Y0183288D01*
X0032082Y0183174D01*
X0031969Y0183063D01*
X0031854Y0182954D01*
X0031736Y0182849D01*
X0031615Y0182747D01*
X0031492Y0182647D01*
X0031366Y0182551D01*
X0031238Y0182458D01*
X0031108Y0182368D01*
X0030975Y0182282D01*
X0030840Y0182198D01*
X0030704Y0182119D01*
X0030565Y0182042D01*
X0030424Y0181970D01*
X0030282Y0181900D01*
X0030138Y0181835D01*
X0029992Y0181773D01*
X0029845Y0181715D01*
X0029696Y0181660D01*
X0029546Y0181609D01*
X0029395Y0181562D01*
X0029243Y0181519D01*
X0029090Y0181480D01*
X0028935Y0181444D01*
X0028780Y0181413D01*
X0028624Y0181385D01*
X0028468Y0181361D01*
X0028311Y0181341D01*
X0028153Y0181325D01*
X0027996Y0181313D01*
X0027837Y0181305D01*
X0027679Y0181301D01*
X0027521Y0181301D01*
X0027363Y0181305D01*
X0027204Y0181313D01*
X0027047Y0181325D01*
X0026889Y0181341D01*
X0026732Y0181361D01*
X0026576Y0181385D01*
X0026420Y0181413D01*
X0026265Y0181444D01*
X0026110Y0181480D01*
X0025957Y0181519D01*
X0025805Y0181562D01*
X0025654Y0181609D01*
X0025504Y0181660D01*
X0025355Y0181715D01*
X0025208Y0181773D01*
X0025062Y0181835D01*
X0024918Y0181900D01*
X0024776Y0181970D01*
X0024635Y0182042D01*
X0024496Y0182119D01*
X0024360Y0182198D01*
X0024225Y0182282D01*
X0024092Y0182368D01*
X0023962Y0182458D01*
X0023834Y0182551D01*
X0023708Y0182647D01*
X0023585Y0182747D01*
X0023464Y0182849D01*
X0023346Y0182954D01*
X0023231Y0183063D01*
X0023118Y0183174D01*
X0023008Y0183288D01*
X0022901Y0183405D01*
X0022797Y0183524D01*
X0022696Y0183646D01*
X0022599Y0183771D01*
X0022504Y0183898D01*
X0022413Y0184027D01*
X0022324Y0184158D01*
X0022240Y0184292D01*
X0022158Y0184428D01*
X0022080Y0184565D01*
X0022006Y0184705D01*
X0021935Y0184847D01*
X0021867Y0184990D01*
X0021803Y0185135D01*
X0021743Y0185281D01*
X0021687Y0185429D01*
X0021634Y0185578D01*
X0021585Y0185729D01*
X0021540Y0185881D01*
X0021499Y0186034D01*
X0021461Y0186187D01*
X0021428Y0186342D01*
X0021398Y0186498D01*
X0021372Y0186654D01*
X0021351Y0186811D01*
X0021333Y0186968D01*
X0021319Y0187126D01*
X0021309Y0187284D01*
X0021303Y0187442D01*
X0021301Y0187600D01*
X0021301Y0292600D02*
X0021303Y0292758D01*
X0021309Y0292916D01*
X0021319Y0293074D01*
X0021333Y0293232D01*
X0021351Y0293389D01*
X0021372Y0293546D01*
X0021398Y0293702D01*
X0021428Y0293858D01*
X0021461Y0294013D01*
X0021499Y0294166D01*
X0021540Y0294319D01*
X0021585Y0294471D01*
X0021634Y0294622D01*
X0021687Y0294771D01*
X0021743Y0294919D01*
X0021803Y0295065D01*
X0021867Y0295210D01*
X0021935Y0295353D01*
X0022006Y0295495D01*
X0022080Y0295635D01*
X0022158Y0295772D01*
X0022240Y0295908D01*
X0022324Y0296042D01*
X0022413Y0296173D01*
X0022504Y0296302D01*
X0022599Y0296429D01*
X0022696Y0296554D01*
X0022797Y0296676D01*
X0022901Y0296795D01*
X0023008Y0296912D01*
X0023118Y0297026D01*
X0023231Y0297137D01*
X0023346Y0297246D01*
X0023464Y0297351D01*
X0023585Y0297453D01*
X0023708Y0297553D01*
X0023834Y0297649D01*
X0023962Y0297742D01*
X0024092Y0297832D01*
X0024225Y0297918D01*
X0024360Y0298002D01*
X0024496Y0298081D01*
X0024635Y0298158D01*
X0024776Y0298230D01*
X0024918Y0298300D01*
X0025062Y0298365D01*
X0025208Y0298427D01*
X0025355Y0298485D01*
X0025504Y0298540D01*
X0025654Y0298591D01*
X0025805Y0298638D01*
X0025957Y0298681D01*
X0026110Y0298720D01*
X0026265Y0298756D01*
X0026420Y0298787D01*
X0026576Y0298815D01*
X0026732Y0298839D01*
X0026889Y0298859D01*
X0027047Y0298875D01*
X0027204Y0298887D01*
X0027363Y0298895D01*
X0027521Y0298899D01*
X0027679Y0298899D01*
X0027837Y0298895D01*
X0027996Y0298887D01*
X0028153Y0298875D01*
X0028311Y0298859D01*
X0028468Y0298839D01*
X0028624Y0298815D01*
X0028780Y0298787D01*
X0028935Y0298756D01*
X0029090Y0298720D01*
X0029243Y0298681D01*
X0029395Y0298638D01*
X0029546Y0298591D01*
X0029696Y0298540D01*
X0029845Y0298485D01*
X0029992Y0298427D01*
X0030138Y0298365D01*
X0030282Y0298300D01*
X0030424Y0298230D01*
X0030565Y0298158D01*
X0030704Y0298081D01*
X0030840Y0298002D01*
X0030975Y0297918D01*
X0031108Y0297832D01*
X0031238Y0297742D01*
X0031366Y0297649D01*
X0031492Y0297553D01*
X0031615Y0297453D01*
X0031736Y0297351D01*
X0031854Y0297246D01*
X0031969Y0297137D01*
X0032082Y0297026D01*
X0032192Y0296912D01*
X0032299Y0296795D01*
X0032403Y0296676D01*
X0032504Y0296554D01*
X0032601Y0296429D01*
X0032696Y0296302D01*
X0032787Y0296173D01*
X0032876Y0296042D01*
X0032960Y0295908D01*
X0033042Y0295772D01*
X0033120Y0295635D01*
X0033194Y0295495D01*
X0033265Y0295353D01*
X0033333Y0295210D01*
X0033397Y0295065D01*
X0033457Y0294919D01*
X0033513Y0294771D01*
X0033566Y0294622D01*
X0033615Y0294471D01*
X0033660Y0294319D01*
X0033701Y0294166D01*
X0033739Y0294013D01*
X0033772Y0293858D01*
X0033802Y0293702D01*
X0033828Y0293546D01*
X0033849Y0293389D01*
X0033867Y0293232D01*
X0033881Y0293074D01*
X0033891Y0292916D01*
X0033897Y0292758D01*
X0033899Y0292600D01*
X0033897Y0292442D01*
X0033891Y0292284D01*
X0033881Y0292126D01*
X0033867Y0291968D01*
X0033849Y0291811D01*
X0033828Y0291654D01*
X0033802Y0291498D01*
X0033772Y0291342D01*
X0033739Y0291187D01*
X0033701Y0291034D01*
X0033660Y0290881D01*
X0033615Y0290729D01*
X0033566Y0290578D01*
X0033513Y0290429D01*
X0033457Y0290281D01*
X0033397Y0290135D01*
X0033333Y0289990D01*
X0033265Y0289847D01*
X0033194Y0289705D01*
X0033120Y0289565D01*
X0033042Y0289428D01*
X0032960Y0289292D01*
X0032876Y0289158D01*
X0032787Y0289027D01*
X0032696Y0288898D01*
X0032601Y0288771D01*
X0032504Y0288646D01*
X0032403Y0288524D01*
X0032299Y0288405D01*
X0032192Y0288288D01*
X0032082Y0288174D01*
X0031969Y0288063D01*
X0031854Y0287954D01*
X0031736Y0287849D01*
X0031615Y0287747D01*
X0031492Y0287647D01*
X0031366Y0287551D01*
X0031238Y0287458D01*
X0031108Y0287368D01*
X0030975Y0287282D01*
X0030840Y0287198D01*
X0030704Y0287119D01*
X0030565Y0287042D01*
X0030424Y0286970D01*
X0030282Y0286900D01*
X0030138Y0286835D01*
X0029992Y0286773D01*
X0029845Y0286715D01*
X0029696Y0286660D01*
X0029546Y0286609D01*
X0029395Y0286562D01*
X0029243Y0286519D01*
X0029090Y0286480D01*
X0028935Y0286444D01*
X0028780Y0286413D01*
X0028624Y0286385D01*
X0028468Y0286361D01*
X0028311Y0286341D01*
X0028153Y0286325D01*
X0027996Y0286313D01*
X0027837Y0286305D01*
X0027679Y0286301D01*
X0027521Y0286301D01*
X0027363Y0286305D01*
X0027204Y0286313D01*
X0027047Y0286325D01*
X0026889Y0286341D01*
X0026732Y0286361D01*
X0026576Y0286385D01*
X0026420Y0286413D01*
X0026265Y0286444D01*
X0026110Y0286480D01*
X0025957Y0286519D01*
X0025805Y0286562D01*
X0025654Y0286609D01*
X0025504Y0286660D01*
X0025355Y0286715D01*
X0025208Y0286773D01*
X0025062Y0286835D01*
X0024918Y0286900D01*
X0024776Y0286970D01*
X0024635Y0287042D01*
X0024496Y0287119D01*
X0024360Y0287198D01*
X0024225Y0287282D01*
X0024092Y0287368D01*
X0023962Y0287458D01*
X0023834Y0287551D01*
X0023708Y0287647D01*
X0023585Y0287747D01*
X0023464Y0287849D01*
X0023346Y0287954D01*
X0023231Y0288063D01*
X0023118Y0288174D01*
X0023008Y0288288D01*
X0022901Y0288405D01*
X0022797Y0288524D01*
X0022696Y0288646D01*
X0022599Y0288771D01*
X0022504Y0288898D01*
X0022413Y0289027D01*
X0022324Y0289158D01*
X0022240Y0289292D01*
X0022158Y0289428D01*
X0022080Y0289565D01*
X0022006Y0289705D01*
X0021935Y0289847D01*
X0021867Y0289990D01*
X0021803Y0290135D01*
X0021743Y0290281D01*
X0021687Y0290429D01*
X0021634Y0290578D01*
X0021585Y0290729D01*
X0021540Y0290881D01*
X0021499Y0291034D01*
X0021461Y0291187D01*
X0021428Y0291342D01*
X0021398Y0291498D01*
X0021372Y0291654D01*
X0021351Y0291811D01*
X0021333Y0291968D01*
X0021319Y0292126D01*
X0021309Y0292284D01*
X0021303Y0292442D01*
X0021301Y0292600D01*
D11*
X0047600Y0277600D03*
X0057600Y0277600D03*
X0067600Y0282600D03*
X0062600Y0292600D03*
X0092600Y0292600D03*
X0097600Y0282600D03*
X0112600Y0282600D03*
X0120100Y0287600D03*
X0112600Y0292600D03*
X0122600Y0267600D03*
X0122600Y0257600D03*
X0092600Y0257600D03*
X0092600Y0267600D03*
X0132600Y0222600D03*
X0162600Y0222600D03*
X0120100Y0182600D03*
X0112600Y0177600D03*
X0112600Y0187600D03*
X0097600Y0177600D03*
X0092600Y0187600D03*
X0067600Y0177600D03*
X0062600Y0187600D03*
X0057600Y0172600D03*
X0047600Y0172600D03*
X0092600Y0162600D03*
X0092600Y0152600D03*
X0122600Y0152600D03*
X0122600Y0162600D03*
X0132600Y0117600D03*
X0162600Y0117600D03*
X0120100Y0077600D03*
X0112600Y0072600D03*
X0112600Y0082600D03*
X0097600Y0072600D03*
X0092600Y0082600D03*
X0067600Y0072600D03*
X0062600Y0082600D03*
X0057600Y0067600D03*
X0047600Y0067600D03*
X0092600Y0057600D03*
X0092600Y0047600D03*
X0122600Y0047600D03*
X0122600Y0057600D03*
X0132600Y0012600D03*
X0162600Y0012600D03*
X0217600Y0067600D03*
X0227600Y0067600D03*
X0237600Y0072600D03*
X0232600Y0082600D03*
X0262600Y0082600D03*
X0267600Y0072600D03*
X0282600Y0072600D03*
X0290100Y0077600D03*
X0282600Y0082600D03*
X0292600Y0057600D03*
X0292600Y0047600D03*
X0262600Y0047600D03*
X0262600Y0057600D03*
X0302600Y0012600D03*
X0332600Y0012600D03*
X0337600Y0117600D03*
X0307600Y0117600D03*
X0292600Y0152600D03*
X0292600Y0162600D03*
X0282600Y0177600D03*
X0290100Y0182600D03*
X0282600Y0187600D03*
X0267600Y0177600D03*
X0262600Y0187600D03*
X0237600Y0177600D03*
X0227600Y0172600D03*
X0217600Y0172600D03*
X0232600Y0187600D03*
X0262600Y0162600D03*
X0262600Y0152600D03*
X0307600Y0222600D03*
X0337600Y0222600D03*
X0292600Y0257600D03*
X0292600Y0267600D03*
X0282600Y0282600D03*
X0290100Y0287600D03*
X0282600Y0292600D03*
X0267600Y0282600D03*
X0262600Y0292600D03*
X0237600Y0282600D03*
X0227600Y0277600D03*
X0217600Y0277600D03*
X0232600Y0292600D03*
X0262600Y0267600D03*
X0262600Y0257600D03*
D12*
X0247600Y0222600D03*
X0227600Y0222600D03*
X0157600Y0192600D03*
X0157600Y0172600D03*
X0137600Y0172600D03*
X0077600Y0222600D03*
X0057600Y0222600D03*
X0137600Y0277600D03*
X0157600Y0277600D03*
X0157600Y0297600D03*
X0307600Y0277600D03*
X0327600Y0277600D03*
X0327600Y0297600D03*
X0327600Y0192600D03*
X0327600Y0172600D03*
X0307600Y0172600D03*
X0247600Y0117600D03*
X0227600Y0117600D03*
X0157600Y0087600D03*
X0157600Y0067600D03*
X0137600Y0067600D03*
X0077600Y0117600D03*
X0057600Y0117600D03*
X0057600Y0012600D03*
X0077600Y0012600D03*
X0227600Y0012600D03*
X0247600Y0012600D03*
X0307600Y0067600D03*
X0327600Y0067600D03*
X0327600Y0087600D03*
D13*
X0270200Y0092600D02*
X0265000Y0092600D01*
X0240200Y0092600D02*
X0235000Y0092600D01*
X0237600Y0062800D02*
X0237600Y0057600D01*
X0247600Y0057600D02*
X0247600Y0062800D01*
X0247600Y0027600D02*
X0247600Y0022400D01*
X0237600Y0022400D02*
X0237600Y0027600D01*
X0237600Y0127400D02*
X0237600Y0132600D01*
X0247600Y0132600D02*
X0247600Y0127400D01*
X0247600Y0162600D02*
X0247600Y0167800D01*
X0237600Y0167800D02*
X0237600Y0162600D01*
X0240200Y0197600D02*
X0235000Y0197600D01*
X0265000Y0197600D02*
X0270200Y0197600D01*
X0247600Y0232400D02*
X0247600Y0237600D01*
X0237600Y0237600D02*
X0237600Y0232400D01*
X0237600Y0267600D02*
X0237600Y0272800D01*
X0247600Y0272800D02*
X0247600Y0267600D01*
X0240200Y0302600D02*
X0235000Y0302600D01*
X0265000Y0302600D02*
X0270200Y0302600D01*
X0100200Y0302600D02*
X0095000Y0302600D01*
X0070200Y0302600D02*
X0065000Y0302600D01*
X0067600Y0272800D02*
X0067600Y0267600D01*
X0077600Y0267600D02*
X0077600Y0272800D01*
X0077600Y0237600D02*
X0077600Y0232400D01*
X0067600Y0232400D02*
X0067600Y0237600D01*
X0070200Y0197600D02*
X0065000Y0197600D01*
X0095000Y0197600D02*
X0100200Y0197600D01*
X0077600Y0167800D02*
X0077600Y0162600D01*
X0067600Y0162600D02*
X0067600Y0167800D01*
X0067600Y0132600D02*
X0067600Y0127400D01*
X0077600Y0127400D02*
X0077600Y0132600D01*
X0070200Y0092600D02*
X0065000Y0092600D01*
X0095000Y0092600D02*
X0100200Y0092600D01*
X0077600Y0062800D02*
X0077600Y0057600D01*
X0067600Y0057600D02*
X0067600Y0062800D01*
X0067600Y0027600D02*
X0067600Y0022400D01*
X0077600Y0022400D02*
X0077600Y0027600D01*
D14*
X0137600Y0087600D03*
X0137600Y0192600D03*
X0137600Y0297600D03*
X0307600Y0297600D03*
X0307600Y0192600D03*
X0307600Y0087600D03*
D15*
X0287600Y0119600D02*
X0287600Y0125600D01*
X0277600Y0125600D02*
X0277600Y0119600D01*
X0267600Y0119600D02*
X0267600Y0125600D01*
X0195600Y0127600D02*
X0189600Y0127600D01*
X0189600Y0117600D02*
X0195600Y0117600D01*
X0195600Y0137600D02*
X0189600Y0137600D01*
X0189600Y0147600D02*
X0195600Y0147600D01*
X0195600Y0157600D02*
X0189600Y0157600D01*
X0117600Y0125600D02*
X0117600Y0119600D01*
X0107600Y0119600D02*
X0107600Y0125600D01*
X0097600Y0125600D02*
X0097600Y0119600D01*
X0025600Y0117600D02*
X0019600Y0117600D01*
X0019600Y0127600D02*
X0025600Y0127600D01*
X0025600Y0137600D02*
X0019600Y0137600D01*
X0019600Y0147600D02*
X0025600Y0147600D01*
X0025600Y0157600D02*
X0019600Y0157600D01*
X0019600Y0222600D02*
X0025600Y0222600D01*
X0025600Y0232600D02*
X0019600Y0232600D01*
X0019600Y0242600D02*
X0025600Y0242600D01*
X0025600Y0252600D02*
X0019600Y0252600D01*
X0019600Y0262600D02*
X0025600Y0262600D01*
X0097600Y0230600D02*
X0097600Y0224600D01*
X0107600Y0224600D02*
X0107600Y0230600D01*
X0117600Y0230600D02*
X0117600Y0224600D01*
X0189600Y0222600D02*
X0195600Y0222600D01*
X0195600Y0232600D02*
X0189600Y0232600D01*
X0189600Y0242600D02*
X0195600Y0242600D01*
X0195600Y0252600D02*
X0189600Y0252600D01*
X0189600Y0262600D02*
X0195600Y0262600D01*
X0267600Y0230600D02*
X0267600Y0224600D01*
X0277600Y0224600D02*
X0277600Y0230600D01*
X0287600Y0230600D02*
X0287600Y0224600D01*
X0195600Y0052600D02*
X0189600Y0052600D01*
X0189600Y0042600D02*
X0195600Y0042600D01*
X0195600Y0032600D02*
X0189600Y0032600D01*
X0189600Y0022600D02*
X0195600Y0022600D01*
X0195600Y0012600D02*
X0189600Y0012600D01*
X0117600Y0014600D02*
X0117600Y0020600D01*
X0107600Y0020600D02*
X0107600Y0014600D01*
X0097600Y0014600D02*
X0097600Y0020600D01*
X0025600Y0022600D02*
X0019600Y0022600D01*
X0019600Y0032600D02*
X0025600Y0032600D01*
X0025600Y0042600D02*
X0019600Y0042600D01*
X0019600Y0052600D02*
X0025600Y0052600D01*
X0025600Y0012600D02*
X0019600Y0012600D01*
X0267600Y0014600D02*
X0267600Y0020600D01*
X0277600Y0020600D02*
X0277600Y0014600D01*
X0287600Y0014600D02*
X0287600Y0020600D01*
D16*
X0287600Y0017600D02*
X0304850Y0017600D01*
X0309350Y0013100D01*
X0332600Y0013100D01*
X0332600Y0012600D01*
X0292850Y0047600D02*
X0292600Y0047600D01*
X0292850Y0047600D02*
X0292850Y0057350D01*
X0292600Y0057600D01*
X0290600Y0059600D01*
X0290600Y0077600D01*
X0290100Y0077600D01*
X0262600Y0047600D02*
X0260600Y0047600D01*
X0241100Y0028100D01*
X0238100Y0028100D01*
X0237600Y0027600D01*
X0247600Y0057600D02*
X0247100Y0058100D01*
X0247100Y0060350D01*
X0238100Y0069350D01*
X0238100Y0072350D01*
X0237600Y0072600D01*
X0232600Y0082600D02*
X0227600Y0077600D01*
X0227600Y0067600D01*
X0287600Y0122600D02*
X0297350Y0122600D01*
X0297350Y0182600D01*
X0292100Y0187850D01*
X0283100Y0187850D01*
X0282600Y0187600D01*
X0290100Y0182600D02*
X0290600Y0182600D01*
X0290600Y0164600D01*
X0292600Y0162600D01*
X0292850Y0162350D01*
X0292850Y0152600D01*
X0292600Y0152600D01*
X0262600Y0152600D02*
X0260600Y0152600D01*
X0241100Y0133100D01*
X0238100Y0133100D01*
X0237600Y0132600D01*
X0247600Y0162600D02*
X0247100Y0163100D01*
X0247100Y0168350D01*
X0238100Y0177350D01*
X0237600Y0177600D01*
X0227600Y0182600D02*
X0227600Y0172600D01*
X0217850Y0172850D02*
X0217850Y0179600D01*
X0235850Y0197600D01*
X0237600Y0197600D01*
X0232600Y0187600D02*
X0227600Y0182600D01*
X0217850Y0172850D02*
X0217600Y0172600D01*
X0162600Y0222600D02*
X0162350Y0223100D01*
X0139100Y0223100D01*
X0134600Y0227600D01*
X0127850Y0227600D01*
X0127850Y0286850D01*
X0121850Y0292850D01*
X0112850Y0292850D01*
X0112600Y0292600D01*
X0120100Y0287600D02*
X0120350Y0287600D01*
X0120350Y0269600D01*
X0121850Y0268100D01*
X0122600Y0267600D01*
X0122600Y0257600D01*
X0092600Y0257600D02*
X0090350Y0257600D01*
X0070850Y0238100D01*
X0067850Y0238100D01*
X0067600Y0237600D01*
X0077600Y0267600D02*
X0077600Y0269600D01*
X0067850Y0279350D01*
X0067850Y0282350D01*
X0067600Y0282600D01*
X0058100Y0277850D02*
X0057600Y0277600D01*
X0058100Y0277850D02*
X0058100Y0287600D01*
X0062600Y0292100D01*
X0062600Y0292600D01*
X0065600Y0302600D02*
X0067600Y0302600D01*
X0065600Y0302600D02*
X0047600Y0284600D01*
X0047600Y0277600D01*
X0117600Y0227600D02*
X0127850Y0227600D01*
X0121850Y0187850D02*
X0112850Y0187850D01*
X0112600Y0187600D01*
X0120100Y0182600D02*
X0120350Y0182600D01*
X0120350Y0164600D01*
X0121850Y0163100D01*
X0122600Y0162600D01*
X0122600Y0152600D01*
X0092600Y0152600D02*
X0090350Y0152600D01*
X0070850Y0133100D01*
X0067850Y0133100D01*
X0067600Y0132600D01*
X0077600Y0162600D02*
X0077600Y0167600D01*
X0067600Y0177600D01*
X0058100Y0172850D02*
X0057600Y0172600D01*
X0058100Y0172850D02*
X0058100Y0182600D01*
X0062600Y0187100D01*
X0062600Y0187600D01*
X0065600Y0197600D02*
X0067600Y0197600D01*
X0065600Y0197600D02*
X0047600Y0179600D01*
X0047600Y0172600D01*
X0117600Y0122600D02*
X0127850Y0122600D01*
X0127850Y0181850D01*
X0121850Y0187850D01*
X0127850Y0122600D02*
X0134600Y0122600D01*
X0139100Y0118100D01*
X0162350Y0118100D01*
X0162600Y0117600D01*
X0120350Y0077600D02*
X0120100Y0077600D01*
X0120350Y0077600D02*
X0120350Y0059600D01*
X0121850Y0058100D01*
X0122600Y0057600D01*
X0122600Y0047600D01*
X0092600Y0047600D02*
X0090350Y0047600D01*
X0070850Y0028100D01*
X0067850Y0028100D01*
X0067600Y0027600D01*
X0077600Y0057600D02*
X0077600Y0059600D01*
X0067850Y0069350D01*
X0067850Y0072350D01*
X0067600Y0072600D01*
X0058100Y0067850D02*
X0057600Y0067600D01*
X0058100Y0067850D02*
X0058100Y0077600D01*
X0062600Y0082100D01*
X0062600Y0082600D01*
X0117600Y0017600D02*
X0134600Y0017600D01*
X0139100Y0013100D01*
X0162350Y0013100D01*
X0162600Y0012600D01*
X0297350Y0122600D02*
X0309350Y0122600D01*
X0313850Y0118100D01*
X0337100Y0118100D01*
X0337600Y0117600D01*
X0337600Y0222600D02*
X0337100Y0223100D01*
X0313850Y0223100D01*
X0309350Y0227600D01*
X0297350Y0227600D01*
X0297350Y0287600D01*
X0292100Y0292850D01*
X0283100Y0292850D01*
X0282600Y0292600D01*
X0290100Y0287600D02*
X0290600Y0287600D01*
X0290600Y0269600D01*
X0292600Y0267600D01*
X0292850Y0267350D01*
X0292850Y0257600D01*
X0292600Y0257600D01*
X0262600Y0257600D02*
X0260600Y0257600D01*
X0241100Y0238100D01*
X0238100Y0238100D01*
X0237600Y0237600D01*
X0247600Y0267600D02*
X0247100Y0268100D01*
X0247100Y0270350D01*
X0238100Y0279350D01*
X0238100Y0282350D01*
X0237600Y0282600D01*
X0227600Y0287600D02*
X0227600Y0277600D01*
X0217850Y0277850D02*
X0217600Y0277600D01*
X0217850Y0277850D02*
X0217850Y0284600D01*
X0235850Y0302600D01*
X0237600Y0302600D01*
X0232600Y0292600D02*
X0227600Y0287600D01*
X0287600Y0227600D02*
X0297350Y0227600D01*
D17*
X0268100Y0197600D02*
X0267600Y0197600D01*
X0268100Y0197600D02*
X0268850Y0196850D01*
X0268850Y0186350D01*
X0268100Y0185600D01*
X0268100Y0178100D01*
X0267600Y0177600D01*
X0262100Y0179600D02*
X0253850Y0171350D01*
X0253850Y0157100D01*
X0227600Y0130850D01*
X0227600Y0117600D01*
X0226100Y0118100D01*
X0193100Y0118100D01*
X0192600Y0117600D01*
X0192600Y0127600D02*
X0193100Y0127850D01*
X0193100Y0137600D01*
X0192600Y0137600D01*
X0193100Y0139100D01*
X0193100Y0145850D01*
X0192600Y0147600D01*
X0192350Y0148100D01*
X0192350Y0155600D01*
X0192600Y0157600D01*
X0193100Y0157850D01*
X0197600Y0162350D01*
X0237350Y0162350D01*
X0237600Y0162600D01*
X0262100Y0179600D02*
X0262100Y0187100D01*
X0262600Y0187600D01*
X0307600Y0192600D02*
X0327600Y0172600D01*
X0277100Y0098600D02*
X0232850Y0098600D01*
X0215600Y0081350D01*
X0215600Y0073850D01*
X0211850Y0070100D01*
X0211850Y0057350D01*
X0237350Y0057350D01*
X0237600Y0057600D01*
X0253850Y0052100D02*
X0227600Y0025850D01*
X0227600Y0012600D01*
X0226100Y0013100D01*
X0193100Y0013100D01*
X0192600Y0012600D01*
X0192600Y0022600D02*
X0193100Y0022850D01*
X0193100Y0032600D01*
X0192600Y0032600D01*
X0193100Y0034100D01*
X0193100Y0040850D01*
X0192600Y0042600D01*
X0192350Y0043100D01*
X0192350Y0050600D01*
X0192600Y0052600D01*
X0193100Y0052850D01*
X0197600Y0057350D01*
X0211850Y0057350D01*
X0253850Y0052100D02*
X0253850Y0066350D01*
X0262100Y0074600D01*
X0262100Y0082100D01*
X0262600Y0082600D01*
X0268100Y0080600D02*
X0268850Y0081350D01*
X0268850Y0091850D01*
X0268100Y0092600D01*
X0267600Y0092600D01*
X0277100Y0098600D02*
X0295850Y0079850D01*
X0295850Y0079100D01*
X0307100Y0067850D01*
X0307600Y0067600D01*
X0307600Y0087600D02*
X0327600Y0067600D01*
X0268100Y0073100D02*
X0267600Y0072600D01*
X0268100Y0073100D02*
X0268100Y0080600D01*
X0157600Y0067600D02*
X0157100Y0067850D01*
X0137600Y0087350D01*
X0137600Y0087600D01*
X0125600Y0080600D02*
X0125600Y0079850D01*
X0137600Y0067850D01*
X0137600Y0067600D01*
X0125600Y0080600D02*
X0107600Y0098600D01*
X0062600Y0098600D01*
X0046100Y0082100D01*
X0046100Y0074600D01*
X0041600Y0070100D01*
X0041600Y0057350D01*
X0067100Y0057350D01*
X0067600Y0057600D01*
X0083600Y0052100D02*
X0058100Y0026600D01*
X0058100Y0013100D01*
X0057600Y0012600D01*
X0055850Y0013100D01*
X0022850Y0013100D01*
X0022600Y0012600D01*
X0022600Y0022600D02*
X0022850Y0022850D01*
X0022850Y0032600D01*
X0022600Y0032600D01*
X0022850Y0034100D01*
X0022850Y0040850D01*
X0022600Y0042600D01*
X0022850Y0043100D01*
X0022850Y0051350D01*
X0022600Y0052600D01*
X0027350Y0057350D01*
X0041600Y0057350D01*
X0083600Y0052100D02*
X0083600Y0067100D01*
X0092600Y0076100D01*
X0092600Y0082600D01*
X0097850Y0079850D02*
X0098600Y0080600D01*
X0098600Y0091850D01*
X0097850Y0092600D01*
X0097600Y0092600D01*
X0097850Y0079850D02*
X0097850Y0073100D01*
X0097600Y0072600D01*
X0057600Y0117600D02*
X0055850Y0118100D01*
X0022850Y0118100D01*
X0022600Y0117600D01*
X0022600Y0127600D02*
X0022850Y0127850D01*
X0022850Y0137600D01*
X0022600Y0137600D01*
X0022850Y0139100D01*
X0022850Y0145850D01*
X0022600Y0147600D01*
X0022850Y0148100D01*
X0022850Y0156350D01*
X0022600Y0157600D01*
X0027350Y0162350D01*
X0067100Y0162350D01*
X0067600Y0162600D01*
X0083600Y0157100D02*
X0058100Y0131600D01*
X0058100Y0118100D01*
X0057600Y0117600D01*
X0083600Y0157100D02*
X0083600Y0172100D01*
X0092600Y0181100D01*
X0092600Y0187600D01*
X0097850Y0184850D02*
X0098600Y0185600D01*
X0098600Y0196850D01*
X0097850Y0197600D01*
X0097600Y0197600D01*
X0097850Y0184850D02*
X0097850Y0178100D01*
X0097600Y0177600D01*
X0137600Y0192350D02*
X0137600Y0192600D01*
X0137600Y0192350D02*
X0157100Y0172850D01*
X0157600Y0172600D01*
X0192600Y0222600D02*
X0193100Y0223100D01*
X0226100Y0223100D01*
X0227600Y0222600D01*
X0227600Y0235850D01*
X0253850Y0262100D01*
X0253850Y0276350D01*
X0262100Y0284600D01*
X0262100Y0292100D01*
X0262600Y0292600D01*
X0268100Y0290600D02*
X0268850Y0291350D01*
X0268850Y0301850D01*
X0268100Y0302600D01*
X0267600Y0302600D01*
X0268100Y0290600D02*
X0268100Y0283100D01*
X0267600Y0282600D01*
X0237600Y0267600D02*
X0237350Y0267350D01*
X0197600Y0267350D01*
X0193100Y0262850D01*
X0192600Y0262600D01*
X0192350Y0260600D01*
X0192350Y0253100D01*
X0192600Y0252600D01*
X0193100Y0250850D01*
X0193100Y0244100D01*
X0192600Y0242600D01*
X0193100Y0242600D01*
X0193100Y0232850D01*
X0192600Y0232600D01*
X0157600Y0277600D02*
X0157100Y0277850D01*
X0137600Y0297350D01*
X0137600Y0297600D01*
X0098600Y0301850D02*
X0098600Y0290600D01*
X0097850Y0289850D01*
X0097850Y0283100D01*
X0097600Y0282600D01*
X0092600Y0286100D02*
X0083600Y0277100D01*
X0083600Y0262100D01*
X0058100Y0236600D01*
X0058100Y0223100D01*
X0057600Y0222600D01*
X0055850Y0223100D01*
X0022850Y0223100D01*
X0022600Y0222600D01*
X0022600Y0232600D02*
X0022850Y0232850D01*
X0022850Y0242600D01*
X0022600Y0242600D01*
X0022850Y0244100D01*
X0022850Y0250850D01*
X0022600Y0252600D01*
X0022850Y0253100D01*
X0022850Y0261350D01*
X0022600Y0262600D01*
X0027350Y0267350D01*
X0067100Y0267350D01*
X0067600Y0267600D01*
X0092600Y0286100D02*
X0092600Y0292600D01*
X0098600Y0301850D02*
X0097850Y0302600D01*
X0097600Y0302600D01*
X0307600Y0297600D02*
X0327600Y0277600D01*
D18*
X0282600Y0282600D02*
X0268100Y0268100D01*
X0268100Y0227600D01*
X0267600Y0227600D01*
X0277600Y0227600D02*
X0277850Y0227600D01*
X0277850Y0226100D01*
X0285350Y0218600D01*
X0289850Y0218600D01*
X0293600Y0222350D01*
X0307100Y0222350D01*
X0307600Y0222600D01*
X0282600Y0177600D02*
X0268100Y0163100D01*
X0268100Y0122600D01*
X0267600Y0122600D01*
X0277600Y0122600D02*
X0277850Y0122600D01*
X0277850Y0121100D01*
X0285350Y0113600D01*
X0289850Y0113600D01*
X0293600Y0117350D01*
X0307100Y0117350D01*
X0307600Y0117600D01*
X0282600Y0072600D02*
X0268100Y0058100D01*
X0268100Y0017600D01*
X0267600Y0017600D01*
X0277600Y0017600D02*
X0277850Y0017600D01*
X0277850Y0016100D01*
X0285350Y0008600D01*
X0289850Y0008600D01*
X0293600Y0012350D01*
X0302600Y0012350D01*
X0302600Y0012600D01*
X0262600Y0057600D02*
X0262850Y0058100D01*
X0268100Y0058100D01*
X0262600Y0162600D02*
X0262850Y0163100D01*
X0268100Y0163100D01*
X0262600Y0267600D02*
X0262850Y0268100D01*
X0268100Y0268100D01*
X0132600Y0222600D02*
X0132350Y0222350D01*
X0123350Y0222350D01*
X0119600Y0218600D01*
X0115100Y0218600D01*
X0107600Y0226100D01*
X0107600Y0227600D01*
X0097850Y0227600D02*
X0097600Y0227600D01*
X0097850Y0227600D02*
X0097850Y0268100D01*
X0112100Y0282350D01*
X0112600Y0282600D01*
X0097850Y0268100D02*
X0092600Y0268100D01*
X0092600Y0267600D01*
X0112600Y0177600D02*
X0112100Y0177350D01*
X0097850Y0163100D01*
X0097850Y0122600D01*
X0097600Y0122600D01*
X0107600Y0122600D02*
X0107600Y0121100D01*
X0115100Y0113600D01*
X0119600Y0113600D01*
X0123350Y0117350D01*
X0132350Y0117350D01*
X0132600Y0117600D01*
X0112600Y0072600D02*
X0112100Y0072350D01*
X0097850Y0058100D01*
X0097850Y0017600D01*
X0097600Y0017600D01*
X0107600Y0017600D02*
X0107600Y0016100D01*
X0115100Y0008600D01*
X0119600Y0008600D01*
X0123350Y0012350D01*
X0132350Y0012350D01*
X0132600Y0012600D01*
X0092600Y0057600D02*
X0092600Y0058100D01*
X0097850Y0058100D01*
X0092600Y0162600D02*
X0092600Y0163100D01*
X0097850Y0163100D01*
M02*
