%
M48
M72
T01C0.03200
T02C0.04000
T03C0.12598
%
T01
X67600Y27600
X77600Y27600
X92600Y47600
X92600Y57600
X77600Y57600
X67600Y57600
X57600Y67600
X47600Y67600
X62600Y82600
X67600Y72600
X67600Y92600
X92600Y82600
X97600Y72600
X112600Y72600
X120100Y77600
X112600Y82600
X97600Y92600
X132600Y117600
X162600Y117600
X122600Y152600
X122600Y162600
X112600Y177600
X120100Y182600
X112600Y187600
X97600Y177600
X92600Y187600
X97600Y197600
X67600Y197600
X62600Y187600
X67600Y177600
X57600Y172600
X47600Y172600
X67600Y162600
X77600Y162600
X92600Y162600
X92600Y152600
X77600Y132600
X67600Y132600
X122600Y57600
X122600Y47600
X132600Y12600
X162600Y12600
X217600Y67600
X227600Y67600
X237600Y72600
X232600Y82600
X237600Y92600
X262600Y82600
X267600Y72600
X282600Y72600
X290100Y77600
X282600Y82600
X267600Y92600
X307600Y117600
X337600Y117600
X292600Y152600
X292600Y162600
X282600Y177600
X290100Y182600
X282600Y187600
X267600Y177600
X262600Y187600
X267600Y197600
X237600Y197600
X232600Y187600
X237600Y177600
X227600Y172600
X217600Y172600
X237600Y162600
X247600Y162600
X262600Y162600
X262600Y152600
X247600Y132600
X237600Y132600
X237600Y57600
X247600Y57600
X262600Y57600
X262600Y47600
X247600Y27600
X237600Y27600
X292600Y47600
X292600Y57600
X302600Y12600
X332600Y12600
X337600Y222600
X307600Y222600
X292600Y257600
X292600Y267600
X282600Y282600
X290100Y287600
X282600Y292600
X267600Y282600
X262600Y292600
X267600Y302600
X237600Y302600
X232600Y292600
X237600Y282600
X227600Y277600
X217600Y277600
X237600Y267600
X247600Y267600
X262600Y267600
X262600Y257600
X247600Y237600
X237600Y237600
X162600Y222600
X132600Y222600
X122600Y257600
X122600Y267600
X112600Y282600
X120100Y287600
X112600Y292600
X97600Y282600
X92600Y292600
X97600Y302600
X67600Y302600
X62600Y292600
X67600Y282600
X57600Y277600
X47600Y277600
X67600Y267600
X77600Y267600
X92600Y267600
X92600Y257600
X77600Y237600
X67600Y237600
T02
X22600Y12600
X22600Y22600
X22600Y32600
X22600Y42600
X22600Y52600
X57600Y12600
X77600Y12600
X97600Y17600
X107600Y17600
X117600Y17600
X137600Y67600
X157600Y67600
X157600Y87600
X137600Y87600
X117600Y122600
X107600Y122600
X97600Y122600
X77600Y117600
X57600Y117600
X22600Y117600
X22600Y127600
X22600Y137600
X22600Y147600
X22600Y157600
X22600Y222600
X22600Y232600
X22600Y242600
X22600Y252600
X22600Y262600
X57600Y222600
X77600Y222600
X97600Y227600
X107600Y227600
X117600Y227600
X137600Y192600
X157600Y192600
X157600Y172600
X137600Y172600
X192600Y157600
X192600Y147600
X192600Y137600
X192600Y127600
X192600Y117600
X227600Y117600
X247600Y117600
X267600Y122600
X277600Y122600
X287600Y122600
X307600Y87600
X327600Y87600
X327600Y67600
X307600Y67600
X287600Y17600
X277600Y17600
X267600Y17600
X247600Y12600
X227600Y12600
X192600Y12600
X192600Y22600
X192600Y32600
X192600Y42600
X192600Y52600
X307600Y172600
X327600Y172600
X327600Y192600
X307600Y192600
X287600Y227600
X277600Y227600
X267600Y227600
X247600Y222600
X227600Y222600
X192600Y222600
X192600Y232600
X192600Y242600
X192600Y252600
X192600Y262600
X157600Y277600
X137600Y277600
X137600Y297600
X157600Y297600
X307600Y297600
X327600Y297600
X327600Y277600
X307600Y277600
T03
X322600Y247600
X197600Y292600
X147600Y247600
X197600Y187600
X147600Y142600
X197600Y82600
X147600Y37600
X27600Y82600
X27600Y187600
X27600Y292600
X322600Y142600
X322600Y37600
M30
